%TF.GenerationSoftware,KiCad,Pcbnew,(5.1.6)-1*%
%TF.CreationDate,2021-12-16T16:10:30-05:00*%
%TF.ProjectId,RFID_PROJECT,52464944-5f50-4524-9f4a-4543542e6b69,c*%
%TF.SameCoordinates,Original*%
%TF.FileFunction,Copper,L2,Inr*%
%TF.FilePolarity,Positive*%
%FSLAX46Y46*%
G04 Gerber Fmt 4.6, Leading zero omitted, Abs format (unit mm)*
G04 Created by KiCad (PCBNEW (5.1.6)-1) date 2021-12-16 16:10:30*
%MOMM*%
%LPD*%
G01*
G04 APERTURE LIST*
%TA.AperFunction,ViaPad*%
%ADD10C,0.900000*%
%TD*%
%TA.AperFunction,ViaPad*%
%ADD11C,8.600000*%
%TD*%
%TA.AperFunction,ViaPad*%
%ADD12C,1.000000*%
%TD*%
G04 APERTURE END LIST*
D10*
%TO.N,N/C*%
%TO.C,H8*%
X146280419Y-182219581D03*
X144000000Y-181275000D03*
X141719581Y-182219581D03*
X140775000Y-184500000D03*
X141719581Y-186780419D03*
X144000000Y-187725000D03*
X146280419Y-186780419D03*
X147225000Y-184500000D03*
D11*
X144000000Y-184500000D03*
%TD*%
D10*
%TO.N,N/C*%
%TO.C,H7*%
X108780419Y-182219581D03*
X106500000Y-181275000D03*
X104219581Y-182219581D03*
X103275000Y-184500000D03*
X104219581Y-186780419D03*
X106500000Y-187725000D03*
X108780419Y-186780419D03*
X109725000Y-184500000D03*
D11*
X106500000Y-184500000D03*
%TD*%
D10*
%TO.N,N/C*%
%TO.C,H6*%
X146280419Y-112219581D03*
X144000000Y-111275000D03*
X141719581Y-112219581D03*
X140775000Y-114500000D03*
X141719581Y-116780419D03*
X144000000Y-117725000D03*
X146280419Y-116780419D03*
X147225000Y-114500000D03*
D11*
X144000000Y-114500000D03*
%TD*%
D10*
%TO.N,N/C*%
%TO.C,H5*%
X108780419Y-112219581D03*
X106500000Y-111275000D03*
X104219581Y-112219581D03*
X103275000Y-114500000D03*
X104219581Y-116780419D03*
X106500000Y-117725000D03*
X108780419Y-116780419D03*
X109725000Y-114500000D03*
D11*
X106500000Y-114500000D03*
%TD*%
D10*
%TO.N,N/C*%
%TO.C,H4*%
X124280419Y-93219581D03*
X122000000Y-92275000D03*
X119719581Y-93219581D03*
X118775000Y-95500000D03*
X119719581Y-97780419D03*
X122000000Y-98725000D03*
X124280419Y-97780419D03*
X125225000Y-95500000D03*
D11*
X122000000Y-95500000D03*
%TD*%
D10*
%TO.N,N/C*%
%TO.C,H3*%
X91280419Y-93219581D03*
X89000000Y-92275000D03*
X86719581Y-93219581D03*
X85775000Y-95500000D03*
X86719581Y-97780419D03*
X89000000Y-98725000D03*
X91280419Y-97780419D03*
X92225000Y-95500000D03*
D11*
X89000000Y-95500000D03*
%TD*%
D10*
%TO.N,N/C*%
%TO.C,H2*%
X124280419Y-24719581D03*
X122000000Y-23775000D03*
X119719581Y-24719581D03*
X118775000Y-27000000D03*
X119719581Y-29280419D03*
X122000000Y-30225000D03*
X124280419Y-29280419D03*
X125225000Y-27000000D03*
D11*
X122000000Y-27000000D03*
%TD*%
D10*
%TO.N,N/C*%
%TO.C,H1*%
X91280419Y-24719581D03*
X89000000Y-23775000D03*
X86719581Y-24719581D03*
X85775000Y-27000000D03*
X86719581Y-29280419D03*
X89000000Y-30225000D03*
X91280419Y-29280419D03*
X92225000Y-27000000D03*
D11*
X89000000Y-27000000D03*
%TD*%
D12*
%TO.N,GND*%
X94000000Y-32500000D03*
X117000000Y-32500000D03*
X116000000Y-90500000D03*
X94000000Y-90500000D03*
%TO.N,GND1*%
X110500000Y-119500000D03*
X138500000Y-118500000D03*
X138500000Y-179500000D03*
X110500000Y-179500000D03*
%TD*%
M02*
