%TF.GenerationSoftware,KiCad,Pcbnew,(5.1.6)-1*%
%TF.CreationDate,2021-12-16T16:10:30-05:00*%
%TF.ProjectId,RFID_PROJECT,52464944-5f50-4524-9f4a-4543542e6b69,c*%
%TF.SameCoordinates,Original*%
%TF.FileFunction,Paste,Top*%
%TF.FilePolarity,Positive*%
%FSLAX46Y46*%
G04 Gerber Fmt 4.6, Leading zero omitted, Abs format (unit mm)*
G04 Created by KiCad (PCBNEW (5.1.6)-1) date 2021-12-16 16:10:30*
%MOMM*%
%LPD*%
G01*
G04 APERTURE LIST*
%ADD10R,1.600000X1.550000*%
%ADD11R,1.070000X0.600000*%
%ADD12R,4.200000X1.350000*%
%ADD13R,3.600000X1.270000*%
G04 APERTURE END LIST*
D10*
%TO.C,U2*%
X118650000Y-157120000D03*
X128350000Y-157120000D03*
X118650000Y-154580000D03*
X128350000Y-154580000D03*
X118650000Y-152040000D03*
X128350000Y-152040000D03*
X118650000Y-149500000D03*
X128350000Y-149500000D03*
X118650000Y-146960000D03*
X128350000Y-146960000D03*
X118650000Y-144420000D03*
X128350000Y-144420000D03*
X118650000Y-141880000D03*
X128350000Y-141880000D03*
%TD*%
D11*
%TO.C,U1*%
X109177501Y-60070000D03*
X107127501Y-60080000D03*
X109177501Y-61060000D03*
X107127501Y-61070000D03*
X109177501Y-62050000D03*
X107127501Y-62060000D03*
%TD*%
D12*
%TO.C,J1*%
X85500000Y-58175000D03*
X85500000Y-63825000D03*
D13*
X85300000Y-61000000D03*
%TD*%
%TO.C,J2*%
X132230001Y-33500000D03*
D12*
X132030001Y-30675000D03*
X132030001Y-36325000D03*
%TD*%
%TO.C,J3*%
X132030001Y-63825000D03*
X132030001Y-58175000D03*
D13*
X132230001Y-61000000D03*
%TD*%
%TO.C,J4*%
X132230001Y-89500000D03*
D12*
X132030001Y-86675000D03*
X132030001Y-92325000D03*
%TD*%
%TO.C,J5*%
X103200000Y-123675000D03*
X103200000Y-129325000D03*
D13*
X103000000Y-126500000D03*
%TD*%
D12*
%TO.C,J6*%
X103200000Y-169675000D03*
X103200000Y-175325000D03*
D13*
X103000000Y-172500000D03*
%TD*%
%TO.C,J7*%
X147000000Y-149500000D03*
D12*
X146800000Y-146675000D03*
X146800000Y-152325000D03*
%TD*%
M02*
