M48
; DRILL file {KiCad (5.1.6)-1} date 12/16/21 16:10:51
; FORMAT={3:3/ absolute / metric / suppress leading zeros}
; #@! TF.CreationDate,2021-12-16T16:10:51-05:00
; #@! TF.GenerationSoftware,Kicad,Pcbnew,(5.1.6)-1
FMAT,2
METRIC,TZ
T1C0.600
T2C0.800
T3C4.300
%
G90
G05
T1
X85775Y-95500
X86720Y-93220
X86720Y-97780
X89000Y-92275
X89000Y-98725
X91280Y-93220
X91280Y-97780
X92225Y-95500
X118775Y-27000
X119720Y-24720
X119720Y-29280
X122000Y-23775
X122000Y-30225
X124280Y-24720
X124280Y-29280
X125225Y-27000
X118775Y-95500
X119720Y-93220
X119720Y-97780
X122000Y-92275
X122000Y-98725
X124280Y-93220
X124280Y-97780
X125225Y-95500
X103275Y-114500
X104220Y-112220
X104220Y-116780
X106500Y-111275
X106500Y-117725
X108780Y-112220
X108780Y-116780
X109725Y-114500
X103275Y-184500
X104220Y-182220
X104220Y-186780
X106500Y-181275
X106500Y-187725
X108780Y-182220
X108780Y-186780
X109725Y-184500
X140775Y-114500
X141720Y-112220
X141720Y-116780
X144000Y-111275
X144000Y-117725
X146280Y-112220
X146280Y-116780
X147225Y-114500
X140775Y-184500
X141720Y-182220
X141720Y-186780
X144000Y-181275
X144000Y-187725
X146280Y-182220
X146280Y-186780
X147225Y-184500
X85775Y-27000
X86720Y-24720
X86720Y-29280
X89000Y-23775
X89000Y-30225
X91280Y-24720
X91280Y-29280
X92225Y-27000
T2
X94000Y-32500
X94000Y-90500
X110500Y-119500
X110500Y-179500
X116000Y-90500
X117000Y-32500
X138500Y-118500
X138500Y-179500
T3
X89000Y-95500
X122000Y-27000
X122000Y-95500
X106500Y-114500
X106500Y-184500
X144000Y-114500
X144000Y-184500
X89000Y-27000
T0
M30
