%TF.GenerationSoftware,KiCad,Pcbnew,(5.1.6)-1*%
%TF.CreationDate,2021-12-16T16:10:30-05:00*%
%TF.ProjectId,RFID_PROJECT,52464944-5f50-4524-9f4a-4543542e6b69,c*%
%TF.SameCoordinates,Original*%
%TF.FileFunction,Copper,L4,Bot*%
%TF.FilePolarity,Positive*%
%FSLAX46Y46*%
G04 Gerber Fmt 4.6, Leading zero omitted, Abs format (unit mm)*
G04 Created by KiCad (PCBNEW (5.1.6)-1) date 2021-12-16 16:10:30*
%MOMM*%
%LPD*%
G01*
G04 APERTURE LIST*
%TA.AperFunction,ComponentPad*%
%ADD10C,0.900000*%
%TD*%
%TA.AperFunction,ComponentPad*%
%ADD11C,8.600000*%
%TD*%
%TA.AperFunction,SMDPad,CuDef*%
%ADD12R,4.200000X1.350000*%
%TD*%
%TA.AperFunction,ViaPad*%
%ADD13C,1.000000*%
%TD*%
%TA.AperFunction,Conductor*%
%ADD14C,0.254000*%
%TD*%
G04 APERTURE END LIST*
D10*
%TO.P,H8,1*%
%TO.N,N/C*%
X146280419Y-182219581D03*
X144000000Y-181275000D03*
X141719581Y-182219581D03*
X140775000Y-184500000D03*
X141719581Y-186780419D03*
X144000000Y-187725000D03*
X146280419Y-186780419D03*
X147225000Y-184500000D03*
D11*
X144000000Y-184500000D03*
%TD*%
D10*
%TO.P,H7,1*%
%TO.N,N/C*%
X108780419Y-182219581D03*
X106500000Y-181275000D03*
X104219581Y-182219581D03*
X103275000Y-184500000D03*
X104219581Y-186780419D03*
X106500000Y-187725000D03*
X108780419Y-186780419D03*
X109725000Y-184500000D03*
D11*
X106500000Y-184500000D03*
%TD*%
D10*
%TO.P,H6,1*%
%TO.N,N/C*%
X146280419Y-112219581D03*
X144000000Y-111275000D03*
X141719581Y-112219581D03*
X140775000Y-114500000D03*
X141719581Y-116780419D03*
X144000000Y-117725000D03*
X146280419Y-116780419D03*
X147225000Y-114500000D03*
D11*
X144000000Y-114500000D03*
%TD*%
D10*
%TO.P,H5,1*%
%TO.N,N/C*%
X108780419Y-112219581D03*
X106500000Y-111275000D03*
X104219581Y-112219581D03*
X103275000Y-114500000D03*
X104219581Y-116780419D03*
X106500000Y-117725000D03*
X108780419Y-116780419D03*
X109725000Y-114500000D03*
D11*
X106500000Y-114500000D03*
%TD*%
D10*
%TO.P,H4,1*%
%TO.N,N/C*%
X124280419Y-93219581D03*
X122000000Y-92275000D03*
X119719581Y-93219581D03*
X118775000Y-95500000D03*
X119719581Y-97780419D03*
X122000000Y-98725000D03*
X124280419Y-97780419D03*
X125225000Y-95500000D03*
D11*
X122000000Y-95500000D03*
%TD*%
D10*
%TO.P,H3,1*%
%TO.N,N/C*%
X91280419Y-93219581D03*
X89000000Y-92275000D03*
X86719581Y-93219581D03*
X85775000Y-95500000D03*
X86719581Y-97780419D03*
X89000000Y-98725000D03*
X91280419Y-97780419D03*
X92225000Y-95500000D03*
D11*
X89000000Y-95500000D03*
%TD*%
D10*
%TO.P,H2,1*%
%TO.N,N/C*%
X124280419Y-24719581D03*
X122000000Y-23775000D03*
X119719581Y-24719581D03*
X118775000Y-27000000D03*
X119719581Y-29280419D03*
X122000000Y-30225000D03*
X124280419Y-29280419D03*
X125225000Y-27000000D03*
D11*
X122000000Y-27000000D03*
%TD*%
D10*
%TO.P,H1,1*%
%TO.N,N/C*%
X91280419Y-24719581D03*
X89000000Y-23775000D03*
X86719581Y-24719581D03*
X85775000Y-27000000D03*
X86719581Y-29280419D03*
X89000000Y-30225000D03*
X91280419Y-29280419D03*
X92225000Y-27000000D03*
D11*
X89000000Y-27000000D03*
%TD*%
D12*
%TO.P,J1,2*%
%TO.N,GND*%
X85500000Y-58175000D03*
X85500000Y-63825000D03*
%TD*%
%TO.P,J2,2*%
%TO.N,GND*%
X132030001Y-30675000D03*
X132030001Y-36325000D03*
%TD*%
%TO.P,J3,2*%
%TO.N,GND*%
X132030001Y-63825000D03*
X132030001Y-58175000D03*
%TD*%
%TO.P,J4,2*%
%TO.N,GND*%
X132030001Y-86675000D03*
X132030001Y-92325000D03*
%TD*%
%TO.P,J5,2*%
%TO.N,GND1*%
X103200000Y-123675000D03*
X103200000Y-129325000D03*
%TD*%
%TO.P,J6,2*%
%TO.N,GND1*%
X103200000Y-169675000D03*
X103200000Y-175325000D03*
%TD*%
%TO.P,J7,2*%
%TO.N,GND1*%
X146800000Y-146675000D03*
X146800000Y-152325000D03*
%TD*%
D13*
%TO.N,GND*%
X94000000Y-32500000D03*
X117000000Y-32500000D03*
X116000000Y-90500000D03*
X94000000Y-90500000D03*
%TO.N,GND1*%
X110500000Y-119500000D03*
X138500000Y-118500000D03*
X138500000Y-179500000D03*
X110500000Y-179500000D03*
%TD*%
D14*
%TO.N,GND*%
G36*
X89365717Y-21675088D02*
G01*
X89466353Y-21685000D01*
X128033647Y-21685000D01*
X128134283Y-21675088D01*
X128142993Y-21672446D01*
X128936842Y-21731439D01*
X129853106Y-21938769D01*
X130728657Y-22279252D01*
X131544265Y-22745410D01*
X132282014Y-23327005D01*
X132925689Y-24011251D01*
X133461160Y-24783129D01*
X133876659Y-25625677D01*
X134163054Y-26520376D01*
X134315689Y-27457579D01*
X134332427Y-27840946D01*
X134324912Y-27865718D01*
X134315000Y-27966354D01*
X134315000Y-29392546D01*
X134254483Y-29374188D01*
X134130001Y-29361928D01*
X132315751Y-29365000D01*
X132157001Y-29523750D01*
X132157001Y-30548000D01*
X132177001Y-30548000D01*
X132177001Y-30802000D01*
X132157001Y-30802000D01*
X132157001Y-31826250D01*
X132315751Y-31985000D01*
X134130001Y-31988072D01*
X134254483Y-31975812D01*
X134315000Y-31957454D01*
X134315000Y-35042546D01*
X134254483Y-35024188D01*
X134130001Y-35011928D01*
X132315751Y-35015000D01*
X132157001Y-35173750D01*
X132157001Y-36198000D01*
X132177001Y-36198000D01*
X132177001Y-36452000D01*
X132157001Y-36452000D01*
X132157001Y-37476250D01*
X132315751Y-37635000D01*
X134130001Y-37638072D01*
X134254483Y-37625812D01*
X134315000Y-37607454D01*
X134315000Y-56892546D01*
X134254483Y-56874188D01*
X134130001Y-56861928D01*
X132315751Y-56865000D01*
X132157001Y-57023750D01*
X132157001Y-58048000D01*
X132177001Y-58048000D01*
X132177001Y-58302000D01*
X132157001Y-58302000D01*
X132157001Y-59326250D01*
X132315751Y-59485000D01*
X134130001Y-59488072D01*
X134254483Y-59475812D01*
X134315000Y-59457454D01*
X134315001Y-62542546D01*
X134254483Y-62524188D01*
X134130001Y-62511928D01*
X132315751Y-62515000D01*
X132157001Y-62673750D01*
X132157001Y-63698000D01*
X132177001Y-63698000D01*
X132177001Y-63952000D01*
X132157001Y-63952000D01*
X132157001Y-64976250D01*
X132315751Y-65135000D01*
X134130001Y-65138072D01*
X134254483Y-65125812D01*
X134315001Y-65107454D01*
X134315001Y-85392546D01*
X134254483Y-85374188D01*
X134130001Y-85361928D01*
X132315751Y-85365000D01*
X132157001Y-85523750D01*
X132157001Y-86548000D01*
X132177001Y-86548000D01*
X132177001Y-86802000D01*
X132157001Y-86802000D01*
X132157001Y-87826250D01*
X132315751Y-87985000D01*
X134130001Y-87988072D01*
X134254483Y-87975812D01*
X134315001Y-87957454D01*
X134315001Y-91042546D01*
X134254483Y-91024188D01*
X134130001Y-91011928D01*
X132315751Y-91015000D01*
X132157001Y-91173750D01*
X132157001Y-92198000D01*
X132177001Y-92198000D01*
X132177001Y-92452000D01*
X132157001Y-92452000D01*
X132157001Y-93476250D01*
X132315751Y-93635000D01*
X134130001Y-93638072D01*
X134254483Y-93625812D01*
X134315001Y-93607454D01*
X134315001Y-95533647D01*
X134324913Y-95634283D01*
X134327554Y-95642990D01*
X134268561Y-96436841D01*
X134061231Y-97353106D01*
X133720748Y-98228657D01*
X133254590Y-99044265D01*
X132672995Y-99782014D01*
X131988749Y-100425689D01*
X131216871Y-100961160D01*
X130374323Y-101376659D01*
X129479624Y-101663054D01*
X128542414Y-101815689D01*
X128159055Y-101832427D01*
X128134283Y-101824912D01*
X128033647Y-101815000D01*
X89466353Y-101815000D01*
X89365717Y-101824912D01*
X89357007Y-101827554D01*
X88563159Y-101768561D01*
X87646894Y-101561231D01*
X86771343Y-101220748D01*
X85955735Y-100754590D01*
X85217986Y-100172995D01*
X84574311Y-99488749D01*
X84038840Y-98716871D01*
X83623341Y-97874323D01*
X83336946Y-96979624D01*
X83184311Y-96042414D01*
X83167573Y-95659055D01*
X83175088Y-95634283D01*
X83185000Y-95533647D01*
X83185000Y-95013945D01*
X84065000Y-95013945D01*
X84065000Y-95986055D01*
X84254650Y-96939486D01*
X84626660Y-97837599D01*
X85166735Y-98645879D01*
X85854121Y-99333265D01*
X86662401Y-99873340D01*
X87560514Y-100245350D01*
X88513945Y-100435000D01*
X89486055Y-100435000D01*
X90439486Y-100245350D01*
X91337599Y-99873340D01*
X92145879Y-99333265D01*
X92833265Y-98645879D01*
X93373340Y-97837599D01*
X93745350Y-96939486D01*
X93935000Y-95986055D01*
X93935000Y-95013945D01*
X117065000Y-95013945D01*
X117065000Y-95986055D01*
X117254650Y-96939486D01*
X117626660Y-97837599D01*
X118166735Y-98645879D01*
X118854121Y-99333265D01*
X119662401Y-99873340D01*
X120560514Y-100245350D01*
X121513945Y-100435000D01*
X122486055Y-100435000D01*
X123439486Y-100245350D01*
X124337599Y-99873340D01*
X125145879Y-99333265D01*
X125833265Y-98645879D01*
X126373340Y-97837599D01*
X126745350Y-96939486D01*
X126935000Y-95986055D01*
X126935000Y-95013945D01*
X126745350Y-94060514D01*
X126373340Y-93162401D01*
X126264828Y-93000000D01*
X129291929Y-93000000D01*
X129304189Y-93124482D01*
X129340499Y-93244180D01*
X129399464Y-93354494D01*
X129478816Y-93451185D01*
X129575507Y-93530537D01*
X129685821Y-93589502D01*
X129805519Y-93625812D01*
X129930001Y-93638072D01*
X131744251Y-93635000D01*
X131903001Y-93476250D01*
X131903001Y-92452000D01*
X129453751Y-92452000D01*
X129295001Y-92610750D01*
X129291929Y-93000000D01*
X126264828Y-93000000D01*
X125833265Y-92354121D01*
X125145879Y-91666735D01*
X125120834Y-91650000D01*
X129291929Y-91650000D01*
X129295001Y-92039250D01*
X129453751Y-92198000D01*
X131903001Y-92198000D01*
X131903001Y-91173750D01*
X131744251Y-91015000D01*
X129930001Y-91011928D01*
X129805519Y-91024188D01*
X129685821Y-91060498D01*
X129575507Y-91119463D01*
X129478816Y-91198815D01*
X129399464Y-91295506D01*
X129340499Y-91405820D01*
X129304189Y-91525518D01*
X129291929Y-91650000D01*
X125120834Y-91650000D01*
X124337599Y-91126660D01*
X123439486Y-90754650D01*
X122486055Y-90565000D01*
X121513945Y-90565000D01*
X120560514Y-90754650D01*
X119662401Y-91126660D01*
X118854121Y-91666735D01*
X118166735Y-92354121D01*
X117626660Y-93162401D01*
X117254650Y-94060514D01*
X117065000Y-95013945D01*
X93935000Y-95013945D01*
X93745350Y-94060514D01*
X93373340Y-93162401D01*
X92833265Y-92354121D01*
X92145879Y-91666735D01*
X91337599Y-91126660D01*
X90439486Y-90754650D01*
X89486055Y-90565000D01*
X88513945Y-90565000D01*
X87560514Y-90754650D01*
X86662401Y-91126660D01*
X85854121Y-91666735D01*
X85166735Y-92354121D01*
X84626660Y-93162401D01*
X84254650Y-94060514D01*
X84065000Y-95013945D01*
X83185000Y-95013945D01*
X83185000Y-87350000D01*
X129291929Y-87350000D01*
X129304189Y-87474482D01*
X129340499Y-87594180D01*
X129399464Y-87704494D01*
X129478816Y-87801185D01*
X129575507Y-87880537D01*
X129685821Y-87939502D01*
X129805519Y-87975812D01*
X129930001Y-87988072D01*
X131744251Y-87985000D01*
X131903001Y-87826250D01*
X131903001Y-86802000D01*
X129453751Y-86802000D01*
X129295001Y-86960750D01*
X129291929Y-87350000D01*
X83185000Y-87350000D01*
X83185000Y-86000000D01*
X129291929Y-86000000D01*
X129295001Y-86389250D01*
X129453751Y-86548000D01*
X131903001Y-86548000D01*
X131903001Y-85523750D01*
X131744251Y-85365000D01*
X129930001Y-85361928D01*
X129805519Y-85374188D01*
X129685821Y-85410498D01*
X129575507Y-85469463D01*
X129478816Y-85548815D01*
X129399464Y-85645506D01*
X129340499Y-85755820D01*
X129304189Y-85875518D01*
X129291929Y-86000000D01*
X83185000Y-86000000D01*
X83185000Y-65098354D01*
X83275518Y-65125812D01*
X83400000Y-65138072D01*
X85214250Y-65135000D01*
X85373000Y-64976250D01*
X85373000Y-63952000D01*
X85627000Y-63952000D01*
X85627000Y-64976250D01*
X85785750Y-65135000D01*
X87600000Y-65138072D01*
X87724482Y-65125812D01*
X87844180Y-65089502D01*
X87954494Y-65030537D01*
X88051185Y-64951185D01*
X88130537Y-64854494D01*
X88189502Y-64744180D01*
X88225812Y-64624482D01*
X88238072Y-64500000D01*
X129291929Y-64500000D01*
X129304189Y-64624482D01*
X129340499Y-64744180D01*
X129399464Y-64854494D01*
X129478816Y-64951185D01*
X129575507Y-65030537D01*
X129685821Y-65089502D01*
X129805519Y-65125812D01*
X129930001Y-65138072D01*
X131744251Y-65135000D01*
X131903001Y-64976250D01*
X131903001Y-63952000D01*
X129453751Y-63952000D01*
X129295001Y-64110750D01*
X129291929Y-64500000D01*
X88238072Y-64500000D01*
X88235000Y-64110750D01*
X88076250Y-63952000D01*
X85627000Y-63952000D01*
X85373000Y-63952000D01*
X85353000Y-63952000D01*
X85353000Y-63698000D01*
X85373000Y-63698000D01*
X85373000Y-62673750D01*
X85627000Y-62673750D01*
X85627000Y-63698000D01*
X88076250Y-63698000D01*
X88235000Y-63539250D01*
X88238072Y-63150000D01*
X129291929Y-63150000D01*
X129295001Y-63539250D01*
X129453751Y-63698000D01*
X131903001Y-63698000D01*
X131903001Y-62673750D01*
X131744251Y-62515000D01*
X129930001Y-62511928D01*
X129805519Y-62524188D01*
X129685821Y-62560498D01*
X129575507Y-62619463D01*
X129478816Y-62698815D01*
X129399464Y-62795506D01*
X129340499Y-62905820D01*
X129304189Y-63025518D01*
X129291929Y-63150000D01*
X88238072Y-63150000D01*
X88225812Y-63025518D01*
X88189502Y-62905820D01*
X88130537Y-62795506D01*
X88051185Y-62698815D01*
X87954494Y-62619463D01*
X87844180Y-62560498D01*
X87724482Y-62524188D01*
X87600000Y-62511928D01*
X85785750Y-62515000D01*
X85627000Y-62673750D01*
X85373000Y-62673750D01*
X85214250Y-62515000D01*
X83400000Y-62511928D01*
X83275518Y-62524188D01*
X83185000Y-62551646D01*
X83185000Y-59448354D01*
X83275518Y-59475812D01*
X83400000Y-59488072D01*
X85214250Y-59485000D01*
X85373000Y-59326250D01*
X85373000Y-58302000D01*
X85627000Y-58302000D01*
X85627000Y-59326250D01*
X85785750Y-59485000D01*
X87600000Y-59488072D01*
X87724482Y-59475812D01*
X87844180Y-59439502D01*
X87954494Y-59380537D01*
X88051185Y-59301185D01*
X88130537Y-59204494D01*
X88189502Y-59094180D01*
X88225812Y-58974482D01*
X88238072Y-58850000D01*
X129291929Y-58850000D01*
X129304189Y-58974482D01*
X129340499Y-59094180D01*
X129399464Y-59204494D01*
X129478816Y-59301185D01*
X129575507Y-59380537D01*
X129685821Y-59439502D01*
X129805519Y-59475812D01*
X129930001Y-59488072D01*
X131744251Y-59485000D01*
X131903001Y-59326250D01*
X131903001Y-58302000D01*
X129453751Y-58302000D01*
X129295001Y-58460750D01*
X129291929Y-58850000D01*
X88238072Y-58850000D01*
X88235000Y-58460750D01*
X88076250Y-58302000D01*
X85627000Y-58302000D01*
X85373000Y-58302000D01*
X85353000Y-58302000D01*
X85353000Y-58048000D01*
X85373000Y-58048000D01*
X85373000Y-57023750D01*
X85627000Y-57023750D01*
X85627000Y-58048000D01*
X88076250Y-58048000D01*
X88235000Y-57889250D01*
X88238072Y-57500000D01*
X129291929Y-57500000D01*
X129295001Y-57889250D01*
X129453751Y-58048000D01*
X131903001Y-58048000D01*
X131903001Y-57023750D01*
X131744251Y-56865000D01*
X129930001Y-56861928D01*
X129805519Y-56874188D01*
X129685821Y-56910498D01*
X129575507Y-56969463D01*
X129478816Y-57048815D01*
X129399464Y-57145506D01*
X129340499Y-57255820D01*
X129304189Y-57375518D01*
X129291929Y-57500000D01*
X88238072Y-57500000D01*
X88225812Y-57375518D01*
X88189502Y-57255820D01*
X88130537Y-57145506D01*
X88051185Y-57048815D01*
X87954494Y-56969463D01*
X87844180Y-56910498D01*
X87724482Y-56874188D01*
X87600000Y-56861928D01*
X85785750Y-56865000D01*
X85627000Y-57023750D01*
X85373000Y-57023750D01*
X85214250Y-56865000D01*
X83400000Y-56861928D01*
X83275518Y-56874188D01*
X83185000Y-56901646D01*
X83185000Y-37000000D01*
X129291929Y-37000000D01*
X129304189Y-37124482D01*
X129340499Y-37244180D01*
X129399464Y-37354494D01*
X129478816Y-37451185D01*
X129575507Y-37530537D01*
X129685821Y-37589502D01*
X129805519Y-37625812D01*
X129930001Y-37638072D01*
X131744251Y-37635000D01*
X131903001Y-37476250D01*
X131903001Y-36452000D01*
X129453751Y-36452000D01*
X129295001Y-36610750D01*
X129291929Y-37000000D01*
X83185000Y-37000000D01*
X83185000Y-35650000D01*
X129291929Y-35650000D01*
X129295001Y-36039250D01*
X129453751Y-36198000D01*
X131903001Y-36198000D01*
X131903001Y-35173750D01*
X131744251Y-35015000D01*
X129930001Y-35011928D01*
X129805519Y-35024188D01*
X129685821Y-35060498D01*
X129575507Y-35119463D01*
X129478816Y-35198815D01*
X129399464Y-35295506D01*
X129340499Y-35405820D01*
X129304189Y-35525518D01*
X129291929Y-35650000D01*
X83185000Y-35650000D01*
X83185000Y-27966353D01*
X83175088Y-27865717D01*
X83172446Y-27857007D01*
X83231439Y-27063158D01*
X83355713Y-26513945D01*
X84065000Y-26513945D01*
X84065000Y-27486055D01*
X84254650Y-28439486D01*
X84626660Y-29337599D01*
X85166735Y-30145879D01*
X85854121Y-30833265D01*
X86662401Y-31373340D01*
X87560514Y-31745350D01*
X88513945Y-31935000D01*
X89486055Y-31935000D01*
X90439486Y-31745350D01*
X91337599Y-31373340D01*
X92145879Y-30833265D01*
X92833265Y-30145879D01*
X93373340Y-29337599D01*
X93745350Y-28439486D01*
X93935000Y-27486055D01*
X93935000Y-26513945D01*
X117065000Y-26513945D01*
X117065000Y-27486055D01*
X117254650Y-28439486D01*
X117626660Y-29337599D01*
X118166735Y-30145879D01*
X118854121Y-30833265D01*
X119662401Y-31373340D01*
X120560514Y-31745350D01*
X121513945Y-31935000D01*
X122486055Y-31935000D01*
X123439486Y-31745350D01*
X124337599Y-31373340D01*
X124372529Y-31350000D01*
X129291929Y-31350000D01*
X129304189Y-31474482D01*
X129340499Y-31594180D01*
X129399464Y-31704494D01*
X129478816Y-31801185D01*
X129575507Y-31880537D01*
X129685821Y-31939502D01*
X129805519Y-31975812D01*
X129930001Y-31988072D01*
X131744251Y-31985000D01*
X131903001Y-31826250D01*
X131903001Y-30802000D01*
X129453751Y-30802000D01*
X129295001Y-30960750D01*
X129291929Y-31350000D01*
X124372529Y-31350000D01*
X125145879Y-30833265D01*
X125833265Y-30145879D01*
X125930738Y-30000000D01*
X129291929Y-30000000D01*
X129295001Y-30389250D01*
X129453751Y-30548000D01*
X131903001Y-30548000D01*
X131903001Y-29523750D01*
X131744251Y-29365000D01*
X129930001Y-29361928D01*
X129805519Y-29374188D01*
X129685821Y-29410498D01*
X129575507Y-29469463D01*
X129478816Y-29548815D01*
X129399464Y-29645506D01*
X129340499Y-29755820D01*
X129304189Y-29875518D01*
X129291929Y-30000000D01*
X125930738Y-30000000D01*
X126373340Y-29337599D01*
X126745350Y-28439486D01*
X126935000Y-27486055D01*
X126935000Y-26513945D01*
X126745350Y-25560514D01*
X126373340Y-24662401D01*
X125833265Y-23854121D01*
X125145879Y-23166735D01*
X124337599Y-22626660D01*
X123439486Y-22254650D01*
X122486055Y-22065000D01*
X121513945Y-22065000D01*
X120560514Y-22254650D01*
X119662401Y-22626660D01*
X118854121Y-23166735D01*
X118166735Y-23854121D01*
X117626660Y-24662401D01*
X117254650Y-25560514D01*
X117065000Y-26513945D01*
X93935000Y-26513945D01*
X93745350Y-25560514D01*
X93373340Y-24662401D01*
X92833265Y-23854121D01*
X92145879Y-23166735D01*
X91337599Y-22626660D01*
X90439486Y-22254650D01*
X89486055Y-22065000D01*
X88513945Y-22065000D01*
X87560514Y-22254650D01*
X86662401Y-22626660D01*
X85854121Y-23166735D01*
X85166735Y-23854121D01*
X84626660Y-24662401D01*
X84254650Y-25560514D01*
X84065000Y-26513945D01*
X83355713Y-26513945D01*
X83438769Y-26146894D01*
X83779252Y-25271343D01*
X84245410Y-24455735D01*
X84827005Y-23717986D01*
X85511251Y-23074311D01*
X86283129Y-22538840D01*
X87125677Y-22123341D01*
X88020376Y-21836946D01*
X88957579Y-21684311D01*
X89340945Y-21667573D01*
X89365717Y-21675088D01*
G37*
X89365717Y-21675088D02*
X89466353Y-21685000D01*
X128033647Y-21685000D01*
X128134283Y-21675088D01*
X128142993Y-21672446D01*
X128936842Y-21731439D01*
X129853106Y-21938769D01*
X130728657Y-22279252D01*
X131544265Y-22745410D01*
X132282014Y-23327005D01*
X132925689Y-24011251D01*
X133461160Y-24783129D01*
X133876659Y-25625677D01*
X134163054Y-26520376D01*
X134315689Y-27457579D01*
X134332427Y-27840946D01*
X134324912Y-27865718D01*
X134315000Y-27966354D01*
X134315000Y-29392546D01*
X134254483Y-29374188D01*
X134130001Y-29361928D01*
X132315751Y-29365000D01*
X132157001Y-29523750D01*
X132157001Y-30548000D01*
X132177001Y-30548000D01*
X132177001Y-30802000D01*
X132157001Y-30802000D01*
X132157001Y-31826250D01*
X132315751Y-31985000D01*
X134130001Y-31988072D01*
X134254483Y-31975812D01*
X134315000Y-31957454D01*
X134315000Y-35042546D01*
X134254483Y-35024188D01*
X134130001Y-35011928D01*
X132315751Y-35015000D01*
X132157001Y-35173750D01*
X132157001Y-36198000D01*
X132177001Y-36198000D01*
X132177001Y-36452000D01*
X132157001Y-36452000D01*
X132157001Y-37476250D01*
X132315751Y-37635000D01*
X134130001Y-37638072D01*
X134254483Y-37625812D01*
X134315000Y-37607454D01*
X134315000Y-56892546D01*
X134254483Y-56874188D01*
X134130001Y-56861928D01*
X132315751Y-56865000D01*
X132157001Y-57023750D01*
X132157001Y-58048000D01*
X132177001Y-58048000D01*
X132177001Y-58302000D01*
X132157001Y-58302000D01*
X132157001Y-59326250D01*
X132315751Y-59485000D01*
X134130001Y-59488072D01*
X134254483Y-59475812D01*
X134315000Y-59457454D01*
X134315001Y-62542546D01*
X134254483Y-62524188D01*
X134130001Y-62511928D01*
X132315751Y-62515000D01*
X132157001Y-62673750D01*
X132157001Y-63698000D01*
X132177001Y-63698000D01*
X132177001Y-63952000D01*
X132157001Y-63952000D01*
X132157001Y-64976250D01*
X132315751Y-65135000D01*
X134130001Y-65138072D01*
X134254483Y-65125812D01*
X134315001Y-65107454D01*
X134315001Y-85392546D01*
X134254483Y-85374188D01*
X134130001Y-85361928D01*
X132315751Y-85365000D01*
X132157001Y-85523750D01*
X132157001Y-86548000D01*
X132177001Y-86548000D01*
X132177001Y-86802000D01*
X132157001Y-86802000D01*
X132157001Y-87826250D01*
X132315751Y-87985000D01*
X134130001Y-87988072D01*
X134254483Y-87975812D01*
X134315001Y-87957454D01*
X134315001Y-91042546D01*
X134254483Y-91024188D01*
X134130001Y-91011928D01*
X132315751Y-91015000D01*
X132157001Y-91173750D01*
X132157001Y-92198000D01*
X132177001Y-92198000D01*
X132177001Y-92452000D01*
X132157001Y-92452000D01*
X132157001Y-93476250D01*
X132315751Y-93635000D01*
X134130001Y-93638072D01*
X134254483Y-93625812D01*
X134315001Y-93607454D01*
X134315001Y-95533647D01*
X134324913Y-95634283D01*
X134327554Y-95642990D01*
X134268561Y-96436841D01*
X134061231Y-97353106D01*
X133720748Y-98228657D01*
X133254590Y-99044265D01*
X132672995Y-99782014D01*
X131988749Y-100425689D01*
X131216871Y-100961160D01*
X130374323Y-101376659D01*
X129479624Y-101663054D01*
X128542414Y-101815689D01*
X128159055Y-101832427D01*
X128134283Y-101824912D01*
X128033647Y-101815000D01*
X89466353Y-101815000D01*
X89365717Y-101824912D01*
X89357007Y-101827554D01*
X88563159Y-101768561D01*
X87646894Y-101561231D01*
X86771343Y-101220748D01*
X85955735Y-100754590D01*
X85217986Y-100172995D01*
X84574311Y-99488749D01*
X84038840Y-98716871D01*
X83623341Y-97874323D01*
X83336946Y-96979624D01*
X83184311Y-96042414D01*
X83167573Y-95659055D01*
X83175088Y-95634283D01*
X83185000Y-95533647D01*
X83185000Y-95013945D01*
X84065000Y-95013945D01*
X84065000Y-95986055D01*
X84254650Y-96939486D01*
X84626660Y-97837599D01*
X85166735Y-98645879D01*
X85854121Y-99333265D01*
X86662401Y-99873340D01*
X87560514Y-100245350D01*
X88513945Y-100435000D01*
X89486055Y-100435000D01*
X90439486Y-100245350D01*
X91337599Y-99873340D01*
X92145879Y-99333265D01*
X92833265Y-98645879D01*
X93373340Y-97837599D01*
X93745350Y-96939486D01*
X93935000Y-95986055D01*
X93935000Y-95013945D01*
X117065000Y-95013945D01*
X117065000Y-95986055D01*
X117254650Y-96939486D01*
X117626660Y-97837599D01*
X118166735Y-98645879D01*
X118854121Y-99333265D01*
X119662401Y-99873340D01*
X120560514Y-100245350D01*
X121513945Y-100435000D01*
X122486055Y-100435000D01*
X123439486Y-100245350D01*
X124337599Y-99873340D01*
X125145879Y-99333265D01*
X125833265Y-98645879D01*
X126373340Y-97837599D01*
X126745350Y-96939486D01*
X126935000Y-95986055D01*
X126935000Y-95013945D01*
X126745350Y-94060514D01*
X126373340Y-93162401D01*
X126264828Y-93000000D01*
X129291929Y-93000000D01*
X129304189Y-93124482D01*
X129340499Y-93244180D01*
X129399464Y-93354494D01*
X129478816Y-93451185D01*
X129575507Y-93530537D01*
X129685821Y-93589502D01*
X129805519Y-93625812D01*
X129930001Y-93638072D01*
X131744251Y-93635000D01*
X131903001Y-93476250D01*
X131903001Y-92452000D01*
X129453751Y-92452000D01*
X129295001Y-92610750D01*
X129291929Y-93000000D01*
X126264828Y-93000000D01*
X125833265Y-92354121D01*
X125145879Y-91666735D01*
X125120834Y-91650000D01*
X129291929Y-91650000D01*
X129295001Y-92039250D01*
X129453751Y-92198000D01*
X131903001Y-92198000D01*
X131903001Y-91173750D01*
X131744251Y-91015000D01*
X129930001Y-91011928D01*
X129805519Y-91024188D01*
X129685821Y-91060498D01*
X129575507Y-91119463D01*
X129478816Y-91198815D01*
X129399464Y-91295506D01*
X129340499Y-91405820D01*
X129304189Y-91525518D01*
X129291929Y-91650000D01*
X125120834Y-91650000D01*
X124337599Y-91126660D01*
X123439486Y-90754650D01*
X122486055Y-90565000D01*
X121513945Y-90565000D01*
X120560514Y-90754650D01*
X119662401Y-91126660D01*
X118854121Y-91666735D01*
X118166735Y-92354121D01*
X117626660Y-93162401D01*
X117254650Y-94060514D01*
X117065000Y-95013945D01*
X93935000Y-95013945D01*
X93745350Y-94060514D01*
X93373340Y-93162401D01*
X92833265Y-92354121D01*
X92145879Y-91666735D01*
X91337599Y-91126660D01*
X90439486Y-90754650D01*
X89486055Y-90565000D01*
X88513945Y-90565000D01*
X87560514Y-90754650D01*
X86662401Y-91126660D01*
X85854121Y-91666735D01*
X85166735Y-92354121D01*
X84626660Y-93162401D01*
X84254650Y-94060514D01*
X84065000Y-95013945D01*
X83185000Y-95013945D01*
X83185000Y-87350000D01*
X129291929Y-87350000D01*
X129304189Y-87474482D01*
X129340499Y-87594180D01*
X129399464Y-87704494D01*
X129478816Y-87801185D01*
X129575507Y-87880537D01*
X129685821Y-87939502D01*
X129805519Y-87975812D01*
X129930001Y-87988072D01*
X131744251Y-87985000D01*
X131903001Y-87826250D01*
X131903001Y-86802000D01*
X129453751Y-86802000D01*
X129295001Y-86960750D01*
X129291929Y-87350000D01*
X83185000Y-87350000D01*
X83185000Y-86000000D01*
X129291929Y-86000000D01*
X129295001Y-86389250D01*
X129453751Y-86548000D01*
X131903001Y-86548000D01*
X131903001Y-85523750D01*
X131744251Y-85365000D01*
X129930001Y-85361928D01*
X129805519Y-85374188D01*
X129685821Y-85410498D01*
X129575507Y-85469463D01*
X129478816Y-85548815D01*
X129399464Y-85645506D01*
X129340499Y-85755820D01*
X129304189Y-85875518D01*
X129291929Y-86000000D01*
X83185000Y-86000000D01*
X83185000Y-65098354D01*
X83275518Y-65125812D01*
X83400000Y-65138072D01*
X85214250Y-65135000D01*
X85373000Y-64976250D01*
X85373000Y-63952000D01*
X85627000Y-63952000D01*
X85627000Y-64976250D01*
X85785750Y-65135000D01*
X87600000Y-65138072D01*
X87724482Y-65125812D01*
X87844180Y-65089502D01*
X87954494Y-65030537D01*
X88051185Y-64951185D01*
X88130537Y-64854494D01*
X88189502Y-64744180D01*
X88225812Y-64624482D01*
X88238072Y-64500000D01*
X129291929Y-64500000D01*
X129304189Y-64624482D01*
X129340499Y-64744180D01*
X129399464Y-64854494D01*
X129478816Y-64951185D01*
X129575507Y-65030537D01*
X129685821Y-65089502D01*
X129805519Y-65125812D01*
X129930001Y-65138072D01*
X131744251Y-65135000D01*
X131903001Y-64976250D01*
X131903001Y-63952000D01*
X129453751Y-63952000D01*
X129295001Y-64110750D01*
X129291929Y-64500000D01*
X88238072Y-64500000D01*
X88235000Y-64110750D01*
X88076250Y-63952000D01*
X85627000Y-63952000D01*
X85373000Y-63952000D01*
X85353000Y-63952000D01*
X85353000Y-63698000D01*
X85373000Y-63698000D01*
X85373000Y-62673750D01*
X85627000Y-62673750D01*
X85627000Y-63698000D01*
X88076250Y-63698000D01*
X88235000Y-63539250D01*
X88238072Y-63150000D01*
X129291929Y-63150000D01*
X129295001Y-63539250D01*
X129453751Y-63698000D01*
X131903001Y-63698000D01*
X131903001Y-62673750D01*
X131744251Y-62515000D01*
X129930001Y-62511928D01*
X129805519Y-62524188D01*
X129685821Y-62560498D01*
X129575507Y-62619463D01*
X129478816Y-62698815D01*
X129399464Y-62795506D01*
X129340499Y-62905820D01*
X129304189Y-63025518D01*
X129291929Y-63150000D01*
X88238072Y-63150000D01*
X88225812Y-63025518D01*
X88189502Y-62905820D01*
X88130537Y-62795506D01*
X88051185Y-62698815D01*
X87954494Y-62619463D01*
X87844180Y-62560498D01*
X87724482Y-62524188D01*
X87600000Y-62511928D01*
X85785750Y-62515000D01*
X85627000Y-62673750D01*
X85373000Y-62673750D01*
X85214250Y-62515000D01*
X83400000Y-62511928D01*
X83275518Y-62524188D01*
X83185000Y-62551646D01*
X83185000Y-59448354D01*
X83275518Y-59475812D01*
X83400000Y-59488072D01*
X85214250Y-59485000D01*
X85373000Y-59326250D01*
X85373000Y-58302000D01*
X85627000Y-58302000D01*
X85627000Y-59326250D01*
X85785750Y-59485000D01*
X87600000Y-59488072D01*
X87724482Y-59475812D01*
X87844180Y-59439502D01*
X87954494Y-59380537D01*
X88051185Y-59301185D01*
X88130537Y-59204494D01*
X88189502Y-59094180D01*
X88225812Y-58974482D01*
X88238072Y-58850000D01*
X129291929Y-58850000D01*
X129304189Y-58974482D01*
X129340499Y-59094180D01*
X129399464Y-59204494D01*
X129478816Y-59301185D01*
X129575507Y-59380537D01*
X129685821Y-59439502D01*
X129805519Y-59475812D01*
X129930001Y-59488072D01*
X131744251Y-59485000D01*
X131903001Y-59326250D01*
X131903001Y-58302000D01*
X129453751Y-58302000D01*
X129295001Y-58460750D01*
X129291929Y-58850000D01*
X88238072Y-58850000D01*
X88235000Y-58460750D01*
X88076250Y-58302000D01*
X85627000Y-58302000D01*
X85373000Y-58302000D01*
X85353000Y-58302000D01*
X85353000Y-58048000D01*
X85373000Y-58048000D01*
X85373000Y-57023750D01*
X85627000Y-57023750D01*
X85627000Y-58048000D01*
X88076250Y-58048000D01*
X88235000Y-57889250D01*
X88238072Y-57500000D01*
X129291929Y-57500000D01*
X129295001Y-57889250D01*
X129453751Y-58048000D01*
X131903001Y-58048000D01*
X131903001Y-57023750D01*
X131744251Y-56865000D01*
X129930001Y-56861928D01*
X129805519Y-56874188D01*
X129685821Y-56910498D01*
X129575507Y-56969463D01*
X129478816Y-57048815D01*
X129399464Y-57145506D01*
X129340499Y-57255820D01*
X129304189Y-57375518D01*
X129291929Y-57500000D01*
X88238072Y-57500000D01*
X88225812Y-57375518D01*
X88189502Y-57255820D01*
X88130537Y-57145506D01*
X88051185Y-57048815D01*
X87954494Y-56969463D01*
X87844180Y-56910498D01*
X87724482Y-56874188D01*
X87600000Y-56861928D01*
X85785750Y-56865000D01*
X85627000Y-57023750D01*
X85373000Y-57023750D01*
X85214250Y-56865000D01*
X83400000Y-56861928D01*
X83275518Y-56874188D01*
X83185000Y-56901646D01*
X83185000Y-37000000D01*
X129291929Y-37000000D01*
X129304189Y-37124482D01*
X129340499Y-37244180D01*
X129399464Y-37354494D01*
X129478816Y-37451185D01*
X129575507Y-37530537D01*
X129685821Y-37589502D01*
X129805519Y-37625812D01*
X129930001Y-37638072D01*
X131744251Y-37635000D01*
X131903001Y-37476250D01*
X131903001Y-36452000D01*
X129453751Y-36452000D01*
X129295001Y-36610750D01*
X129291929Y-37000000D01*
X83185000Y-37000000D01*
X83185000Y-35650000D01*
X129291929Y-35650000D01*
X129295001Y-36039250D01*
X129453751Y-36198000D01*
X131903001Y-36198000D01*
X131903001Y-35173750D01*
X131744251Y-35015000D01*
X129930001Y-35011928D01*
X129805519Y-35024188D01*
X129685821Y-35060498D01*
X129575507Y-35119463D01*
X129478816Y-35198815D01*
X129399464Y-35295506D01*
X129340499Y-35405820D01*
X129304189Y-35525518D01*
X129291929Y-35650000D01*
X83185000Y-35650000D01*
X83185000Y-27966353D01*
X83175088Y-27865717D01*
X83172446Y-27857007D01*
X83231439Y-27063158D01*
X83355713Y-26513945D01*
X84065000Y-26513945D01*
X84065000Y-27486055D01*
X84254650Y-28439486D01*
X84626660Y-29337599D01*
X85166735Y-30145879D01*
X85854121Y-30833265D01*
X86662401Y-31373340D01*
X87560514Y-31745350D01*
X88513945Y-31935000D01*
X89486055Y-31935000D01*
X90439486Y-31745350D01*
X91337599Y-31373340D01*
X92145879Y-30833265D01*
X92833265Y-30145879D01*
X93373340Y-29337599D01*
X93745350Y-28439486D01*
X93935000Y-27486055D01*
X93935000Y-26513945D01*
X117065000Y-26513945D01*
X117065000Y-27486055D01*
X117254650Y-28439486D01*
X117626660Y-29337599D01*
X118166735Y-30145879D01*
X118854121Y-30833265D01*
X119662401Y-31373340D01*
X120560514Y-31745350D01*
X121513945Y-31935000D01*
X122486055Y-31935000D01*
X123439486Y-31745350D01*
X124337599Y-31373340D01*
X124372529Y-31350000D01*
X129291929Y-31350000D01*
X129304189Y-31474482D01*
X129340499Y-31594180D01*
X129399464Y-31704494D01*
X129478816Y-31801185D01*
X129575507Y-31880537D01*
X129685821Y-31939502D01*
X129805519Y-31975812D01*
X129930001Y-31988072D01*
X131744251Y-31985000D01*
X131903001Y-31826250D01*
X131903001Y-30802000D01*
X129453751Y-30802000D01*
X129295001Y-30960750D01*
X129291929Y-31350000D01*
X124372529Y-31350000D01*
X125145879Y-30833265D01*
X125833265Y-30145879D01*
X125930738Y-30000000D01*
X129291929Y-30000000D01*
X129295001Y-30389250D01*
X129453751Y-30548000D01*
X131903001Y-30548000D01*
X131903001Y-29523750D01*
X131744251Y-29365000D01*
X129930001Y-29361928D01*
X129805519Y-29374188D01*
X129685821Y-29410498D01*
X129575507Y-29469463D01*
X129478816Y-29548815D01*
X129399464Y-29645506D01*
X129340499Y-29755820D01*
X129304189Y-29875518D01*
X129291929Y-30000000D01*
X125930738Y-30000000D01*
X126373340Y-29337599D01*
X126745350Y-28439486D01*
X126935000Y-27486055D01*
X126935000Y-26513945D01*
X126745350Y-25560514D01*
X126373340Y-24662401D01*
X125833265Y-23854121D01*
X125145879Y-23166735D01*
X124337599Y-22626660D01*
X123439486Y-22254650D01*
X122486055Y-22065000D01*
X121513945Y-22065000D01*
X120560514Y-22254650D01*
X119662401Y-22626660D01*
X118854121Y-23166735D01*
X118166735Y-23854121D01*
X117626660Y-24662401D01*
X117254650Y-25560514D01*
X117065000Y-26513945D01*
X93935000Y-26513945D01*
X93745350Y-25560514D01*
X93373340Y-24662401D01*
X92833265Y-23854121D01*
X92145879Y-23166735D01*
X91337599Y-22626660D01*
X90439486Y-22254650D01*
X89486055Y-22065000D01*
X88513945Y-22065000D01*
X87560514Y-22254650D01*
X86662401Y-22626660D01*
X85854121Y-23166735D01*
X85166735Y-23854121D01*
X84626660Y-24662401D01*
X84254650Y-25560514D01*
X84065000Y-26513945D01*
X83355713Y-26513945D01*
X83438769Y-26146894D01*
X83779252Y-25271343D01*
X84245410Y-24455735D01*
X84827005Y-23717986D01*
X85511251Y-23074311D01*
X86283129Y-22538840D01*
X87125677Y-22123341D01*
X88020376Y-21836946D01*
X88957579Y-21684311D01*
X89340945Y-21667573D01*
X89365717Y-21675088D01*
%TO.N,GND1*%
G36*
X106865717Y-109175088D02*
G01*
X106966353Y-109185000D01*
X143033647Y-109185000D01*
X143134283Y-109175088D01*
X143142993Y-109172446D01*
X143936842Y-109231439D01*
X144853106Y-109438769D01*
X145728657Y-109779252D01*
X146333589Y-110124999D01*
X145439486Y-109754650D01*
X144486055Y-109565000D01*
X143513945Y-109565000D01*
X142560514Y-109754650D01*
X141662401Y-110126660D01*
X140854121Y-110666735D01*
X140166735Y-111354121D01*
X139626660Y-112162401D01*
X139254650Y-113060514D01*
X139065000Y-114013945D01*
X139065000Y-114986055D01*
X139254650Y-115939486D01*
X139626660Y-116837599D01*
X140166735Y-117645879D01*
X140854121Y-118333265D01*
X141662401Y-118873340D01*
X142560514Y-119245350D01*
X143513945Y-119435000D01*
X144486055Y-119435000D01*
X145439486Y-119245350D01*
X146337599Y-118873340D01*
X147145879Y-118333265D01*
X147833265Y-117645879D01*
X148373340Y-116837599D01*
X148745350Y-115939486D01*
X148935000Y-114986055D01*
X148935000Y-114013945D01*
X148745350Y-113060514D01*
X148373340Y-112162401D01*
X148266929Y-112003146D01*
X148461160Y-112283129D01*
X148876659Y-113125677D01*
X149163054Y-114020376D01*
X149315689Y-114957579D01*
X149332427Y-115340946D01*
X149324912Y-115365718D01*
X149315000Y-115466354D01*
X149315000Y-145519119D01*
X149254494Y-145469463D01*
X149144180Y-145410498D01*
X149024482Y-145374188D01*
X148900000Y-145361928D01*
X147085750Y-145365000D01*
X146927000Y-145523750D01*
X146927000Y-146548000D01*
X146947000Y-146548000D01*
X146947000Y-146802000D01*
X146927000Y-146802000D01*
X146927000Y-147826250D01*
X147085750Y-147985000D01*
X148900000Y-147988072D01*
X149024482Y-147975812D01*
X149144180Y-147939502D01*
X149254494Y-147880537D01*
X149315000Y-147830881D01*
X149315001Y-151169119D01*
X149254494Y-151119463D01*
X149144180Y-151060498D01*
X149024482Y-151024188D01*
X148900000Y-151011928D01*
X147085750Y-151015000D01*
X146927000Y-151173750D01*
X146927000Y-152198000D01*
X146947000Y-152198000D01*
X146947000Y-152452000D01*
X146927000Y-152452000D01*
X146927000Y-153476250D01*
X147085750Y-153635000D01*
X148900000Y-153638072D01*
X149024482Y-153625812D01*
X149144180Y-153589502D01*
X149254494Y-153530537D01*
X149315001Y-153480881D01*
X149315001Y-183533647D01*
X149324913Y-183634283D01*
X149327554Y-183642990D01*
X149268561Y-184436841D01*
X149061231Y-185353106D01*
X148720748Y-186228657D01*
X148375001Y-186833589D01*
X148745350Y-185939486D01*
X148935000Y-184986055D01*
X148935000Y-184013945D01*
X148745350Y-183060514D01*
X148373340Y-182162401D01*
X147833265Y-181354121D01*
X147145879Y-180666735D01*
X146337599Y-180126660D01*
X145439486Y-179754650D01*
X144486055Y-179565000D01*
X143513945Y-179565000D01*
X142560514Y-179754650D01*
X141662401Y-180126660D01*
X140854121Y-180666735D01*
X140166735Y-181354121D01*
X139626660Y-182162401D01*
X139254650Y-183060514D01*
X139065000Y-184013945D01*
X139065000Y-184986055D01*
X139254650Y-185939486D01*
X139626660Y-186837599D01*
X140166735Y-187645879D01*
X140854121Y-188333265D01*
X141662401Y-188873340D01*
X142560514Y-189245350D01*
X143513945Y-189435000D01*
X144486055Y-189435000D01*
X145439486Y-189245350D01*
X146337599Y-188873340D01*
X146496837Y-188766940D01*
X146216871Y-188961160D01*
X145374323Y-189376659D01*
X144479624Y-189663054D01*
X143542414Y-189815689D01*
X143159055Y-189832427D01*
X143134283Y-189824912D01*
X143033647Y-189815000D01*
X106966353Y-189815000D01*
X106865717Y-189824912D01*
X106857007Y-189827554D01*
X106063159Y-189768561D01*
X105146894Y-189561231D01*
X104271343Y-189220748D01*
X103455735Y-188754590D01*
X102717986Y-188172995D01*
X102074311Y-187488749D01*
X101538840Y-186716871D01*
X101123341Y-185874323D01*
X100836946Y-184979624D01*
X100684311Y-184042414D01*
X100683069Y-184013945D01*
X101565000Y-184013945D01*
X101565000Y-184986055D01*
X101754650Y-185939486D01*
X102126660Y-186837599D01*
X102666735Y-187645879D01*
X103354121Y-188333265D01*
X104162401Y-188873340D01*
X105060514Y-189245350D01*
X106013945Y-189435000D01*
X106986055Y-189435000D01*
X107939486Y-189245350D01*
X108837599Y-188873340D01*
X109645879Y-188333265D01*
X110333265Y-187645879D01*
X110873340Y-186837599D01*
X111245350Y-185939486D01*
X111435000Y-184986055D01*
X111435000Y-184013945D01*
X111245350Y-183060514D01*
X110873340Y-182162401D01*
X110333265Y-181354121D01*
X109645879Y-180666735D01*
X108837599Y-180126660D01*
X107939486Y-179754650D01*
X106986055Y-179565000D01*
X106013945Y-179565000D01*
X105060514Y-179754650D01*
X104162401Y-180126660D01*
X103354121Y-180666735D01*
X102666735Y-181354121D01*
X102126660Y-182162401D01*
X101754650Y-183060514D01*
X101565000Y-184013945D01*
X100683069Y-184013945D01*
X100667573Y-183659055D01*
X100675088Y-183634283D01*
X100685000Y-183533647D01*
X100685000Y-176480881D01*
X100745506Y-176530537D01*
X100855820Y-176589502D01*
X100975518Y-176625812D01*
X101100000Y-176638072D01*
X102914250Y-176635000D01*
X103073000Y-176476250D01*
X103073000Y-175452000D01*
X103327000Y-175452000D01*
X103327000Y-176476250D01*
X103485750Y-176635000D01*
X105300000Y-176638072D01*
X105424482Y-176625812D01*
X105544180Y-176589502D01*
X105654494Y-176530537D01*
X105751185Y-176451185D01*
X105830537Y-176354494D01*
X105889502Y-176244180D01*
X105925812Y-176124482D01*
X105938072Y-176000000D01*
X105935000Y-175610750D01*
X105776250Y-175452000D01*
X103327000Y-175452000D01*
X103073000Y-175452000D01*
X103053000Y-175452000D01*
X103053000Y-175198000D01*
X103073000Y-175198000D01*
X103073000Y-174173750D01*
X103327000Y-174173750D01*
X103327000Y-175198000D01*
X105776250Y-175198000D01*
X105935000Y-175039250D01*
X105938072Y-174650000D01*
X105925812Y-174525518D01*
X105889502Y-174405820D01*
X105830537Y-174295506D01*
X105751185Y-174198815D01*
X105654494Y-174119463D01*
X105544180Y-174060498D01*
X105424482Y-174024188D01*
X105300000Y-174011928D01*
X103485750Y-174015000D01*
X103327000Y-174173750D01*
X103073000Y-174173750D01*
X102914250Y-174015000D01*
X101100000Y-174011928D01*
X100975518Y-174024188D01*
X100855820Y-174060498D01*
X100745506Y-174119463D01*
X100685000Y-174169119D01*
X100685000Y-170830881D01*
X100745506Y-170880537D01*
X100855820Y-170939502D01*
X100975518Y-170975812D01*
X101100000Y-170988072D01*
X102914250Y-170985000D01*
X103073000Y-170826250D01*
X103073000Y-169802000D01*
X103327000Y-169802000D01*
X103327000Y-170826250D01*
X103485750Y-170985000D01*
X105300000Y-170988072D01*
X105424482Y-170975812D01*
X105544180Y-170939502D01*
X105654494Y-170880537D01*
X105751185Y-170801185D01*
X105830537Y-170704494D01*
X105889502Y-170594180D01*
X105925812Y-170474482D01*
X105938072Y-170350000D01*
X105935000Y-169960750D01*
X105776250Y-169802000D01*
X103327000Y-169802000D01*
X103073000Y-169802000D01*
X103053000Y-169802000D01*
X103053000Y-169548000D01*
X103073000Y-169548000D01*
X103073000Y-168523750D01*
X103327000Y-168523750D01*
X103327000Y-169548000D01*
X105776250Y-169548000D01*
X105935000Y-169389250D01*
X105938072Y-169000000D01*
X105925812Y-168875518D01*
X105889502Y-168755820D01*
X105830537Y-168645506D01*
X105751185Y-168548815D01*
X105654494Y-168469463D01*
X105544180Y-168410498D01*
X105424482Y-168374188D01*
X105300000Y-168361928D01*
X103485750Y-168365000D01*
X103327000Y-168523750D01*
X103073000Y-168523750D01*
X102914250Y-168365000D01*
X101100000Y-168361928D01*
X100975518Y-168374188D01*
X100855820Y-168410498D01*
X100745506Y-168469463D01*
X100685000Y-168519119D01*
X100685000Y-153000000D01*
X144061928Y-153000000D01*
X144074188Y-153124482D01*
X144110498Y-153244180D01*
X144169463Y-153354494D01*
X144248815Y-153451185D01*
X144345506Y-153530537D01*
X144455820Y-153589502D01*
X144575518Y-153625812D01*
X144700000Y-153638072D01*
X146514250Y-153635000D01*
X146673000Y-153476250D01*
X146673000Y-152452000D01*
X144223750Y-152452000D01*
X144065000Y-152610750D01*
X144061928Y-153000000D01*
X100685000Y-153000000D01*
X100685000Y-151650000D01*
X144061928Y-151650000D01*
X144065000Y-152039250D01*
X144223750Y-152198000D01*
X146673000Y-152198000D01*
X146673000Y-151173750D01*
X146514250Y-151015000D01*
X144700000Y-151011928D01*
X144575518Y-151024188D01*
X144455820Y-151060498D01*
X144345506Y-151119463D01*
X144248815Y-151198815D01*
X144169463Y-151295506D01*
X144110498Y-151405820D01*
X144074188Y-151525518D01*
X144061928Y-151650000D01*
X100685000Y-151650000D01*
X100685000Y-147350000D01*
X144061928Y-147350000D01*
X144074188Y-147474482D01*
X144110498Y-147594180D01*
X144169463Y-147704494D01*
X144248815Y-147801185D01*
X144345506Y-147880537D01*
X144455820Y-147939502D01*
X144575518Y-147975812D01*
X144700000Y-147988072D01*
X146514250Y-147985000D01*
X146673000Y-147826250D01*
X146673000Y-146802000D01*
X144223750Y-146802000D01*
X144065000Y-146960750D01*
X144061928Y-147350000D01*
X100685000Y-147350000D01*
X100685000Y-146000000D01*
X144061928Y-146000000D01*
X144065000Y-146389250D01*
X144223750Y-146548000D01*
X146673000Y-146548000D01*
X146673000Y-145523750D01*
X146514250Y-145365000D01*
X144700000Y-145361928D01*
X144575518Y-145374188D01*
X144455820Y-145410498D01*
X144345506Y-145469463D01*
X144248815Y-145548815D01*
X144169463Y-145645506D01*
X144110498Y-145755820D01*
X144074188Y-145875518D01*
X144061928Y-146000000D01*
X100685000Y-146000000D01*
X100685000Y-130480881D01*
X100745506Y-130530537D01*
X100855820Y-130589502D01*
X100975518Y-130625812D01*
X101100000Y-130638072D01*
X102914250Y-130635000D01*
X103073000Y-130476250D01*
X103073000Y-129452000D01*
X103327000Y-129452000D01*
X103327000Y-130476250D01*
X103485750Y-130635000D01*
X105300000Y-130638072D01*
X105424482Y-130625812D01*
X105544180Y-130589502D01*
X105654494Y-130530537D01*
X105751185Y-130451185D01*
X105830537Y-130354494D01*
X105889502Y-130244180D01*
X105925812Y-130124482D01*
X105938072Y-130000000D01*
X105935000Y-129610750D01*
X105776250Y-129452000D01*
X103327000Y-129452000D01*
X103073000Y-129452000D01*
X103053000Y-129452000D01*
X103053000Y-129198000D01*
X103073000Y-129198000D01*
X103073000Y-128173750D01*
X103327000Y-128173750D01*
X103327000Y-129198000D01*
X105776250Y-129198000D01*
X105935000Y-129039250D01*
X105938072Y-128650000D01*
X105925812Y-128525518D01*
X105889502Y-128405820D01*
X105830537Y-128295506D01*
X105751185Y-128198815D01*
X105654494Y-128119463D01*
X105544180Y-128060498D01*
X105424482Y-128024188D01*
X105300000Y-128011928D01*
X103485750Y-128015000D01*
X103327000Y-128173750D01*
X103073000Y-128173750D01*
X102914250Y-128015000D01*
X101100000Y-128011928D01*
X100975518Y-128024188D01*
X100855820Y-128060498D01*
X100745506Y-128119463D01*
X100685000Y-128169119D01*
X100685000Y-124830881D01*
X100745506Y-124880537D01*
X100855820Y-124939502D01*
X100975518Y-124975812D01*
X101100000Y-124988072D01*
X102914250Y-124985000D01*
X103073000Y-124826250D01*
X103073000Y-123802000D01*
X103327000Y-123802000D01*
X103327000Y-124826250D01*
X103485750Y-124985000D01*
X105300000Y-124988072D01*
X105424482Y-124975812D01*
X105544180Y-124939502D01*
X105654494Y-124880537D01*
X105751185Y-124801185D01*
X105830537Y-124704494D01*
X105889502Y-124594180D01*
X105925812Y-124474482D01*
X105938072Y-124350000D01*
X105935000Y-123960750D01*
X105776250Y-123802000D01*
X103327000Y-123802000D01*
X103073000Y-123802000D01*
X103053000Y-123802000D01*
X103053000Y-123548000D01*
X103073000Y-123548000D01*
X103073000Y-122523750D01*
X103327000Y-122523750D01*
X103327000Y-123548000D01*
X105776250Y-123548000D01*
X105935000Y-123389250D01*
X105938072Y-123000000D01*
X105925812Y-122875518D01*
X105889502Y-122755820D01*
X105830537Y-122645506D01*
X105751185Y-122548815D01*
X105654494Y-122469463D01*
X105544180Y-122410498D01*
X105424482Y-122374188D01*
X105300000Y-122361928D01*
X103485750Y-122365000D01*
X103327000Y-122523750D01*
X103073000Y-122523750D01*
X102914250Y-122365000D01*
X101100000Y-122361928D01*
X100975518Y-122374188D01*
X100855820Y-122410498D01*
X100745506Y-122469463D01*
X100685000Y-122519119D01*
X100685000Y-115466353D01*
X100675088Y-115365717D01*
X100672446Y-115357007D01*
X100731439Y-114563158D01*
X100855713Y-114013945D01*
X101565000Y-114013945D01*
X101565000Y-114986055D01*
X101754650Y-115939486D01*
X102126660Y-116837599D01*
X102666735Y-117645879D01*
X103354121Y-118333265D01*
X104162401Y-118873340D01*
X105060514Y-119245350D01*
X106013945Y-119435000D01*
X106986055Y-119435000D01*
X107939486Y-119245350D01*
X108837599Y-118873340D01*
X109645879Y-118333265D01*
X110333265Y-117645879D01*
X110873340Y-116837599D01*
X111245350Y-115939486D01*
X111435000Y-114986055D01*
X111435000Y-114013945D01*
X111245350Y-113060514D01*
X110873340Y-112162401D01*
X110333265Y-111354121D01*
X109645879Y-110666735D01*
X108837599Y-110126660D01*
X107939486Y-109754650D01*
X106986055Y-109565000D01*
X106013945Y-109565000D01*
X105060514Y-109754650D01*
X104162401Y-110126660D01*
X103354121Y-110666735D01*
X102666735Y-111354121D01*
X102126660Y-112162401D01*
X101754650Y-113060514D01*
X101565000Y-114013945D01*
X100855713Y-114013945D01*
X100938769Y-113646894D01*
X101279252Y-112771343D01*
X101745410Y-111955735D01*
X102327005Y-111217986D01*
X103011251Y-110574311D01*
X103783129Y-110038840D01*
X104625677Y-109623341D01*
X105520376Y-109336946D01*
X106457579Y-109184311D01*
X106840945Y-109167573D01*
X106865717Y-109175088D01*
G37*
X106865717Y-109175088D02*
X106966353Y-109185000D01*
X143033647Y-109185000D01*
X143134283Y-109175088D01*
X143142993Y-109172446D01*
X143936842Y-109231439D01*
X144853106Y-109438769D01*
X145728657Y-109779252D01*
X146333589Y-110124999D01*
X145439486Y-109754650D01*
X144486055Y-109565000D01*
X143513945Y-109565000D01*
X142560514Y-109754650D01*
X141662401Y-110126660D01*
X140854121Y-110666735D01*
X140166735Y-111354121D01*
X139626660Y-112162401D01*
X139254650Y-113060514D01*
X139065000Y-114013945D01*
X139065000Y-114986055D01*
X139254650Y-115939486D01*
X139626660Y-116837599D01*
X140166735Y-117645879D01*
X140854121Y-118333265D01*
X141662401Y-118873340D01*
X142560514Y-119245350D01*
X143513945Y-119435000D01*
X144486055Y-119435000D01*
X145439486Y-119245350D01*
X146337599Y-118873340D01*
X147145879Y-118333265D01*
X147833265Y-117645879D01*
X148373340Y-116837599D01*
X148745350Y-115939486D01*
X148935000Y-114986055D01*
X148935000Y-114013945D01*
X148745350Y-113060514D01*
X148373340Y-112162401D01*
X148266929Y-112003146D01*
X148461160Y-112283129D01*
X148876659Y-113125677D01*
X149163054Y-114020376D01*
X149315689Y-114957579D01*
X149332427Y-115340946D01*
X149324912Y-115365718D01*
X149315000Y-115466354D01*
X149315000Y-145519119D01*
X149254494Y-145469463D01*
X149144180Y-145410498D01*
X149024482Y-145374188D01*
X148900000Y-145361928D01*
X147085750Y-145365000D01*
X146927000Y-145523750D01*
X146927000Y-146548000D01*
X146947000Y-146548000D01*
X146947000Y-146802000D01*
X146927000Y-146802000D01*
X146927000Y-147826250D01*
X147085750Y-147985000D01*
X148900000Y-147988072D01*
X149024482Y-147975812D01*
X149144180Y-147939502D01*
X149254494Y-147880537D01*
X149315000Y-147830881D01*
X149315001Y-151169119D01*
X149254494Y-151119463D01*
X149144180Y-151060498D01*
X149024482Y-151024188D01*
X148900000Y-151011928D01*
X147085750Y-151015000D01*
X146927000Y-151173750D01*
X146927000Y-152198000D01*
X146947000Y-152198000D01*
X146947000Y-152452000D01*
X146927000Y-152452000D01*
X146927000Y-153476250D01*
X147085750Y-153635000D01*
X148900000Y-153638072D01*
X149024482Y-153625812D01*
X149144180Y-153589502D01*
X149254494Y-153530537D01*
X149315001Y-153480881D01*
X149315001Y-183533647D01*
X149324913Y-183634283D01*
X149327554Y-183642990D01*
X149268561Y-184436841D01*
X149061231Y-185353106D01*
X148720748Y-186228657D01*
X148375001Y-186833589D01*
X148745350Y-185939486D01*
X148935000Y-184986055D01*
X148935000Y-184013945D01*
X148745350Y-183060514D01*
X148373340Y-182162401D01*
X147833265Y-181354121D01*
X147145879Y-180666735D01*
X146337599Y-180126660D01*
X145439486Y-179754650D01*
X144486055Y-179565000D01*
X143513945Y-179565000D01*
X142560514Y-179754650D01*
X141662401Y-180126660D01*
X140854121Y-180666735D01*
X140166735Y-181354121D01*
X139626660Y-182162401D01*
X139254650Y-183060514D01*
X139065000Y-184013945D01*
X139065000Y-184986055D01*
X139254650Y-185939486D01*
X139626660Y-186837599D01*
X140166735Y-187645879D01*
X140854121Y-188333265D01*
X141662401Y-188873340D01*
X142560514Y-189245350D01*
X143513945Y-189435000D01*
X144486055Y-189435000D01*
X145439486Y-189245350D01*
X146337599Y-188873340D01*
X146496837Y-188766940D01*
X146216871Y-188961160D01*
X145374323Y-189376659D01*
X144479624Y-189663054D01*
X143542414Y-189815689D01*
X143159055Y-189832427D01*
X143134283Y-189824912D01*
X143033647Y-189815000D01*
X106966353Y-189815000D01*
X106865717Y-189824912D01*
X106857007Y-189827554D01*
X106063159Y-189768561D01*
X105146894Y-189561231D01*
X104271343Y-189220748D01*
X103455735Y-188754590D01*
X102717986Y-188172995D01*
X102074311Y-187488749D01*
X101538840Y-186716871D01*
X101123341Y-185874323D01*
X100836946Y-184979624D01*
X100684311Y-184042414D01*
X100683069Y-184013945D01*
X101565000Y-184013945D01*
X101565000Y-184986055D01*
X101754650Y-185939486D01*
X102126660Y-186837599D01*
X102666735Y-187645879D01*
X103354121Y-188333265D01*
X104162401Y-188873340D01*
X105060514Y-189245350D01*
X106013945Y-189435000D01*
X106986055Y-189435000D01*
X107939486Y-189245350D01*
X108837599Y-188873340D01*
X109645879Y-188333265D01*
X110333265Y-187645879D01*
X110873340Y-186837599D01*
X111245350Y-185939486D01*
X111435000Y-184986055D01*
X111435000Y-184013945D01*
X111245350Y-183060514D01*
X110873340Y-182162401D01*
X110333265Y-181354121D01*
X109645879Y-180666735D01*
X108837599Y-180126660D01*
X107939486Y-179754650D01*
X106986055Y-179565000D01*
X106013945Y-179565000D01*
X105060514Y-179754650D01*
X104162401Y-180126660D01*
X103354121Y-180666735D01*
X102666735Y-181354121D01*
X102126660Y-182162401D01*
X101754650Y-183060514D01*
X101565000Y-184013945D01*
X100683069Y-184013945D01*
X100667573Y-183659055D01*
X100675088Y-183634283D01*
X100685000Y-183533647D01*
X100685000Y-176480881D01*
X100745506Y-176530537D01*
X100855820Y-176589502D01*
X100975518Y-176625812D01*
X101100000Y-176638072D01*
X102914250Y-176635000D01*
X103073000Y-176476250D01*
X103073000Y-175452000D01*
X103327000Y-175452000D01*
X103327000Y-176476250D01*
X103485750Y-176635000D01*
X105300000Y-176638072D01*
X105424482Y-176625812D01*
X105544180Y-176589502D01*
X105654494Y-176530537D01*
X105751185Y-176451185D01*
X105830537Y-176354494D01*
X105889502Y-176244180D01*
X105925812Y-176124482D01*
X105938072Y-176000000D01*
X105935000Y-175610750D01*
X105776250Y-175452000D01*
X103327000Y-175452000D01*
X103073000Y-175452000D01*
X103053000Y-175452000D01*
X103053000Y-175198000D01*
X103073000Y-175198000D01*
X103073000Y-174173750D01*
X103327000Y-174173750D01*
X103327000Y-175198000D01*
X105776250Y-175198000D01*
X105935000Y-175039250D01*
X105938072Y-174650000D01*
X105925812Y-174525518D01*
X105889502Y-174405820D01*
X105830537Y-174295506D01*
X105751185Y-174198815D01*
X105654494Y-174119463D01*
X105544180Y-174060498D01*
X105424482Y-174024188D01*
X105300000Y-174011928D01*
X103485750Y-174015000D01*
X103327000Y-174173750D01*
X103073000Y-174173750D01*
X102914250Y-174015000D01*
X101100000Y-174011928D01*
X100975518Y-174024188D01*
X100855820Y-174060498D01*
X100745506Y-174119463D01*
X100685000Y-174169119D01*
X100685000Y-170830881D01*
X100745506Y-170880537D01*
X100855820Y-170939502D01*
X100975518Y-170975812D01*
X101100000Y-170988072D01*
X102914250Y-170985000D01*
X103073000Y-170826250D01*
X103073000Y-169802000D01*
X103327000Y-169802000D01*
X103327000Y-170826250D01*
X103485750Y-170985000D01*
X105300000Y-170988072D01*
X105424482Y-170975812D01*
X105544180Y-170939502D01*
X105654494Y-170880537D01*
X105751185Y-170801185D01*
X105830537Y-170704494D01*
X105889502Y-170594180D01*
X105925812Y-170474482D01*
X105938072Y-170350000D01*
X105935000Y-169960750D01*
X105776250Y-169802000D01*
X103327000Y-169802000D01*
X103073000Y-169802000D01*
X103053000Y-169802000D01*
X103053000Y-169548000D01*
X103073000Y-169548000D01*
X103073000Y-168523750D01*
X103327000Y-168523750D01*
X103327000Y-169548000D01*
X105776250Y-169548000D01*
X105935000Y-169389250D01*
X105938072Y-169000000D01*
X105925812Y-168875518D01*
X105889502Y-168755820D01*
X105830537Y-168645506D01*
X105751185Y-168548815D01*
X105654494Y-168469463D01*
X105544180Y-168410498D01*
X105424482Y-168374188D01*
X105300000Y-168361928D01*
X103485750Y-168365000D01*
X103327000Y-168523750D01*
X103073000Y-168523750D01*
X102914250Y-168365000D01*
X101100000Y-168361928D01*
X100975518Y-168374188D01*
X100855820Y-168410498D01*
X100745506Y-168469463D01*
X100685000Y-168519119D01*
X100685000Y-153000000D01*
X144061928Y-153000000D01*
X144074188Y-153124482D01*
X144110498Y-153244180D01*
X144169463Y-153354494D01*
X144248815Y-153451185D01*
X144345506Y-153530537D01*
X144455820Y-153589502D01*
X144575518Y-153625812D01*
X144700000Y-153638072D01*
X146514250Y-153635000D01*
X146673000Y-153476250D01*
X146673000Y-152452000D01*
X144223750Y-152452000D01*
X144065000Y-152610750D01*
X144061928Y-153000000D01*
X100685000Y-153000000D01*
X100685000Y-151650000D01*
X144061928Y-151650000D01*
X144065000Y-152039250D01*
X144223750Y-152198000D01*
X146673000Y-152198000D01*
X146673000Y-151173750D01*
X146514250Y-151015000D01*
X144700000Y-151011928D01*
X144575518Y-151024188D01*
X144455820Y-151060498D01*
X144345506Y-151119463D01*
X144248815Y-151198815D01*
X144169463Y-151295506D01*
X144110498Y-151405820D01*
X144074188Y-151525518D01*
X144061928Y-151650000D01*
X100685000Y-151650000D01*
X100685000Y-147350000D01*
X144061928Y-147350000D01*
X144074188Y-147474482D01*
X144110498Y-147594180D01*
X144169463Y-147704494D01*
X144248815Y-147801185D01*
X144345506Y-147880537D01*
X144455820Y-147939502D01*
X144575518Y-147975812D01*
X144700000Y-147988072D01*
X146514250Y-147985000D01*
X146673000Y-147826250D01*
X146673000Y-146802000D01*
X144223750Y-146802000D01*
X144065000Y-146960750D01*
X144061928Y-147350000D01*
X100685000Y-147350000D01*
X100685000Y-146000000D01*
X144061928Y-146000000D01*
X144065000Y-146389250D01*
X144223750Y-146548000D01*
X146673000Y-146548000D01*
X146673000Y-145523750D01*
X146514250Y-145365000D01*
X144700000Y-145361928D01*
X144575518Y-145374188D01*
X144455820Y-145410498D01*
X144345506Y-145469463D01*
X144248815Y-145548815D01*
X144169463Y-145645506D01*
X144110498Y-145755820D01*
X144074188Y-145875518D01*
X144061928Y-146000000D01*
X100685000Y-146000000D01*
X100685000Y-130480881D01*
X100745506Y-130530537D01*
X100855820Y-130589502D01*
X100975518Y-130625812D01*
X101100000Y-130638072D01*
X102914250Y-130635000D01*
X103073000Y-130476250D01*
X103073000Y-129452000D01*
X103327000Y-129452000D01*
X103327000Y-130476250D01*
X103485750Y-130635000D01*
X105300000Y-130638072D01*
X105424482Y-130625812D01*
X105544180Y-130589502D01*
X105654494Y-130530537D01*
X105751185Y-130451185D01*
X105830537Y-130354494D01*
X105889502Y-130244180D01*
X105925812Y-130124482D01*
X105938072Y-130000000D01*
X105935000Y-129610750D01*
X105776250Y-129452000D01*
X103327000Y-129452000D01*
X103073000Y-129452000D01*
X103053000Y-129452000D01*
X103053000Y-129198000D01*
X103073000Y-129198000D01*
X103073000Y-128173750D01*
X103327000Y-128173750D01*
X103327000Y-129198000D01*
X105776250Y-129198000D01*
X105935000Y-129039250D01*
X105938072Y-128650000D01*
X105925812Y-128525518D01*
X105889502Y-128405820D01*
X105830537Y-128295506D01*
X105751185Y-128198815D01*
X105654494Y-128119463D01*
X105544180Y-128060498D01*
X105424482Y-128024188D01*
X105300000Y-128011928D01*
X103485750Y-128015000D01*
X103327000Y-128173750D01*
X103073000Y-128173750D01*
X102914250Y-128015000D01*
X101100000Y-128011928D01*
X100975518Y-128024188D01*
X100855820Y-128060498D01*
X100745506Y-128119463D01*
X100685000Y-128169119D01*
X100685000Y-124830881D01*
X100745506Y-124880537D01*
X100855820Y-124939502D01*
X100975518Y-124975812D01*
X101100000Y-124988072D01*
X102914250Y-124985000D01*
X103073000Y-124826250D01*
X103073000Y-123802000D01*
X103327000Y-123802000D01*
X103327000Y-124826250D01*
X103485750Y-124985000D01*
X105300000Y-124988072D01*
X105424482Y-124975812D01*
X105544180Y-124939502D01*
X105654494Y-124880537D01*
X105751185Y-124801185D01*
X105830537Y-124704494D01*
X105889502Y-124594180D01*
X105925812Y-124474482D01*
X105938072Y-124350000D01*
X105935000Y-123960750D01*
X105776250Y-123802000D01*
X103327000Y-123802000D01*
X103073000Y-123802000D01*
X103053000Y-123802000D01*
X103053000Y-123548000D01*
X103073000Y-123548000D01*
X103073000Y-122523750D01*
X103327000Y-122523750D01*
X103327000Y-123548000D01*
X105776250Y-123548000D01*
X105935000Y-123389250D01*
X105938072Y-123000000D01*
X105925812Y-122875518D01*
X105889502Y-122755820D01*
X105830537Y-122645506D01*
X105751185Y-122548815D01*
X105654494Y-122469463D01*
X105544180Y-122410498D01*
X105424482Y-122374188D01*
X105300000Y-122361928D01*
X103485750Y-122365000D01*
X103327000Y-122523750D01*
X103073000Y-122523750D01*
X102914250Y-122365000D01*
X101100000Y-122361928D01*
X100975518Y-122374188D01*
X100855820Y-122410498D01*
X100745506Y-122469463D01*
X100685000Y-122519119D01*
X100685000Y-115466353D01*
X100675088Y-115365717D01*
X100672446Y-115357007D01*
X100731439Y-114563158D01*
X100855713Y-114013945D01*
X101565000Y-114013945D01*
X101565000Y-114986055D01*
X101754650Y-115939486D01*
X102126660Y-116837599D01*
X102666735Y-117645879D01*
X103354121Y-118333265D01*
X104162401Y-118873340D01*
X105060514Y-119245350D01*
X106013945Y-119435000D01*
X106986055Y-119435000D01*
X107939486Y-119245350D01*
X108837599Y-118873340D01*
X109645879Y-118333265D01*
X110333265Y-117645879D01*
X110873340Y-116837599D01*
X111245350Y-115939486D01*
X111435000Y-114986055D01*
X111435000Y-114013945D01*
X111245350Y-113060514D01*
X110873340Y-112162401D01*
X110333265Y-111354121D01*
X109645879Y-110666735D01*
X108837599Y-110126660D01*
X107939486Y-109754650D01*
X106986055Y-109565000D01*
X106013945Y-109565000D01*
X105060514Y-109754650D01*
X104162401Y-110126660D01*
X103354121Y-110666735D01*
X102666735Y-111354121D01*
X102126660Y-112162401D01*
X101754650Y-113060514D01*
X101565000Y-114013945D01*
X100855713Y-114013945D01*
X100938769Y-113646894D01*
X101279252Y-112771343D01*
X101745410Y-111955735D01*
X102327005Y-111217986D01*
X103011251Y-110574311D01*
X103783129Y-110038840D01*
X104625677Y-109623341D01*
X105520376Y-109336946D01*
X106457579Y-109184311D01*
X106840945Y-109167573D01*
X106865717Y-109175088D01*
%TD*%
M02*
