
		<svg xmlns="http://www.w3.org/2000/svg" xmlns:xlink="http://www.w3.org/1999/xlink" version="1.1" width="3096.153846153846" height="836.5384615384615">
			
			<g transform="scale(4.8076923076923075) translate(10, 10)">
				<defs id="SvgjsDefs1102"/><g id="SvgjsG1103" featureKey="root" fill="#fff"/><g id="SvgjsG1104" featureKey="container1" fill="#fff" transform="matrix(3.075,0,0,3.075,0,0)"><circle cx="25" cy="25" r="25"/></g><g id="SvgjsG1105" featureKey="text4" fill="#000000" transform="matrix(3.3870963573952513,0,0,3.3870963573952513,22.35806897587081,34.06451659793034)"><path d="M13 14.36 c-0.16 -0.16 -0.24 -0.4 -0.18 -0.62 c0.06 -0.38 0.1 -0.76 0.1 -1.14 c0 -1.38 -0.4 -2.48 -1.22 -3.36 c-0.86 -0.9 -1.98 -1.34 -3.38 -1.34 c-1.42 0 -2.52 0.44 -3.38 1.34 c-0.82 0.88 -1.22 1.98 -1.22 3.36 s0.4 2.48 1.22 3.36 c0.86 0.9 1.96 1.34 3.38 1.34 c0.54 0 1.04 -0.06 1.5 -0.2 l-1.14 -1.14 c-0.12 -0.14 -0.2 -0.32 -0.2 -0.5 s0.08 -0.36 0.2 -0.5 l1.08 -1.08 c0.28 -0.28 0.72 -0.28 1 0 l4.34 4.34 c0.28 0.28 0.28 0.72 0 1 l-1.08 1.08 c-0.12 0.14 -0.3 0.2 -0.5 0.2 c-0.18 0 -0.36 -0.06 -0.5 -0.2 l-0.98 -1 c-1.1 0.6 -2.34 0.9 -3.72 0.9 c-2.2 0 -4.04 -0.74 -5.46 -2.22 c-1.38 -1.44 -2.08 -3.24 -2.08 -5.38 s0.7 -3.94 2.08 -5.38 c1.42 -1.46 3.26 -2.22 5.46 -2.22 s4.04 0.76 5.46 2.24 c1.38 1.42 2.08 3.22 2.08 5.36 c0 0.96 -0.16 1.88 -0.46 2.74 c-0.08 0.22 -0.26 0.4 -0.5 0.44 c-0.24 0.06 -0.48 0 -0.66 -0.18 z M31.22 18.86 c0.1 0.22 0.06 0.46 -0.06 0.66 c-0.14 0.2 -0.36 0.32 -0.58 0.32 l-13.32 0 c-0.24 0 -0.46 -0.12 -0.58 -0.32 c-0.14 -0.2 -0.16 -0.44 -0.06 -0.66 l0.62 -1.46 c0.1 -0.26 0.36 -0.44 0.64 -0.44 l9.32 0 l-0.6 -1.44 l-2.68 -6.4 l-2.68 6.4 c-0.1 0.26 -0.36 0.42 -0.64 0.42 l-1.68 0 c-0.24 0 -0.46 -0.12 -0.6 -0.32 c-0.12 -0.18 -0.14 -0.44 -0.06 -0.66 l4.06 -9.52 c0.1 -0.28 0.36 -0.44 0.64 -0.44 l1.92 0 c0.28 0 0.52 0.16 0.64 0.44 z"/></g><g id="SvgjsG1106" featureKey="text1" fill="#fff" transform="matrix(1.8239299520651873,0,0,1.8239299520651873,172.57733686386615,48.88035371854436)"><path d="M13 14.36 c-0.16 -0.16 -0.24 -0.4 -0.18 -0.62 c0.06 -0.38 0.1 -0.76 0.1 -1.14 c0 -1.38 -0.4 -2.48 -1.22 -3.36 c-0.86 -0.9 -1.98 -1.34 -3.38 -1.34 c-1.42 0 -2.52 0.44 -3.38 1.34 c-0.82 0.88 -1.22 1.98 -1.22 3.36 s0.4 2.48 1.22 3.36 c0.86 0.9 1.96 1.34 3.38 1.34 c0.54 0 1.04 -0.06 1.5 -0.2 l-1.14 -1.14 c-0.12 -0.14 -0.2 -0.32 -0.2 -0.5 s0.08 -0.36 0.2 -0.5 l1.08 -1.08 c0.28 -0.28 0.72 -0.28 1 0 l4.34 4.34 c0.28 0.28 0.28 0.72 0 1 l-1.08 1.08 c-0.12 0.14 -0.3 0.2 -0.5 0.2 c-0.18 0 -0.36 -0.06 -0.5 -0.2 l-0.98 -1 c-1.1 0.6 -2.34 0.9 -3.72 0.9 c-2.2 0 -4.04 -0.74 -5.46 -2.22 c-1.38 -1.44 -2.08 -3.24 -2.08 -5.38 s0.7 -3.94 2.08 -5.38 c1.42 -1.46 3.26 -2.22 5.46 -2.22 s4.04 0.76 5.46 2.24 c1.38 1.42 2.08 3.22 2.08 5.36 c0 0.96 -0.16 1.88 -0.46 2.74 c-0.08 0.22 -0.26 0.4 -0.5 0.44 c-0.24 0.06 -0.48 0 -0.66 -0.18 z M29.900000000000002 5 c0.38 0 0.7 0.32 0.7 0.7 l0 7.56 c0 1.94 -0.6 3.54 -1.78 4.76 c-1.18 1.2 -2.72 1.82 -4.58 1.82 s-3.38 -0.62 -4.56 -1.82 c-1.18 -1.22 -1.78 -2.82 -1.78 -4.76 l0 -7.56 c0 -0.38 0.32 -0.7 0.7 -0.7 l1.5 0 c0.38 0 0.7 0.32 0.7 0.7 l0 7.6 c0 1.24 0.34 2.18 1.06 2.84 c0.6 0.56 1.38 0.84 2.38 0.84 c0.98 0 1.78 -0.28 2.4 -0.84 c0.7 -0.66 1.06 -1.58 1.06 -2.84 l0 -7.6 c0 -0.38 0.3 -0.7 0.68 -0.7 l1.52 0 z M41.040000000000006 5.42 l5.6 13.22 c0.06 0.1 0.1 0.22 0.1 0.34 c0 0.38 -0.3 0.7 -0.7 0.7 l0 0 l-1.66 0 c-0.28 0 -0.54 -0.16 -0.64 -0.42 l-1.46 -3.44 l-5.66 0 l-1.44 3.44 c-0.1 0.26 -0.36 0.42 -0.64 0.42 l-1.66 0 c-0.24 0 -0.46 -0.12 -0.58 -0.32 c-0.14 -0.18 -0.16 -0.44 -0.06 -0.64 l5.64 -13.3 c0.1 -0.26 0.36 -0.42 0.64 -0.42 l1.88 0 c0.28 0 0.54 0.16 0.64 0.42 z M39.46 9.06 l-1.66 3.98 l3.32 0 z M60.620000000000005 5 c0.38 0 0.7 0.32 0.7 0.7 l0 13.28 c0 0.38 -0.32 0.7 -0.7 0.7 l-1.76 0 c-0.22 0 -0.42 -0.1 -0.56 -0.28 l-6.94 -9.5 l0 9.08 c0 0.38 -0.32 0.7 -0.7 0.7 l-1.5 0 c-0.38 0 -0.7 -0.32 -0.7 -0.7 l0 -13.28 c0 -0.38 0.32 -0.7 0.7 -0.7 l1.74 0 c0.22 0 0.44 0.1 0.56 0.28 l6.96 9.46 l0 -9.04 c0 -0.38 0.3 -0.7 0.68 -0.7 l1.52 0 z M74.7 5 c0.38 0 0.68 0.32 0.68 0.7 l0 1.44 c0 0.38 -0.3 0.7 -0.68 0.7 l-3.94 0 l0 11.14 c0 0.38 -0.32 0.7 -0.7 0.7 l-1.5 0 c-0.4 0 -0.7 -0.32 -0.7 -0.7 l0 -11.14 l-3.94 0 c-0.38 0 -0.7 -0.32 -0.7 -0.7 l0 -1.44 c0 -0.38 0.32 -0.7 0.7 -0.7 l10.78 0 z M89.12 5 c0.38 0 0.7 0.32 0.7 0.7 l0 7.56 c0 1.94 -0.6 3.54 -1.78 4.76 c-1.18 1.2 -2.72 1.82 -4.58 1.82 s-3.38 -0.62 -4.56 -1.82 c-1.18 -1.22 -1.78 -2.82 -1.78 -4.76 l0 -7.56 c0 -0.38 0.32 -0.7 0.7 -0.7 l1.5 0 c0.38 0 0.7 0.32 0.7 0.7 l0 7.6 c0 1.24 0.34 2.18 1.06 2.84 c0.6 0.56 1.38 0.84 2.38 0.84 c0.98 0 1.78 -0.28 2.4 -0.84 c0.7 -0.66 1.06 -1.58 1.06 -2.84 l0 -7.6 c0 -0.38 0.3 -0.7 0.68 -0.7 l1.52 0 z M95.10000000000001 5 c0.38 0 0.7 0.32 0.7 0.7 l0 13.28 c0 0.38 -0.32 0.7 -0.7 0.7 l-1.5 0 c-0.38 0 -0.7 -0.32 -0.7 -0.7 l0 -13.28 c0 -0.38 0.32 -0.7 0.7 -0.7 l1.5 0 z M109.18000000000002 5 c0.38 0 0.68 0.32 0.68 0.7 l0 1.44 c0 0.38 -0.3 0.7 -0.68 0.7 l-3.94 0 l0 11.14 c0 0.38 -0.32 0.7 -0.7 0.7 l-1.5 0 c-0.4 0 -0.7 -0.32 -0.7 -0.7 l0 -11.14 l-3.94 0 c-0.38 0 -0.7 -0.32 -0.7 -0.7 l0 -1.44 c0 -0.38 0.32 -0.7 0.7 -0.7 l10.78 0 z M123.48000000000002 5 c0.26 0 0.5 0.14 0.62 0.38 c0.12 0.22 0.1 0.5 -0.04 0.72 l-5.44 7.84 l0 5.04 c0 0.38 -0.32 0.7 -0.7 0.7 l-1.5 0 c-0.38 0 -0.7 -0.32 -0.7 -0.7 l0 -5.04 l-5.46 -7.84 c-0.14 -0.22 -0.16 -0.5 -0.04 -0.72 c0.12 -0.24 0.36 -0.38 0.62 -0.38 l1.82 0 c0.24 0 0.44 0.12 0.58 0.3 l3.92 5.64 l3.92 -5.64 c0.14 -0.18 0.34 -0.3 0.58 -0.3 l1.82 0 z  M143.16000000000003 18.86 c0.1 0.22 0.06 0.46 -0.06 0.66 c-0.14 0.2 -0.36 0.32 -0.58 0.32 l-13.32 0 c-0.24 0 -0.46 -0.12 -0.58 -0.32 c-0.14 -0.2 -0.16 -0.44 -0.06 -0.66 l0.62 -1.46 c0.1 -0.26 0.36 -0.44 0.64 -0.44 l9.32 0 l-0.6 -1.44 l-2.68 -6.4 l-2.68 6.4 c-0.1 0.26 -0.36 0.42 -0.64 0.42 l-1.68 0 c-0.24 0 -0.46 -0.12 -0.6 -0.32 c-0.12 -0.18 -0.14 -0.44 -0.06 -0.66 l4.06 -9.52 c0.1 -0.28 0.36 -0.44 0.64 -0.44 l1.92 0 c0.28 0 0.52 0.16 0.64 0.44 z M157.10000000000002 5 c0.38 0 0.7 0.32 0.7 0.7 l0 13.28 c0 0.38 -0.32 0.7 -0.7 0.7 l-1.76 0 c-0.22 0 -0.42 -0.1 -0.56 -0.28 l-6.94 -9.5 l0 9.08 c0 0.38 -0.32 0.7 -0.7 0.7 l-1.5 0 c-0.38 0 -0.7 -0.32 -0.7 -0.7 l0 -13.28 c0 -0.38 0.32 -0.7 0.7 -0.7 l1.74 0 c0.22 0 0.44 0.1 0.56 0.28 l6.96 9.46 l0 -9.04 c0 -0.38 0.3 -0.7 0.68 -0.7 l1.52 0 z M168.4 5.42 l5.6 13.22 c0.06 0.1 0.1 0.22 0.1 0.34 c0 0.38 -0.3 0.7 -0.7 0.7 l0 0 l-1.66 0 c-0.28 0 -0.54 -0.16 -0.64 -0.42 l-1.46 -3.44 l-5.66 0 l-1.44 3.44 c-0.1 0.26 -0.36 0.42 -0.64 0.42 l-1.66 0 c-0.24 0 -0.46 -0.12 -0.58 -0.32 c-0.14 -0.18 -0.16 -0.44 -0.06 -0.64 l5.64 -13.3 c0.1 -0.26 0.36 -0.42 0.64 -0.42 l1.88 0 c0.28 0 0.54 0.16 0.64 0.42 z M166.82000000000002 9.06 l-1.66 3.98 l3.32 0 z M185.26000000000002 16.84 c0.4 0 0.7 0.32 0.7 0.7 l0 1.44 c0 0.38 -0.3 0.7 -0.7 0.7 l-8.74 0 c-0.38 0 -0.7 -0.32 -0.7 -0.7 l0 -13.28 c0 -0.38 0.32 -0.7 0.7 -0.7 l1.5 0 c0.38 0 0.7 0.32 0.7 0.7 l0 11.14 l6.54 0 z M199.62000000000003 5 c0.26 0 0.5 0.14 0.62 0.38 c0.12 0.22 0.1 0.5 -0.04 0.72 l-5.44 7.84 l0 5.04 c0 0.38 -0.32 0.7 -0.7 0.7 l-1.5 0 c-0.38 0 -0.7 -0.32 -0.7 -0.7 l0 -5.04 l-5.46 -7.84 c-0.14 -0.22 -0.16 -0.5 -0.04 -0.72 c0.12 -0.24 0.36 -0.38 0.62 -0.38 l1.82 0 c0.24 0 0.44 0.12 0.58 0.3 l3.92 5.64 l3.92 -5.64 c0.14 -0.18 0.34 -0.3 0.58 -0.3 l1.82 0 z M212.08 5 c0.38 0 0.68 0.32 0.68 0.7 l0 1.44 c0 0.38 -0.3 0.7 -0.68 0.7 l-3.94 0 l0 11.14 c0 0.38 -0.32 0.7 -0.7 0.7 l-1.5 0 c-0.4 0 -0.7 -0.32 -0.7 -0.7 l0 -11.14 l-3.94 0 c-0.38 0 -0.7 -0.32 -0.7 -0.7 l0 -1.44 c0 -0.38 0.32 -0.7 0.7 -0.7 l10.78 0 z M216.86 5 c0.38 0 0.7 0.32 0.7 0.7 l0 13.28 c0 0.38 -0.32 0.7 -0.7 0.7 l-1.5 0 c-0.38 0 -0.7 -0.32 -0.7 -0.7 l0 -13.28 c0 -0.38 0.32 -0.7 0.7 -0.7 l1.5 0 z M225.32 8.22 c-0.52 0.22 -0.98 0.54 -1.34 0.96 c-0.76 0.84 -1.12 1.94 -1.12 3.32 s0.36 2.48 1.12 3.34 c0.78 0.88 1.9 1.3 3.44 1.3 c0.82 0 1.5 -0.2 2.1 -0.6 c0.62 -0.42 1.06 -0.94 1.36 -1.64 c0.1 -0.26 0.36 -0.42 0.64 -0.42 l1.58 0 c0.22 0 0.44 0.1 0.56 0.28 c0.14 0.2 0.18 0.42 0.1 0.64 c-0.5 1.4 -1.32 2.5 -2.44 3.3 c-1.2 0.86 -2.62 1.3 -4.24 1.3 c-2.14 0 -3.9 -0.74 -5.24 -2.22 c-1.24 -1.4 -1.88 -3.18 -1.88 -5.28 s0.64 -3.88 1.88 -5.28 c1.34 -1.48 3.1 -2.22 5.24 -2.22 c1.62 0 3.04 0.44 4.24 1.3 c1.12 0.8 1.94 1.92 2.44 3.3 c0.08 0.22 0.04 0.46 -0.1 0.64 c-0.12 0.18 -0.34 0.28 -0.56 0.28 l-1.58 0 c-0.28 0 -0.54 -0.16 -0.64 -0.42 c-0.3 -0.7 -0.74 -1.22 -1.36 -1.64 c-0.6 -0.4 -1.28 -0.6 -2.1 -0.6 c-0.86 0 -1.56 0.12 -2.1 0.36 z M245.76 12.42 c1.12 0.72 1.74 1.78 1.74 3.06 c0 1.48 -0.58 2.62 -1.7 3.42 c-1.04 0.72 -2.48 1.1 -4.26 1.1 c-2.02 0 -3.6 -0.44 -4.7 -1.32 c-1.02 -0.82 -1.6 -1.98 -1.74 -3.44 c-0.02 -0.2 0.04 -0.4 0.18 -0.54 s0.32 -0.22 0.52 -0.22 l1.56 0 c0.38 0 0.68 0.28 0.7 0.64 c0.04 0.68 0.34 1.16 0.98 1.54 c0.6 0.34 1.46 0.52 2.52 0.52 c3.04 0 3.04 -1.2 3.04 -1.64 c0 -0.32 -0.12 -0.52 -0.38 -0.7 c-0.38 -0.26 -0.88 -0.48 -1.48 -0.66 c-0.66 -0.2 -1.38 -0.38 -2.14 -0.56 c-0.82 -0.18 -1.6 -0.42 -2.3 -0.7 c-0.76 -0.32 -1.42 -0.72 -1.92 -1.24 c-0.58 -0.58 -0.88 -1.36 -0.88 -2.3 c0 -1.3 0.5 -2.38 1.5 -3.2 c0.96 -0.78 2.36 -1.18 4.2 -1.18 s3.3 0.44 4.36 1.32 c0.98 0.8 1.52 1.86 1.58 3.14 c0.02 0.18 -0.06 0.38 -0.18 0.52 c-0.14 0.12 -0.32 0.2 -0.5 0.2 l-1.56 0 c-0.34 0 -0.64 -0.26 -0.68 -0.6 c-0.06 -0.52 -0.3 -1.24 -1.62 -1.6 c-0.4 -0.12 -0.92 -0.18 -1.52 -0.18 s-1.1 0.06 -1.48 0.2 c-0.38 0.12 -0.66 0.26 -0.84 0.42 c-0.16 0.14 -0.26 0.28 -0.3 0.42 c-0.06 0.2 -0.1 0.42 -0.1 0.64 c0 0.04 0 0.16 0.18 0.34 c0.2 0.18 0.46 0.36 0.8 0.48 c0.4 0.18 0.86 0.32 1.38 0.44 c0.54 0.14 1.1 0.28 1.68 0.42 s1.16 0.3 1.72 0.48 c0.6 0.2 1.16 0.46 1.64 0.78 z "/></g><g id="SvgjsG1107" featureKey="text3" fill="#fff" transform="matrix(1,0,0,1,179,101)"><path d=""/></g>
			</g>
		</svg>
	