M48
; DRILL file {KiCad (5.1.6)-1} date 10/09/20 05:33:14
; FORMAT={3:3/ absolute / metric / suppress leading zeros}
; #@! TF.CreationDate,2020-10-09T05:33:14-04:00
; #@! TF.GenerationSoftware,Kicad,Pcbnew,(5.1.6)-1
FMAT,2
METRIC,TZ
T1C0.600
T2C0.800
T3C4.300
%
G90
G05
T1
X168275Y-127500
X169220Y-125220
X169220Y-129780
X171500Y-124275
X171500Y-130725
X173780Y-125220
X173780Y-129780
X174725Y-127500
X130775Y-57500
X131720Y-55220
X131720Y-59780
X134000Y-54275
X134000Y-60725
X136280Y-55220
X136280Y-59780
X137225Y-57500
X130775Y-127500
X131720Y-125220
X131720Y-129780
X134000Y-124275
X134000Y-130725
X136280Y-125220
X136280Y-129780
X137225Y-127500
X168275Y-57500
X169220Y-55220
X169220Y-59780
X171500Y-54275
X171500Y-60725
X173780Y-55220
X173780Y-59780
X174725Y-57500
T2
X138000Y-62500
X138000Y-122500
X166000Y-61500
X166000Y-122500
T3
X134000Y-127500
X171500Y-57500
X171500Y-127500
X134000Y-57500
T0
M30
