%TF.GenerationSoftware,KiCad,Pcbnew,(5.1.6)-1*%
%TF.CreationDate,2020-10-09T05:33:10-04:00*%
%TF.ProjectId,RFID_PROJECT_PHASE-SHIFTER,52464944-5f50-4524-9f4a-4543545f5048,B*%
%TF.SameCoordinates,Original*%
%TF.FileFunction,Copper,L4,Bot*%
%TF.FilePolarity,Positive*%
%FSLAX46Y46*%
G04 Gerber Fmt 4.6, Leading zero omitted, Abs format (unit mm)*
G04 Created by KiCad (PCBNEW (5.1.6)-1) date 2020-10-09 05:33:10*
%MOMM*%
%LPD*%
G01*
G04 APERTURE LIST*
%TA.AperFunction,ComponentPad*%
%ADD10C,0.900000*%
%TD*%
%TA.AperFunction,ComponentPad*%
%ADD11C,8.600000*%
%TD*%
%TA.AperFunction,SMDPad,CuDef*%
%ADD12R,4.200000X1.350000*%
%TD*%
%TA.AperFunction,ViaPad*%
%ADD13C,1.000000*%
%TD*%
%TA.AperFunction,Conductor*%
%ADD14C,0.254000*%
%TD*%
G04 APERTURE END LIST*
D10*
%TO.P,H8,1*%
%TO.N,N/C*%
X173780419Y-125219581D03*
X171500000Y-124275000D03*
X169219581Y-125219581D03*
X168275000Y-127500000D03*
X169219581Y-129780419D03*
X171500000Y-130725000D03*
X173780419Y-129780419D03*
X174725000Y-127500000D03*
D11*
X171500000Y-127500000D03*
%TD*%
D10*
%TO.P,H7,1*%
%TO.N,N/C*%
X136280419Y-125219581D03*
X134000000Y-124275000D03*
X131719581Y-125219581D03*
X130775000Y-127500000D03*
X131719581Y-129780419D03*
X134000000Y-130725000D03*
X136280419Y-129780419D03*
X137225000Y-127500000D03*
D11*
X134000000Y-127500000D03*
%TD*%
D10*
%TO.P,H6,1*%
%TO.N,N/C*%
X173780419Y-55219581D03*
X171500000Y-54275000D03*
X169219581Y-55219581D03*
X168275000Y-57500000D03*
X169219581Y-59780419D03*
X171500000Y-60725000D03*
X173780419Y-59780419D03*
X174725000Y-57500000D03*
D11*
X171500000Y-57500000D03*
%TD*%
D10*
%TO.P,H5,1*%
%TO.N,N/C*%
X136280419Y-55219581D03*
X134000000Y-54275000D03*
X131719581Y-55219581D03*
X130775000Y-57500000D03*
X131719581Y-59780419D03*
X134000000Y-60725000D03*
X136280419Y-59780419D03*
X137225000Y-57500000D03*
D11*
X134000000Y-57500000D03*
%TD*%
D12*
%TO.P,J5,2*%
%TO.N,GND1*%
X130700000Y-66675000D03*
X130700000Y-72325000D03*
%TD*%
%TO.P,J6,2*%
%TO.N,GND1*%
X130700000Y-112675000D03*
X130700000Y-118325000D03*
%TD*%
%TO.P,J7,2*%
%TO.N,GND1*%
X174300000Y-89675000D03*
X174300000Y-95325000D03*
%TD*%
D13*
%TO.N,GND1*%
X138000000Y-62500000D03*
X166000000Y-61500000D03*
X166000000Y-122500000D03*
X138000000Y-122500000D03*
%TD*%
D14*
%TO.N,GND1*%
G36*
X134365717Y-52175088D02*
G01*
X134466353Y-52185000D01*
X170533647Y-52185000D01*
X170634283Y-52175088D01*
X170642993Y-52172446D01*
X171436842Y-52231439D01*
X172353106Y-52438769D01*
X173228657Y-52779252D01*
X173833589Y-53124999D01*
X172939486Y-52754650D01*
X171986055Y-52565000D01*
X171013945Y-52565000D01*
X170060514Y-52754650D01*
X169162401Y-53126660D01*
X168354121Y-53666735D01*
X167666735Y-54354121D01*
X167126660Y-55162401D01*
X166754650Y-56060514D01*
X166565000Y-57013945D01*
X166565000Y-57986055D01*
X166754650Y-58939486D01*
X167126660Y-59837599D01*
X167666735Y-60645879D01*
X168354121Y-61333265D01*
X169162401Y-61873340D01*
X170060514Y-62245350D01*
X171013945Y-62435000D01*
X171986055Y-62435000D01*
X172939486Y-62245350D01*
X173837599Y-61873340D01*
X174645879Y-61333265D01*
X175333265Y-60645879D01*
X175873340Y-59837599D01*
X176245350Y-58939486D01*
X176435000Y-57986055D01*
X176435000Y-57013945D01*
X176245350Y-56060514D01*
X175873340Y-55162401D01*
X175766929Y-55003146D01*
X175961160Y-55283129D01*
X176376659Y-56125677D01*
X176663054Y-57020376D01*
X176815689Y-57957579D01*
X176832427Y-58340946D01*
X176824912Y-58365718D01*
X176815000Y-58466354D01*
X176815000Y-88519119D01*
X176754494Y-88469463D01*
X176644180Y-88410498D01*
X176524482Y-88374188D01*
X176400000Y-88361928D01*
X174585750Y-88365000D01*
X174427000Y-88523750D01*
X174427000Y-89548000D01*
X174447000Y-89548000D01*
X174447000Y-89802000D01*
X174427000Y-89802000D01*
X174427000Y-90826250D01*
X174585750Y-90985000D01*
X176400000Y-90988072D01*
X176524482Y-90975812D01*
X176644180Y-90939502D01*
X176754494Y-90880537D01*
X176815000Y-90830881D01*
X176815001Y-94169119D01*
X176754494Y-94119463D01*
X176644180Y-94060498D01*
X176524482Y-94024188D01*
X176400000Y-94011928D01*
X174585750Y-94015000D01*
X174427000Y-94173750D01*
X174427000Y-95198000D01*
X174447000Y-95198000D01*
X174447000Y-95452000D01*
X174427000Y-95452000D01*
X174427000Y-96476250D01*
X174585750Y-96635000D01*
X176400000Y-96638072D01*
X176524482Y-96625812D01*
X176644180Y-96589502D01*
X176754494Y-96530537D01*
X176815001Y-96480881D01*
X176815001Y-126533647D01*
X176824913Y-126634283D01*
X176827554Y-126642990D01*
X176768561Y-127436841D01*
X176561231Y-128353106D01*
X176220748Y-129228657D01*
X175875001Y-129833589D01*
X176245350Y-128939486D01*
X176435000Y-127986055D01*
X176435000Y-127013945D01*
X176245350Y-126060514D01*
X175873340Y-125162401D01*
X175333265Y-124354121D01*
X174645879Y-123666735D01*
X173837599Y-123126660D01*
X172939486Y-122754650D01*
X171986055Y-122565000D01*
X171013945Y-122565000D01*
X170060514Y-122754650D01*
X169162401Y-123126660D01*
X168354121Y-123666735D01*
X167666735Y-124354121D01*
X167126660Y-125162401D01*
X166754650Y-126060514D01*
X166565000Y-127013945D01*
X166565000Y-127986055D01*
X166754650Y-128939486D01*
X167126660Y-129837599D01*
X167666735Y-130645879D01*
X168354121Y-131333265D01*
X169162401Y-131873340D01*
X170060514Y-132245350D01*
X171013945Y-132435000D01*
X171986055Y-132435000D01*
X172939486Y-132245350D01*
X173837599Y-131873340D01*
X173996837Y-131766940D01*
X173716871Y-131961160D01*
X172874323Y-132376659D01*
X171979624Y-132663054D01*
X171042414Y-132815689D01*
X170659055Y-132832427D01*
X170634283Y-132824912D01*
X170533647Y-132815000D01*
X134466353Y-132815000D01*
X134365717Y-132824912D01*
X134357007Y-132827554D01*
X133563159Y-132768561D01*
X132646894Y-132561231D01*
X131771343Y-132220748D01*
X130955735Y-131754590D01*
X130217986Y-131172995D01*
X129574311Y-130488749D01*
X129038840Y-129716871D01*
X128623341Y-128874323D01*
X128336946Y-127979624D01*
X128184311Y-127042414D01*
X128183069Y-127013945D01*
X129065000Y-127013945D01*
X129065000Y-127986055D01*
X129254650Y-128939486D01*
X129626660Y-129837599D01*
X130166735Y-130645879D01*
X130854121Y-131333265D01*
X131662401Y-131873340D01*
X132560514Y-132245350D01*
X133513945Y-132435000D01*
X134486055Y-132435000D01*
X135439486Y-132245350D01*
X136337599Y-131873340D01*
X137145879Y-131333265D01*
X137833265Y-130645879D01*
X138373340Y-129837599D01*
X138745350Y-128939486D01*
X138935000Y-127986055D01*
X138935000Y-127013945D01*
X138745350Y-126060514D01*
X138373340Y-125162401D01*
X137833265Y-124354121D01*
X137145879Y-123666735D01*
X136337599Y-123126660D01*
X135439486Y-122754650D01*
X134486055Y-122565000D01*
X133513945Y-122565000D01*
X132560514Y-122754650D01*
X131662401Y-123126660D01*
X130854121Y-123666735D01*
X130166735Y-124354121D01*
X129626660Y-125162401D01*
X129254650Y-126060514D01*
X129065000Y-127013945D01*
X128183069Y-127013945D01*
X128167573Y-126659055D01*
X128175088Y-126634283D01*
X128185000Y-126533647D01*
X128185000Y-119480881D01*
X128245506Y-119530537D01*
X128355820Y-119589502D01*
X128475518Y-119625812D01*
X128600000Y-119638072D01*
X130414250Y-119635000D01*
X130573000Y-119476250D01*
X130573000Y-118452000D01*
X130827000Y-118452000D01*
X130827000Y-119476250D01*
X130985750Y-119635000D01*
X132800000Y-119638072D01*
X132924482Y-119625812D01*
X133044180Y-119589502D01*
X133154494Y-119530537D01*
X133251185Y-119451185D01*
X133330537Y-119354494D01*
X133389502Y-119244180D01*
X133425812Y-119124482D01*
X133438072Y-119000000D01*
X133435000Y-118610750D01*
X133276250Y-118452000D01*
X130827000Y-118452000D01*
X130573000Y-118452000D01*
X130553000Y-118452000D01*
X130553000Y-118198000D01*
X130573000Y-118198000D01*
X130573000Y-117173750D01*
X130827000Y-117173750D01*
X130827000Y-118198000D01*
X133276250Y-118198000D01*
X133435000Y-118039250D01*
X133438072Y-117650000D01*
X133425812Y-117525518D01*
X133389502Y-117405820D01*
X133330537Y-117295506D01*
X133251185Y-117198815D01*
X133154494Y-117119463D01*
X133044180Y-117060498D01*
X132924482Y-117024188D01*
X132800000Y-117011928D01*
X130985750Y-117015000D01*
X130827000Y-117173750D01*
X130573000Y-117173750D01*
X130414250Y-117015000D01*
X128600000Y-117011928D01*
X128475518Y-117024188D01*
X128355820Y-117060498D01*
X128245506Y-117119463D01*
X128185000Y-117169119D01*
X128185000Y-113830881D01*
X128245506Y-113880537D01*
X128355820Y-113939502D01*
X128475518Y-113975812D01*
X128600000Y-113988072D01*
X130414250Y-113985000D01*
X130573000Y-113826250D01*
X130573000Y-112802000D01*
X130827000Y-112802000D01*
X130827000Y-113826250D01*
X130985750Y-113985000D01*
X132800000Y-113988072D01*
X132924482Y-113975812D01*
X133044180Y-113939502D01*
X133154494Y-113880537D01*
X133251185Y-113801185D01*
X133330537Y-113704494D01*
X133389502Y-113594180D01*
X133425812Y-113474482D01*
X133438072Y-113350000D01*
X133435000Y-112960750D01*
X133276250Y-112802000D01*
X130827000Y-112802000D01*
X130573000Y-112802000D01*
X130553000Y-112802000D01*
X130553000Y-112548000D01*
X130573000Y-112548000D01*
X130573000Y-111523750D01*
X130827000Y-111523750D01*
X130827000Y-112548000D01*
X133276250Y-112548000D01*
X133435000Y-112389250D01*
X133438072Y-112000000D01*
X133425812Y-111875518D01*
X133389502Y-111755820D01*
X133330537Y-111645506D01*
X133251185Y-111548815D01*
X133154494Y-111469463D01*
X133044180Y-111410498D01*
X132924482Y-111374188D01*
X132800000Y-111361928D01*
X130985750Y-111365000D01*
X130827000Y-111523750D01*
X130573000Y-111523750D01*
X130414250Y-111365000D01*
X128600000Y-111361928D01*
X128475518Y-111374188D01*
X128355820Y-111410498D01*
X128245506Y-111469463D01*
X128185000Y-111519119D01*
X128185000Y-96000000D01*
X171561928Y-96000000D01*
X171574188Y-96124482D01*
X171610498Y-96244180D01*
X171669463Y-96354494D01*
X171748815Y-96451185D01*
X171845506Y-96530537D01*
X171955820Y-96589502D01*
X172075518Y-96625812D01*
X172200000Y-96638072D01*
X174014250Y-96635000D01*
X174173000Y-96476250D01*
X174173000Y-95452000D01*
X171723750Y-95452000D01*
X171565000Y-95610750D01*
X171561928Y-96000000D01*
X128185000Y-96000000D01*
X128185000Y-94650000D01*
X171561928Y-94650000D01*
X171565000Y-95039250D01*
X171723750Y-95198000D01*
X174173000Y-95198000D01*
X174173000Y-94173750D01*
X174014250Y-94015000D01*
X172200000Y-94011928D01*
X172075518Y-94024188D01*
X171955820Y-94060498D01*
X171845506Y-94119463D01*
X171748815Y-94198815D01*
X171669463Y-94295506D01*
X171610498Y-94405820D01*
X171574188Y-94525518D01*
X171561928Y-94650000D01*
X128185000Y-94650000D01*
X128185000Y-90350000D01*
X171561928Y-90350000D01*
X171574188Y-90474482D01*
X171610498Y-90594180D01*
X171669463Y-90704494D01*
X171748815Y-90801185D01*
X171845506Y-90880537D01*
X171955820Y-90939502D01*
X172075518Y-90975812D01*
X172200000Y-90988072D01*
X174014250Y-90985000D01*
X174173000Y-90826250D01*
X174173000Y-89802000D01*
X171723750Y-89802000D01*
X171565000Y-89960750D01*
X171561928Y-90350000D01*
X128185000Y-90350000D01*
X128185000Y-89000000D01*
X171561928Y-89000000D01*
X171565000Y-89389250D01*
X171723750Y-89548000D01*
X174173000Y-89548000D01*
X174173000Y-88523750D01*
X174014250Y-88365000D01*
X172200000Y-88361928D01*
X172075518Y-88374188D01*
X171955820Y-88410498D01*
X171845506Y-88469463D01*
X171748815Y-88548815D01*
X171669463Y-88645506D01*
X171610498Y-88755820D01*
X171574188Y-88875518D01*
X171561928Y-89000000D01*
X128185000Y-89000000D01*
X128185000Y-73480881D01*
X128245506Y-73530537D01*
X128355820Y-73589502D01*
X128475518Y-73625812D01*
X128600000Y-73638072D01*
X130414250Y-73635000D01*
X130573000Y-73476250D01*
X130573000Y-72452000D01*
X130827000Y-72452000D01*
X130827000Y-73476250D01*
X130985750Y-73635000D01*
X132800000Y-73638072D01*
X132924482Y-73625812D01*
X133044180Y-73589502D01*
X133154494Y-73530537D01*
X133251185Y-73451185D01*
X133330537Y-73354494D01*
X133389502Y-73244180D01*
X133425812Y-73124482D01*
X133438072Y-73000000D01*
X133435000Y-72610750D01*
X133276250Y-72452000D01*
X130827000Y-72452000D01*
X130573000Y-72452000D01*
X130553000Y-72452000D01*
X130553000Y-72198000D01*
X130573000Y-72198000D01*
X130573000Y-71173750D01*
X130827000Y-71173750D01*
X130827000Y-72198000D01*
X133276250Y-72198000D01*
X133435000Y-72039250D01*
X133438072Y-71650000D01*
X133425812Y-71525518D01*
X133389502Y-71405820D01*
X133330537Y-71295506D01*
X133251185Y-71198815D01*
X133154494Y-71119463D01*
X133044180Y-71060498D01*
X132924482Y-71024188D01*
X132800000Y-71011928D01*
X130985750Y-71015000D01*
X130827000Y-71173750D01*
X130573000Y-71173750D01*
X130414250Y-71015000D01*
X128600000Y-71011928D01*
X128475518Y-71024188D01*
X128355820Y-71060498D01*
X128245506Y-71119463D01*
X128185000Y-71169119D01*
X128185000Y-67830881D01*
X128245506Y-67880537D01*
X128355820Y-67939502D01*
X128475518Y-67975812D01*
X128600000Y-67988072D01*
X130414250Y-67985000D01*
X130573000Y-67826250D01*
X130573000Y-66802000D01*
X130827000Y-66802000D01*
X130827000Y-67826250D01*
X130985750Y-67985000D01*
X132800000Y-67988072D01*
X132924482Y-67975812D01*
X133044180Y-67939502D01*
X133154494Y-67880537D01*
X133251185Y-67801185D01*
X133330537Y-67704494D01*
X133389502Y-67594180D01*
X133425812Y-67474482D01*
X133438072Y-67350000D01*
X133435000Y-66960750D01*
X133276250Y-66802000D01*
X130827000Y-66802000D01*
X130573000Y-66802000D01*
X130553000Y-66802000D01*
X130553000Y-66548000D01*
X130573000Y-66548000D01*
X130573000Y-65523750D01*
X130827000Y-65523750D01*
X130827000Y-66548000D01*
X133276250Y-66548000D01*
X133435000Y-66389250D01*
X133438072Y-66000000D01*
X133425812Y-65875518D01*
X133389502Y-65755820D01*
X133330537Y-65645506D01*
X133251185Y-65548815D01*
X133154494Y-65469463D01*
X133044180Y-65410498D01*
X132924482Y-65374188D01*
X132800000Y-65361928D01*
X130985750Y-65365000D01*
X130827000Y-65523750D01*
X130573000Y-65523750D01*
X130414250Y-65365000D01*
X128600000Y-65361928D01*
X128475518Y-65374188D01*
X128355820Y-65410498D01*
X128245506Y-65469463D01*
X128185000Y-65519119D01*
X128185000Y-58466353D01*
X128175088Y-58365717D01*
X128172446Y-58357007D01*
X128231439Y-57563158D01*
X128355713Y-57013945D01*
X129065000Y-57013945D01*
X129065000Y-57986055D01*
X129254650Y-58939486D01*
X129626660Y-59837599D01*
X130166735Y-60645879D01*
X130854121Y-61333265D01*
X131662401Y-61873340D01*
X132560514Y-62245350D01*
X133513945Y-62435000D01*
X134486055Y-62435000D01*
X135439486Y-62245350D01*
X136337599Y-61873340D01*
X137145879Y-61333265D01*
X137833265Y-60645879D01*
X138373340Y-59837599D01*
X138745350Y-58939486D01*
X138935000Y-57986055D01*
X138935000Y-57013945D01*
X138745350Y-56060514D01*
X138373340Y-55162401D01*
X137833265Y-54354121D01*
X137145879Y-53666735D01*
X136337599Y-53126660D01*
X135439486Y-52754650D01*
X134486055Y-52565000D01*
X133513945Y-52565000D01*
X132560514Y-52754650D01*
X131662401Y-53126660D01*
X130854121Y-53666735D01*
X130166735Y-54354121D01*
X129626660Y-55162401D01*
X129254650Y-56060514D01*
X129065000Y-57013945D01*
X128355713Y-57013945D01*
X128438769Y-56646894D01*
X128779252Y-55771343D01*
X129245410Y-54955735D01*
X129827005Y-54217986D01*
X130511251Y-53574311D01*
X131283129Y-53038840D01*
X132125677Y-52623341D01*
X133020376Y-52336946D01*
X133957579Y-52184311D01*
X134340945Y-52167573D01*
X134365717Y-52175088D01*
G37*
X134365717Y-52175088D02*
X134466353Y-52185000D01*
X170533647Y-52185000D01*
X170634283Y-52175088D01*
X170642993Y-52172446D01*
X171436842Y-52231439D01*
X172353106Y-52438769D01*
X173228657Y-52779252D01*
X173833589Y-53124999D01*
X172939486Y-52754650D01*
X171986055Y-52565000D01*
X171013945Y-52565000D01*
X170060514Y-52754650D01*
X169162401Y-53126660D01*
X168354121Y-53666735D01*
X167666735Y-54354121D01*
X167126660Y-55162401D01*
X166754650Y-56060514D01*
X166565000Y-57013945D01*
X166565000Y-57986055D01*
X166754650Y-58939486D01*
X167126660Y-59837599D01*
X167666735Y-60645879D01*
X168354121Y-61333265D01*
X169162401Y-61873340D01*
X170060514Y-62245350D01*
X171013945Y-62435000D01*
X171986055Y-62435000D01*
X172939486Y-62245350D01*
X173837599Y-61873340D01*
X174645879Y-61333265D01*
X175333265Y-60645879D01*
X175873340Y-59837599D01*
X176245350Y-58939486D01*
X176435000Y-57986055D01*
X176435000Y-57013945D01*
X176245350Y-56060514D01*
X175873340Y-55162401D01*
X175766929Y-55003146D01*
X175961160Y-55283129D01*
X176376659Y-56125677D01*
X176663054Y-57020376D01*
X176815689Y-57957579D01*
X176832427Y-58340946D01*
X176824912Y-58365718D01*
X176815000Y-58466354D01*
X176815000Y-88519119D01*
X176754494Y-88469463D01*
X176644180Y-88410498D01*
X176524482Y-88374188D01*
X176400000Y-88361928D01*
X174585750Y-88365000D01*
X174427000Y-88523750D01*
X174427000Y-89548000D01*
X174447000Y-89548000D01*
X174447000Y-89802000D01*
X174427000Y-89802000D01*
X174427000Y-90826250D01*
X174585750Y-90985000D01*
X176400000Y-90988072D01*
X176524482Y-90975812D01*
X176644180Y-90939502D01*
X176754494Y-90880537D01*
X176815000Y-90830881D01*
X176815001Y-94169119D01*
X176754494Y-94119463D01*
X176644180Y-94060498D01*
X176524482Y-94024188D01*
X176400000Y-94011928D01*
X174585750Y-94015000D01*
X174427000Y-94173750D01*
X174427000Y-95198000D01*
X174447000Y-95198000D01*
X174447000Y-95452000D01*
X174427000Y-95452000D01*
X174427000Y-96476250D01*
X174585750Y-96635000D01*
X176400000Y-96638072D01*
X176524482Y-96625812D01*
X176644180Y-96589502D01*
X176754494Y-96530537D01*
X176815001Y-96480881D01*
X176815001Y-126533647D01*
X176824913Y-126634283D01*
X176827554Y-126642990D01*
X176768561Y-127436841D01*
X176561231Y-128353106D01*
X176220748Y-129228657D01*
X175875001Y-129833589D01*
X176245350Y-128939486D01*
X176435000Y-127986055D01*
X176435000Y-127013945D01*
X176245350Y-126060514D01*
X175873340Y-125162401D01*
X175333265Y-124354121D01*
X174645879Y-123666735D01*
X173837599Y-123126660D01*
X172939486Y-122754650D01*
X171986055Y-122565000D01*
X171013945Y-122565000D01*
X170060514Y-122754650D01*
X169162401Y-123126660D01*
X168354121Y-123666735D01*
X167666735Y-124354121D01*
X167126660Y-125162401D01*
X166754650Y-126060514D01*
X166565000Y-127013945D01*
X166565000Y-127986055D01*
X166754650Y-128939486D01*
X167126660Y-129837599D01*
X167666735Y-130645879D01*
X168354121Y-131333265D01*
X169162401Y-131873340D01*
X170060514Y-132245350D01*
X171013945Y-132435000D01*
X171986055Y-132435000D01*
X172939486Y-132245350D01*
X173837599Y-131873340D01*
X173996837Y-131766940D01*
X173716871Y-131961160D01*
X172874323Y-132376659D01*
X171979624Y-132663054D01*
X171042414Y-132815689D01*
X170659055Y-132832427D01*
X170634283Y-132824912D01*
X170533647Y-132815000D01*
X134466353Y-132815000D01*
X134365717Y-132824912D01*
X134357007Y-132827554D01*
X133563159Y-132768561D01*
X132646894Y-132561231D01*
X131771343Y-132220748D01*
X130955735Y-131754590D01*
X130217986Y-131172995D01*
X129574311Y-130488749D01*
X129038840Y-129716871D01*
X128623341Y-128874323D01*
X128336946Y-127979624D01*
X128184311Y-127042414D01*
X128183069Y-127013945D01*
X129065000Y-127013945D01*
X129065000Y-127986055D01*
X129254650Y-128939486D01*
X129626660Y-129837599D01*
X130166735Y-130645879D01*
X130854121Y-131333265D01*
X131662401Y-131873340D01*
X132560514Y-132245350D01*
X133513945Y-132435000D01*
X134486055Y-132435000D01*
X135439486Y-132245350D01*
X136337599Y-131873340D01*
X137145879Y-131333265D01*
X137833265Y-130645879D01*
X138373340Y-129837599D01*
X138745350Y-128939486D01*
X138935000Y-127986055D01*
X138935000Y-127013945D01*
X138745350Y-126060514D01*
X138373340Y-125162401D01*
X137833265Y-124354121D01*
X137145879Y-123666735D01*
X136337599Y-123126660D01*
X135439486Y-122754650D01*
X134486055Y-122565000D01*
X133513945Y-122565000D01*
X132560514Y-122754650D01*
X131662401Y-123126660D01*
X130854121Y-123666735D01*
X130166735Y-124354121D01*
X129626660Y-125162401D01*
X129254650Y-126060514D01*
X129065000Y-127013945D01*
X128183069Y-127013945D01*
X128167573Y-126659055D01*
X128175088Y-126634283D01*
X128185000Y-126533647D01*
X128185000Y-119480881D01*
X128245506Y-119530537D01*
X128355820Y-119589502D01*
X128475518Y-119625812D01*
X128600000Y-119638072D01*
X130414250Y-119635000D01*
X130573000Y-119476250D01*
X130573000Y-118452000D01*
X130827000Y-118452000D01*
X130827000Y-119476250D01*
X130985750Y-119635000D01*
X132800000Y-119638072D01*
X132924482Y-119625812D01*
X133044180Y-119589502D01*
X133154494Y-119530537D01*
X133251185Y-119451185D01*
X133330537Y-119354494D01*
X133389502Y-119244180D01*
X133425812Y-119124482D01*
X133438072Y-119000000D01*
X133435000Y-118610750D01*
X133276250Y-118452000D01*
X130827000Y-118452000D01*
X130573000Y-118452000D01*
X130553000Y-118452000D01*
X130553000Y-118198000D01*
X130573000Y-118198000D01*
X130573000Y-117173750D01*
X130827000Y-117173750D01*
X130827000Y-118198000D01*
X133276250Y-118198000D01*
X133435000Y-118039250D01*
X133438072Y-117650000D01*
X133425812Y-117525518D01*
X133389502Y-117405820D01*
X133330537Y-117295506D01*
X133251185Y-117198815D01*
X133154494Y-117119463D01*
X133044180Y-117060498D01*
X132924482Y-117024188D01*
X132800000Y-117011928D01*
X130985750Y-117015000D01*
X130827000Y-117173750D01*
X130573000Y-117173750D01*
X130414250Y-117015000D01*
X128600000Y-117011928D01*
X128475518Y-117024188D01*
X128355820Y-117060498D01*
X128245506Y-117119463D01*
X128185000Y-117169119D01*
X128185000Y-113830881D01*
X128245506Y-113880537D01*
X128355820Y-113939502D01*
X128475518Y-113975812D01*
X128600000Y-113988072D01*
X130414250Y-113985000D01*
X130573000Y-113826250D01*
X130573000Y-112802000D01*
X130827000Y-112802000D01*
X130827000Y-113826250D01*
X130985750Y-113985000D01*
X132800000Y-113988072D01*
X132924482Y-113975812D01*
X133044180Y-113939502D01*
X133154494Y-113880537D01*
X133251185Y-113801185D01*
X133330537Y-113704494D01*
X133389502Y-113594180D01*
X133425812Y-113474482D01*
X133438072Y-113350000D01*
X133435000Y-112960750D01*
X133276250Y-112802000D01*
X130827000Y-112802000D01*
X130573000Y-112802000D01*
X130553000Y-112802000D01*
X130553000Y-112548000D01*
X130573000Y-112548000D01*
X130573000Y-111523750D01*
X130827000Y-111523750D01*
X130827000Y-112548000D01*
X133276250Y-112548000D01*
X133435000Y-112389250D01*
X133438072Y-112000000D01*
X133425812Y-111875518D01*
X133389502Y-111755820D01*
X133330537Y-111645506D01*
X133251185Y-111548815D01*
X133154494Y-111469463D01*
X133044180Y-111410498D01*
X132924482Y-111374188D01*
X132800000Y-111361928D01*
X130985750Y-111365000D01*
X130827000Y-111523750D01*
X130573000Y-111523750D01*
X130414250Y-111365000D01*
X128600000Y-111361928D01*
X128475518Y-111374188D01*
X128355820Y-111410498D01*
X128245506Y-111469463D01*
X128185000Y-111519119D01*
X128185000Y-96000000D01*
X171561928Y-96000000D01*
X171574188Y-96124482D01*
X171610498Y-96244180D01*
X171669463Y-96354494D01*
X171748815Y-96451185D01*
X171845506Y-96530537D01*
X171955820Y-96589502D01*
X172075518Y-96625812D01*
X172200000Y-96638072D01*
X174014250Y-96635000D01*
X174173000Y-96476250D01*
X174173000Y-95452000D01*
X171723750Y-95452000D01*
X171565000Y-95610750D01*
X171561928Y-96000000D01*
X128185000Y-96000000D01*
X128185000Y-94650000D01*
X171561928Y-94650000D01*
X171565000Y-95039250D01*
X171723750Y-95198000D01*
X174173000Y-95198000D01*
X174173000Y-94173750D01*
X174014250Y-94015000D01*
X172200000Y-94011928D01*
X172075518Y-94024188D01*
X171955820Y-94060498D01*
X171845506Y-94119463D01*
X171748815Y-94198815D01*
X171669463Y-94295506D01*
X171610498Y-94405820D01*
X171574188Y-94525518D01*
X171561928Y-94650000D01*
X128185000Y-94650000D01*
X128185000Y-90350000D01*
X171561928Y-90350000D01*
X171574188Y-90474482D01*
X171610498Y-90594180D01*
X171669463Y-90704494D01*
X171748815Y-90801185D01*
X171845506Y-90880537D01*
X171955820Y-90939502D01*
X172075518Y-90975812D01*
X172200000Y-90988072D01*
X174014250Y-90985000D01*
X174173000Y-90826250D01*
X174173000Y-89802000D01*
X171723750Y-89802000D01*
X171565000Y-89960750D01*
X171561928Y-90350000D01*
X128185000Y-90350000D01*
X128185000Y-89000000D01*
X171561928Y-89000000D01*
X171565000Y-89389250D01*
X171723750Y-89548000D01*
X174173000Y-89548000D01*
X174173000Y-88523750D01*
X174014250Y-88365000D01*
X172200000Y-88361928D01*
X172075518Y-88374188D01*
X171955820Y-88410498D01*
X171845506Y-88469463D01*
X171748815Y-88548815D01*
X171669463Y-88645506D01*
X171610498Y-88755820D01*
X171574188Y-88875518D01*
X171561928Y-89000000D01*
X128185000Y-89000000D01*
X128185000Y-73480881D01*
X128245506Y-73530537D01*
X128355820Y-73589502D01*
X128475518Y-73625812D01*
X128600000Y-73638072D01*
X130414250Y-73635000D01*
X130573000Y-73476250D01*
X130573000Y-72452000D01*
X130827000Y-72452000D01*
X130827000Y-73476250D01*
X130985750Y-73635000D01*
X132800000Y-73638072D01*
X132924482Y-73625812D01*
X133044180Y-73589502D01*
X133154494Y-73530537D01*
X133251185Y-73451185D01*
X133330537Y-73354494D01*
X133389502Y-73244180D01*
X133425812Y-73124482D01*
X133438072Y-73000000D01*
X133435000Y-72610750D01*
X133276250Y-72452000D01*
X130827000Y-72452000D01*
X130573000Y-72452000D01*
X130553000Y-72452000D01*
X130553000Y-72198000D01*
X130573000Y-72198000D01*
X130573000Y-71173750D01*
X130827000Y-71173750D01*
X130827000Y-72198000D01*
X133276250Y-72198000D01*
X133435000Y-72039250D01*
X133438072Y-71650000D01*
X133425812Y-71525518D01*
X133389502Y-71405820D01*
X133330537Y-71295506D01*
X133251185Y-71198815D01*
X133154494Y-71119463D01*
X133044180Y-71060498D01*
X132924482Y-71024188D01*
X132800000Y-71011928D01*
X130985750Y-71015000D01*
X130827000Y-71173750D01*
X130573000Y-71173750D01*
X130414250Y-71015000D01*
X128600000Y-71011928D01*
X128475518Y-71024188D01*
X128355820Y-71060498D01*
X128245506Y-71119463D01*
X128185000Y-71169119D01*
X128185000Y-67830881D01*
X128245506Y-67880537D01*
X128355820Y-67939502D01*
X128475518Y-67975812D01*
X128600000Y-67988072D01*
X130414250Y-67985000D01*
X130573000Y-67826250D01*
X130573000Y-66802000D01*
X130827000Y-66802000D01*
X130827000Y-67826250D01*
X130985750Y-67985000D01*
X132800000Y-67988072D01*
X132924482Y-67975812D01*
X133044180Y-67939502D01*
X133154494Y-67880537D01*
X133251185Y-67801185D01*
X133330537Y-67704494D01*
X133389502Y-67594180D01*
X133425812Y-67474482D01*
X133438072Y-67350000D01*
X133435000Y-66960750D01*
X133276250Y-66802000D01*
X130827000Y-66802000D01*
X130573000Y-66802000D01*
X130553000Y-66802000D01*
X130553000Y-66548000D01*
X130573000Y-66548000D01*
X130573000Y-65523750D01*
X130827000Y-65523750D01*
X130827000Y-66548000D01*
X133276250Y-66548000D01*
X133435000Y-66389250D01*
X133438072Y-66000000D01*
X133425812Y-65875518D01*
X133389502Y-65755820D01*
X133330537Y-65645506D01*
X133251185Y-65548815D01*
X133154494Y-65469463D01*
X133044180Y-65410498D01*
X132924482Y-65374188D01*
X132800000Y-65361928D01*
X130985750Y-65365000D01*
X130827000Y-65523750D01*
X130573000Y-65523750D01*
X130414250Y-65365000D01*
X128600000Y-65361928D01*
X128475518Y-65374188D01*
X128355820Y-65410498D01*
X128245506Y-65469463D01*
X128185000Y-65519119D01*
X128185000Y-58466353D01*
X128175088Y-58365717D01*
X128172446Y-58357007D01*
X128231439Y-57563158D01*
X128355713Y-57013945D01*
X129065000Y-57013945D01*
X129065000Y-57986055D01*
X129254650Y-58939486D01*
X129626660Y-59837599D01*
X130166735Y-60645879D01*
X130854121Y-61333265D01*
X131662401Y-61873340D01*
X132560514Y-62245350D01*
X133513945Y-62435000D01*
X134486055Y-62435000D01*
X135439486Y-62245350D01*
X136337599Y-61873340D01*
X137145879Y-61333265D01*
X137833265Y-60645879D01*
X138373340Y-59837599D01*
X138745350Y-58939486D01*
X138935000Y-57986055D01*
X138935000Y-57013945D01*
X138745350Y-56060514D01*
X138373340Y-55162401D01*
X137833265Y-54354121D01*
X137145879Y-53666735D01*
X136337599Y-53126660D01*
X135439486Y-52754650D01*
X134486055Y-52565000D01*
X133513945Y-52565000D01*
X132560514Y-52754650D01*
X131662401Y-53126660D01*
X130854121Y-53666735D01*
X130166735Y-54354121D01*
X129626660Y-55162401D01*
X129254650Y-56060514D01*
X129065000Y-57013945D01*
X128355713Y-57013945D01*
X128438769Y-56646894D01*
X128779252Y-55771343D01*
X129245410Y-54955735D01*
X129827005Y-54217986D01*
X130511251Y-53574311D01*
X131283129Y-53038840D01*
X132125677Y-52623341D01*
X133020376Y-52336946D01*
X133957579Y-52184311D01*
X134340945Y-52167573D01*
X134365717Y-52175088D01*
%TD*%
M02*
