%TF.GenerationSoftware,KiCad,Pcbnew,(5.1.6)-1*%
%TF.CreationDate,2020-10-09T05:33:10-04:00*%
%TF.ProjectId,RFID_PROJECT_PHASE-SHIFTER,52464944-5f50-4524-9f4a-4543545f5048,B*%
%TF.SameCoordinates,Original*%
%TF.FileFunction,Legend,Top*%
%TF.FilePolarity,Positive*%
%FSLAX46Y46*%
G04 Gerber Fmt 4.6, Leading zero omitted, Abs format (unit mm)*
G04 Created by KiCad (PCBNEW (5.1.6)-1) date 2020-10-09 05:33:10*
%MOMM*%
%LPD*%
G01*
G04 APERTURE LIST*
%ADD10C,0.275000*%
%ADD11C,0.300000*%
%ADD12C,0.010000*%
%ADD13C,0.120000*%
%ADD14C,0.150000*%
G04 APERTURE END LIST*
D10*
X151480952Y-126035119D02*
X151114285Y-125511309D01*
X150852380Y-126035119D02*
X150852380Y-124935119D01*
X151271428Y-124935119D01*
X151376190Y-124987500D01*
X151428571Y-125039880D01*
X151480952Y-125144642D01*
X151480952Y-125301785D01*
X151428571Y-125406547D01*
X151376190Y-125458928D01*
X151271428Y-125511309D01*
X150852380Y-125511309D01*
X152371428Y-125982738D02*
X152266666Y-126035119D01*
X152057142Y-126035119D01*
X151952380Y-125982738D01*
X151900000Y-125877976D01*
X151900000Y-125458928D01*
X151952380Y-125354166D01*
X152057142Y-125301785D01*
X152266666Y-125301785D01*
X152371428Y-125354166D01*
X152423809Y-125458928D01*
X152423809Y-125563690D01*
X151900000Y-125668452D01*
X152790476Y-125301785D02*
X153052380Y-126035119D01*
X153314285Y-125301785D01*
X154938095Y-125458928D02*
X155095238Y-125511309D01*
X155147619Y-125563690D01*
X155200000Y-125668452D01*
X155200000Y-125825595D01*
X155147619Y-125930357D01*
X155095238Y-125982738D01*
X154990476Y-126035119D01*
X154571428Y-126035119D01*
X154571428Y-124935119D01*
X154938095Y-124935119D01*
X155042857Y-124987500D01*
X155095238Y-125039880D01*
X155147619Y-125144642D01*
X155147619Y-125249404D01*
X155095238Y-125354166D01*
X155042857Y-125406547D01*
X154938095Y-125458928D01*
X154571428Y-125458928D01*
X147657142Y-126964880D02*
X147709523Y-126912500D01*
X147814285Y-126860119D01*
X148076190Y-126860119D01*
X148180952Y-126912500D01*
X148233333Y-126964880D01*
X148285714Y-127069642D01*
X148285714Y-127174404D01*
X148233333Y-127331547D01*
X147604761Y-127960119D01*
X148285714Y-127960119D01*
X148966666Y-126860119D02*
X149071428Y-126860119D01*
X149176190Y-126912500D01*
X149228571Y-126964880D01*
X149280952Y-127069642D01*
X149333333Y-127279166D01*
X149333333Y-127541071D01*
X149280952Y-127750595D01*
X149228571Y-127855357D01*
X149176190Y-127907738D01*
X149071428Y-127960119D01*
X148966666Y-127960119D01*
X148861904Y-127907738D01*
X148809523Y-127855357D01*
X148757142Y-127750595D01*
X148704761Y-127541071D01*
X148704761Y-127279166D01*
X148757142Y-127069642D01*
X148809523Y-126964880D01*
X148861904Y-126912500D01*
X148966666Y-126860119D01*
X149752380Y-126964880D02*
X149804761Y-126912500D01*
X149909523Y-126860119D01*
X150171428Y-126860119D01*
X150276190Y-126912500D01*
X150328571Y-126964880D01*
X150380952Y-127069642D01*
X150380952Y-127174404D01*
X150328571Y-127331547D01*
X149700000Y-127960119D01*
X150380952Y-127960119D01*
X151061904Y-126860119D02*
X151166666Y-126860119D01*
X151271428Y-126912500D01*
X151323809Y-126964880D01*
X151376190Y-127069642D01*
X151428571Y-127279166D01*
X151428571Y-127541071D01*
X151376190Y-127750595D01*
X151323809Y-127855357D01*
X151271428Y-127907738D01*
X151166666Y-127960119D01*
X151061904Y-127960119D01*
X150957142Y-127907738D01*
X150904761Y-127855357D01*
X150852380Y-127750595D01*
X150800000Y-127541071D01*
X150800000Y-127279166D01*
X150852380Y-127069642D01*
X150904761Y-126964880D01*
X150957142Y-126912500D01*
X151061904Y-126860119D01*
X151900000Y-127541071D02*
X152738095Y-127541071D01*
X153838095Y-127960119D02*
X153209523Y-127960119D01*
X153523809Y-127960119D02*
X153523809Y-126860119D01*
X153419047Y-127017261D01*
X153314285Y-127122023D01*
X153209523Y-127174404D01*
X154519047Y-126860119D02*
X154623809Y-126860119D01*
X154728571Y-126912500D01*
X154780952Y-126964880D01*
X154833333Y-127069642D01*
X154885714Y-127279166D01*
X154885714Y-127541071D01*
X154833333Y-127750595D01*
X154780952Y-127855357D01*
X154728571Y-127907738D01*
X154623809Y-127960119D01*
X154519047Y-127960119D01*
X154414285Y-127907738D01*
X154361904Y-127855357D01*
X154309523Y-127750595D01*
X154257142Y-127541071D01*
X154257142Y-127279166D01*
X154309523Y-127069642D01*
X154361904Y-126964880D01*
X154414285Y-126912500D01*
X154519047Y-126860119D01*
X155357142Y-127541071D02*
X156195238Y-127541071D01*
X156928571Y-126860119D02*
X157033333Y-126860119D01*
X157138095Y-126912500D01*
X157190476Y-126964880D01*
X157242857Y-127069642D01*
X157295238Y-127279166D01*
X157295238Y-127541071D01*
X157242857Y-127750595D01*
X157190476Y-127855357D01*
X157138095Y-127907738D01*
X157033333Y-127960119D01*
X156928571Y-127960119D01*
X156823809Y-127907738D01*
X156771428Y-127855357D01*
X156719047Y-127750595D01*
X156666666Y-127541071D01*
X156666666Y-127279166D01*
X156719047Y-127069642D01*
X156771428Y-126964880D01*
X156823809Y-126912500D01*
X156928571Y-126860119D01*
X157661904Y-126860119D02*
X158395238Y-126860119D01*
X157923809Y-127960119D01*
X162416666Y-101935119D02*
X162783333Y-103035119D01*
X163150000Y-101935119D01*
X163726190Y-101935119D02*
X163935714Y-101935119D01*
X164040476Y-101987500D01*
X164145238Y-102092261D01*
X164197619Y-102301785D01*
X164197619Y-102668452D01*
X164145238Y-102877976D01*
X164040476Y-102982738D01*
X163935714Y-103035119D01*
X163726190Y-103035119D01*
X163621428Y-102982738D01*
X163516666Y-102877976D01*
X163464285Y-102668452D01*
X163464285Y-102301785D01*
X163516666Y-102092261D01*
X163621428Y-101987500D01*
X163726190Y-101935119D01*
X165192857Y-103035119D02*
X164669047Y-103035119D01*
X164669047Y-101935119D01*
X165402380Y-101935119D02*
X166030952Y-101935119D01*
X165716666Y-103035119D02*
X165716666Y-101935119D01*
X166345238Y-102720833D02*
X166869047Y-102720833D01*
X166240476Y-103035119D02*
X166607142Y-101935119D01*
X166973809Y-103035119D01*
X167916666Y-101987500D02*
X167811904Y-101935119D01*
X167654761Y-101935119D01*
X167497619Y-101987500D01*
X167392857Y-102092261D01*
X167340476Y-102197023D01*
X167288095Y-102406547D01*
X167288095Y-102563690D01*
X167340476Y-102773214D01*
X167392857Y-102877976D01*
X167497619Y-102982738D01*
X167654761Y-103035119D01*
X167759523Y-103035119D01*
X167916666Y-102982738D01*
X167969047Y-102930357D01*
X167969047Y-102563690D01*
X167759523Y-102563690D01*
X168440476Y-102458928D02*
X168807142Y-102458928D01*
X168964285Y-103035119D02*
X168440476Y-103035119D01*
X168440476Y-101935119D01*
X168964285Y-101935119D01*
X170273809Y-103035119D02*
X170273809Y-101935119D01*
X170797619Y-103035119D02*
X170797619Y-101935119D01*
X171426190Y-103035119D01*
X171426190Y-101935119D01*
X157990476Y-103860119D02*
X158095238Y-103860119D01*
X158200000Y-103912500D01*
X158252380Y-103964880D01*
X158304761Y-104069642D01*
X158357142Y-104279166D01*
X158357142Y-104541071D01*
X158304761Y-104750595D01*
X158252380Y-104855357D01*
X158200000Y-104907738D01*
X158095238Y-104960119D01*
X157990476Y-104960119D01*
X157885714Y-104907738D01*
X157833333Y-104855357D01*
X157780952Y-104750595D01*
X157728571Y-104541071D01*
X157728571Y-104279166D01*
X157780952Y-104069642D01*
X157833333Y-103964880D01*
X157885714Y-103912500D01*
X157990476Y-103860119D01*
X158828571Y-104541071D02*
X159666666Y-104541071D01*
X160766666Y-104960119D02*
X160138095Y-104960119D01*
X160452380Y-104960119D02*
X160452380Y-103860119D01*
X160347619Y-104017261D01*
X160242857Y-104122023D01*
X160138095Y-104174404D01*
X161447619Y-103860119D02*
X161552380Y-103860119D01*
X161657142Y-103912500D01*
X161709523Y-103964880D01*
X161761904Y-104069642D01*
X161814285Y-104279166D01*
X161814285Y-104541071D01*
X161761904Y-104750595D01*
X161709523Y-104855357D01*
X161657142Y-104907738D01*
X161552380Y-104960119D01*
X161447619Y-104960119D01*
X161342857Y-104907738D01*
X161290476Y-104855357D01*
X161238095Y-104750595D01*
X161185714Y-104541071D01*
X161185714Y-104279166D01*
X161238095Y-104069642D01*
X161290476Y-103964880D01*
X161342857Y-103912500D01*
X161447619Y-103860119D01*
X162128571Y-103860119D02*
X162495238Y-104960119D01*
X162861904Y-103860119D01*
X163228571Y-104960119D02*
X163228571Y-103860119D01*
X163490476Y-103860119D01*
X163647619Y-103912500D01*
X163752380Y-104017261D01*
X163804761Y-104122023D01*
X163857142Y-104331547D01*
X163857142Y-104488690D01*
X163804761Y-104698214D01*
X163752380Y-104802976D01*
X163647619Y-104907738D01*
X163490476Y-104960119D01*
X163228571Y-104960119D01*
X164957142Y-104855357D02*
X164904761Y-104907738D01*
X164747619Y-104960119D01*
X164642857Y-104960119D01*
X164485714Y-104907738D01*
X164380952Y-104802976D01*
X164328571Y-104698214D01*
X164276190Y-104488690D01*
X164276190Y-104331547D01*
X164328571Y-104122023D01*
X164380952Y-104017261D01*
X164485714Y-103912500D01*
X164642857Y-103860119D01*
X164747619Y-103860119D01*
X164904761Y-103912500D01*
X164957142Y-103964880D01*
X165428571Y-104383928D02*
X166266666Y-104383928D01*
X166266666Y-104698214D02*
X165428571Y-104698214D01*
X167000000Y-103860119D02*
X167104761Y-103860119D01*
X167209523Y-103912500D01*
X167261904Y-103964880D01*
X167314285Y-104069642D01*
X167366666Y-104279166D01*
X167366666Y-104541071D01*
X167314285Y-104750595D01*
X167261904Y-104855357D01*
X167209523Y-104907738D01*
X167104761Y-104960119D01*
X167000000Y-104960119D01*
X166895238Y-104907738D01*
X166842857Y-104855357D01*
X166790476Y-104750595D01*
X166738095Y-104541071D01*
X166738095Y-104279166D01*
X166790476Y-104069642D01*
X166842857Y-103964880D01*
X166895238Y-103912500D01*
X167000000Y-103860119D01*
X167838095Y-104541071D02*
X168676190Y-104541071D01*
X169095238Y-103860119D02*
X169776190Y-103860119D01*
X169409523Y-104279166D01*
X169566666Y-104279166D01*
X169671428Y-104331547D01*
X169723809Y-104383928D01*
X169776190Y-104488690D01*
X169776190Y-104750595D01*
X169723809Y-104855357D01*
X169671428Y-104907738D01*
X169566666Y-104960119D01*
X169252380Y-104960119D01*
X169147619Y-104907738D01*
X169095238Y-104855357D01*
X170719047Y-103860119D02*
X170509523Y-103860119D01*
X170404761Y-103912500D01*
X170352380Y-103964880D01*
X170247619Y-104122023D01*
X170195238Y-104331547D01*
X170195238Y-104750595D01*
X170247619Y-104855357D01*
X170300000Y-104907738D01*
X170404761Y-104960119D01*
X170614285Y-104960119D01*
X170719047Y-104907738D01*
X170771428Y-104855357D01*
X170823809Y-104750595D01*
X170823809Y-104488690D01*
X170771428Y-104383928D01*
X170719047Y-104331547D01*
X170614285Y-104279166D01*
X170404761Y-104279166D01*
X170300000Y-104331547D01*
X170247619Y-104383928D01*
X170195238Y-104488690D01*
X171504761Y-103860119D02*
X171609523Y-103860119D01*
X171714285Y-103912500D01*
X171766666Y-103964880D01*
X171819047Y-104069642D01*
X171871428Y-104279166D01*
X171871428Y-104541071D01*
X171819047Y-104750595D01*
X171766666Y-104855357D01*
X171714285Y-104907738D01*
X171609523Y-104960119D01*
X171504761Y-104960119D01*
X171400000Y-104907738D01*
X171347619Y-104855357D01*
X171295238Y-104750595D01*
X171242857Y-104541071D01*
X171242857Y-104279166D01*
X171295238Y-104069642D01*
X171347619Y-103964880D01*
X171400000Y-103912500D01*
X171504761Y-103860119D01*
X173180952Y-104960119D02*
X173180952Y-103860119D01*
X173442857Y-103860119D01*
X173600000Y-103912500D01*
X173704761Y-104017261D01*
X173757142Y-104122023D01*
X173809523Y-104331547D01*
X173809523Y-104488690D01*
X173757142Y-104698214D01*
X173704761Y-104802976D01*
X173600000Y-104907738D01*
X173442857Y-104960119D01*
X173180952Y-104960119D01*
X174700000Y-104907738D02*
X174595238Y-104960119D01*
X174385714Y-104960119D01*
X174280952Y-104907738D01*
X174228571Y-104802976D01*
X174228571Y-104383928D01*
X174280952Y-104279166D01*
X174385714Y-104226785D01*
X174595238Y-104226785D01*
X174700000Y-104279166D01*
X174752380Y-104383928D01*
X174752380Y-104488690D01*
X174228571Y-104593452D01*
X175695238Y-104226785D02*
X175695238Y-105117261D01*
X175642857Y-105222023D01*
X175590476Y-105274404D01*
X175485714Y-105326785D01*
X175328571Y-105326785D01*
X175223809Y-105274404D01*
X175695238Y-104907738D02*
X175590476Y-104960119D01*
X175380952Y-104960119D01*
X175276190Y-104907738D01*
X175223809Y-104855357D01*
X175171428Y-104750595D01*
X175171428Y-104436309D01*
X175223809Y-104331547D01*
X175276190Y-104279166D01*
X175380952Y-104226785D01*
X175590476Y-104226785D01*
X175695238Y-104279166D01*
X176219047Y-104855357D02*
X176271428Y-104907738D01*
X176219047Y-104960119D01*
X176166666Y-104907738D01*
X176219047Y-104855357D01*
X176219047Y-104960119D01*
D11*
X140607142Y-76178571D02*
X140892857Y-77178571D01*
X141178571Y-76464285D01*
X141464285Y-77178571D01*
X141750000Y-76178571D01*
X142178571Y-76178571D02*
X142464285Y-77178571D01*
X142750000Y-76464285D01*
X143035714Y-77178571D01*
X143321428Y-76178571D01*
X143750000Y-76178571D02*
X144035714Y-77178571D01*
X144321428Y-76464285D01*
X144607142Y-77178571D01*
X144892857Y-76178571D01*
X145464285Y-77035714D02*
X145535714Y-77107142D01*
X145464285Y-77178571D01*
X145392857Y-77107142D01*
X145464285Y-77035714D01*
X145464285Y-77178571D01*
X146821428Y-76178571D02*
X146821428Y-77678571D01*
X146821428Y-77107142D02*
X146678571Y-77178571D01*
X146392857Y-77178571D01*
X146250000Y-77107142D01*
X146178571Y-77035714D01*
X146107142Y-76892857D01*
X146107142Y-76464285D01*
X146178571Y-76321428D01*
X146250000Y-76250000D01*
X146392857Y-76178571D01*
X146678571Y-76178571D01*
X146821428Y-76250000D01*
X148178571Y-76178571D02*
X148178571Y-77178571D01*
X147535714Y-76178571D02*
X147535714Y-76964285D01*
X147607142Y-77107142D01*
X147750000Y-77178571D01*
X147964285Y-77178571D01*
X148107142Y-77107142D01*
X148178571Y-77035714D01*
X149535714Y-77178571D02*
X149535714Y-76392857D01*
X149464285Y-76250000D01*
X149321428Y-76178571D01*
X149035714Y-76178571D01*
X148892857Y-76250000D01*
X149535714Y-77107142D02*
X149392857Y-77178571D01*
X149035714Y-77178571D01*
X148892857Y-77107142D01*
X148821428Y-76964285D01*
X148821428Y-76821428D01*
X148892857Y-76678571D01*
X149035714Y-76607142D01*
X149392857Y-76607142D01*
X149535714Y-76535714D01*
X150250000Y-76178571D02*
X150250000Y-77178571D01*
X150250000Y-76321428D02*
X150321428Y-76250000D01*
X150464285Y-76178571D01*
X150678571Y-76178571D01*
X150821428Y-76250000D01*
X150892857Y-76392857D01*
X150892857Y-77178571D01*
X151392857Y-76178571D02*
X151964285Y-76178571D01*
X151607142Y-75678571D02*
X151607142Y-76964285D01*
X151678571Y-77107142D01*
X151821428Y-77178571D01*
X151964285Y-77178571D01*
X153107142Y-76178571D02*
X153107142Y-77178571D01*
X152464285Y-76178571D02*
X152464285Y-76964285D01*
X152535714Y-77107142D01*
X152678571Y-77178571D01*
X152892857Y-77178571D01*
X153035714Y-77107142D01*
X153107142Y-77035714D01*
X153821428Y-77178571D02*
X153821428Y-76178571D01*
X153821428Y-75678571D02*
X153750000Y-75750000D01*
X153821428Y-75821428D01*
X153892857Y-75750000D01*
X153821428Y-75678571D01*
X153821428Y-75821428D01*
X154321428Y-76178571D02*
X154892857Y-76178571D01*
X154535714Y-75678571D02*
X154535714Y-76964285D01*
X154607142Y-77107142D01*
X154750000Y-77178571D01*
X154892857Y-77178571D01*
X155250000Y-76178571D02*
X155607142Y-77178571D01*
X155964285Y-76178571D02*
X155607142Y-77178571D01*
X155464285Y-77535714D01*
X155392857Y-77607142D01*
X155250000Y-77678571D01*
X157178571Y-77178571D02*
X157178571Y-76392857D01*
X157107142Y-76250000D01*
X156964285Y-76178571D01*
X156678571Y-76178571D01*
X156535714Y-76250000D01*
X157178571Y-77107142D02*
X157035714Y-77178571D01*
X156678571Y-77178571D01*
X156535714Y-77107142D01*
X156464285Y-76964285D01*
X156464285Y-76821428D01*
X156535714Y-76678571D01*
X156678571Y-76607142D01*
X157035714Y-76607142D01*
X157178571Y-76535714D01*
X157892857Y-76178571D02*
X157892857Y-77178571D01*
X157892857Y-76321428D02*
X157964285Y-76250000D01*
X158107142Y-76178571D01*
X158321428Y-76178571D01*
X158464285Y-76250000D01*
X158535714Y-76392857D01*
X158535714Y-77178571D01*
X159892857Y-77178571D02*
X159892857Y-76392857D01*
X159821428Y-76250000D01*
X159678571Y-76178571D01*
X159392857Y-76178571D01*
X159250000Y-76250000D01*
X159892857Y-77107142D02*
X159750000Y-77178571D01*
X159392857Y-77178571D01*
X159250000Y-77107142D01*
X159178571Y-76964285D01*
X159178571Y-76821428D01*
X159250000Y-76678571D01*
X159392857Y-76607142D01*
X159750000Y-76607142D01*
X159892857Y-76535714D01*
X160821428Y-77178571D02*
X160678571Y-77107142D01*
X160607142Y-76964285D01*
X160607142Y-75678571D01*
X161250000Y-76178571D02*
X161607142Y-77178571D01*
X161964285Y-76178571D02*
X161607142Y-77178571D01*
X161464285Y-77535714D01*
X161392857Y-77607142D01*
X161250000Y-77678571D01*
X162321428Y-76178571D02*
X162892857Y-76178571D01*
X162535714Y-75678571D02*
X162535714Y-76964285D01*
X162607142Y-77107142D01*
X162750000Y-77178571D01*
X162892857Y-77178571D01*
X163392857Y-77178571D02*
X163392857Y-76178571D01*
X163392857Y-75678571D02*
X163321428Y-75750000D01*
X163392857Y-75821428D01*
X163464285Y-75750000D01*
X163392857Y-75678571D01*
X163392857Y-75821428D01*
X164750000Y-77107142D02*
X164607142Y-77178571D01*
X164321428Y-77178571D01*
X164178571Y-77107142D01*
X164107142Y-77035714D01*
X164035714Y-76892857D01*
X164035714Y-76464285D01*
X164107142Y-76321428D01*
X164178571Y-76250000D01*
X164321428Y-76178571D01*
X164607142Y-76178571D01*
X164750000Y-76250000D01*
X165321428Y-77107142D02*
X165464285Y-77178571D01*
X165750000Y-77178571D01*
X165892857Y-77107142D01*
X165964285Y-76964285D01*
X165964285Y-76892857D01*
X165892857Y-76750000D01*
X165750000Y-76678571D01*
X165535714Y-76678571D01*
X165392857Y-76607142D01*
X165321428Y-76464285D01*
X165321428Y-76392857D01*
X165392857Y-76250000D01*
X165535714Y-76178571D01*
X165750000Y-76178571D01*
X165892857Y-76250000D01*
X166607142Y-77035714D02*
X166678571Y-77107142D01*
X166607142Y-77178571D01*
X166535714Y-77107142D01*
X166607142Y-77035714D01*
X166607142Y-77178571D01*
X167964285Y-77107142D02*
X167821428Y-77178571D01*
X167535714Y-77178571D01*
X167392857Y-77107142D01*
X167321428Y-77035714D01*
X167250000Y-76892857D01*
X167250000Y-76464285D01*
X167321428Y-76321428D01*
X167392857Y-76250000D01*
X167535714Y-76178571D01*
X167821428Y-76178571D01*
X167964285Y-76250000D01*
X168821428Y-77178571D02*
X168678571Y-77107142D01*
X168607142Y-77035714D01*
X168535714Y-76892857D01*
X168535714Y-76464285D01*
X168607142Y-76321428D01*
X168678571Y-76250000D01*
X168821428Y-76178571D01*
X169035714Y-76178571D01*
X169178571Y-76250000D01*
X169250000Y-76321428D01*
X169321428Y-76464285D01*
X169321428Y-76892857D01*
X169250000Y-77035714D01*
X169178571Y-77107142D01*
X169035714Y-77178571D01*
X168821428Y-77178571D01*
X169964285Y-77178571D02*
X169964285Y-76178571D01*
X169964285Y-76321428D02*
X170035714Y-76250000D01*
X170178571Y-76178571D01*
X170392857Y-76178571D01*
X170535714Y-76250000D01*
X170607142Y-76392857D01*
X170607142Y-77178571D01*
X170607142Y-76392857D02*
X170678571Y-76250000D01*
X170821428Y-76178571D01*
X171035714Y-76178571D01*
X171178571Y-76250000D01*
X171250000Y-76392857D01*
X171250000Y-77178571D01*
X139107142Y-116178571D02*
X138607142Y-115464285D01*
X138250000Y-116178571D02*
X138250000Y-114678571D01*
X138821428Y-114678571D01*
X138964285Y-114750000D01*
X139035714Y-114821428D01*
X139107142Y-114964285D01*
X139107142Y-115178571D01*
X139035714Y-115321428D01*
X138964285Y-115392857D01*
X138821428Y-115464285D01*
X138250000Y-115464285D01*
X140250000Y-115392857D02*
X139750000Y-115392857D01*
X139750000Y-116178571D02*
X139750000Y-114678571D01*
X140464285Y-114678571D01*
X142464285Y-114678571D02*
X142750000Y-114678571D01*
X142892857Y-114750000D01*
X143035714Y-114892857D01*
X143107142Y-115178571D01*
X143107142Y-115678571D01*
X143035714Y-115964285D01*
X142892857Y-116107142D01*
X142750000Y-116178571D01*
X142464285Y-116178571D01*
X142321428Y-116107142D01*
X142178571Y-115964285D01*
X142107142Y-115678571D01*
X142107142Y-115178571D01*
X142178571Y-114892857D01*
X142321428Y-114750000D01*
X142464285Y-114678571D01*
X143750000Y-114678571D02*
X143750000Y-115892857D01*
X143821428Y-116035714D01*
X143892857Y-116107142D01*
X144035714Y-116178571D01*
X144321428Y-116178571D01*
X144464285Y-116107142D01*
X144535714Y-116035714D01*
X144607142Y-115892857D01*
X144607142Y-114678571D01*
X145107142Y-114678571D02*
X145964285Y-114678571D01*
X145535714Y-116178571D02*
X145535714Y-114678571D01*
X140107142Y-69678571D02*
X139607142Y-68964285D01*
X139250000Y-69678571D02*
X139250000Y-68178571D01*
X139821428Y-68178571D01*
X139964285Y-68250000D01*
X140035714Y-68321428D01*
X140107142Y-68464285D01*
X140107142Y-68678571D01*
X140035714Y-68821428D01*
X139964285Y-68892857D01*
X139821428Y-68964285D01*
X139250000Y-68964285D01*
X141250000Y-68892857D02*
X140750000Y-68892857D01*
X140750000Y-69678571D02*
X140750000Y-68178571D01*
X141464285Y-68178571D01*
X143178571Y-69678571D02*
X143178571Y-68178571D01*
X143892857Y-69678571D02*
X143892857Y-68178571D01*
X144750000Y-69678571D01*
X144750000Y-68178571D01*
X163142857Y-95178571D02*
X163142857Y-93678571D01*
X163500000Y-93678571D01*
X163714285Y-93750000D01*
X163857142Y-93892857D01*
X163928571Y-94035714D01*
X164000000Y-94321428D01*
X164000000Y-94535714D01*
X163928571Y-94821428D01*
X163857142Y-94964285D01*
X163714285Y-95107142D01*
X163500000Y-95178571D01*
X163142857Y-95178571D01*
X165500000Y-95035714D02*
X165428571Y-95107142D01*
X165214285Y-95178571D01*
X165071428Y-95178571D01*
X164857142Y-95107142D01*
X164714285Y-94964285D01*
X164642857Y-94821428D01*
X164571428Y-94535714D01*
X164571428Y-94321428D01*
X164642857Y-94035714D01*
X164714285Y-93892857D01*
X164857142Y-93750000D01*
X165071428Y-93678571D01*
X165214285Y-93678571D01*
X165428571Y-93750000D01*
X165500000Y-93821428D01*
X167285714Y-95178571D02*
X167285714Y-93678571D01*
X168000000Y-95178571D02*
X168000000Y-93678571D01*
X168857142Y-95178571D01*
X168857142Y-93678571D01*
X140285714Y-74178571D02*
X139785714Y-73464285D01*
X139428571Y-74178571D02*
X139428571Y-72678571D01*
X140000000Y-72678571D01*
X140142857Y-72750000D01*
X140214285Y-72821428D01*
X140285714Y-72964285D01*
X140285714Y-73178571D01*
X140214285Y-73321428D01*
X140142857Y-73392857D01*
X140000000Y-73464285D01*
X139428571Y-73464285D01*
X141428571Y-73392857D02*
X140928571Y-73392857D01*
X140928571Y-74178571D02*
X140928571Y-72678571D01*
X141642857Y-72678571D01*
X142214285Y-74178571D02*
X142214285Y-72678571D01*
X142928571Y-74178571D02*
X142928571Y-72678571D01*
X143285714Y-72678571D01*
X143500000Y-72750000D01*
X143642857Y-72892857D01*
X143714285Y-73035714D01*
X143785714Y-73321428D01*
X143785714Y-73535714D01*
X143714285Y-73821428D01*
X143642857Y-73964285D01*
X143500000Y-74107142D01*
X143285714Y-74178571D01*
X142928571Y-74178571D01*
X146428571Y-74178571D02*
X145928571Y-73464285D01*
X145571428Y-74178571D02*
X145571428Y-72678571D01*
X146142857Y-72678571D01*
X146285714Y-72750000D01*
X146357142Y-72821428D01*
X146428571Y-72964285D01*
X146428571Y-73178571D01*
X146357142Y-73321428D01*
X146285714Y-73392857D01*
X146142857Y-73464285D01*
X145571428Y-73464285D01*
X147571428Y-73392857D02*
X147071428Y-73392857D01*
X147071428Y-74178571D02*
X147071428Y-72678571D01*
X147785714Y-72678571D01*
X149500000Y-74178571D02*
X149500000Y-72678571D01*
X150071428Y-72678571D01*
X150214285Y-72750000D01*
X150285714Y-72821428D01*
X150357142Y-72964285D01*
X150357142Y-73178571D01*
X150285714Y-73321428D01*
X150214285Y-73392857D01*
X150071428Y-73464285D01*
X149500000Y-73464285D01*
X151000000Y-74178571D02*
X151000000Y-72678571D01*
X151642857Y-74178571D02*
X151642857Y-73392857D01*
X151571428Y-73250000D01*
X151428571Y-73178571D01*
X151214285Y-73178571D01*
X151071428Y-73250000D01*
X151000000Y-73321428D01*
X153000000Y-74178571D02*
X153000000Y-73392857D01*
X152928571Y-73250000D01*
X152785714Y-73178571D01*
X152500000Y-73178571D01*
X152357142Y-73250000D01*
X153000000Y-74107142D02*
X152857142Y-74178571D01*
X152500000Y-74178571D01*
X152357142Y-74107142D01*
X152285714Y-73964285D01*
X152285714Y-73821428D01*
X152357142Y-73678571D01*
X152500000Y-73607142D01*
X152857142Y-73607142D01*
X153000000Y-73535714D01*
X153642857Y-74107142D02*
X153785714Y-74178571D01*
X154071428Y-74178571D01*
X154214285Y-74107142D01*
X154285714Y-73964285D01*
X154285714Y-73892857D01*
X154214285Y-73750000D01*
X154071428Y-73678571D01*
X153857142Y-73678571D01*
X153714285Y-73607142D01*
X153642857Y-73464285D01*
X153642857Y-73392857D01*
X153714285Y-73250000D01*
X153857142Y-73178571D01*
X154071428Y-73178571D01*
X154214285Y-73250000D01*
X155500000Y-74107142D02*
X155357142Y-74178571D01*
X155071428Y-74178571D01*
X154928571Y-74107142D01*
X154857142Y-73964285D01*
X154857142Y-73392857D01*
X154928571Y-73250000D01*
X155071428Y-73178571D01*
X155357142Y-73178571D01*
X155500000Y-73250000D01*
X155571428Y-73392857D01*
X155571428Y-73535714D01*
X154857142Y-73678571D01*
X157285714Y-74107142D02*
X157500000Y-74178571D01*
X157857142Y-74178571D01*
X158000000Y-74107142D01*
X158071428Y-74035714D01*
X158142857Y-73892857D01*
X158142857Y-73750000D01*
X158071428Y-73607142D01*
X158000000Y-73535714D01*
X157857142Y-73464285D01*
X157571428Y-73392857D01*
X157428571Y-73321428D01*
X157357142Y-73250000D01*
X157285714Y-73107142D01*
X157285714Y-72964285D01*
X157357142Y-72821428D01*
X157428571Y-72750000D01*
X157571428Y-72678571D01*
X157928571Y-72678571D01*
X158142857Y-72750000D01*
X158785714Y-74178571D02*
X158785714Y-72678571D01*
X159428571Y-74178571D02*
X159428571Y-73392857D01*
X159357142Y-73250000D01*
X159214285Y-73178571D01*
X159000000Y-73178571D01*
X158857142Y-73250000D01*
X158785714Y-73321428D01*
X160142857Y-74178571D02*
X160142857Y-73178571D01*
X160142857Y-72678571D02*
X160071428Y-72750000D01*
X160142857Y-72821428D01*
X160214285Y-72750000D01*
X160142857Y-72678571D01*
X160142857Y-72821428D01*
X160642857Y-73178571D02*
X161214285Y-73178571D01*
X160857142Y-74178571D02*
X160857142Y-72892857D01*
X160928571Y-72750000D01*
X161071428Y-72678571D01*
X161214285Y-72678571D01*
X161500000Y-73178571D02*
X162071428Y-73178571D01*
X161714285Y-72678571D02*
X161714285Y-73964285D01*
X161785714Y-74107142D01*
X161928571Y-74178571D01*
X162071428Y-74178571D01*
X163142857Y-74107142D02*
X163000000Y-74178571D01*
X162714285Y-74178571D01*
X162571428Y-74107142D01*
X162500000Y-73964285D01*
X162500000Y-73392857D01*
X162571428Y-73250000D01*
X162714285Y-73178571D01*
X163000000Y-73178571D01*
X163142857Y-73250000D01*
X163214285Y-73392857D01*
X163214285Y-73535714D01*
X162500000Y-73678571D01*
X163857142Y-74178571D02*
X163857142Y-73178571D01*
X163857142Y-73464285D02*
X163928571Y-73321428D01*
X164000000Y-73250000D01*
X164142857Y-73178571D01*
X164285714Y-73178571D01*
X166785714Y-74035714D02*
X166714285Y-74107142D01*
X166500000Y-74178571D01*
X166357142Y-74178571D01*
X166142857Y-74107142D01*
X166000000Y-73964285D01*
X165928571Y-73821428D01*
X165857142Y-73535714D01*
X165857142Y-73321428D01*
X165928571Y-73035714D01*
X166000000Y-72892857D01*
X166142857Y-72750000D01*
X166357142Y-72678571D01*
X166500000Y-72678571D01*
X166714285Y-72750000D01*
X166785714Y-72821428D01*
X167428571Y-74178571D02*
X167428571Y-73178571D01*
X167428571Y-72678571D02*
X167357142Y-72750000D01*
X167428571Y-72821428D01*
X167500000Y-72750000D01*
X167428571Y-72678571D01*
X167428571Y-72821428D01*
X168142857Y-74178571D02*
X168142857Y-73178571D01*
X168142857Y-73464285D02*
X168214285Y-73321428D01*
X168285714Y-73250000D01*
X168428571Y-73178571D01*
X168571428Y-73178571D01*
X169714285Y-74107142D02*
X169571428Y-74178571D01*
X169285714Y-74178571D01*
X169142857Y-74107142D01*
X169071428Y-74035714D01*
X169000000Y-73892857D01*
X169000000Y-73464285D01*
X169071428Y-73321428D01*
X169142857Y-73250000D01*
X169285714Y-73178571D01*
X169571428Y-73178571D01*
X169714285Y-73250000D01*
X171000000Y-73178571D02*
X171000000Y-74178571D01*
X170357142Y-73178571D02*
X170357142Y-73964285D01*
X170428571Y-74107142D01*
X170571428Y-74178571D01*
X170785714Y-74178571D01*
X170928571Y-74107142D01*
X171000000Y-74035714D01*
X171714285Y-74178571D02*
X171714285Y-73178571D01*
X171714285Y-72678571D02*
X171642857Y-72750000D01*
X171714285Y-72821428D01*
X171785714Y-72750000D01*
X171714285Y-72678571D01*
X171714285Y-72821428D01*
X172214285Y-73178571D02*
X172785714Y-73178571D01*
X172428571Y-72678571D02*
X172428571Y-73964285D01*
X172500000Y-74107142D01*
X172642857Y-74178571D01*
X172785714Y-74178571D01*
D12*
%TO.C,G\u002A\u002A\u002A*%
G36*
X168686696Y-107581886D02*
G01*
X168703932Y-107584897D01*
X168718024Y-107592280D01*
X168729285Y-107605603D01*
X168738026Y-107626434D01*
X168744558Y-107656343D01*
X168749195Y-107696897D01*
X168752248Y-107749665D01*
X168754028Y-107816217D01*
X168754848Y-107898120D01*
X168755020Y-107996944D01*
X168754856Y-108114256D01*
X168754667Y-108251626D01*
X168754652Y-108295696D01*
X168754786Y-108439201D01*
X168754983Y-108562190D01*
X168754934Y-108666234D01*
X168754333Y-108752901D01*
X168752871Y-108823759D01*
X168750241Y-108880379D01*
X168746134Y-108924328D01*
X168740243Y-108957176D01*
X168732260Y-108980492D01*
X168721877Y-108995844D01*
X168708786Y-109004802D01*
X168692680Y-109008935D01*
X168673250Y-109009810D01*
X168650189Y-109008999D01*
X168623190Y-109008068D01*
X168614897Y-109008000D01*
X168565811Y-109007272D01*
X168533476Y-109004432D01*
X168512586Y-108998504D01*
X168497833Y-108988509D01*
X168495130Y-108985913D01*
X168490577Y-108980834D01*
X168486697Y-108974286D01*
X168483436Y-108964580D01*
X168480739Y-108950026D01*
X168478555Y-108928936D01*
X168476828Y-108899620D01*
X168475506Y-108860389D01*
X168474533Y-108809554D01*
X168473857Y-108745427D01*
X168473424Y-108666317D01*
X168473180Y-108570536D01*
X168473071Y-108456394D01*
X168473044Y-108322203D01*
X168473043Y-108291886D01*
X168473071Y-108153103D01*
X168473186Y-108034731D01*
X168473438Y-107935097D01*
X168473875Y-107852525D01*
X168474548Y-107785339D01*
X168475504Y-107731865D01*
X168476792Y-107690428D01*
X168478463Y-107659353D01*
X168480564Y-107636964D01*
X168483145Y-107621587D01*
X168486255Y-107611547D01*
X168489942Y-107605169D01*
X168493239Y-107601669D01*
X168509181Y-107592268D01*
X168534696Y-107586570D01*
X168574393Y-107583872D01*
X168613006Y-107583392D01*
X168641545Y-107582702D01*
X168666004Y-107581677D01*
X168686696Y-107581886D01*
G37*
X168686696Y-107581886D02*
X168703932Y-107584897D01*
X168718024Y-107592280D01*
X168729285Y-107605603D01*
X168738026Y-107626434D01*
X168744558Y-107656343D01*
X168749195Y-107696897D01*
X168752248Y-107749665D01*
X168754028Y-107816217D01*
X168754848Y-107898120D01*
X168755020Y-107996944D01*
X168754856Y-108114256D01*
X168754667Y-108251626D01*
X168754652Y-108295696D01*
X168754786Y-108439201D01*
X168754983Y-108562190D01*
X168754934Y-108666234D01*
X168754333Y-108752901D01*
X168752871Y-108823759D01*
X168750241Y-108880379D01*
X168746134Y-108924328D01*
X168740243Y-108957176D01*
X168732260Y-108980492D01*
X168721877Y-108995844D01*
X168708786Y-109004802D01*
X168692680Y-109008935D01*
X168673250Y-109009810D01*
X168650189Y-109008999D01*
X168623190Y-109008068D01*
X168614897Y-109008000D01*
X168565811Y-109007272D01*
X168533476Y-109004432D01*
X168512586Y-108998504D01*
X168497833Y-108988509D01*
X168495130Y-108985913D01*
X168490577Y-108980834D01*
X168486697Y-108974286D01*
X168483436Y-108964580D01*
X168480739Y-108950026D01*
X168478555Y-108928936D01*
X168476828Y-108899620D01*
X168475506Y-108860389D01*
X168474533Y-108809554D01*
X168473857Y-108745427D01*
X168473424Y-108666317D01*
X168473180Y-108570536D01*
X168473071Y-108456394D01*
X168473044Y-108322203D01*
X168473043Y-108291886D01*
X168473071Y-108153103D01*
X168473186Y-108034731D01*
X168473438Y-107935097D01*
X168473875Y-107852525D01*
X168474548Y-107785339D01*
X168475504Y-107731865D01*
X168476792Y-107690428D01*
X168478463Y-107659353D01*
X168480564Y-107636964D01*
X168483145Y-107621587D01*
X168486255Y-107611547D01*
X168489942Y-107605169D01*
X168493239Y-107601669D01*
X168509181Y-107592268D01*
X168534696Y-107586570D01*
X168574393Y-107583872D01*
X168613006Y-107583392D01*
X168641545Y-107582702D01*
X168666004Y-107581677D01*
X168686696Y-107581886D01*
G36*
X167826175Y-107583429D02*
G01*
X167930212Y-107583586D01*
X168015898Y-107583928D01*
X168085099Y-107584523D01*
X168139684Y-107585438D01*
X168181521Y-107586739D01*
X168212476Y-107588492D01*
X168234418Y-107590766D01*
X168249215Y-107593625D01*
X168258733Y-107597138D01*
X168264841Y-107601371D01*
X168267027Y-107603587D01*
X168276428Y-107619530D01*
X168282126Y-107645044D01*
X168284824Y-107684741D01*
X168285304Y-107723354D01*
X168285205Y-107767863D01*
X168283092Y-107801441D01*
X168276241Y-107825625D01*
X168261927Y-107841955D01*
X168237425Y-107851968D01*
X168200012Y-107857203D01*
X168146963Y-107859199D01*
X168075554Y-107859493D01*
X168044239Y-107859479D01*
X167843565Y-107859479D01*
X167843565Y-108411653D01*
X167843707Y-108542010D01*
X167843864Y-108652001D01*
X167843630Y-108743339D01*
X167842599Y-108817740D01*
X167840367Y-108876921D01*
X167836528Y-108922596D01*
X167830677Y-108956480D01*
X167822409Y-108980290D01*
X167811318Y-108995741D01*
X167796999Y-109004548D01*
X167779047Y-109008426D01*
X167757056Y-109009092D01*
X167730622Y-109008260D01*
X167702761Y-109007649D01*
X167645974Y-109005832D01*
X167607825Y-109000557D01*
X167585069Y-108991360D01*
X167584043Y-108990614D01*
X167579076Y-108986256D01*
X167574901Y-108980092D01*
X167571437Y-108970272D01*
X167568602Y-108954949D01*
X167566316Y-108932271D01*
X167564498Y-108900392D01*
X167563067Y-108857460D01*
X167561941Y-108801628D01*
X167561041Y-108731046D01*
X167560283Y-108643864D01*
X167559589Y-108538235D01*
X167558900Y-108416704D01*
X167555844Y-107859479D01*
X167353547Y-107859479D01*
X167275126Y-107859439D01*
X167216051Y-107858250D01*
X167173587Y-107854310D01*
X167144998Y-107846015D01*
X167127547Y-107831762D01*
X167118499Y-107809947D01*
X167115117Y-107778968D01*
X167114667Y-107737221D01*
X167114696Y-107719516D01*
X167115452Y-107669585D01*
X167118285Y-107636788D01*
X167124036Y-107616207D01*
X167133549Y-107602922D01*
X167134891Y-107601669D01*
X167141151Y-107597494D01*
X167151143Y-107594001D01*
X167166720Y-107591130D01*
X167189735Y-107588822D01*
X167222039Y-107587016D01*
X167265488Y-107585653D01*
X167321932Y-107584673D01*
X167393225Y-107584017D01*
X167481220Y-107583625D01*
X167587770Y-107583436D01*
X167701919Y-107583392D01*
X167826175Y-107583429D01*
G37*
X167826175Y-107583429D02*
X167930212Y-107583586D01*
X168015898Y-107583928D01*
X168085099Y-107584523D01*
X168139684Y-107585438D01*
X168181521Y-107586739D01*
X168212476Y-107588492D01*
X168234418Y-107590766D01*
X168249215Y-107593625D01*
X168258733Y-107597138D01*
X168264841Y-107601371D01*
X168267027Y-107603587D01*
X168276428Y-107619530D01*
X168282126Y-107645044D01*
X168284824Y-107684741D01*
X168285304Y-107723354D01*
X168285205Y-107767863D01*
X168283092Y-107801441D01*
X168276241Y-107825625D01*
X168261927Y-107841955D01*
X168237425Y-107851968D01*
X168200012Y-107857203D01*
X168146963Y-107859199D01*
X168075554Y-107859493D01*
X168044239Y-107859479D01*
X167843565Y-107859479D01*
X167843565Y-108411653D01*
X167843707Y-108542010D01*
X167843864Y-108652001D01*
X167843630Y-108743339D01*
X167842599Y-108817740D01*
X167840367Y-108876921D01*
X167836528Y-108922596D01*
X167830677Y-108956480D01*
X167822409Y-108980290D01*
X167811318Y-108995741D01*
X167796999Y-109004548D01*
X167779047Y-109008426D01*
X167757056Y-109009092D01*
X167730622Y-109008260D01*
X167702761Y-109007649D01*
X167645974Y-109005832D01*
X167607825Y-109000557D01*
X167585069Y-108991360D01*
X167584043Y-108990614D01*
X167579076Y-108986256D01*
X167574901Y-108980092D01*
X167571437Y-108970272D01*
X167568602Y-108954949D01*
X167566316Y-108932271D01*
X167564498Y-108900392D01*
X167563067Y-108857460D01*
X167561941Y-108801628D01*
X167561041Y-108731046D01*
X167560283Y-108643864D01*
X167559589Y-108538235D01*
X167558900Y-108416704D01*
X167555844Y-107859479D01*
X167353547Y-107859479D01*
X167275126Y-107859439D01*
X167216051Y-107858250D01*
X167173587Y-107854310D01*
X167144998Y-107846015D01*
X167127547Y-107831762D01*
X167118499Y-107809947D01*
X167115117Y-107778968D01*
X167114667Y-107737221D01*
X167114696Y-107719516D01*
X167115452Y-107669585D01*
X167118285Y-107636788D01*
X167124036Y-107616207D01*
X167133549Y-107602922D01*
X167134891Y-107601669D01*
X167141151Y-107597494D01*
X167151143Y-107594001D01*
X167166720Y-107591130D01*
X167189735Y-107588822D01*
X167222039Y-107587016D01*
X167265488Y-107585653D01*
X167321932Y-107584673D01*
X167393225Y-107584017D01*
X167481220Y-107583625D01*
X167587770Y-107583436D01*
X167701919Y-107583392D01*
X167826175Y-107583429D01*
G36*
X166997319Y-107585083D02*
G01*
X167038684Y-107591150D01*
X167064422Y-107603077D01*
X167077669Y-107622352D01*
X167081560Y-107650463D01*
X167081565Y-107651855D01*
X167074958Y-107669518D01*
X167055158Y-107704825D01*
X167022195Y-107757729D01*
X166976100Y-107828184D01*
X166916901Y-107916143D01*
X166844630Y-108021560D01*
X166816522Y-108062183D01*
X166551478Y-108444438D01*
X166551478Y-108697121D01*
X166551376Y-108778548D01*
X166550908Y-108840877D01*
X166549831Y-108887095D01*
X166547903Y-108920192D01*
X166544881Y-108943155D01*
X166540521Y-108958973D01*
X166534582Y-108970634D01*
X166528590Y-108978902D01*
X166516253Y-108992822D01*
X166502444Y-109001412D01*
X166481821Y-109005952D01*
X166449044Y-109007720D01*
X166407111Y-109008000D01*
X166357809Y-109007287D01*
X166325293Y-109004503D01*
X166304290Y-108998684D01*
X166289527Y-108988864D01*
X166286435Y-108985913D01*
X166279380Y-108977689D01*
X166274004Y-108967041D01*
X166270077Y-108951089D01*
X166267368Y-108926955D01*
X166265648Y-108891761D01*
X166264685Y-108842628D01*
X166264251Y-108776678D01*
X166264126Y-108707066D01*
X166263904Y-108450305D01*
X165994004Y-108063783D01*
X165934367Y-107977821D01*
X165879770Y-107898035D01*
X165831424Y-107826269D01*
X165790541Y-107764365D01*
X165758331Y-107714168D01*
X165736005Y-107677520D01*
X165724777Y-107656264D01*
X165723661Y-107652413D01*
X165730895Y-107626159D01*
X165745304Y-107605479D01*
X165758119Y-107595319D01*
X165775265Y-107588809D01*
X165801519Y-107585172D01*
X165841660Y-107583635D01*
X165881423Y-107583392D01*
X165933564Y-107583794D01*
X165968451Y-107585585D01*
X165990913Y-107589644D01*
X166005776Y-107596850D01*
X166017868Y-107608079D01*
X166018014Y-107608240D01*
X166030031Y-107623587D01*
X166052728Y-107654550D01*
X166084270Y-107698549D01*
X166122821Y-107753001D01*
X166166544Y-107815326D01*
X166213604Y-107882943D01*
X166220302Y-107892609D01*
X166266515Y-107959327D01*
X166308485Y-108019898D01*
X166344612Y-108072013D01*
X166373296Y-108113364D01*
X166392936Y-108141642D01*
X166401930Y-108154540D01*
X166402313Y-108155074D01*
X166408919Y-108147100D01*
X166426549Y-108123114D01*
X166453671Y-108085273D01*
X166488752Y-108035737D01*
X166530261Y-107976663D01*
X166576664Y-107910210D01*
X166599458Y-107877430D01*
X166648344Y-107807619D01*
X166693867Y-107743711D01*
X166734351Y-107687976D01*
X166768117Y-107642684D01*
X166793488Y-107610106D01*
X166808785Y-107592510D01*
X166811846Y-107590117D01*
X166830032Y-107587215D01*
X166864491Y-107584942D01*
X166909410Y-107583610D01*
X166937191Y-107583392D01*
X166997319Y-107585083D01*
G37*
X166997319Y-107585083D02*
X167038684Y-107591150D01*
X167064422Y-107603077D01*
X167077669Y-107622352D01*
X167081560Y-107650463D01*
X167081565Y-107651855D01*
X167074958Y-107669518D01*
X167055158Y-107704825D01*
X167022195Y-107757729D01*
X166976100Y-107828184D01*
X166916901Y-107916143D01*
X166844630Y-108021560D01*
X166816522Y-108062183D01*
X166551478Y-108444438D01*
X166551478Y-108697121D01*
X166551376Y-108778548D01*
X166550908Y-108840877D01*
X166549831Y-108887095D01*
X166547903Y-108920192D01*
X166544881Y-108943155D01*
X166540521Y-108958973D01*
X166534582Y-108970634D01*
X166528590Y-108978902D01*
X166516253Y-108992822D01*
X166502444Y-109001412D01*
X166481821Y-109005952D01*
X166449044Y-109007720D01*
X166407111Y-109008000D01*
X166357809Y-109007287D01*
X166325293Y-109004503D01*
X166304290Y-108998684D01*
X166289527Y-108988864D01*
X166286435Y-108985913D01*
X166279380Y-108977689D01*
X166274004Y-108967041D01*
X166270077Y-108951089D01*
X166267368Y-108926955D01*
X166265648Y-108891761D01*
X166264685Y-108842628D01*
X166264251Y-108776678D01*
X166264126Y-108707066D01*
X166263904Y-108450305D01*
X165994004Y-108063783D01*
X165934367Y-107977821D01*
X165879770Y-107898035D01*
X165831424Y-107826269D01*
X165790541Y-107764365D01*
X165758331Y-107714168D01*
X165736005Y-107677520D01*
X165724777Y-107656264D01*
X165723661Y-107652413D01*
X165730895Y-107626159D01*
X165745304Y-107605479D01*
X165758119Y-107595319D01*
X165775265Y-107588809D01*
X165801519Y-107585172D01*
X165841660Y-107583635D01*
X165881423Y-107583392D01*
X165933564Y-107583794D01*
X165968451Y-107585585D01*
X165990913Y-107589644D01*
X166005776Y-107596850D01*
X166017868Y-107608079D01*
X166018014Y-107608240D01*
X166030031Y-107623587D01*
X166052728Y-107654550D01*
X166084270Y-107698549D01*
X166122821Y-107753001D01*
X166166544Y-107815326D01*
X166213604Y-107882943D01*
X166220302Y-107892609D01*
X166266515Y-107959327D01*
X166308485Y-108019898D01*
X166344612Y-108072013D01*
X166373296Y-108113364D01*
X166392936Y-108141642D01*
X166401930Y-108154540D01*
X166402313Y-108155074D01*
X166408919Y-108147100D01*
X166426549Y-108123114D01*
X166453671Y-108085273D01*
X166488752Y-108035737D01*
X166530261Y-107976663D01*
X166576664Y-107910210D01*
X166599458Y-107877430D01*
X166648344Y-107807619D01*
X166693867Y-107743711D01*
X166734351Y-107687976D01*
X166768117Y-107642684D01*
X166793488Y-107610106D01*
X166808785Y-107592510D01*
X166811846Y-107590117D01*
X166830032Y-107587215D01*
X166864491Y-107584942D01*
X166909410Y-107583610D01*
X166937191Y-107583392D01*
X166997319Y-107585083D01*
G36*
X164815450Y-107582413D02*
G01*
X164843493Y-107583341D01*
X164850782Y-107583392D01*
X164882163Y-107582777D01*
X164908640Y-107582077D01*
X164930628Y-107583009D01*
X164948539Y-107587288D01*
X164962787Y-107596632D01*
X164973785Y-107612757D01*
X164981946Y-107637378D01*
X164987683Y-107672214D01*
X164991409Y-107718979D01*
X164993539Y-107779391D01*
X164994485Y-107855166D01*
X164994659Y-107948021D01*
X164994476Y-108059671D01*
X164994348Y-108179740D01*
X164994348Y-108731913D01*
X165323940Y-108731913D01*
X165423658Y-108731778D01*
X165503495Y-108731932D01*
X165565648Y-108733217D01*
X165612319Y-108736472D01*
X165645704Y-108742538D01*
X165668003Y-108752255D01*
X165681414Y-108766465D01*
X165688138Y-108786007D01*
X165690371Y-108811723D01*
X165690313Y-108844452D01*
X165690087Y-108871876D01*
X165689330Y-108921807D01*
X165686497Y-108954604D01*
X165680746Y-108975186D01*
X165671233Y-108988470D01*
X165669891Y-108989724D01*
X165663045Y-108994301D01*
X165652220Y-108998053D01*
X165635357Y-109001060D01*
X165610397Y-109003403D01*
X165575279Y-109005161D01*
X165527944Y-109006415D01*
X165466333Y-109007245D01*
X165388385Y-109007732D01*
X165292041Y-109007956D01*
X165201345Y-109008000D01*
X164752994Y-109008000D01*
X164730106Y-108978902D01*
X164725353Y-108972431D01*
X164721308Y-108964900D01*
X164717914Y-108954590D01*
X164715114Y-108939777D01*
X164712851Y-108918741D01*
X164711068Y-108889760D01*
X164709707Y-108851111D01*
X164708711Y-108801073D01*
X164708024Y-108737924D01*
X164707588Y-108659944D01*
X164707347Y-108565408D01*
X164707242Y-108452597D01*
X164707218Y-108319789D01*
X164707217Y-108288685D01*
X164707074Y-108145910D01*
X164706860Y-108023643D01*
X164706894Y-107920307D01*
X164707499Y-107834328D01*
X164708993Y-107764128D01*
X164711700Y-107708132D01*
X164715938Y-107664765D01*
X164722029Y-107632450D01*
X164730294Y-107609612D01*
X164741053Y-107594674D01*
X164754628Y-107586062D01*
X164771338Y-107582198D01*
X164791505Y-107581507D01*
X164815450Y-107582413D01*
G37*
X164815450Y-107582413D02*
X164843493Y-107583341D01*
X164850782Y-107583392D01*
X164882163Y-107582777D01*
X164908640Y-107582077D01*
X164930628Y-107583009D01*
X164948539Y-107587288D01*
X164962787Y-107596632D01*
X164973785Y-107612757D01*
X164981946Y-107637378D01*
X164987683Y-107672214D01*
X164991409Y-107718979D01*
X164993539Y-107779391D01*
X164994485Y-107855166D01*
X164994659Y-107948021D01*
X164994476Y-108059671D01*
X164994348Y-108179740D01*
X164994348Y-108731913D01*
X165323940Y-108731913D01*
X165423658Y-108731778D01*
X165503495Y-108731932D01*
X165565648Y-108733217D01*
X165612319Y-108736472D01*
X165645704Y-108742538D01*
X165668003Y-108752255D01*
X165681414Y-108766465D01*
X165688138Y-108786007D01*
X165690371Y-108811723D01*
X165690313Y-108844452D01*
X165690087Y-108871876D01*
X165689330Y-108921807D01*
X165686497Y-108954604D01*
X165680746Y-108975186D01*
X165671233Y-108988470D01*
X165669891Y-108989724D01*
X165663045Y-108994301D01*
X165652220Y-108998053D01*
X165635357Y-109001060D01*
X165610397Y-109003403D01*
X165575279Y-109005161D01*
X165527944Y-109006415D01*
X165466333Y-109007245D01*
X165388385Y-109007732D01*
X165292041Y-109007956D01*
X165201345Y-109008000D01*
X164752994Y-109008000D01*
X164730106Y-108978902D01*
X164725353Y-108972431D01*
X164721308Y-108964900D01*
X164717914Y-108954590D01*
X164715114Y-108939777D01*
X164712851Y-108918741D01*
X164711068Y-108889760D01*
X164709707Y-108851111D01*
X164708711Y-108801073D01*
X164708024Y-108737924D01*
X164707588Y-108659944D01*
X164707347Y-108565408D01*
X164707242Y-108452597D01*
X164707218Y-108319789D01*
X164707217Y-108288685D01*
X164707074Y-108145910D01*
X164706860Y-108023643D01*
X164706894Y-107920307D01*
X164707499Y-107834328D01*
X164708993Y-107764128D01*
X164711700Y-107708132D01*
X164715938Y-107664765D01*
X164722029Y-107632450D01*
X164730294Y-107609612D01*
X164741053Y-107594674D01*
X164754628Y-107586062D01*
X164771338Y-107582198D01*
X164791505Y-107581507D01*
X164815450Y-107582413D01*
G36*
X163902420Y-107584930D02*
G01*
X163946203Y-107589421D01*
X163969905Y-107596680D01*
X163970645Y-107597196D01*
X163978016Y-107609485D01*
X163992958Y-107640076D01*
X164014576Y-107686870D01*
X164041975Y-107747768D01*
X164074259Y-107820673D01*
X164110535Y-107903486D01*
X164149907Y-107994109D01*
X164191480Y-108090443D01*
X164234359Y-108190390D01*
X164277649Y-108291852D01*
X164320454Y-108392729D01*
X164361881Y-108490924D01*
X164401034Y-108584339D01*
X164437018Y-108670874D01*
X164468938Y-108748432D01*
X164495898Y-108814914D01*
X164517005Y-108868222D01*
X164531363Y-108906257D01*
X164538077Y-108926921D01*
X164538335Y-108928185D01*
X164537849Y-108963511D01*
X164524774Y-108986163D01*
X164512639Y-108996483D01*
X164495631Y-109002980D01*
X164468879Y-109006492D01*
X164427511Y-109007859D01*
X164398000Y-109008000D01*
X164346640Y-109007394D01*
X164312544Y-109005041D01*
X164290910Y-109000140D01*
X164276935Y-108991889D01*
X164271959Y-108986973D01*
X164261254Y-108969858D01*
X164244114Y-108936324D01*
X164222463Y-108890399D01*
X164198224Y-108836110D01*
X164183577Y-108801995D01*
X164114224Y-108638044D01*
X163565101Y-108638044D01*
X163496223Y-108802180D01*
X163471537Y-108859547D01*
X163448303Y-108910884D01*
X163428432Y-108952165D01*
X163413831Y-108979366D01*
X163408482Y-108987158D01*
X163396357Y-108997066D01*
X163378529Y-109003299D01*
X163350215Y-109006648D01*
X163306630Y-109007905D01*
X163282609Y-109008000D01*
X163230911Y-109007352D01*
X163196563Y-109004901D01*
X163174851Y-108999887D01*
X163161060Y-108991551D01*
X163157320Y-108987805D01*
X163142676Y-108960773D01*
X163139043Y-108940713D01*
X163143291Y-108925246D01*
X163155442Y-108891780D01*
X163174604Y-108842408D01*
X163199888Y-108779227D01*
X163230404Y-108704332D01*
X163265260Y-108619817D01*
X163303567Y-108527780D01*
X163344434Y-108430314D01*
X163370950Y-108367479D01*
X163679877Y-108367479D01*
X164000731Y-108367479D01*
X163983246Y-108326066D01*
X163971774Y-108298721D01*
X163954440Y-108257196D01*
X163933840Y-108207717D01*
X163917628Y-108168696D01*
X163896657Y-108118250D01*
X163877349Y-108071935D01*
X163862142Y-108035597D01*
X163854673Y-108017877D01*
X163839851Y-107983015D01*
X163777330Y-108133834D01*
X163753586Y-108191062D01*
X163731398Y-108244452D01*
X163712837Y-108289025D01*
X163699975Y-108319805D01*
X163697343Y-108326066D01*
X163679877Y-108367479D01*
X163370950Y-108367479D01*
X163386971Y-108329516D01*
X163430286Y-108227480D01*
X163473491Y-108126303D01*
X163515695Y-108028078D01*
X163556006Y-107934903D01*
X163593535Y-107848872D01*
X163627392Y-107772080D01*
X163656685Y-107706623D01*
X163680525Y-107654596D01*
X163698021Y-107618095D01*
X163708283Y-107599215D01*
X163709948Y-107597196D01*
X163732404Y-107589779D01*
X163775040Y-107585118D01*
X163836102Y-107583397D01*
X163840304Y-107583392D01*
X163902420Y-107584930D01*
G37*
X163902420Y-107584930D02*
X163946203Y-107589421D01*
X163969905Y-107596680D01*
X163970645Y-107597196D01*
X163978016Y-107609485D01*
X163992958Y-107640076D01*
X164014576Y-107686870D01*
X164041975Y-107747768D01*
X164074259Y-107820673D01*
X164110535Y-107903486D01*
X164149907Y-107994109D01*
X164191480Y-108090443D01*
X164234359Y-108190390D01*
X164277649Y-108291852D01*
X164320454Y-108392729D01*
X164361881Y-108490924D01*
X164401034Y-108584339D01*
X164437018Y-108670874D01*
X164468938Y-108748432D01*
X164495898Y-108814914D01*
X164517005Y-108868222D01*
X164531363Y-108906257D01*
X164538077Y-108926921D01*
X164538335Y-108928185D01*
X164537849Y-108963511D01*
X164524774Y-108986163D01*
X164512639Y-108996483D01*
X164495631Y-109002980D01*
X164468879Y-109006492D01*
X164427511Y-109007859D01*
X164398000Y-109008000D01*
X164346640Y-109007394D01*
X164312544Y-109005041D01*
X164290910Y-109000140D01*
X164276935Y-108991889D01*
X164271959Y-108986973D01*
X164261254Y-108969858D01*
X164244114Y-108936324D01*
X164222463Y-108890399D01*
X164198224Y-108836110D01*
X164183577Y-108801995D01*
X164114224Y-108638044D01*
X163565101Y-108638044D01*
X163496223Y-108802180D01*
X163471537Y-108859547D01*
X163448303Y-108910884D01*
X163428432Y-108952165D01*
X163413831Y-108979366D01*
X163408482Y-108987158D01*
X163396357Y-108997066D01*
X163378529Y-109003299D01*
X163350215Y-109006648D01*
X163306630Y-109007905D01*
X163282609Y-109008000D01*
X163230911Y-109007352D01*
X163196563Y-109004901D01*
X163174851Y-108999887D01*
X163161060Y-108991551D01*
X163157320Y-108987805D01*
X163142676Y-108960773D01*
X163139043Y-108940713D01*
X163143291Y-108925246D01*
X163155442Y-108891780D01*
X163174604Y-108842408D01*
X163199888Y-108779227D01*
X163230404Y-108704332D01*
X163265260Y-108619817D01*
X163303567Y-108527780D01*
X163344434Y-108430314D01*
X163370950Y-108367479D01*
X163679877Y-108367479D01*
X164000731Y-108367479D01*
X163983246Y-108326066D01*
X163971774Y-108298721D01*
X163954440Y-108257196D01*
X163933840Y-108207717D01*
X163917628Y-108168696D01*
X163896657Y-108118250D01*
X163877349Y-108071935D01*
X163862142Y-108035597D01*
X163854673Y-108017877D01*
X163839851Y-107983015D01*
X163777330Y-108133834D01*
X163753586Y-108191062D01*
X163731398Y-108244452D01*
X163712837Y-108289025D01*
X163699975Y-108319805D01*
X163697343Y-108326066D01*
X163679877Y-108367479D01*
X163370950Y-108367479D01*
X163386971Y-108329516D01*
X163430286Y-108227480D01*
X163473491Y-108126303D01*
X163515695Y-108028078D01*
X163556006Y-107934903D01*
X163593535Y-107848872D01*
X163627392Y-107772080D01*
X163656685Y-107706623D01*
X163680525Y-107654596D01*
X163698021Y-107618095D01*
X163708283Y-107599215D01*
X163709948Y-107597196D01*
X163732404Y-107589779D01*
X163775040Y-107585118D01*
X163836102Y-107583397D01*
X163840304Y-107583392D01*
X163902420Y-107584930D01*
G36*
X162898999Y-107581820D02*
G01*
X162916471Y-107584780D01*
X162930756Y-107592095D01*
X162942170Y-107605335D01*
X162951030Y-107626067D01*
X162957652Y-107655860D01*
X162962352Y-107696281D01*
X162965446Y-107748900D01*
X162967249Y-107815285D01*
X162968079Y-107897004D01*
X162968251Y-107995625D01*
X162968081Y-108112716D01*
X162967886Y-108249847D01*
X162967869Y-108295696D01*
X162967846Y-108433698D01*
X162967740Y-108551312D01*
X162967500Y-108650237D01*
X162967074Y-108732171D01*
X162966410Y-108798814D01*
X162965457Y-108851864D01*
X162964162Y-108893020D01*
X162962474Y-108923981D01*
X162960340Y-108946446D01*
X162957710Y-108962113D01*
X162954530Y-108972681D01*
X162950750Y-108979850D01*
X162946832Y-108984754D01*
X162934987Y-108995392D01*
X162919481Y-109002209D01*
X162895536Y-109006030D01*
X162858374Y-109007683D01*
X162812531Y-109008000D01*
X162761282Y-109007737D01*
X162727190Y-109006219D01*
X162705323Y-109002358D01*
X162690752Y-108995065D01*
X162678546Y-108983250D01*
X162673438Y-108977272D01*
X162661912Y-108962379D01*
X162638784Y-108931479D01*
X162605426Y-108886439D01*
X162563212Y-108829126D01*
X162513513Y-108761409D01*
X162457703Y-108685153D01*
X162397153Y-108602227D01*
X162333237Y-108514498D01*
X162327348Y-108506405D01*
X162007087Y-108066266D01*
X162001565Y-108521466D01*
X162000311Y-108638154D01*
X161999265Y-108734667D01*
X161997864Y-108812907D01*
X161995547Y-108874773D01*
X161991752Y-108922165D01*
X161985916Y-108956982D01*
X161977477Y-108981125D01*
X161965873Y-108996493D01*
X161950542Y-109004986D01*
X161930921Y-109008505D01*
X161906449Y-109008948D01*
X161876563Y-109008216D01*
X161857601Y-109008000D01*
X161809722Y-109007331D01*
X161778540Y-109004609D01*
X161758685Y-108998764D01*
X161744788Y-108988726D01*
X161740994Y-108984754D01*
X161736634Y-108979184D01*
X161732922Y-108971727D01*
X161729805Y-108960687D01*
X161727231Y-108944362D01*
X161725148Y-108921056D01*
X161723505Y-108889069D01*
X161722250Y-108846702D01*
X161721330Y-108792256D01*
X161720695Y-108724032D01*
X161720292Y-108640333D01*
X161720069Y-108539458D01*
X161719975Y-108419709D01*
X161719956Y-108295696D01*
X161719980Y-108157694D01*
X161720086Y-108040080D01*
X161720326Y-107941155D01*
X161720752Y-107859221D01*
X161721416Y-107792578D01*
X161722369Y-107739528D01*
X161723664Y-107698372D01*
X161725352Y-107667411D01*
X161727486Y-107644946D01*
X161730116Y-107629279D01*
X161733296Y-107618711D01*
X161737076Y-107611542D01*
X161740994Y-107606638D01*
X161752839Y-107596000D01*
X161768345Y-107589183D01*
X161792290Y-107585362D01*
X161829451Y-107583710D01*
X161875295Y-107583392D01*
X161926493Y-107583642D01*
X161960528Y-107585132D01*
X161982321Y-107588968D01*
X161996795Y-107596259D01*
X162008873Y-107608110D01*
X162014388Y-107614682D01*
X162025965Y-107629680D01*
X162049207Y-107660626D01*
X162082730Y-107705650D01*
X162125149Y-107762881D01*
X162175080Y-107830447D01*
X162231138Y-107906477D01*
X162291939Y-107989101D01*
X162356098Y-108076447D01*
X162360478Y-108082416D01*
X162680739Y-108518860D01*
X162683625Y-108071183D01*
X162684429Y-107958703D01*
X162685313Y-107866257D01*
X162686368Y-107791796D01*
X162687689Y-107733266D01*
X162689366Y-107688616D01*
X162691493Y-107655795D01*
X162694161Y-107632750D01*
X162697463Y-107617430D01*
X162701491Y-107607783D01*
X162704663Y-107603449D01*
X162717284Y-107593609D01*
X162736674Y-107587530D01*
X162767678Y-107584400D01*
X162815138Y-107583407D01*
X162824304Y-107583392D01*
X162853232Y-107582694D01*
X162878025Y-107581648D01*
X162898999Y-107581820D01*
G37*
X162898999Y-107581820D02*
X162916471Y-107584780D01*
X162930756Y-107592095D01*
X162942170Y-107605335D01*
X162951030Y-107626067D01*
X162957652Y-107655860D01*
X162962352Y-107696281D01*
X162965446Y-107748900D01*
X162967249Y-107815285D01*
X162968079Y-107897004D01*
X162968251Y-107995625D01*
X162968081Y-108112716D01*
X162967886Y-108249847D01*
X162967869Y-108295696D01*
X162967846Y-108433698D01*
X162967740Y-108551312D01*
X162967500Y-108650237D01*
X162967074Y-108732171D01*
X162966410Y-108798814D01*
X162965457Y-108851864D01*
X162964162Y-108893020D01*
X162962474Y-108923981D01*
X162960340Y-108946446D01*
X162957710Y-108962113D01*
X162954530Y-108972681D01*
X162950750Y-108979850D01*
X162946832Y-108984754D01*
X162934987Y-108995392D01*
X162919481Y-109002209D01*
X162895536Y-109006030D01*
X162858374Y-109007683D01*
X162812531Y-109008000D01*
X162761282Y-109007737D01*
X162727190Y-109006219D01*
X162705323Y-109002358D01*
X162690752Y-108995065D01*
X162678546Y-108983250D01*
X162673438Y-108977272D01*
X162661912Y-108962379D01*
X162638784Y-108931479D01*
X162605426Y-108886439D01*
X162563212Y-108829126D01*
X162513513Y-108761409D01*
X162457703Y-108685153D01*
X162397153Y-108602227D01*
X162333237Y-108514498D01*
X162327348Y-108506405D01*
X162007087Y-108066266D01*
X162001565Y-108521466D01*
X162000311Y-108638154D01*
X161999265Y-108734667D01*
X161997864Y-108812907D01*
X161995547Y-108874773D01*
X161991752Y-108922165D01*
X161985916Y-108956982D01*
X161977477Y-108981125D01*
X161965873Y-108996493D01*
X161950542Y-109004986D01*
X161930921Y-109008505D01*
X161906449Y-109008948D01*
X161876563Y-109008216D01*
X161857601Y-109008000D01*
X161809722Y-109007331D01*
X161778540Y-109004609D01*
X161758685Y-108998764D01*
X161744788Y-108988726D01*
X161740994Y-108984754D01*
X161736634Y-108979184D01*
X161732922Y-108971727D01*
X161729805Y-108960687D01*
X161727231Y-108944362D01*
X161725148Y-108921056D01*
X161723505Y-108889069D01*
X161722250Y-108846702D01*
X161721330Y-108792256D01*
X161720695Y-108724032D01*
X161720292Y-108640333D01*
X161720069Y-108539458D01*
X161719975Y-108419709D01*
X161719956Y-108295696D01*
X161719980Y-108157694D01*
X161720086Y-108040080D01*
X161720326Y-107941155D01*
X161720752Y-107859221D01*
X161721416Y-107792578D01*
X161722369Y-107739528D01*
X161723664Y-107698372D01*
X161725352Y-107667411D01*
X161727486Y-107644946D01*
X161730116Y-107629279D01*
X161733296Y-107618711D01*
X161737076Y-107611542D01*
X161740994Y-107606638D01*
X161752839Y-107596000D01*
X161768345Y-107589183D01*
X161792290Y-107585362D01*
X161829451Y-107583710D01*
X161875295Y-107583392D01*
X161926493Y-107583642D01*
X161960528Y-107585132D01*
X161982321Y-107588968D01*
X161996795Y-107596259D01*
X162008873Y-107608110D01*
X162014388Y-107614682D01*
X162025965Y-107629680D01*
X162049207Y-107660626D01*
X162082730Y-107705650D01*
X162125149Y-107762881D01*
X162175080Y-107830447D01*
X162231138Y-107906477D01*
X162291939Y-107989101D01*
X162356098Y-108076447D01*
X162360478Y-108082416D01*
X162680739Y-108518860D01*
X162683625Y-108071183D01*
X162684429Y-107958703D01*
X162685313Y-107866257D01*
X162686368Y-107791796D01*
X162687689Y-107733266D01*
X162689366Y-107688616D01*
X162691493Y-107655795D01*
X162694161Y-107632750D01*
X162697463Y-107617430D01*
X162701491Y-107607783D01*
X162704663Y-107603449D01*
X162717284Y-107593609D01*
X162736674Y-107587530D01*
X162767678Y-107584400D01*
X162815138Y-107583407D01*
X162824304Y-107583392D01*
X162853232Y-107582694D01*
X162878025Y-107581648D01*
X162898999Y-107581820D01*
G36*
X159607989Y-107583676D02*
G01*
X159641987Y-107585218D01*
X159663577Y-107589054D01*
X159677596Y-107596221D01*
X159688885Y-107607753D01*
X159692677Y-107612490D01*
X159708491Y-107636505D01*
X159715541Y-107654942D01*
X159715565Y-107655615D01*
X159709456Y-107667391D01*
X159691991Y-107695337D01*
X159664466Y-107737518D01*
X159628176Y-107791999D01*
X159584414Y-107856845D01*
X159534476Y-107930121D01*
X159479657Y-108009890D01*
X159445024Y-108059973D01*
X159174483Y-108450305D01*
X159174459Y-108707066D01*
X159174477Y-108796366D01*
X159173780Y-108866019D01*
X159171211Y-108918461D01*
X159165616Y-108956127D01*
X159155839Y-108981452D01*
X159140724Y-108996872D01*
X159119115Y-109004822D01*
X159089858Y-109007738D01*
X159051795Y-109008056D01*
X159031671Y-109008000D01*
X158984186Y-109007591D01*
X158953445Y-109005509D01*
X158934105Y-109000477D01*
X158920826Y-108991214D01*
X158910193Y-108978902D01*
X158902820Y-108968399D01*
X158897224Y-108956106D01*
X158893160Y-108939029D01*
X158890386Y-108914175D01*
X158888657Y-108878551D01*
X158887730Y-108829164D01*
X158887361Y-108763021D01*
X158887304Y-108697792D01*
X158887304Y-108445779D01*
X158623685Y-108067042D01*
X158566919Y-107985188D01*
X158514008Y-107908313D01*
X158466316Y-107838445D01*
X158425209Y-107777608D01*
X158392050Y-107727828D01*
X158368204Y-107691130D01*
X158355036Y-107669539D01*
X158352926Y-107665192D01*
X158355151Y-107635697D01*
X158368869Y-107612736D01*
X158380244Y-107599598D01*
X158392698Y-107591113D01*
X158411011Y-107586264D01*
X158439964Y-107584037D01*
X158484339Y-107583417D01*
X158507106Y-107583392D01*
X158561184Y-107583993D01*
X158597709Y-107586240D01*
X158621195Y-107590793D01*
X158636154Y-107598316D01*
X158641587Y-107603131D01*
X158652704Y-107617085D01*
X158674548Y-107646736D01*
X158705333Y-107689578D01*
X158743274Y-107743105D01*
X158786587Y-107804814D01*
X158833488Y-107872197D01*
X158842177Y-107884740D01*
X158888784Y-107951693D01*
X158931493Y-108012324D01*
X158968662Y-108064358D01*
X158998648Y-108105520D01*
X159019809Y-108133536D01*
X159030502Y-108146132D01*
X159031308Y-108146609D01*
X159039337Y-108137872D01*
X159058221Y-108113159D01*
X159086339Y-108074722D01*
X159122070Y-108024812D01*
X159163791Y-107965678D01*
X159209882Y-107899571D01*
X159224257Y-107878805D01*
X159271907Y-107810222D01*
X159316180Y-107747194D01*
X159355345Y-107692128D01*
X159387673Y-107647430D01*
X159411437Y-107615510D01*
X159424905Y-107598773D01*
X159426520Y-107597196D01*
X159448369Y-107589695D01*
X159491066Y-107585057D01*
X159553543Y-107583395D01*
X159556744Y-107583392D01*
X159607989Y-107583676D01*
G37*
X159607989Y-107583676D02*
X159641987Y-107585218D01*
X159663577Y-107589054D01*
X159677596Y-107596221D01*
X159688885Y-107607753D01*
X159692677Y-107612490D01*
X159708491Y-107636505D01*
X159715541Y-107654942D01*
X159715565Y-107655615D01*
X159709456Y-107667391D01*
X159691991Y-107695337D01*
X159664466Y-107737518D01*
X159628176Y-107791999D01*
X159584414Y-107856845D01*
X159534476Y-107930121D01*
X159479657Y-108009890D01*
X159445024Y-108059973D01*
X159174483Y-108450305D01*
X159174459Y-108707066D01*
X159174477Y-108796366D01*
X159173780Y-108866019D01*
X159171211Y-108918461D01*
X159165616Y-108956127D01*
X159155839Y-108981452D01*
X159140724Y-108996872D01*
X159119115Y-109004822D01*
X159089858Y-109007738D01*
X159051795Y-109008056D01*
X159031671Y-109008000D01*
X158984186Y-109007591D01*
X158953445Y-109005509D01*
X158934105Y-109000477D01*
X158920826Y-108991214D01*
X158910193Y-108978902D01*
X158902820Y-108968399D01*
X158897224Y-108956106D01*
X158893160Y-108939029D01*
X158890386Y-108914175D01*
X158888657Y-108878551D01*
X158887730Y-108829164D01*
X158887361Y-108763021D01*
X158887304Y-108697792D01*
X158887304Y-108445779D01*
X158623685Y-108067042D01*
X158566919Y-107985188D01*
X158514008Y-107908313D01*
X158466316Y-107838445D01*
X158425209Y-107777608D01*
X158392050Y-107727828D01*
X158368204Y-107691130D01*
X158355036Y-107669539D01*
X158352926Y-107665192D01*
X158355151Y-107635697D01*
X158368869Y-107612736D01*
X158380244Y-107599598D01*
X158392698Y-107591113D01*
X158411011Y-107586264D01*
X158439964Y-107584037D01*
X158484339Y-107583417D01*
X158507106Y-107583392D01*
X158561184Y-107583993D01*
X158597709Y-107586240D01*
X158621195Y-107590793D01*
X158636154Y-107598316D01*
X158641587Y-107603131D01*
X158652704Y-107617085D01*
X158674548Y-107646736D01*
X158705333Y-107689578D01*
X158743274Y-107743105D01*
X158786587Y-107804814D01*
X158833488Y-107872197D01*
X158842177Y-107884740D01*
X158888784Y-107951693D01*
X158931493Y-108012324D01*
X158968662Y-108064358D01*
X158998648Y-108105520D01*
X159019809Y-108133536D01*
X159030502Y-108146132D01*
X159031308Y-108146609D01*
X159039337Y-108137872D01*
X159058221Y-108113159D01*
X159086339Y-108074722D01*
X159122070Y-108024812D01*
X159163791Y-107965678D01*
X159209882Y-107899571D01*
X159224257Y-107878805D01*
X159271907Y-107810222D01*
X159316180Y-107747194D01*
X159355345Y-107692128D01*
X159387673Y-107647430D01*
X159411437Y-107615510D01*
X159424905Y-107598773D01*
X159426520Y-107597196D01*
X159448369Y-107589695D01*
X159491066Y-107585057D01*
X159553543Y-107583395D01*
X159556744Y-107583392D01*
X159607989Y-107583676D01*
G36*
X157624184Y-107583284D02*
G01*
X157737071Y-107583392D01*
X157861770Y-107583429D01*
X157966244Y-107583584D01*
X158052353Y-107583923D01*
X158121959Y-107584512D01*
X158176922Y-107585418D01*
X158219103Y-107586706D01*
X158250364Y-107588442D01*
X158272566Y-107590693D01*
X158287570Y-107593524D01*
X158297237Y-107597003D01*
X158303427Y-107601194D01*
X158305810Y-107603587D01*
X158315211Y-107619530D01*
X158320908Y-107645044D01*
X158323606Y-107684741D01*
X158324087Y-107723354D01*
X158323988Y-107767863D01*
X158321875Y-107801441D01*
X158315023Y-107825625D01*
X158300709Y-107841955D01*
X158276208Y-107851968D01*
X158238795Y-107857203D01*
X158185746Y-107859199D01*
X158114337Y-107859493D01*
X158083022Y-107859479D01*
X157882348Y-107859479D01*
X157882348Y-108404642D01*
X157882472Y-108535698D01*
X157882573Y-108646382D01*
X157882241Y-108738402D01*
X157881067Y-108813470D01*
X157878642Y-108873296D01*
X157874556Y-108919589D01*
X157868400Y-108954061D01*
X157859765Y-108978421D01*
X157848242Y-108994380D01*
X157833421Y-109003648D01*
X157814894Y-109007936D01*
X157792250Y-109008953D01*
X157765082Y-109008411D01*
X157737981Y-109008000D01*
X157688679Y-109007287D01*
X157656163Y-109004503D01*
X157635160Y-108998684D01*
X157620396Y-108988864D01*
X157617304Y-108985913D01*
X157612319Y-108980316D01*
X157608146Y-108973104D01*
X157604714Y-108962401D01*
X157601949Y-108946329D01*
X157599780Y-108923013D01*
X157598135Y-108890577D01*
X157596941Y-108847142D01*
X157596127Y-108790834D01*
X157595619Y-108719776D01*
X157595346Y-108632090D01*
X157595237Y-108525901D01*
X157595217Y-108411653D01*
X157595217Y-107859479D01*
X157390913Y-107859479D01*
X157310762Y-107859348D01*
X157250010Y-107857961D01*
X157205970Y-107853824D01*
X157175956Y-107845446D01*
X157157282Y-107831334D01*
X157147260Y-107809995D01*
X157143205Y-107779936D01*
X157142428Y-107739666D01*
X157142435Y-107721435D01*
X157141845Y-107691229D01*
X157141224Y-107665750D01*
X157142290Y-107644599D01*
X157146764Y-107627377D01*
X157156366Y-107613684D01*
X157172815Y-107603122D01*
X157197833Y-107595290D01*
X157233139Y-107589789D01*
X157280452Y-107586221D01*
X157341493Y-107584186D01*
X157417982Y-107583284D01*
X157511639Y-107583116D01*
X157624184Y-107583284D01*
G37*
X157624184Y-107583284D02*
X157737071Y-107583392D01*
X157861770Y-107583429D01*
X157966244Y-107583584D01*
X158052353Y-107583923D01*
X158121959Y-107584512D01*
X158176922Y-107585418D01*
X158219103Y-107586706D01*
X158250364Y-107588442D01*
X158272566Y-107590693D01*
X158287570Y-107593524D01*
X158297237Y-107597003D01*
X158303427Y-107601194D01*
X158305810Y-107603587D01*
X158315211Y-107619530D01*
X158320908Y-107645044D01*
X158323606Y-107684741D01*
X158324087Y-107723354D01*
X158323988Y-107767863D01*
X158321875Y-107801441D01*
X158315023Y-107825625D01*
X158300709Y-107841955D01*
X158276208Y-107851968D01*
X158238795Y-107857203D01*
X158185746Y-107859199D01*
X158114337Y-107859493D01*
X158083022Y-107859479D01*
X157882348Y-107859479D01*
X157882348Y-108404642D01*
X157882472Y-108535698D01*
X157882573Y-108646382D01*
X157882241Y-108738402D01*
X157881067Y-108813470D01*
X157878642Y-108873296D01*
X157874556Y-108919589D01*
X157868400Y-108954061D01*
X157859765Y-108978421D01*
X157848242Y-108994380D01*
X157833421Y-109003648D01*
X157814894Y-109007936D01*
X157792250Y-109008953D01*
X157765082Y-109008411D01*
X157737981Y-109008000D01*
X157688679Y-109007287D01*
X157656163Y-109004503D01*
X157635160Y-108998684D01*
X157620396Y-108988864D01*
X157617304Y-108985913D01*
X157612319Y-108980316D01*
X157608146Y-108973104D01*
X157604714Y-108962401D01*
X157601949Y-108946329D01*
X157599780Y-108923013D01*
X157598135Y-108890577D01*
X157596941Y-108847142D01*
X157596127Y-108790834D01*
X157595619Y-108719776D01*
X157595346Y-108632090D01*
X157595237Y-108525901D01*
X157595217Y-108411653D01*
X157595217Y-107859479D01*
X157390913Y-107859479D01*
X157310762Y-107859348D01*
X157250010Y-107857961D01*
X157205970Y-107853824D01*
X157175956Y-107845446D01*
X157157282Y-107831334D01*
X157147260Y-107809995D01*
X157143205Y-107779936D01*
X157142428Y-107739666D01*
X157142435Y-107721435D01*
X157141845Y-107691229D01*
X157141224Y-107665750D01*
X157142290Y-107644599D01*
X157146764Y-107627377D01*
X157156366Y-107613684D01*
X157172815Y-107603122D01*
X157197833Y-107595290D01*
X157233139Y-107589789D01*
X157280452Y-107586221D01*
X157341493Y-107584186D01*
X157417982Y-107583284D01*
X157511639Y-107583116D01*
X157624184Y-107583284D01*
G36*
X156785030Y-107582315D02*
G01*
X156812638Y-107583305D01*
X156822174Y-107583392D01*
X156851112Y-107582686D01*
X156875914Y-107581614D01*
X156896894Y-107581743D01*
X156914370Y-107584644D01*
X156928657Y-107591884D01*
X156940072Y-107605031D01*
X156948932Y-107625654D01*
X156955552Y-107655321D01*
X156960248Y-107695601D01*
X156963338Y-107748062D01*
X156965138Y-107814273D01*
X156965963Y-107895802D01*
X156966130Y-107994218D01*
X156965956Y-108111088D01*
X156965757Y-108247982D01*
X156965739Y-108295266D01*
X156965739Y-108962966D01*
X156941570Y-108985483D01*
X156926100Y-108996788D01*
X156905824Y-109003612D01*
X156875203Y-109006998D01*
X156828697Y-109007992D01*
X156822174Y-109008000D01*
X156773517Y-109007212D01*
X156741373Y-109004149D01*
X156720203Y-108997768D01*
X156704466Y-108987024D01*
X156702778Y-108985483D01*
X156678609Y-108962966D01*
X156678609Y-108295266D01*
X156678466Y-108151772D01*
X156678250Y-108028794D01*
X156678276Y-107924762D01*
X156678861Y-107838108D01*
X156680321Y-107767264D01*
X156682972Y-107710661D01*
X156687132Y-107666732D01*
X156693115Y-107633906D01*
X156701238Y-107610617D01*
X156711818Y-107595295D01*
X156725171Y-107586373D01*
X156741613Y-107582281D01*
X156761461Y-107581451D01*
X156785030Y-107582315D01*
G37*
X156785030Y-107582315D02*
X156812638Y-107583305D01*
X156822174Y-107583392D01*
X156851112Y-107582686D01*
X156875914Y-107581614D01*
X156896894Y-107581743D01*
X156914370Y-107584644D01*
X156928657Y-107591884D01*
X156940072Y-107605031D01*
X156948932Y-107625654D01*
X156955552Y-107655321D01*
X156960248Y-107695601D01*
X156963338Y-107748062D01*
X156965138Y-107814273D01*
X156965963Y-107895802D01*
X156966130Y-107994218D01*
X156965956Y-108111088D01*
X156965757Y-108247982D01*
X156965739Y-108295266D01*
X156965739Y-108962966D01*
X156941570Y-108985483D01*
X156926100Y-108996788D01*
X156905824Y-109003612D01*
X156875203Y-109006998D01*
X156828697Y-109007992D01*
X156822174Y-109008000D01*
X156773517Y-109007212D01*
X156741373Y-109004149D01*
X156720203Y-108997768D01*
X156704466Y-108987024D01*
X156702778Y-108985483D01*
X156678609Y-108962966D01*
X156678609Y-108295266D01*
X156678466Y-108151772D01*
X156678250Y-108028794D01*
X156678276Y-107924762D01*
X156678861Y-107838108D01*
X156680321Y-107767264D01*
X156682972Y-107710661D01*
X156687132Y-107666732D01*
X156693115Y-107633906D01*
X156701238Y-107610617D01*
X156711818Y-107595295D01*
X156725171Y-107586373D01*
X156741613Y-107582281D01*
X156761461Y-107581451D01*
X156785030Y-107582315D01*
G36*
X154727727Y-107583394D02*
G01*
X154801481Y-107584452D01*
X154860056Y-107586698D01*
X154905179Y-107590530D01*
X154938574Y-107596342D01*
X154961970Y-107604532D01*
X154977091Y-107615495D01*
X154985664Y-107629628D01*
X154989415Y-107647326D01*
X154990069Y-107668986D01*
X154989355Y-107695003D01*
X154988956Y-107718978D01*
X154988847Y-107764709D01*
X154986712Y-107799265D01*
X154979841Y-107824210D01*
X154965522Y-107841108D01*
X154941047Y-107851522D01*
X154903703Y-107857015D01*
X154850781Y-107859151D01*
X154779569Y-107859494D01*
X154745374Y-107859479D01*
X154536174Y-107859479D01*
X154536174Y-108415463D01*
X154536137Y-108540834D01*
X154535985Y-108645969D01*
X154535651Y-108732720D01*
X154535070Y-108802938D01*
X154534178Y-108858474D01*
X154532909Y-108901180D01*
X154531199Y-108932906D01*
X154528981Y-108955504D01*
X154526192Y-108970825D01*
X154522765Y-108980720D01*
X154518637Y-108987041D01*
X154515978Y-108989724D01*
X154492485Y-109000411D01*
X154454476Y-109007064D01*
X154408488Y-109009734D01*
X154361052Y-109008475D01*
X154318704Y-109003340D01*
X154287977Y-108994381D01*
X154278364Y-108987805D01*
X154274214Y-108981581D01*
X154270738Y-108971641D01*
X154267877Y-108956143D01*
X154265572Y-108933249D01*
X154263764Y-108901117D01*
X154262395Y-108857909D01*
X154261407Y-108801784D01*
X154260740Y-108730902D01*
X154260337Y-108643424D01*
X154260139Y-108537508D01*
X154260087Y-108413544D01*
X154260087Y-107859479D01*
X154050887Y-107859479D01*
X153971605Y-107859416D01*
X153911696Y-107858184D01*
X153868449Y-107854221D01*
X153839153Y-107845962D01*
X153821099Y-107831844D01*
X153811576Y-107810304D01*
X153807872Y-107779778D01*
X153807278Y-107738702D01*
X153807304Y-107718978D01*
X153806730Y-107689226D01*
X153806157Y-107664145D01*
X153807313Y-107643340D01*
X153811922Y-107626415D01*
X153821712Y-107612972D01*
X153838409Y-107602618D01*
X153863738Y-107594954D01*
X153899425Y-107589585D01*
X153947198Y-107586115D01*
X154008782Y-107584147D01*
X154085902Y-107583287D01*
X154180286Y-107583136D01*
X154293659Y-107583300D01*
X154398130Y-107583392D01*
X154527778Y-107583260D01*
X154637068Y-107583129D01*
X154727727Y-107583394D01*
G37*
X154727727Y-107583394D02*
X154801481Y-107584452D01*
X154860056Y-107586698D01*
X154905179Y-107590530D01*
X154938574Y-107596342D01*
X154961970Y-107604532D01*
X154977091Y-107615495D01*
X154985664Y-107629628D01*
X154989415Y-107647326D01*
X154990069Y-107668986D01*
X154989355Y-107695003D01*
X154988956Y-107718978D01*
X154988847Y-107764709D01*
X154986712Y-107799265D01*
X154979841Y-107824210D01*
X154965522Y-107841108D01*
X154941047Y-107851522D01*
X154903703Y-107857015D01*
X154850781Y-107859151D01*
X154779569Y-107859494D01*
X154745374Y-107859479D01*
X154536174Y-107859479D01*
X154536174Y-108415463D01*
X154536137Y-108540834D01*
X154535985Y-108645969D01*
X154535651Y-108732720D01*
X154535070Y-108802938D01*
X154534178Y-108858474D01*
X154532909Y-108901180D01*
X154531199Y-108932906D01*
X154528981Y-108955504D01*
X154526192Y-108970825D01*
X154522765Y-108980720D01*
X154518637Y-108987041D01*
X154515978Y-108989724D01*
X154492485Y-109000411D01*
X154454476Y-109007064D01*
X154408488Y-109009734D01*
X154361052Y-109008475D01*
X154318704Y-109003340D01*
X154287977Y-108994381D01*
X154278364Y-108987805D01*
X154274214Y-108981581D01*
X154270738Y-108971641D01*
X154267877Y-108956143D01*
X154265572Y-108933249D01*
X154263764Y-108901117D01*
X154262395Y-108857909D01*
X154261407Y-108801784D01*
X154260740Y-108730902D01*
X154260337Y-108643424D01*
X154260139Y-108537508D01*
X154260087Y-108413544D01*
X154260087Y-107859479D01*
X154050887Y-107859479D01*
X153971605Y-107859416D01*
X153911696Y-107858184D01*
X153868449Y-107854221D01*
X153839153Y-107845962D01*
X153821099Y-107831844D01*
X153811576Y-107810304D01*
X153807872Y-107779778D01*
X153807278Y-107738702D01*
X153807304Y-107718978D01*
X153806730Y-107689226D01*
X153806157Y-107664145D01*
X153807313Y-107643340D01*
X153811922Y-107626415D01*
X153821712Y-107612972D01*
X153838409Y-107602618D01*
X153863738Y-107594954D01*
X153899425Y-107589585D01*
X153947198Y-107586115D01*
X154008782Y-107584147D01*
X154085902Y-107583287D01*
X154180286Y-107583136D01*
X154293659Y-107583300D01*
X154398130Y-107583392D01*
X154527778Y-107583260D01*
X154637068Y-107583129D01*
X154727727Y-107583394D01*
G36*
X153556217Y-107581820D02*
G01*
X153573688Y-107584780D01*
X153587973Y-107592095D01*
X153599388Y-107605335D01*
X153608248Y-107626067D01*
X153614870Y-107655860D01*
X153619569Y-107696281D01*
X153622663Y-107748900D01*
X153624467Y-107815285D01*
X153625296Y-107897004D01*
X153625468Y-107995625D01*
X153625299Y-108112716D01*
X153625103Y-108249847D01*
X153625087Y-108295696D01*
X153625063Y-108433698D01*
X153624957Y-108551312D01*
X153624717Y-108650237D01*
X153624291Y-108732171D01*
X153623627Y-108798814D01*
X153622674Y-108851864D01*
X153621379Y-108893020D01*
X153619691Y-108923981D01*
X153617557Y-108946446D01*
X153614927Y-108962113D01*
X153611747Y-108972681D01*
X153607967Y-108979850D01*
X153604049Y-108984754D01*
X153592204Y-108995392D01*
X153576698Y-109002209D01*
X153552753Y-109006030D01*
X153515592Y-109007683D01*
X153469748Y-109008000D01*
X153418514Y-109007740D01*
X153384438Y-109006230D01*
X153362592Y-109002376D01*
X153348047Y-108995084D01*
X153335876Y-108983259D01*
X153330655Y-108977119D01*
X153319125Y-108962196D01*
X153295987Y-108931271D01*
X153262615Y-108886213D01*
X153220383Y-108828889D01*
X153170664Y-108761168D01*
X153114833Y-108684918D01*
X153054261Y-108602008D01*
X152990324Y-108514305D01*
X152984565Y-108506396D01*
X152664304Y-108066555D01*
X152658782Y-108521610D01*
X152657528Y-108638279D01*
X152656482Y-108734774D01*
X152655080Y-108812996D01*
X152652762Y-108874844D01*
X152648965Y-108922220D01*
X152643126Y-108957022D01*
X152634682Y-108981152D01*
X152623072Y-108996510D01*
X152607733Y-109004994D01*
X152588102Y-109008506D01*
X152563618Y-109008946D01*
X152533717Y-109008214D01*
X152514818Y-109008000D01*
X152465835Y-109007172D01*
X152433860Y-109004091D01*
X152413855Y-108997863D01*
X152400972Y-108987805D01*
X152397185Y-108982094D01*
X152393955Y-108972872D01*
X152391238Y-108958481D01*
X152388992Y-108937260D01*
X152387172Y-108907550D01*
X152385734Y-108867691D01*
X152384636Y-108816025D01*
X152383832Y-108750890D01*
X152383281Y-108670628D01*
X152382936Y-108573580D01*
X152382756Y-108458084D01*
X152382697Y-108322483D01*
X152382696Y-108293777D01*
X152382723Y-108154785D01*
X152382838Y-108036207D01*
X152383088Y-107936372D01*
X152383524Y-107853605D01*
X152384194Y-107786235D01*
X152385146Y-107732589D01*
X152386429Y-107690995D01*
X152388092Y-107659780D01*
X152390185Y-107637272D01*
X152392755Y-107621798D01*
X152395852Y-107611684D01*
X152399524Y-107605260D01*
X152402891Y-107601669D01*
X152417437Y-107592854D01*
X152440499Y-107587274D01*
X152476461Y-107584324D01*
X152529710Y-107583397D01*
X152535156Y-107583392D01*
X152647225Y-107583392D01*
X152688895Y-107636879D01*
X152703968Y-107656751D01*
X152730558Y-107692385D01*
X152767142Y-107741717D01*
X152812196Y-107802681D01*
X152864195Y-107873215D01*
X152921616Y-107951253D01*
X152982935Y-108034732D01*
X153034261Y-108104710D01*
X153337956Y-108519053D01*
X153340843Y-108071279D01*
X153341646Y-107958786D01*
X153342530Y-107866328D01*
X153343585Y-107791854D01*
X153344906Y-107733313D01*
X153346583Y-107688653D01*
X153348709Y-107655822D01*
X153351376Y-107632769D01*
X153354677Y-107617443D01*
X153358704Y-107607791D01*
X153361881Y-107603449D01*
X153374502Y-107593609D01*
X153393892Y-107587530D01*
X153424895Y-107584400D01*
X153472356Y-107583407D01*
X153481522Y-107583392D01*
X153510449Y-107582694D01*
X153535242Y-107581648D01*
X153556217Y-107581820D01*
G37*
X153556217Y-107581820D02*
X153573688Y-107584780D01*
X153587973Y-107592095D01*
X153599388Y-107605335D01*
X153608248Y-107626067D01*
X153614870Y-107655860D01*
X153619569Y-107696281D01*
X153622663Y-107748900D01*
X153624467Y-107815285D01*
X153625296Y-107897004D01*
X153625468Y-107995625D01*
X153625299Y-108112716D01*
X153625103Y-108249847D01*
X153625087Y-108295696D01*
X153625063Y-108433698D01*
X153624957Y-108551312D01*
X153624717Y-108650237D01*
X153624291Y-108732171D01*
X153623627Y-108798814D01*
X153622674Y-108851864D01*
X153621379Y-108893020D01*
X153619691Y-108923981D01*
X153617557Y-108946446D01*
X153614927Y-108962113D01*
X153611747Y-108972681D01*
X153607967Y-108979850D01*
X153604049Y-108984754D01*
X153592204Y-108995392D01*
X153576698Y-109002209D01*
X153552753Y-109006030D01*
X153515592Y-109007683D01*
X153469748Y-109008000D01*
X153418514Y-109007740D01*
X153384438Y-109006230D01*
X153362592Y-109002376D01*
X153348047Y-108995084D01*
X153335876Y-108983259D01*
X153330655Y-108977119D01*
X153319125Y-108962196D01*
X153295987Y-108931271D01*
X153262615Y-108886213D01*
X153220383Y-108828889D01*
X153170664Y-108761168D01*
X153114833Y-108684918D01*
X153054261Y-108602008D01*
X152990324Y-108514305D01*
X152984565Y-108506396D01*
X152664304Y-108066555D01*
X152658782Y-108521610D01*
X152657528Y-108638279D01*
X152656482Y-108734774D01*
X152655080Y-108812996D01*
X152652762Y-108874844D01*
X152648965Y-108922220D01*
X152643126Y-108957022D01*
X152634682Y-108981152D01*
X152623072Y-108996510D01*
X152607733Y-109004994D01*
X152588102Y-109008506D01*
X152563618Y-109008946D01*
X152533717Y-109008214D01*
X152514818Y-109008000D01*
X152465835Y-109007172D01*
X152433860Y-109004091D01*
X152413855Y-108997863D01*
X152400972Y-108987805D01*
X152397185Y-108982094D01*
X152393955Y-108972872D01*
X152391238Y-108958481D01*
X152388992Y-108937260D01*
X152387172Y-108907550D01*
X152385734Y-108867691D01*
X152384636Y-108816025D01*
X152383832Y-108750890D01*
X152383281Y-108670628D01*
X152382936Y-108573580D01*
X152382756Y-108458084D01*
X152382697Y-108322483D01*
X152382696Y-108293777D01*
X152382723Y-108154785D01*
X152382838Y-108036207D01*
X152383088Y-107936372D01*
X152383524Y-107853605D01*
X152384194Y-107786235D01*
X152385146Y-107732589D01*
X152386429Y-107690995D01*
X152388092Y-107659780D01*
X152390185Y-107637272D01*
X152392755Y-107621798D01*
X152395852Y-107611684D01*
X152399524Y-107605260D01*
X152402891Y-107601669D01*
X152417437Y-107592854D01*
X152440499Y-107587274D01*
X152476461Y-107584324D01*
X152529710Y-107583397D01*
X152535156Y-107583392D01*
X152647225Y-107583392D01*
X152688895Y-107636879D01*
X152703968Y-107656751D01*
X152730558Y-107692385D01*
X152767142Y-107741717D01*
X152812196Y-107802681D01*
X152864195Y-107873215D01*
X152921616Y-107951253D01*
X152982935Y-108034732D01*
X153034261Y-108104710D01*
X153337956Y-108519053D01*
X153340843Y-108071279D01*
X153341646Y-107958786D01*
X153342530Y-107866328D01*
X153343585Y-107791854D01*
X153344906Y-107733313D01*
X153346583Y-107688653D01*
X153348709Y-107655822D01*
X153351376Y-107632769D01*
X153354677Y-107617443D01*
X153358704Y-107607791D01*
X153361881Y-107603449D01*
X153374502Y-107593609D01*
X153393892Y-107587530D01*
X153424895Y-107584400D01*
X153472356Y-107583407D01*
X153481522Y-107583392D01*
X153510449Y-107582694D01*
X153535242Y-107581648D01*
X153556217Y-107581820D01*
G36*
X151565123Y-107583954D02*
G01*
X151601848Y-107586057D01*
X151625163Y-107590323D01*
X151639398Y-107597375D01*
X151644970Y-107602718D01*
X151652061Y-107616026D01*
X151666934Y-107647941D01*
X151688823Y-107696705D01*
X151716963Y-107760558D01*
X151750589Y-107837740D01*
X151788936Y-107926494D01*
X151831238Y-108025059D01*
X151876730Y-108131677D01*
X151924647Y-108244588D01*
X151940808Y-108282804D01*
X152219993Y-108943564D01*
X152198036Y-108973021D01*
X152186586Y-108986638D01*
X152173429Y-108995444D01*
X152153593Y-109000687D01*
X152122109Y-109003617D01*
X152074005Y-109005482D01*
X152068130Y-109005657D01*
X152013878Y-109006404D01*
X151977383Y-109004546D01*
X151954423Y-108999635D01*
X151941873Y-108992264D01*
X151931638Y-108976832D01*
X151914993Y-108944701D01*
X151893752Y-108899672D01*
X151869727Y-108845546D01*
X151852194Y-108804209D01*
X151780826Y-108632724D01*
X151231884Y-108638044D01*
X151160852Y-108809218D01*
X151136080Y-108867168D01*
X151112807Y-108918426D01*
X151092835Y-108959259D01*
X151077966Y-108985933D01*
X151071538Y-108994196D01*
X151049407Y-109001674D01*
X151008017Y-109006378D01*
X150950454Y-109008000D01*
X150900151Y-109007352D01*
X150866787Y-109004803D01*
X150845238Y-108999447D01*
X150830378Y-108990377D01*
X150825565Y-108985913D01*
X150809049Y-108962271D01*
X150803478Y-108942734D01*
X150807719Y-108928057D01*
X150819851Y-108895323D01*
X150838985Y-108846619D01*
X150864235Y-108784035D01*
X150894712Y-108709659D01*
X150929529Y-108625580D01*
X150967799Y-108533886D01*
X151008634Y-108436667D01*
X151041353Y-108359196D01*
X151355550Y-108359196D01*
X151365975Y-108362162D01*
X151394545Y-108364659D01*
X151437322Y-108366475D01*
X151490366Y-108367403D01*
X151511442Y-108367479D01*
X151575477Y-108367034D01*
X151619954Y-108365547D01*
X151647392Y-108362785D01*
X151660304Y-108358519D01*
X151661794Y-108353674D01*
X151644711Y-108311130D01*
X151623841Y-108260386D01*
X151600844Y-108205339D01*
X151577383Y-108149881D01*
X151555117Y-108097907D01*
X151535709Y-108053313D01*
X151520820Y-108019992D01*
X151512112Y-108001839D01*
X151510835Y-107999793D01*
X151504913Y-108007170D01*
X151492408Y-108031170D01*
X151474987Y-108067930D01*
X151454320Y-108113588D01*
X151432076Y-108164279D01*
X151409925Y-108216140D01*
X151389535Y-108265308D01*
X151372576Y-108307920D01*
X151360717Y-108340112D01*
X151355627Y-108358021D01*
X151355550Y-108359196D01*
X151041353Y-108359196D01*
X151051146Y-108336011D01*
X151094447Y-108234006D01*
X151137651Y-108132742D01*
X151179869Y-108034308D01*
X151220214Y-107940791D01*
X151257798Y-107854281D01*
X151291734Y-107776867D01*
X151321134Y-107710637D01*
X151345110Y-107657679D01*
X151362776Y-107620083D01*
X151373242Y-107599938D01*
X151375261Y-107597196D01*
X151397419Y-107589758D01*
X151440692Y-107585133D01*
X151504278Y-107583403D01*
X151510660Y-107583392D01*
X151565123Y-107583954D01*
G37*
X151565123Y-107583954D02*
X151601848Y-107586057D01*
X151625163Y-107590323D01*
X151639398Y-107597375D01*
X151644970Y-107602718D01*
X151652061Y-107616026D01*
X151666934Y-107647941D01*
X151688823Y-107696705D01*
X151716963Y-107760558D01*
X151750589Y-107837740D01*
X151788936Y-107926494D01*
X151831238Y-108025059D01*
X151876730Y-108131677D01*
X151924647Y-108244588D01*
X151940808Y-108282804D01*
X152219993Y-108943564D01*
X152198036Y-108973021D01*
X152186586Y-108986638D01*
X152173429Y-108995444D01*
X152153593Y-109000687D01*
X152122109Y-109003617D01*
X152074005Y-109005482D01*
X152068130Y-109005657D01*
X152013878Y-109006404D01*
X151977383Y-109004546D01*
X151954423Y-108999635D01*
X151941873Y-108992264D01*
X151931638Y-108976832D01*
X151914993Y-108944701D01*
X151893752Y-108899672D01*
X151869727Y-108845546D01*
X151852194Y-108804209D01*
X151780826Y-108632724D01*
X151231884Y-108638044D01*
X151160852Y-108809218D01*
X151136080Y-108867168D01*
X151112807Y-108918426D01*
X151092835Y-108959259D01*
X151077966Y-108985933D01*
X151071538Y-108994196D01*
X151049407Y-109001674D01*
X151008017Y-109006378D01*
X150950454Y-109008000D01*
X150900151Y-109007352D01*
X150866787Y-109004803D01*
X150845238Y-108999447D01*
X150830378Y-108990377D01*
X150825565Y-108985913D01*
X150809049Y-108962271D01*
X150803478Y-108942734D01*
X150807719Y-108928057D01*
X150819851Y-108895323D01*
X150838985Y-108846619D01*
X150864235Y-108784035D01*
X150894712Y-108709659D01*
X150929529Y-108625580D01*
X150967799Y-108533886D01*
X151008634Y-108436667D01*
X151041353Y-108359196D01*
X151355550Y-108359196D01*
X151365975Y-108362162D01*
X151394545Y-108364659D01*
X151437322Y-108366475D01*
X151490366Y-108367403D01*
X151511442Y-108367479D01*
X151575477Y-108367034D01*
X151619954Y-108365547D01*
X151647392Y-108362785D01*
X151660304Y-108358519D01*
X151661794Y-108353674D01*
X151644711Y-108311130D01*
X151623841Y-108260386D01*
X151600844Y-108205339D01*
X151577383Y-108149881D01*
X151555117Y-108097907D01*
X151535709Y-108053313D01*
X151520820Y-108019992D01*
X151512112Y-108001839D01*
X151510835Y-107999793D01*
X151504913Y-108007170D01*
X151492408Y-108031170D01*
X151474987Y-108067930D01*
X151454320Y-108113588D01*
X151432076Y-108164279D01*
X151409925Y-108216140D01*
X151389535Y-108265308D01*
X151372576Y-108307920D01*
X151360717Y-108340112D01*
X151355627Y-108358021D01*
X151355550Y-108359196D01*
X151041353Y-108359196D01*
X151051146Y-108336011D01*
X151094447Y-108234006D01*
X151137651Y-108132742D01*
X151179869Y-108034308D01*
X151220214Y-107940791D01*
X151257798Y-107854281D01*
X151291734Y-107776867D01*
X151321134Y-107710637D01*
X151345110Y-107657679D01*
X151362776Y-107620083D01*
X151373242Y-107599938D01*
X151375261Y-107597196D01*
X151397419Y-107589758D01*
X151440692Y-107585133D01*
X151504278Y-107583403D01*
X151510660Y-107583392D01*
X151565123Y-107583954D01*
G36*
X160896063Y-107583893D02*
G01*
X160932553Y-107585852D01*
X160955968Y-107589954D01*
X160970808Y-107596882D01*
X160978896Y-107604211D01*
X160987322Y-107618881D01*
X161003227Y-107651787D01*
X161025718Y-107700818D01*
X161053900Y-107763862D01*
X161086880Y-107838807D01*
X161123763Y-107923543D01*
X161163654Y-108015958D01*
X161205661Y-108113940D01*
X161248888Y-108215377D01*
X161292442Y-108318159D01*
X161335428Y-108420173D01*
X161376952Y-108519308D01*
X161416119Y-108613453D01*
X161452037Y-108700495D01*
X161483809Y-108778325D01*
X161510543Y-108844829D01*
X161531345Y-108897897D01*
X161545319Y-108935417D01*
X161551571Y-108955277D01*
X161551823Y-108957107D01*
X161552088Y-108969492D01*
X161551296Y-108980106D01*
X161547870Y-108989085D01*
X161540230Y-108996568D01*
X161526801Y-109002689D01*
X161506002Y-109007585D01*
X161476257Y-109011393D01*
X161435987Y-109014250D01*
X161383614Y-109016291D01*
X161317561Y-109017653D01*
X161236248Y-109018474D01*
X161138099Y-109018888D01*
X161021535Y-109019033D01*
X160884978Y-109019046D01*
X160835720Y-109019044D01*
X160695332Y-109018995D01*
X160575410Y-109018821D01*
X160474335Y-109018481D01*
X160390485Y-109017936D01*
X160322240Y-109017145D01*
X160267979Y-109016068D01*
X160226083Y-109014664D01*
X160194930Y-109012893D01*
X160172900Y-109010716D01*
X160158374Y-109008091D01*
X160149729Y-109004978D01*
X160145772Y-109001890D01*
X160134093Y-108977683D01*
X160134237Y-108945062D01*
X160146726Y-108901077D01*
X160172082Y-108842775D01*
X160174963Y-108836827D01*
X160218043Y-108748479D01*
X160684630Y-108745598D01*
X160783735Y-108744803D01*
X160875657Y-108743711D01*
X160958121Y-108742377D01*
X161028854Y-108740852D01*
X161085579Y-108739191D01*
X161126024Y-108737446D01*
X161147912Y-108735670D01*
X161151217Y-108734696D01*
X161147099Y-108721976D01*
X161135529Y-108692070D01*
X161117683Y-108647760D01*
X161094739Y-108591830D01*
X161067871Y-108527063D01*
X161038258Y-108456241D01*
X161007075Y-108382147D01*
X160975498Y-108307564D01*
X160944705Y-108235275D01*
X160915872Y-108168062D01*
X160890175Y-108108709D01*
X160868791Y-108059999D01*
X160852896Y-108024713D01*
X160843667Y-108005636D01*
X160841905Y-108003044D01*
X160836169Y-108012842D01*
X160823154Y-108040555D01*
X160803963Y-108083662D01*
X160779697Y-108139643D01*
X160751456Y-108205977D01*
X160720343Y-108280143D01*
X160710433Y-108303979D01*
X160678084Y-108381224D01*
X160647688Y-108452447D01*
X160620461Y-108514906D01*
X160597617Y-108565854D01*
X160580374Y-108602550D01*
X160569947Y-108622249D01*
X160568510Y-108624240D01*
X160556428Y-108633560D01*
X160537075Y-108639403D01*
X160505853Y-108642489D01*
X160458169Y-108643537D01*
X160445180Y-108643566D01*
X160380549Y-108641421D01*
X160335193Y-108634351D01*
X160306661Y-108621401D01*
X160292500Y-108601615D01*
X160289826Y-108583046D01*
X160294096Y-108567418D01*
X160306198Y-108534069D01*
X160325072Y-108485499D01*
X160349658Y-108424204D01*
X160378896Y-108352684D01*
X160411725Y-108273434D01*
X160447085Y-108188955D01*
X160483915Y-108101742D01*
X160521156Y-108014295D01*
X160557747Y-107929111D01*
X160592628Y-107848687D01*
X160624738Y-107775522D01*
X160653018Y-107712114D01*
X160676406Y-107660960D01*
X160693843Y-107624558D01*
X160704268Y-107605407D01*
X160705525Y-107603745D01*
X160716937Y-107594476D01*
X160734007Y-107588474D01*
X160761196Y-107585076D01*
X160802962Y-107583617D01*
X160842000Y-107583392D01*
X160896063Y-107583893D01*
G37*
X160896063Y-107583893D02*
X160932553Y-107585852D01*
X160955968Y-107589954D01*
X160970808Y-107596882D01*
X160978896Y-107604211D01*
X160987322Y-107618881D01*
X161003227Y-107651787D01*
X161025718Y-107700818D01*
X161053900Y-107763862D01*
X161086880Y-107838807D01*
X161123763Y-107923543D01*
X161163654Y-108015958D01*
X161205661Y-108113940D01*
X161248888Y-108215377D01*
X161292442Y-108318159D01*
X161335428Y-108420173D01*
X161376952Y-108519308D01*
X161416119Y-108613453D01*
X161452037Y-108700495D01*
X161483809Y-108778325D01*
X161510543Y-108844829D01*
X161531345Y-108897897D01*
X161545319Y-108935417D01*
X161551571Y-108955277D01*
X161551823Y-108957107D01*
X161552088Y-108969492D01*
X161551296Y-108980106D01*
X161547870Y-108989085D01*
X161540230Y-108996568D01*
X161526801Y-109002689D01*
X161506002Y-109007585D01*
X161476257Y-109011393D01*
X161435987Y-109014250D01*
X161383614Y-109016291D01*
X161317561Y-109017653D01*
X161236248Y-109018474D01*
X161138099Y-109018888D01*
X161021535Y-109019033D01*
X160884978Y-109019046D01*
X160835720Y-109019044D01*
X160695332Y-109018995D01*
X160575410Y-109018821D01*
X160474335Y-109018481D01*
X160390485Y-109017936D01*
X160322240Y-109017145D01*
X160267979Y-109016068D01*
X160226083Y-109014664D01*
X160194930Y-109012893D01*
X160172900Y-109010716D01*
X160158374Y-109008091D01*
X160149729Y-109004978D01*
X160145772Y-109001890D01*
X160134093Y-108977683D01*
X160134237Y-108945062D01*
X160146726Y-108901077D01*
X160172082Y-108842775D01*
X160174963Y-108836827D01*
X160218043Y-108748479D01*
X160684630Y-108745598D01*
X160783735Y-108744803D01*
X160875657Y-108743711D01*
X160958121Y-108742377D01*
X161028854Y-108740852D01*
X161085579Y-108739191D01*
X161126024Y-108737446D01*
X161147912Y-108735670D01*
X161151217Y-108734696D01*
X161147099Y-108721976D01*
X161135529Y-108692070D01*
X161117683Y-108647760D01*
X161094739Y-108591830D01*
X161067871Y-108527063D01*
X161038258Y-108456241D01*
X161007075Y-108382147D01*
X160975498Y-108307564D01*
X160944705Y-108235275D01*
X160915872Y-108168062D01*
X160890175Y-108108709D01*
X160868791Y-108059999D01*
X160852896Y-108024713D01*
X160843667Y-108005636D01*
X160841905Y-108003044D01*
X160836169Y-108012842D01*
X160823154Y-108040555D01*
X160803963Y-108083662D01*
X160779697Y-108139643D01*
X160751456Y-108205977D01*
X160720343Y-108280143D01*
X160710433Y-108303979D01*
X160678084Y-108381224D01*
X160647688Y-108452447D01*
X160620461Y-108514906D01*
X160597617Y-108565854D01*
X160580374Y-108602550D01*
X160569947Y-108622249D01*
X160568510Y-108624240D01*
X160556428Y-108633560D01*
X160537075Y-108639403D01*
X160505853Y-108642489D01*
X160458169Y-108643537D01*
X160445180Y-108643566D01*
X160380549Y-108641421D01*
X160335193Y-108634351D01*
X160306661Y-108621401D01*
X160292500Y-108601615D01*
X160289826Y-108583046D01*
X160294096Y-108567418D01*
X160306198Y-108534069D01*
X160325072Y-108485499D01*
X160349658Y-108424204D01*
X160378896Y-108352684D01*
X160411725Y-108273434D01*
X160447085Y-108188955D01*
X160483915Y-108101742D01*
X160521156Y-108014295D01*
X160557747Y-107929111D01*
X160592628Y-107848687D01*
X160624738Y-107775522D01*
X160653018Y-107712114D01*
X160676406Y-107660960D01*
X160693843Y-107624558D01*
X160704268Y-107605407D01*
X160705525Y-107603745D01*
X160716937Y-107594476D01*
X160734007Y-107588474D01*
X160761196Y-107585076D01*
X160802962Y-107583617D01*
X160842000Y-107583392D01*
X160896063Y-107583893D01*
G36*
X156274825Y-107582372D02*
G01*
X156317997Y-107587169D01*
X156350224Y-107595886D01*
X156362158Y-107603587D01*
X156366797Y-107610520D01*
X156370585Y-107621460D01*
X156373606Y-107638499D01*
X156375942Y-107663731D01*
X156377678Y-107699248D01*
X156378895Y-107747143D01*
X156379677Y-107809508D01*
X156380108Y-107888437D01*
X156380270Y-107986022D01*
X156380271Y-108059131D01*
X156380069Y-108175857D01*
X156379508Y-108272711D01*
X156378515Y-108351909D01*
X156377016Y-108415664D01*
X156374938Y-108466190D01*
X156372207Y-108505702D01*
X156368750Y-108536414D01*
X156364493Y-108560539D01*
X156363456Y-108565123D01*
X156328762Y-108666959D01*
X156275883Y-108760972D01*
X156207494Y-108844388D01*
X156126269Y-108914430D01*
X156034884Y-108968325D01*
X155942623Y-109001651D01*
X155884439Y-109011794D01*
X155813473Y-109017075D01*
X155737917Y-109017498D01*
X155665963Y-109013068D01*
X155605803Y-109003789D01*
X155596348Y-109001468D01*
X155508974Y-108971610D01*
X155432579Y-108929841D01*
X155360188Y-108872069D01*
X155335910Y-108848716D01*
X155270735Y-108774984D01*
X155225291Y-108704088D01*
X155222644Y-108698783D01*
X155206634Y-108664580D01*
X155193352Y-108631862D01*
X155182545Y-108598193D01*
X155173959Y-108561137D01*
X155167342Y-108518261D01*
X155162439Y-108467129D01*
X155158999Y-108405305D01*
X155156767Y-108330355D01*
X155155491Y-108239843D01*
X155154918Y-108131335D01*
X155154800Y-108046169D01*
X155154593Y-107932652D01*
X155154474Y-107839267D01*
X155155034Y-107764060D01*
X155156862Y-107705082D01*
X155160547Y-107660382D01*
X155166678Y-107628008D01*
X155175845Y-107606009D01*
X155188637Y-107592435D01*
X155205642Y-107585335D01*
X155227451Y-107582757D01*
X155254652Y-107582751D01*
X155287834Y-107583366D01*
X155294571Y-107583392D01*
X155328264Y-107582922D01*
X155356149Y-107582780D01*
X155378799Y-107584861D01*
X155396781Y-107591065D01*
X155410667Y-107603290D01*
X155421028Y-107623432D01*
X155428432Y-107653391D01*
X155433451Y-107695063D01*
X155436655Y-107750347D01*
X155438613Y-107821141D01*
X155439897Y-107909343D01*
X155441076Y-108016851D01*
X155441739Y-108073207D01*
X155447261Y-108516566D01*
X155477267Y-108577305D01*
X155520873Y-108641635D01*
X155579732Y-108691381D01*
X155651342Y-108725092D01*
X155733201Y-108741320D01*
X155762756Y-108742596D01*
X155852542Y-108734132D01*
X155929876Y-108707859D01*
X155994135Y-108664136D01*
X156044693Y-108603327D01*
X156063861Y-108568282D01*
X156098826Y-108494479D01*
X156102295Y-108058348D01*
X156103270Y-107947041D01*
X156104319Y-107855763D01*
X156105536Y-107782458D01*
X156107016Y-107725069D01*
X156108855Y-107681538D01*
X156111147Y-107649809D01*
X156113987Y-107627824D01*
X156117470Y-107613526D01*
X156121692Y-107604858D01*
X156123333Y-107602805D01*
X156144961Y-107591710D01*
X156181775Y-107584621D01*
X156227240Y-107581515D01*
X156274825Y-107582372D01*
G37*
X156274825Y-107582372D02*
X156317997Y-107587169D01*
X156350224Y-107595886D01*
X156362158Y-107603587D01*
X156366797Y-107610520D01*
X156370585Y-107621460D01*
X156373606Y-107638499D01*
X156375942Y-107663731D01*
X156377678Y-107699248D01*
X156378895Y-107747143D01*
X156379677Y-107809508D01*
X156380108Y-107888437D01*
X156380270Y-107986022D01*
X156380271Y-108059131D01*
X156380069Y-108175857D01*
X156379508Y-108272711D01*
X156378515Y-108351909D01*
X156377016Y-108415664D01*
X156374938Y-108466190D01*
X156372207Y-108505702D01*
X156368750Y-108536414D01*
X156364493Y-108560539D01*
X156363456Y-108565123D01*
X156328762Y-108666959D01*
X156275883Y-108760972D01*
X156207494Y-108844388D01*
X156126269Y-108914430D01*
X156034884Y-108968325D01*
X155942623Y-109001651D01*
X155884439Y-109011794D01*
X155813473Y-109017075D01*
X155737917Y-109017498D01*
X155665963Y-109013068D01*
X155605803Y-109003789D01*
X155596348Y-109001468D01*
X155508974Y-108971610D01*
X155432579Y-108929841D01*
X155360188Y-108872069D01*
X155335910Y-108848716D01*
X155270735Y-108774984D01*
X155225291Y-108704088D01*
X155222644Y-108698783D01*
X155206634Y-108664580D01*
X155193352Y-108631862D01*
X155182545Y-108598193D01*
X155173959Y-108561137D01*
X155167342Y-108518261D01*
X155162439Y-108467129D01*
X155158999Y-108405305D01*
X155156767Y-108330355D01*
X155155491Y-108239843D01*
X155154918Y-108131335D01*
X155154800Y-108046169D01*
X155154593Y-107932652D01*
X155154474Y-107839267D01*
X155155034Y-107764060D01*
X155156862Y-107705082D01*
X155160547Y-107660382D01*
X155166678Y-107628008D01*
X155175845Y-107606009D01*
X155188637Y-107592435D01*
X155205642Y-107585335D01*
X155227451Y-107582757D01*
X155254652Y-107582751D01*
X155287834Y-107583366D01*
X155294571Y-107583392D01*
X155328264Y-107582922D01*
X155356149Y-107582780D01*
X155378799Y-107584861D01*
X155396781Y-107591065D01*
X155410667Y-107603290D01*
X155421028Y-107623432D01*
X155428432Y-107653391D01*
X155433451Y-107695063D01*
X155436655Y-107750347D01*
X155438613Y-107821141D01*
X155439897Y-107909343D01*
X155441076Y-108016851D01*
X155441739Y-108073207D01*
X155447261Y-108516566D01*
X155477267Y-108577305D01*
X155520873Y-108641635D01*
X155579732Y-108691381D01*
X155651342Y-108725092D01*
X155733201Y-108741320D01*
X155762756Y-108742596D01*
X155852542Y-108734132D01*
X155929876Y-108707859D01*
X155994135Y-108664136D01*
X156044693Y-108603327D01*
X156063861Y-108568282D01*
X156098826Y-108494479D01*
X156102295Y-108058348D01*
X156103270Y-107947041D01*
X156104319Y-107855763D01*
X156105536Y-107782458D01*
X156107016Y-107725069D01*
X156108855Y-107681538D01*
X156111147Y-107649809D01*
X156113987Y-107627824D01*
X156117470Y-107613526D01*
X156121692Y-107604858D01*
X156123333Y-107602805D01*
X156144961Y-107591710D01*
X156181775Y-107584621D01*
X156227240Y-107581515D01*
X156274825Y-107582372D01*
G36*
X149548854Y-107583277D02*
G01*
X149563006Y-107583392D01*
X149612937Y-107584149D01*
X149645734Y-107586981D01*
X149666315Y-107592733D01*
X149679600Y-107602245D01*
X149680853Y-107603587D01*
X149685690Y-107610820D01*
X149689602Y-107622200D01*
X149692683Y-107639923D01*
X149695032Y-107666186D01*
X149696742Y-107703183D01*
X149697911Y-107753112D01*
X149698634Y-107818169D01*
X149699008Y-107900549D01*
X149699128Y-108002449D01*
X149699130Y-108021732D01*
X149699342Y-108139370D01*
X149700112Y-108237286D01*
X149701642Y-108317842D01*
X149704134Y-108383400D01*
X149707789Y-108436322D01*
X149712809Y-108478970D01*
X149719396Y-108513706D01*
X149727751Y-108542891D01*
X149738076Y-108568889D01*
X149747507Y-108588242D01*
X149789878Y-108647359D01*
X149846119Y-108692630D01*
X149912560Y-108723626D01*
X149985526Y-108739920D01*
X150061346Y-108741082D01*
X150136346Y-108726685D01*
X150206855Y-108696301D01*
X150269198Y-108649500D01*
X150269590Y-108649120D01*
X150291548Y-108627238D01*
X150309709Y-108606607D01*
X150324434Y-108584956D01*
X150336082Y-108560014D01*
X150345014Y-108529511D01*
X150351590Y-108491174D01*
X150356170Y-108442733D01*
X150359114Y-108381917D01*
X150360783Y-108306455D01*
X150361536Y-108214075D01*
X150361734Y-108102507D01*
X150361739Y-108068019D01*
X150361907Y-107954599D01*
X150362517Y-107861217D01*
X150363726Y-107785825D01*
X150365692Y-107726377D01*
X150368571Y-107680824D01*
X150372521Y-107647120D01*
X150377700Y-107623217D01*
X150384264Y-107607067D01*
X150392372Y-107596625D01*
X150398321Y-107592068D01*
X150414664Y-107588347D01*
X150447298Y-107585441D01*
X150490434Y-107583784D01*
X150511875Y-107583561D01*
X150561968Y-107584213D01*
X150594908Y-107586922D01*
X150615594Y-107592516D01*
X150628925Y-107601821D01*
X150630593Y-107603587D01*
X150635287Y-107610601D01*
X150639109Y-107621655D01*
X150642145Y-107638872D01*
X150644481Y-107664372D01*
X150646204Y-107700278D01*
X150647399Y-107748712D01*
X150648153Y-107811796D01*
X150648554Y-107891652D01*
X150648686Y-107990401D01*
X150648678Y-108048087D01*
X150648448Y-108169314D01*
X150647706Y-108270911D01*
X150646195Y-108355334D01*
X150643657Y-108425037D01*
X150639835Y-108482478D01*
X150634472Y-108530110D01*
X150627310Y-108570390D01*
X150618093Y-108605773D01*
X150606562Y-108638715D01*
X150592462Y-108671671D01*
X150580747Y-108696429D01*
X150534114Y-108771923D01*
X150467059Y-108848716D01*
X150390780Y-108915410D01*
X150310787Y-108964240D01*
X150223296Y-108996658D01*
X150124524Y-109014116D01*
X150025354Y-109018257D01*
X149947187Y-109014716D01*
X149879662Y-109005766D01*
X149848217Y-108998430D01*
X149746627Y-108958058D01*
X149654978Y-108899274D01*
X149575415Y-108824331D01*
X149510083Y-108735481D01*
X149461127Y-108634978D01*
X149440549Y-108570189D01*
X149435995Y-108549285D01*
X149432274Y-108523806D01*
X149429310Y-108491489D01*
X149427025Y-108450071D01*
X149425340Y-108397288D01*
X149424178Y-108330877D01*
X149423461Y-108248575D01*
X149423112Y-108148119D01*
X149423043Y-108061140D01*
X149422886Y-107945620D01*
X149422789Y-107850261D01*
X149423315Y-107773145D01*
X149425026Y-107712352D01*
X149428484Y-107665962D01*
X149434251Y-107632055D01*
X149442891Y-107608712D01*
X149454966Y-107594014D01*
X149471037Y-107586041D01*
X149491667Y-107582874D01*
X149517419Y-107582592D01*
X149548854Y-107583277D01*
G37*
X149548854Y-107583277D02*
X149563006Y-107583392D01*
X149612937Y-107584149D01*
X149645734Y-107586981D01*
X149666315Y-107592733D01*
X149679600Y-107602245D01*
X149680853Y-107603587D01*
X149685690Y-107610820D01*
X149689602Y-107622200D01*
X149692683Y-107639923D01*
X149695032Y-107666186D01*
X149696742Y-107703183D01*
X149697911Y-107753112D01*
X149698634Y-107818169D01*
X149699008Y-107900549D01*
X149699128Y-108002449D01*
X149699130Y-108021732D01*
X149699342Y-108139370D01*
X149700112Y-108237286D01*
X149701642Y-108317842D01*
X149704134Y-108383400D01*
X149707789Y-108436322D01*
X149712809Y-108478970D01*
X149719396Y-108513706D01*
X149727751Y-108542891D01*
X149738076Y-108568889D01*
X149747507Y-108588242D01*
X149789878Y-108647359D01*
X149846119Y-108692630D01*
X149912560Y-108723626D01*
X149985526Y-108739920D01*
X150061346Y-108741082D01*
X150136346Y-108726685D01*
X150206855Y-108696301D01*
X150269198Y-108649500D01*
X150269590Y-108649120D01*
X150291548Y-108627238D01*
X150309709Y-108606607D01*
X150324434Y-108584956D01*
X150336082Y-108560014D01*
X150345014Y-108529511D01*
X150351590Y-108491174D01*
X150356170Y-108442733D01*
X150359114Y-108381917D01*
X150360783Y-108306455D01*
X150361536Y-108214075D01*
X150361734Y-108102507D01*
X150361739Y-108068019D01*
X150361907Y-107954599D01*
X150362517Y-107861217D01*
X150363726Y-107785825D01*
X150365692Y-107726377D01*
X150368571Y-107680824D01*
X150372521Y-107647120D01*
X150377700Y-107623217D01*
X150384264Y-107607067D01*
X150392372Y-107596625D01*
X150398321Y-107592068D01*
X150414664Y-107588347D01*
X150447298Y-107585441D01*
X150490434Y-107583784D01*
X150511875Y-107583561D01*
X150561968Y-107584213D01*
X150594908Y-107586922D01*
X150615594Y-107592516D01*
X150628925Y-107601821D01*
X150630593Y-107603587D01*
X150635287Y-107610601D01*
X150639109Y-107621655D01*
X150642145Y-107638872D01*
X150644481Y-107664372D01*
X150646204Y-107700278D01*
X150647399Y-107748712D01*
X150648153Y-107811796D01*
X150648554Y-107891652D01*
X150648686Y-107990401D01*
X150648678Y-108048087D01*
X150648448Y-108169314D01*
X150647706Y-108270911D01*
X150646195Y-108355334D01*
X150643657Y-108425037D01*
X150639835Y-108482478D01*
X150634472Y-108530110D01*
X150627310Y-108570390D01*
X150618093Y-108605773D01*
X150606562Y-108638715D01*
X150592462Y-108671671D01*
X150580747Y-108696429D01*
X150534114Y-108771923D01*
X150467059Y-108848716D01*
X150390780Y-108915410D01*
X150310787Y-108964240D01*
X150223296Y-108996658D01*
X150124524Y-109014116D01*
X150025354Y-109018257D01*
X149947187Y-109014716D01*
X149879662Y-109005766D01*
X149848217Y-108998430D01*
X149746627Y-108958058D01*
X149654978Y-108899274D01*
X149575415Y-108824331D01*
X149510083Y-108735481D01*
X149461127Y-108634978D01*
X149440549Y-108570189D01*
X149435995Y-108549285D01*
X149432274Y-108523806D01*
X149429310Y-108491489D01*
X149427025Y-108450071D01*
X149425340Y-108397288D01*
X149424178Y-108330877D01*
X149423461Y-108248575D01*
X149423112Y-108148119D01*
X149423043Y-108061140D01*
X149422886Y-107945620D01*
X149422789Y-107850261D01*
X149423315Y-107773145D01*
X149425026Y-107712352D01*
X149428484Y-107665962D01*
X149434251Y-107632055D01*
X149442891Y-107608712D01*
X149454966Y-107594014D01*
X149471037Y-107586041D01*
X149491667Y-107582874D01*
X149517419Y-107582592D01*
X149548854Y-107583277D01*
G36*
X171106900Y-107589667D02*
G01*
X171156426Y-107591143D01*
X171194591Y-107594305D01*
X171226758Y-107599804D01*
X171258287Y-107608294D01*
X171293175Y-107619947D01*
X171341192Y-107638735D01*
X171387518Y-107660174D01*
X171423022Y-107679993D01*
X171426329Y-107682202D01*
X171499503Y-107744436D01*
X171557026Y-107818384D01*
X171596727Y-107900612D01*
X171615828Y-107982152D01*
X171619037Y-108018921D01*
X171616674Y-108041647D01*
X171607098Y-108058021D01*
X171597590Y-108067640D01*
X171581373Y-108079794D01*
X171561063Y-108086999D01*
X171530772Y-108090461D01*
X171484612Y-108091390D01*
X171481798Y-108091392D01*
X171420404Y-108088154D01*
X171377172Y-108077333D01*
X171348987Y-108057270D01*
X171332733Y-108026306D01*
X171328758Y-108009880D01*
X171311908Y-107963309D01*
X171279079Y-107926000D01*
X171227459Y-107894882D01*
X171220514Y-107891705D01*
X171190093Y-107879600D01*
X171159978Y-107871831D01*
X171123889Y-107867477D01*
X171075545Y-107865618D01*
X171040652Y-107865323D01*
X170952828Y-107868561D01*
X170884378Y-107879291D01*
X170833645Y-107898258D01*
X170798973Y-107926208D01*
X170778704Y-107963885D01*
X170773651Y-107985359D01*
X170771915Y-108010802D01*
X170776939Y-108032889D01*
X170790690Y-108052685D01*
X170815140Y-108071254D01*
X170852257Y-108089659D01*
X170904010Y-108108965D01*
X170972371Y-108130234D01*
X171059307Y-108154531D01*
X171113656Y-108169018D01*
X171206429Y-108193937D01*
X171280822Y-108215135D01*
X171339999Y-108233746D01*
X171387127Y-108250907D01*
X171425371Y-108267752D01*
X171457897Y-108285416D01*
X171482453Y-108301260D01*
X171555553Y-108363060D01*
X171608442Y-108433570D01*
X171640853Y-108512017D01*
X171652523Y-108597630D01*
X171643188Y-108689635D01*
X171631223Y-108735661D01*
X171595767Y-108813754D01*
X171541286Y-108882117D01*
X171469074Y-108939680D01*
X171380423Y-108985376D01*
X171294652Y-109013691D01*
X171247181Y-109022617D01*
X171184764Y-109029625D01*
X171114471Y-109034391D01*
X171043375Y-109036593D01*
X170978548Y-109035907D01*
X170927061Y-109032010D01*
X170919174Y-109030847D01*
X170800752Y-109002953D01*
X170699164Y-108961079D01*
X170614580Y-108905382D01*
X170547170Y-108836019D01*
X170497105Y-108753147D01*
X170464555Y-108656924D01*
X170454632Y-108601853D01*
X170451547Y-108566466D01*
X170455305Y-108544141D01*
X170467624Y-108526458D01*
X170470657Y-108523343D01*
X170485018Y-108511826D01*
X170503492Y-108504809D01*
X170531528Y-108501236D01*
X170574572Y-108500049D01*
X170590934Y-108500000D01*
X170649687Y-108501687D01*
X170690290Y-108508131D01*
X170716517Y-108521406D01*
X170732140Y-108543586D01*
X170740933Y-108576747D01*
X170741929Y-108583011D01*
X170761166Y-108640053D01*
X170800030Y-108687492D01*
X170857982Y-108724731D01*
X170878427Y-108733596D01*
X170909236Y-108744506D01*
X170939792Y-108751713D01*
X170975831Y-108755919D01*
X171023089Y-108757826D01*
X171079304Y-108758156D01*
X171140541Y-108757495D01*
X171185198Y-108755342D01*
X171218770Y-108750982D01*
X171246752Y-108743700D01*
X171274637Y-108732781D01*
X171274798Y-108732710D01*
X171310118Y-108714000D01*
X171338611Y-108693196D01*
X171349342Y-108681473D01*
X171362676Y-108647708D01*
X171366047Y-108608469D01*
X171359629Y-108572711D01*
X171346809Y-108551924D01*
X171313467Y-108529343D01*
X171261348Y-108505257D01*
X171189604Y-108479349D01*
X171097388Y-108451306D01*
X171018565Y-108429805D01*
X170928228Y-108405510D01*
X170855803Y-108384549D01*
X170797620Y-108365581D01*
X170750004Y-108347263D01*
X170709282Y-108328252D01*
X170671783Y-108307207D01*
X170655781Y-108297228D01*
X170586478Y-108242892D01*
X170535519Y-108179334D01*
X170513095Y-108136680D01*
X170499484Y-108087678D01*
X170494067Y-108026101D01*
X170496492Y-107959739D01*
X170506407Y-107896385D01*
X170523461Y-107843828D01*
X170526595Y-107837392D01*
X170581033Y-107755243D01*
X170651281Y-107688046D01*
X170735815Y-107637066D01*
X170796086Y-107613729D01*
X170831363Y-107603623D01*
X170865364Y-107596655D01*
X170903437Y-107592291D01*
X170950933Y-107589994D01*
X171013200Y-107589228D01*
X171040652Y-107589225D01*
X171106900Y-107589667D01*
G37*
X171106900Y-107589667D02*
X171156426Y-107591143D01*
X171194591Y-107594305D01*
X171226758Y-107599804D01*
X171258287Y-107608294D01*
X171293175Y-107619947D01*
X171341192Y-107638735D01*
X171387518Y-107660174D01*
X171423022Y-107679993D01*
X171426329Y-107682202D01*
X171499503Y-107744436D01*
X171557026Y-107818384D01*
X171596727Y-107900612D01*
X171615828Y-107982152D01*
X171619037Y-108018921D01*
X171616674Y-108041647D01*
X171607098Y-108058021D01*
X171597590Y-108067640D01*
X171581373Y-108079794D01*
X171561063Y-108086999D01*
X171530772Y-108090461D01*
X171484612Y-108091390D01*
X171481798Y-108091392D01*
X171420404Y-108088154D01*
X171377172Y-108077333D01*
X171348987Y-108057270D01*
X171332733Y-108026306D01*
X171328758Y-108009880D01*
X171311908Y-107963309D01*
X171279079Y-107926000D01*
X171227459Y-107894882D01*
X171220514Y-107891705D01*
X171190093Y-107879600D01*
X171159978Y-107871831D01*
X171123889Y-107867477D01*
X171075545Y-107865618D01*
X171040652Y-107865323D01*
X170952828Y-107868561D01*
X170884378Y-107879291D01*
X170833645Y-107898258D01*
X170798973Y-107926208D01*
X170778704Y-107963885D01*
X170773651Y-107985359D01*
X170771915Y-108010802D01*
X170776939Y-108032889D01*
X170790690Y-108052685D01*
X170815140Y-108071254D01*
X170852257Y-108089659D01*
X170904010Y-108108965D01*
X170972371Y-108130234D01*
X171059307Y-108154531D01*
X171113656Y-108169018D01*
X171206429Y-108193937D01*
X171280822Y-108215135D01*
X171339999Y-108233746D01*
X171387127Y-108250907D01*
X171425371Y-108267752D01*
X171457897Y-108285416D01*
X171482453Y-108301260D01*
X171555553Y-108363060D01*
X171608442Y-108433570D01*
X171640853Y-108512017D01*
X171652523Y-108597630D01*
X171643188Y-108689635D01*
X171631223Y-108735661D01*
X171595767Y-108813754D01*
X171541286Y-108882117D01*
X171469074Y-108939680D01*
X171380423Y-108985376D01*
X171294652Y-109013691D01*
X171247181Y-109022617D01*
X171184764Y-109029625D01*
X171114471Y-109034391D01*
X171043375Y-109036593D01*
X170978548Y-109035907D01*
X170927061Y-109032010D01*
X170919174Y-109030847D01*
X170800752Y-109002953D01*
X170699164Y-108961079D01*
X170614580Y-108905382D01*
X170547170Y-108836019D01*
X170497105Y-108753147D01*
X170464555Y-108656924D01*
X170454632Y-108601853D01*
X170451547Y-108566466D01*
X170455305Y-108544141D01*
X170467624Y-108526458D01*
X170470657Y-108523343D01*
X170485018Y-108511826D01*
X170503492Y-108504809D01*
X170531528Y-108501236D01*
X170574572Y-108500049D01*
X170590934Y-108500000D01*
X170649687Y-108501687D01*
X170690290Y-108508131D01*
X170716517Y-108521406D01*
X170732140Y-108543586D01*
X170740933Y-108576747D01*
X170741929Y-108583011D01*
X170761166Y-108640053D01*
X170800030Y-108687492D01*
X170857982Y-108724731D01*
X170878427Y-108733596D01*
X170909236Y-108744506D01*
X170939792Y-108751713D01*
X170975831Y-108755919D01*
X171023089Y-108757826D01*
X171079304Y-108758156D01*
X171140541Y-108757495D01*
X171185198Y-108755342D01*
X171218770Y-108750982D01*
X171246752Y-108743700D01*
X171274637Y-108732781D01*
X171274798Y-108732710D01*
X171310118Y-108714000D01*
X171338611Y-108693196D01*
X171349342Y-108681473D01*
X171362676Y-108647708D01*
X171366047Y-108608469D01*
X171359629Y-108572711D01*
X171346809Y-108551924D01*
X171313467Y-108529343D01*
X171261348Y-108505257D01*
X171189604Y-108479349D01*
X171097388Y-108451306D01*
X171018565Y-108429805D01*
X170928228Y-108405510D01*
X170855803Y-108384549D01*
X170797620Y-108365581D01*
X170750004Y-108347263D01*
X170709282Y-108328252D01*
X170671783Y-108307207D01*
X170655781Y-108297228D01*
X170586478Y-108242892D01*
X170535519Y-108179334D01*
X170513095Y-108136680D01*
X170499484Y-108087678D01*
X170494067Y-108026101D01*
X170496492Y-107959739D01*
X170506407Y-107896385D01*
X170523461Y-107843828D01*
X170526595Y-107837392D01*
X170581033Y-107755243D01*
X170651281Y-107688046D01*
X170735815Y-107637066D01*
X170796086Y-107613729D01*
X170831363Y-107603623D01*
X170865364Y-107596655D01*
X170903437Y-107592291D01*
X170950933Y-107589994D01*
X171013200Y-107589228D01*
X171040652Y-107589225D01*
X171106900Y-107589667D01*
G36*
X169720179Y-107586494D02*
G01*
X169841615Y-107601653D01*
X169950341Y-107634129D01*
X170048516Y-107684907D01*
X170138300Y-107754973D01*
X170179114Y-107795814D01*
X170215519Y-107839443D01*
X170251055Y-107889813D01*
X170282896Y-107942005D01*
X170308217Y-107991103D01*
X170324193Y-108032189D01*
X170328348Y-108055523D01*
X170318265Y-108086302D01*
X170288738Y-108108388D01*
X170240850Y-108121245D01*
X170189534Y-108124522D01*
X170133494Y-108122890D01*
X170093924Y-108116247D01*
X170065339Y-108101972D01*
X170042250Y-108077444D01*
X170021544Y-108044273D01*
X169970197Y-107973164D01*
X169906593Y-107920243D01*
X169830556Y-107885430D01*
X169741908Y-107868649D01*
X169640473Y-107869822D01*
X169627399Y-107871169D01*
X169533642Y-107890236D01*
X169454776Y-107925207D01*
X169389534Y-107976932D01*
X169336647Y-108046260D01*
X169319630Y-108077191D01*
X169288698Y-108158342D01*
X169272252Y-108246623D01*
X169269722Y-108337774D01*
X169280541Y-108427535D01*
X169304138Y-108511645D01*
X169339945Y-108585844D01*
X169387393Y-108645870D01*
X169396721Y-108654487D01*
X169456431Y-108698449D01*
X169521296Y-108728157D01*
X169596628Y-108745495D01*
X169671261Y-108751855D01*
X169727456Y-108753108D01*
X169768916Y-108751314D01*
X169802879Y-108745656D01*
X169836586Y-108735318D01*
X169844875Y-108732263D01*
X169908613Y-108698587D01*
X169967795Y-108649761D01*
X170015139Y-108592272D01*
X170029348Y-108567880D01*
X170048012Y-108537757D01*
X170067501Y-108515780D01*
X170073658Y-108511413D01*
X170094295Y-108506102D01*
X170130222Y-108502108D01*
X170174649Y-108500110D01*
X170187653Y-108500000D01*
X170234406Y-108500647D01*
X170264782Y-108503419D01*
X170284476Y-108509564D01*
X170299180Y-108520328D01*
X170304336Y-108525560D01*
X170321436Y-108549663D01*
X170328348Y-108570809D01*
X170322364Y-108594936D01*
X170306302Y-108631932D01*
X170282999Y-108676745D01*
X170255289Y-108724326D01*
X170226008Y-108769623D01*
X170197992Y-108807587D01*
X170190220Y-108816834D01*
X170141286Y-108864435D01*
X170079456Y-108912584D01*
X170012993Y-108955496D01*
X169950160Y-108987386D01*
X169941826Y-108990757D01*
X169834398Y-109022029D01*
X169718427Y-109037094D01*
X169600933Y-109035421D01*
X169516652Y-109022992D01*
X169405672Y-108988856D01*
X169305326Y-108936721D01*
X169216649Y-108868484D01*
X169140679Y-108786039D01*
X169078451Y-108691281D01*
X169031002Y-108586105D01*
X168999367Y-108472406D01*
X168984582Y-108352079D01*
X168987685Y-108227019D01*
X169009711Y-108099120D01*
X169010260Y-108096913D01*
X169045299Y-107991345D01*
X169095958Y-107896608D01*
X169164968Y-107807967D01*
X169195334Y-107776132D01*
X169281425Y-107701345D01*
X169371970Y-107645899D01*
X169469757Y-107608787D01*
X169577576Y-107589001D01*
X169698213Y-107585534D01*
X169720179Y-107586494D01*
G37*
X169720179Y-107586494D02*
X169841615Y-107601653D01*
X169950341Y-107634129D01*
X170048516Y-107684907D01*
X170138300Y-107754973D01*
X170179114Y-107795814D01*
X170215519Y-107839443D01*
X170251055Y-107889813D01*
X170282896Y-107942005D01*
X170308217Y-107991103D01*
X170324193Y-108032189D01*
X170328348Y-108055523D01*
X170318265Y-108086302D01*
X170288738Y-108108388D01*
X170240850Y-108121245D01*
X170189534Y-108124522D01*
X170133494Y-108122890D01*
X170093924Y-108116247D01*
X170065339Y-108101972D01*
X170042250Y-108077444D01*
X170021544Y-108044273D01*
X169970197Y-107973164D01*
X169906593Y-107920243D01*
X169830556Y-107885430D01*
X169741908Y-107868649D01*
X169640473Y-107869822D01*
X169627399Y-107871169D01*
X169533642Y-107890236D01*
X169454776Y-107925207D01*
X169389534Y-107976932D01*
X169336647Y-108046260D01*
X169319630Y-108077191D01*
X169288698Y-108158342D01*
X169272252Y-108246623D01*
X169269722Y-108337774D01*
X169280541Y-108427535D01*
X169304138Y-108511645D01*
X169339945Y-108585844D01*
X169387393Y-108645870D01*
X169396721Y-108654487D01*
X169456431Y-108698449D01*
X169521296Y-108728157D01*
X169596628Y-108745495D01*
X169671261Y-108751855D01*
X169727456Y-108753108D01*
X169768916Y-108751314D01*
X169802879Y-108745656D01*
X169836586Y-108735318D01*
X169844875Y-108732263D01*
X169908613Y-108698587D01*
X169967795Y-108649761D01*
X170015139Y-108592272D01*
X170029348Y-108567880D01*
X170048012Y-108537757D01*
X170067501Y-108515780D01*
X170073658Y-108511413D01*
X170094295Y-108506102D01*
X170130222Y-108502108D01*
X170174649Y-108500110D01*
X170187653Y-108500000D01*
X170234406Y-108500647D01*
X170264782Y-108503419D01*
X170284476Y-108509564D01*
X170299180Y-108520328D01*
X170304336Y-108525560D01*
X170321436Y-108549663D01*
X170328348Y-108570809D01*
X170322364Y-108594936D01*
X170306302Y-108631932D01*
X170282999Y-108676745D01*
X170255289Y-108724326D01*
X170226008Y-108769623D01*
X170197992Y-108807587D01*
X170190220Y-108816834D01*
X170141286Y-108864435D01*
X170079456Y-108912584D01*
X170012993Y-108955496D01*
X169950160Y-108987386D01*
X169941826Y-108990757D01*
X169834398Y-109022029D01*
X169718427Y-109037094D01*
X169600933Y-109035421D01*
X169516652Y-109022992D01*
X169405672Y-108988856D01*
X169305326Y-108936721D01*
X169216649Y-108868484D01*
X169140679Y-108786039D01*
X169078451Y-108691281D01*
X169031002Y-108586105D01*
X168999367Y-108472406D01*
X168984582Y-108352079D01*
X168987685Y-108227019D01*
X169009711Y-108099120D01*
X169010260Y-108096913D01*
X169045299Y-107991345D01*
X169095958Y-107896608D01*
X169164968Y-107807967D01*
X169195334Y-107776132D01*
X169281425Y-107701345D01*
X169371970Y-107645899D01*
X169469757Y-107608787D01*
X169577576Y-107589001D01*
X169698213Y-107585534D01*
X169720179Y-107586494D01*
G36*
X148658912Y-107600089D02*
G01*
X148780106Y-107636183D01*
X148875037Y-107684158D01*
X148964209Y-107750568D01*
X149044572Y-107831927D01*
X149113075Y-107924751D01*
X149166668Y-108025555D01*
X149197833Y-108113479D01*
X149209668Y-108175610D01*
X149216375Y-108251573D01*
X149217953Y-108333716D01*
X149214403Y-108414388D01*
X149205723Y-108485938D01*
X149197841Y-108522087D01*
X149179554Y-108578324D01*
X149159581Y-108614613D01*
X149135876Y-108631282D01*
X149106389Y-108628658D01*
X149069076Y-108607067D01*
X149021890Y-108566838D01*
X149006962Y-108552602D01*
X148924540Y-108472681D01*
X148931867Y-108384188D01*
X148932015Y-108275445D01*
X148914306Y-108176051D01*
X148879551Y-108087607D01*
X148828564Y-108011709D01*
X148762155Y-107949956D01*
X148689871Y-107907792D01*
X148623253Y-107885973D01*
X148544760Y-107873399D01*
X148462812Y-107870605D01*
X148385833Y-107878126D01*
X148350776Y-107886230D01*
X148262796Y-107922950D01*
X148186829Y-107977779D01*
X148124373Y-108049404D01*
X148084233Y-108119880D01*
X148073629Y-108145417D01*
X148066477Y-108171051D01*
X148062124Y-108201948D01*
X148059916Y-108243275D01*
X148059197Y-108300199D01*
X148059174Y-108317783D01*
X148059435Y-108377430D01*
X148060800Y-108420457D01*
X148064141Y-108452330D01*
X148070327Y-108478515D01*
X148080232Y-108504479D01*
X148093502Y-108533131D01*
X148144216Y-108615753D01*
X148209169Y-108681516D01*
X148288127Y-108730241D01*
X148380852Y-108761749D01*
X148402690Y-108766282D01*
X148441698Y-108770803D01*
X148488703Y-108772333D01*
X148537014Y-108771129D01*
X148579939Y-108767446D01*
X148610787Y-108761542D01*
X148619397Y-108757960D01*
X148616963Y-108747832D01*
X148601832Y-108726242D01*
X148576993Y-108697279D01*
X148567840Y-108687496D01*
X148531036Y-108645049D01*
X148510510Y-108612278D01*
X148506435Y-108596502D01*
X148514625Y-108575253D01*
X148536180Y-108545460D01*
X148566578Y-108511537D01*
X148601298Y-108477896D01*
X148635818Y-108448951D01*
X148665615Y-108429114D01*
X148684525Y-108422696D01*
X148697669Y-108427735D01*
X148719892Y-108443541D01*
X148752339Y-108471146D01*
X148796160Y-108511583D01*
X148852502Y-108565883D01*
X148922512Y-108635079D01*
X148939599Y-108652141D01*
X149010359Y-108722883D01*
X149066673Y-108779949D01*
X149109489Y-108825502D01*
X149139756Y-108861702D01*
X149158424Y-108890711D01*
X149166442Y-108914690D01*
X149164758Y-108935800D01*
X149154322Y-108956203D01*
X149136083Y-108978059D01*
X149110991Y-109003532D01*
X149099101Y-109015363D01*
X149056739Y-109055223D01*
X149023425Y-109078138D01*
X148994473Y-109084458D01*
X148965195Y-109074534D01*
X148930904Y-109048714D01*
X148909930Y-109029497D01*
X148850922Y-108973689D01*
X148786352Y-109000689D01*
X148701836Y-109029891D01*
X148612939Y-109047539D01*
X148512761Y-109054857D01*
X148478826Y-109055220D01*
X148350782Y-109045002D01*
X148231549Y-109015069D01*
X148122214Y-108965925D01*
X148023864Y-108898074D01*
X147937585Y-108812019D01*
X147927281Y-108799482D01*
X147859698Y-108702835D01*
X147811146Y-108603299D01*
X147780265Y-108496866D01*
X147765696Y-108379528D01*
X147764097Y-108318341D01*
X147771584Y-108193551D01*
X147794643Y-108082338D01*
X147834574Y-107981422D01*
X147892678Y-107887522D01*
X147970257Y-107797359D01*
X147971017Y-107796585D01*
X148018740Y-107750142D01*
X148059873Y-107715830D01*
X148101476Y-107688415D01*
X148150607Y-107662661D01*
X148153479Y-107661279D01*
X148275694Y-107614573D01*
X148402417Y-107588736D01*
X148531029Y-107583873D01*
X148658912Y-107600089D01*
G37*
X148658912Y-107600089D02*
X148780106Y-107636183D01*
X148875037Y-107684158D01*
X148964209Y-107750568D01*
X149044572Y-107831927D01*
X149113075Y-107924751D01*
X149166668Y-108025555D01*
X149197833Y-108113479D01*
X149209668Y-108175610D01*
X149216375Y-108251573D01*
X149217953Y-108333716D01*
X149214403Y-108414388D01*
X149205723Y-108485938D01*
X149197841Y-108522087D01*
X149179554Y-108578324D01*
X149159581Y-108614613D01*
X149135876Y-108631282D01*
X149106389Y-108628658D01*
X149069076Y-108607067D01*
X149021890Y-108566838D01*
X149006962Y-108552602D01*
X148924540Y-108472681D01*
X148931867Y-108384188D01*
X148932015Y-108275445D01*
X148914306Y-108176051D01*
X148879551Y-108087607D01*
X148828564Y-108011709D01*
X148762155Y-107949956D01*
X148689871Y-107907792D01*
X148623253Y-107885973D01*
X148544760Y-107873399D01*
X148462812Y-107870605D01*
X148385833Y-107878126D01*
X148350776Y-107886230D01*
X148262796Y-107922950D01*
X148186829Y-107977779D01*
X148124373Y-108049404D01*
X148084233Y-108119880D01*
X148073629Y-108145417D01*
X148066477Y-108171051D01*
X148062124Y-108201948D01*
X148059916Y-108243275D01*
X148059197Y-108300199D01*
X148059174Y-108317783D01*
X148059435Y-108377430D01*
X148060800Y-108420457D01*
X148064141Y-108452330D01*
X148070327Y-108478515D01*
X148080232Y-108504479D01*
X148093502Y-108533131D01*
X148144216Y-108615753D01*
X148209169Y-108681516D01*
X148288127Y-108730241D01*
X148380852Y-108761749D01*
X148402690Y-108766282D01*
X148441698Y-108770803D01*
X148488703Y-108772333D01*
X148537014Y-108771129D01*
X148579939Y-108767446D01*
X148610787Y-108761542D01*
X148619397Y-108757960D01*
X148616963Y-108747832D01*
X148601832Y-108726242D01*
X148576993Y-108697279D01*
X148567840Y-108687496D01*
X148531036Y-108645049D01*
X148510510Y-108612278D01*
X148506435Y-108596502D01*
X148514625Y-108575253D01*
X148536180Y-108545460D01*
X148566578Y-108511537D01*
X148601298Y-108477896D01*
X148635818Y-108448951D01*
X148665615Y-108429114D01*
X148684525Y-108422696D01*
X148697669Y-108427735D01*
X148719892Y-108443541D01*
X148752339Y-108471146D01*
X148796160Y-108511583D01*
X148852502Y-108565883D01*
X148922512Y-108635079D01*
X148939599Y-108652141D01*
X149010359Y-108722883D01*
X149066673Y-108779949D01*
X149109489Y-108825502D01*
X149139756Y-108861702D01*
X149158424Y-108890711D01*
X149166442Y-108914690D01*
X149164758Y-108935800D01*
X149154322Y-108956203D01*
X149136083Y-108978059D01*
X149110991Y-109003532D01*
X149099101Y-109015363D01*
X149056739Y-109055223D01*
X149023425Y-109078138D01*
X148994473Y-109084458D01*
X148965195Y-109074534D01*
X148930904Y-109048714D01*
X148909930Y-109029497D01*
X148850922Y-108973689D01*
X148786352Y-109000689D01*
X148701836Y-109029891D01*
X148612939Y-109047539D01*
X148512761Y-109054857D01*
X148478826Y-109055220D01*
X148350782Y-109045002D01*
X148231549Y-109015069D01*
X148122214Y-108965925D01*
X148023864Y-108898074D01*
X147937585Y-108812019D01*
X147927281Y-108799482D01*
X147859698Y-108702835D01*
X147811146Y-108603299D01*
X147780265Y-108496866D01*
X147765696Y-108379528D01*
X147764097Y-108318341D01*
X147771584Y-108193551D01*
X147794643Y-108082338D01*
X147834574Y-107981422D01*
X147892678Y-107887522D01*
X147970257Y-107797359D01*
X147971017Y-107796585D01*
X148018740Y-107750142D01*
X148059873Y-107715830D01*
X148101476Y-107688415D01*
X148150607Y-107662661D01*
X148153479Y-107661279D01*
X148275694Y-107614573D01*
X148402417Y-107588736D01*
X148531029Y-107583873D01*
X148658912Y-107600089D01*
G36*
X142707128Y-104505472D02*
G01*
X143009901Y-104524949D01*
X143307414Y-104565382D01*
X143598801Y-104626541D01*
X143883200Y-104708193D01*
X144159747Y-104810105D01*
X144427577Y-104932047D01*
X144566620Y-105005226D01*
X144822329Y-105158744D01*
X145064671Y-105329190D01*
X145292952Y-105515595D01*
X145506478Y-105716992D01*
X145704553Y-105932415D01*
X145886483Y-106160896D01*
X146051573Y-106401469D01*
X146199129Y-106653165D01*
X146328457Y-106915018D01*
X146438860Y-107186061D01*
X146529645Y-107465326D01*
X146600117Y-107751847D01*
X146622263Y-107867144D01*
X146637952Y-107958238D01*
X146650484Y-108037980D01*
X146660201Y-108110783D01*
X146667444Y-108181060D01*
X146672555Y-108253223D01*
X146675878Y-108331684D01*
X146677753Y-108420857D01*
X146678523Y-108525153D01*
X146678598Y-108593870D01*
X146678334Y-108700976D01*
X146677418Y-108790424D01*
X146675522Y-108866640D01*
X146672315Y-108934052D01*
X146667469Y-108997085D01*
X146660655Y-109060167D01*
X146651542Y-109127723D01*
X146639802Y-109204181D01*
X146627661Y-109278566D01*
X146570184Y-109558818D01*
X146491628Y-109835610D01*
X146392926Y-110107274D01*
X146275007Y-110372142D01*
X146138802Y-110628549D01*
X145985244Y-110874827D01*
X145815261Y-111109308D01*
X145629785Y-111330326D01*
X145429747Y-111536214D01*
X145302027Y-111652744D01*
X145064399Y-111845464D01*
X144816867Y-112018458D01*
X144559638Y-112171634D01*
X144292923Y-112304902D01*
X144016931Y-112418168D01*
X143731872Y-112511343D01*
X143437954Y-112584334D01*
X143135388Y-112637050D01*
X143012304Y-112652404D01*
X142950228Y-112657725D01*
X142871290Y-112662114D01*
X142780699Y-112665490D01*
X142683662Y-112667774D01*
X142585389Y-112668884D01*
X142491088Y-112668740D01*
X142405968Y-112667261D01*
X142335236Y-112664366D01*
X142317091Y-112663172D01*
X142020450Y-112630419D01*
X141729401Y-112576736D01*
X141444885Y-112502751D01*
X141167841Y-112409095D01*
X140899212Y-112296396D01*
X140639936Y-112165282D01*
X140390954Y-112016384D01*
X140153207Y-111850329D01*
X139927635Y-111667747D01*
X139715178Y-111469266D01*
X139516777Y-111255516D01*
X139333371Y-111027125D01*
X139165902Y-110784723D01*
X139015310Y-110528939D01*
X138956086Y-110415210D01*
X138833985Y-110147492D01*
X138731557Y-109870870D01*
X138648622Y-109584729D01*
X138585001Y-109288457D01*
X138542915Y-109002479D01*
X138536781Y-108931952D01*
X138532382Y-108844101D01*
X138529685Y-108743620D01*
X138528657Y-108635200D01*
X138528955Y-108580416D01*
X139853976Y-108580416D01*
X139857139Y-108693491D01*
X139866257Y-108799087D01*
X139879935Y-108883581D01*
X139923531Y-109047311D01*
X139982406Y-109196527D01*
X140058096Y-109334006D01*
X140152136Y-109462524D01*
X140266064Y-109584859D01*
X140270002Y-109588653D01*
X140391674Y-109693294D01*
X140519327Y-109778619D01*
X140654919Y-109845419D01*
X140800403Y-109894486D01*
X140957737Y-109926612D01*
X141128875Y-109942587D01*
X141145956Y-109943295D01*
X141297725Y-109943308D01*
X141436916Y-109930678D01*
X141569795Y-109904289D01*
X141702629Y-109863019D01*
X141790901Y-109828116D01*
X141883672Y-109788678D01*
X141961879Y-109874931D01*
X142009485Y-109925815D01*
X142047188Y-109961434D01*
X142078535Y-109984043D01*
X142107072Y-109995897D01*
X142136346Y-109999251D01*
X142155650Y-109998131D01*
X142175178Y-109995189D01*
X142192982Y-109989144D01*
X142212243Y-109977599D01*
X142236146Y-109958155D01*
X142267871Y-109928413D01*
X142310602Y-109885975D01*
X142328688Y-109867739D01*
X142381525Y-109813204D01*
X142419698Y-109770407D01*
X142433568Y-109751766D01*
X142686864Y-109751766D01*
X142694228Y-109786685D01*
X142713495Y-109824357D01*
X142738909Y-109854796D01*
X142751474Y-109863836D01*
X142758685Y-109866327D01*
X142771421Y-109868551D01*
X142790848Y-109870523D01*
X142818132Y-109872258D01*
X142854442Y-109873771D01*
X142900945Y-109875076D01*
X142958807Y-109876190D01*
X143029196Y-109877126D01*
X143113279Y-109877900D01*
X143212223Y-109878527D01*
X143327196Y-109879022D01*
X143459364Y-109879399D01*
X143609895Y-109879674D01*
X143779956Y-109879862D01*
X143970715Y-109879978D01*
X144009527Y-109879993D01*
X144202409Y-109880038D01*
X144374420Y-109880015D01*
X144526775Y-109879907D01*
X144660687Y-109879700D01*
X144777372Y-109879376D01*
X144878046Y-109878919D01*
X144963922Y-109878313D01*
X145036217Y-109877542D01*
X145096145Y-109876589D01*
X145144921Y-109875439D01*
X145183760Y-109874075D01*
X145213878Y-109872481D01*
X145236488Y-109870641D01*
X145252807Y-109868538D01*
X145264049Y-109866156D01*
X145271429Y-109863479D01*
X145272114Y-109863136D01*
X145300877Y-109838449D01*
X145324212Y-109801505D01*
X145336347Y-109762131D01*
X145336956Y-109752697D01*
X145332709Y-109739895D01*
X145320398Y-109708315D01*
X145300667Y-109659476D01*
X145274162Y-109594896D01*
X145241526Y-109516094D01*
X145203406Y-109424590D01*
X145160446Y-109321903D01*
X145113291Y-109209551D01*
X145062585Y-109089053D01*
X145008974Y-108961929D01*
X144953102Y-108829697D01*
X144895614Y-108693877D01*
X144837155Y-108555986D01*
X144778370Y-108417546D01*
X144719904Y-108280073D01*
X144662402Y-108145088D01*
X144606508Y-108014108D01*
X144552867Y-107888654D01*
X144502125Y-107770245D01*
X144454925Y-107660398D01*
X144411914Y-107560633D01*
X144373735Y-107472470D01*
X144341034Y-107397427D01*
X144314455Y-107337022D01*
X144294643Y-107292776D01*
X144282243Y-107266207D01*
X144278242Y-107258846D01*
X144259272Y-107240828D01*
X144235680Y-107227479D01*
X144204106Y-107218158D01*
X144161188Y-107212223D01*
X144103564Y-107209030D01*
X144027873Y-107207937D01*
X144011739Y-107207913D01*
X143932192Y-107208700D01*
X143871366Y-107211484D01*
X143825937Y-107216902D01*
X143792582Y-107225590D01*
X143767977Y-107238185D01*
X143748799Y-107255322D01*
X143745745Y-107258846D01*
X143738867Y-107271962D01*
X143724046Y-107303908D01*
X143701937Y-107353170D01*
X143673200Y-107418236D01*
X143638491Y-107497591D01*
X143598469Y-107589724D01*
X143553791Y-107693121D01*
X143505115Y-107806268D01*
X143453100Y-107927653D01*
X143398402Y-108055762D01*
X143355346Y-108156918D01*
X143288420Y-108314365D01*
X143229651Y-108452782D01*
X143178581Y-108573476D01*
X143134756Y-108677753D01*
X143097716Y-108766922D01*
X143067007Y-108842290D01*
X143042171Y-108905164D01*
X143022752Y-108956852D01*
X143008292Y-108998660D01*
X142998336Y-109031897D01*
X142992426Y-109057870D01*
X142990105Y-109077886D01*
X142990918Y-109093253D01*
X142994406Y-109105278D01*
X143000115Y-109115268D01*
X143007586Y-109124531D01*
X143014593Y-109132373D01*
X143035468Y-109151694D01*
X143060988Y-109165775D01*
X143094753Y-109175366D01*
X143140361Y-109181213D01*
X143201414Y-109184066D01*
X143266304Y-109184696D01*
X143344259Y-109183686D01*
X143403434Y-109180169D01*
X143447067Y-109173413D01*
X143478392Y-109162684D01*
X143500648Y-109147252D01*
X143515922Y-109128224D01*
X143523221Y-109113301D01*
X143538161Y-109079930D01*
X143559911Y-109030058D01*
X143587639Y-108965635D01*
X143620510Y-108888609D01*
X143657694Y-108800928D01*
X143698357Y-108704539D01*
X143741666Y-108601393D01*
X143769068Y-108535892D01*
X143813192Y-108430566D01*
X143854885Y-108331606D01*
X143893359Y-108240846D01*
X143927825Y-108160119D01*
X143957495Y-108091258D01*
X143981580Y-108036096D01*
X143999292Y-107996467D01*
X144009843Y-107974204D01*
X144012494Y-107969913D01*
X144018322Y-107979708D01*
X144031495Y-108007445D01*
X144050924Y-108050651D01*
X144075522Y-108106856D01*
X144104198Y-108173588D01*
X144135864Y-108248374D01*
X144149919Y-108281892D01*
X144222319Y-108455053D01*
X144286650Y-108608940D01*
X144343370Y-108744652D01*
X144392937Y-108863291D01*
X144435809Y-108965956D01*
X144472443Y-109053748D01*
X144503298Y-109127767D01*
X144528832Y-109189113D01*
X144549502Y-109238886D01*
X144565766Y-109278188D01*
X144578083Y-109308117D01*
X144586910Y-109329775D01*
X144592705Y-109344261D01*
X144595926Y-109352677D01*
X144597031Y-109356121D01*
X144597043Y-109356255D01*
X144586280Y-109357042D01*
X144555110Y-109357863D01*
X144505213Y-109358702D01*
X144438271Y-109359546D01*
X144355962Y-109360379D01*
X144259968Y-109361185D01*
X144151969Y-109361950D01*
X144033645Y-109362658D01*
X143906675Y-109363294D01*
X143772742Y-109363844D01*
X143741979Y-109363953D01*
X143584440Y-109364507D01*
X143447486Y-109365032D01*
X143329614Y-109365573D01*
X143229322Y-109366175D01*
X143145106Y-109366882D01*
X143075466Y-109367738D01*
X143018897Y-109368787D01*
X142973899Y-109370076D01*
X142938968Y-109371647D01*
X142912601Y-109373546D01*
X142893298Y-109375816D01*
X142879554Y-109378503D01*
X142869868Y-109381650D01*
X142862738Y-109385303D01*
X142856660Y-109389505D01*
X142855740Y-109390191D01*
X142838573Y-109408445D01*
X142818125Y-109440858D01*
X142793235Y-109489551D01*
X142762738Y-109556647D01*
X142755886Y-109572408D01*
X142732184Y-109628470D01*
X142711976Y-109678572D01*
X142696807Y-109718700D01*
X142688221Y-109744843D01*
X142686864Y-109751766D01*
X142433568Y-109751766D01*
X142445020Y-109736376D01*
X142459304Y-109708140D01*
X142464360Y-109682726D01*
X142462002Y-109657164D01*
X142460682Y-109651283D01*
X142450641Y-109635320D01*
X142424616Y-109604226D01*
X142382662Y-109558059D01*
X142324833Y-109496876D01*
X142251183Y-109420733D01*
X142161766Y-109329687D01*
X142056634Y-109223796D01*
X142031390Y-109198500D01*
X141609462Y-108776087D01*
X141556475Y-108776087D01*
X141535422Y-108776583D01*
X141517895Y-108779622D01*
X141500409Y-108787535D01*
X141479477Y-108802651D01*
X141451615Y-108827300D01*
X141413336Y-108863810D01*
X141387102Y-108889283D01*
X141333586Y-108942270D01*
X141294516Y-108983723D01*
X141267751Y-109016693D01*
X141251148Y-109044226D01*
X141242565Y-109069373D01*
X141239858Y-109095182D01*
X141239826Y-109098864D01*
X141241467Y-109120601D01*
X141247832Y-109141590D01*
X141261084Y-109164902D01*
X141283385Y-109193608D01*
X141316899Y-109230777D01*
X141363789Y-109279482D01*
X141375361Y-109291284D01*
X141474661Y-109392350D01*
X141409700Y-109406464D01*
X141348356Y-109415537D01*
X141272926Y-109420267D01*
X141190351Y-109420805D01*
X141107571Y-109417307D01*
X141031528Y-109409923D01*
X140969163Y-109398809D01*
X140960421Y-109396559D01*
X140841885Y-109353168D01*
X140732333Y-109291173D01*
X140634106Y-109212778D01*
X140549547Y-109120182D01*
X140480997Y-109015587D01*
X140430798Y-108901194D01*
X140429577Y-108897566D01*
X140399640Y-108779692D01*
X140383663Y-108651804D01*
X140381945Y-108521242D01*
X140394780Y-108395344D01*
X140406873Y-108335923D01*
X140447966Y-108211827D01*
X140507566Y-108098226D01*
X140584045Y-107996884D01*
X140675777Y-107909561D01*
X140781134Y-107838019D01*
X140898488Y-107784019D01*
X140925087Y-107774885D01*
X141000796Y-107756446D01*
X141090457Y-107744276D01*
X141186743Y-107738728D01*
X141282325Y-107740156D01*
X141369876Y-107748913D01*
X141390410Y-107752432D01*
X141518552Y-107787205D01*
X141635494Y-107840403D01*
X141739949Y-107911049D01*
X141830632Y-107998167D01*
X141906256Y-108100783D01*
X141946197Y-108174218D01*
X141977020Y-108246305D01*
X142000302Y-108319548D01*
X142016513Y-108397592D01*
X142026124Y-108484081D01*
X142029607Y-108582659D01*
X142027433Y-108696969D01*
X142023671Y-108773550D01*
X142018391Y-108864882D01*
X142162789Y-109008224D01*
X142213758Y-109058672D01*
X142251934Y-109095633D01*
X142280174Y-109121203D01*
X142301333Y-109137481D01*
X142318269Y-109146564D01*
X142333837Y-109150551D01*
X142350895Y-109151540D01*
X142357963Y-109151566D01*
X142394829Y-109147867D01*
X142425732Y-109135348D01*
X142451946Y-109111874D01*
X142474744Y-109075310D01*
X142495397Y-109023523D01*
X142515180Y-108954377D01*
X142535365Y-108865738D01*
X142539074Y-108847870D01*
X142548704Y-108782741D01*
X142554909Y-108702157D01*
X142557697Y-108612485D01*
X142557070Y-108520090D01*
X142553036Y-108431336D01*
X142545598Y-108352588D01*
X142538624Y-108308131D01*
X142494942Y-108135528D01*
X142433150Y-107975551D01*
X142353147Y-107828033D01*
X142254828Y-107692809D01*
X142138093Y-107569714D01*
X142018651Y-107470245D01*
X141887687Y-107383980D01*
X141749747Y-107316289D01*
X141602949Y-107266585D01*
X141445411Y-107234283D01*
X141275251Y-107218795D01*
X141206696Y-107217195D01*
X141048821Y-107223019D01*
X140903208Y-107243237D01*
X140764535Y-107278879D01*
X140634438Y-107327937D01*
X140488360Y-107403114D01*
X140354077Y-107496132D01*
X140232850Y-107605417D01*
X140125942Y-107729396D01*
X140034616Y-107866495D01*
X139960134Y-108015140D01*
X139903757Y-108173758D01*
X139880196Y-108268087D01*
X139865508Y-108360538D01*
X139856767Y-108467040D01*
X139853976Y-108580416D01*
X138528955Y-108580416D01*
X138529265Y-108523535D01*
X138531477Y-108413316D01*
X138535260Y-108309238D01*
X138540582Y-108215991D01*
X138547410Y-108138269D01*
X138549012Y-108124522D01*
X138596982Y-107821542D01*
X138665224Y-107526649D01*
X138753317Y-107240526D01*
X138860840Y-106963855D01*
X138987371Y-106697320D01*
X139132488Y-106441604D01*
X139295770Y-106197388D01*
X139476795Y-105965355D01*
X139675142Y-105746189D01*
X139890389Y-105540571D01*
X140122115Y-105349186D01*
X140369898Y-105172714D01*
X140372913Y-105170726D01*
X140624027Y-105018300D01*
X140885555Y-104884742D01*
X141155977Y-104770483D01*
X141433775Y-104675955D01*
X141717431Y-104601593D01*
X142005428Y-104547828D01*
X142296246Y-104515093D01*
X142588368Y-104503820D01*
X142707128Y-104505472D01*
G37*
X142707128Y-104505472D02*
X143009901Y-104524949D01*
X143307414Y-104565382D01*
X143598801Y-104626541D01*
X143883200Y-104708193D01*
X144159747Y-104810105D01*
X144427577Y-104932047D01*
X144566620Y-105005226D01*
X144822329Y-105158744D01*
X145064671Y-105329190D01*
X145292952Y-105515595D01*
X145506478Y-105716992D01*
X145704553Y-105932415D01*
X145886483Y-106160896D01*
X146051573Y-106401469D01*
X146199129Y-106653165D01*
X146328457Y-106915018D01*
X146438860Y-107186061D01*
X146529645Y-107465326D01*
X146600117Y-107751847D01*
X146622263Y-107867144D01*
X146637952Y-107958238D01*
X146650484Y-108037980D01*
X146660201Y-108110783D01*
X146667444Y-108181060D01*
X146672555Y-108253223D01*
X146675878Y-108331684D01*
X146677753Y-108420857D01*
X146678523Y-108525153D01*
X146678598Y-108593870D01*
X146678334Y-108700976D01*
X146677418Y-108790424D01*
X146675522Y-108866640D01*
X146672315Y-108934052D01*
X146667469Y-108997085D01*
X146660655Y-109060167D01*
X146651542Y-109127723D01*
X146639802Y-109204181D01*
X146627661Y-109278566D01*
X146570184Y-109558818D01*
X146491628Y-109835610D01*
X146392926Y-110107274D01*
X146275007Y-110372142D01*
X146138802Y-110628549D01*
X145985244Y-110874827D01*
X145815261Y-111109308D01*
X145629785Y-111330326D01*
X145429747Y-111536214D01*
X145302027Y-111652744D01*
X145064399Y-111845464D01*
X144816867Y-112018458D01*
X144559638Y-112171634D01*
X144292923Y-112304902D01*
X144016931Y-112418168D01*
X143731872Y-112511343D01*
X143437954Y-112584334D01*
X143135388Y-112637050D01*
X143012304Y-112652404D01*
X142950228Y-112657725D01*
X142871290Y-112662114D01*
X142780699Y-112665490D01*
X142683662Y-112667774D01*
X142585389Y-112668884D01*
X142491088Y-112668740D01*
X142405968Y-112667261D01*
X142335236Y-112664366D01*
X142317091Y-112663172D01*
X142020450Y-112630419D01*
X141729401Y-112576736D01*
X141444885Y-112502751D01*
X141167841Y-112409095D01*
X140899212Y-112296396D01*
X140639936Y-112165282D01*
X140390954Y-112016384D01*
X140153207Y-111850329D01*
X139927635Y-111667747D01*
X139715178Y-111469266D01*
X139516777Y-111255516D01*
X139333371Y-111027125D01*
X139165902Y-110784723D01*
X139015310Y-110528939D01*
X138956086Y-110415210D01*
X138833985Y-110147492D01*
X138731557Y-109870870D01*
X138648622Y-109584729D01*
X138585001Y-109288457D01*
X138542915Y-109002479D01*
X138536781Y-108931952D01*
X138532382Y-108844101D01*
X138529685Y-108743620D01*
X138528657Y-108635200D01*
X138528955Y-108580416D01*
X139853976Y-108580416D01*
X139857139Y-108693491D01*
X139866257Y-108799087D01*
X139879935Y-108883581D01*
X139923531Y-109047311D01*
X139982406Y-109196527D01*
X140058096Y-109334006D01*
X140152136Y-109462524D01*
X140266064Y-109584859D01*
X140270002Y-109588653D01*
X140391674Y-109693294D01*
X140519327Y-109778619D01*
X140654919Y-109845419D01*
X140800403Y-109894486D01*
X140957737Y-109926612D01*
X141128875Y-109942587D01*
X141145956Y-109943295D01*
X141297725Y-109943308D01*
X141436916Y-109930678D01*
X141569795Y-109904289D01*
X141702629Y-109863019D01*
X141790901Y-109828116D01*
X141883672Y-109788678D01*
X141961879Y-109874931D01*
X142009485Y-109925815D01*
X142047188Y-109961434D01*
X142078535Y-109984043D01*
X142107072Y-109995897D01*
X142136346Y-109999251D01*
X142155650Y-109998131D01*
X142175178Y-109995189D01*
X142192982Y-109989144D01*
X142212243Y-109977599D01*
X142236146Y-109958155D01*
X142267871Y-109928413D01*
X142310602Y-109885975D01*
X142328688Y-109867739D01*
X142381525Y-109813204D01*
X142419698Y-109770407D01*
X142433568Y-109751766D01*
X142686864Y-109751766D01*
X142694228Y-109786685D01*
X142713495Y-109824357D01*
X142738909Y-109854796D01*
X142751474Y-109863836D01*
X142758685Y-109866327D01*
X142771421Y-109868551D01*
X142790848Y-109870523D01*
X142818132Y-109872258D01*
X142854442Y-109873771D01*
X142900945Y-109875076D01*
X142958807Y-109876190D01*
X143029196Y-109877126D01*
X143113279Y-109877900D01*
X143212223Y-109878527D01*
X143327196Y-109879022D01*
X143459364Y-109879399D01*
X143609895Y-109879674D01*
X143779956Y-109879862D01*
X143970715Y-109879978D01*
X144009527Y-109879993D01*
X144202409Y-109880038D01*
X144374420Y-109880015D01*
X144526775Y-109879907D01*
X144660687Y-109879700D01*
X144777372Y-109879376D01*
X144878046Y-109878919D01*
X144963922Y-109878313D01*
X145036217Y-109877542D01*
X145096145Y-109876589D01*
X145144921Y-109875439D01*
X145183760Y-109874075D01*
X145213878Y-109872481D01*
X145236488Y-109870641D01*
X145252807Y-109868538D01*
X145264049Y-109866156D01*
X145271429Y-109863479D01*
X145272114Y-109863136D01*
X145300877Y-109838449D01*
X145324212Y-109801505D01*
X145336347Y-109762131D01*
X145336956Y-109752697D01*
X145332709Y-109739895D01*
X145320398Y-109708315D01*
X145300667Y-109659476D01*
X145274162Y-109594896D01*
X145241526Y-109516094D01*
X145203406Y-109424590D01*
X145160446Y-109321903D01*
X145113291Y-109209551D01*
X145062585Y-109089053D01*
X145008974Y-108961929D01*
X144953102Y-108829697D01*
X144895614Y-108693877D01*
X144837155Y-108555986D01*
X144778370Y-108417546D01*
X144719904Y-108280073D01*
X144662402Y-108145088D01*
X144606508Y-108014108D01*
X144552867Y-107888654D01*
X144502125Y-107770245D01*
X144454925Y-107660398D01*
X144411914Y-107560633D01*
X144373735Y-107472470D01*
X144341034Y-107397427D01*
X144314455Y-107337022D01*
X144294643Y-107292776D01*
X144282243Y-107266207D01*
X144278242Y-107258846D01*
X144259272Y-107240828D01*
X144235680Y-107227479D01*
X144204106Y-107218158D01*
X144161188Y-107212223D01*
X144103564Y-107209030D01*
X144027873Y-107207937D01*
X144011739Y-107207913D01*
X143932192Y-107208700D01*
X143871366Y-107211484D01*
X143825937Y-107216902D01*
X143792582Y-107225590D01*
X143767977Y-107238185D01*
X143748799Y-107255322D01*
X143745745Y-107258846D01*
X143738867Y-107271962D01*
X143724046Y-107303908D01*
X143701937Y-107353170D01*
X143673200Y-107418236D01*
X143638491Y-107497591D01*
X143598469Y-107589724D01*
X143553791Y-107693121D01*
X143505115Y-107806268D01*
X143453100Y-107927653D01*
X143398402Y-108055762D01*
X143355346Y-108156918D01*
X143288420Y-108314365D01*
X143229651Y-108452782D01*
X143178581Y-108573476D01*
X143134756Y-108677753D01*
X143097716Y-108766922D01*
X143067007Y-108842290D01*
X143042171Y-108905164D01*
X143022752Y-108956852D01*
X143008292Y-108998660D01*
X142998336Y-109031897D01*
X142992426Y-109057870D01*
X142990105Y-109077886D01*
X142990918Y-109093253D01*
X142994406Y-109105278D01*
X143000115Y-109115268D01*
X143007586Y-109124531D01*
X143014593Y-109132373D01*
X143035468Y-109151694D01*
X143060988Y-109165775D01*
X143094753Y-109175366D01*
X143140361Y-109181213D01*
X143201414Y-109184066D01*
X143266304Y-109184696D01*
X143344259Y-109183686D01*
X143403434Y-109180169D01*
X143447067Y-109173413D01*
X143478392Y-109162684D01*
X143500648Y-109147252D01*
X143515922Y-109128224D01*
X143523221Y-109113301D01*
X143538161Y-109079930D01*
X143559911Y-109030058D01*
X143587639Y-108965635D01*
X143620510Y-108888609D01*
X143657694Y-108800928D01*
X143698357Y-108704539D01*
X143741666Y-108601393D01*
X143769068Y-108535892D01*
X143813192Y-108430566D01*
X143854885Y-108331606D01*
X143893359Y-108240846D01*
X143927825Y-108160119D01*
X143957495Y-108091258D01*
X143981580Y-108036096D01*
X143999292Y-107996467D01*
X144009843Y-107974204D01*
X144012494Y-107969913D01*
X144018322Y-107979708D01*
X144031495Y-108007445D01*
X144050924Y-108050651D01*
X144075522Y-108106856D01*
X144104198Y-108173588D01*
X144135864Y-108248374D01*
X144149919Y-108281892D01*
X144222319Y-108455053D01*
X144286650Y-108608940D01*
X144343370Y-108744652D01*
X144392937Y-108863291D01*
X144435809Y-108965956D01*
X144472443Y-109053748D01*
X144503298Y-109127767D01*
X144528832Y-109189113D01*
X144549502Y-109238886D01*
X144565766Y-109278188D01*
X144578083Y-109308117D01*
X144586910Y-109329775D01*
X144592705Y-109344261D01*
X144595926Y-109352677D01*
X144597031Y-109356121D01*
X144597043Y-109356255D01*
X144586280Y-109357042D01*
X144555110Y-109357863D01*
X144505213Y-109358702D01*
X144438271Y-109359546D01*
X144355962Y-109360379D01*
X144259968Y-109361185D01*
X144151969Y-109361950D01*
X144033645Y-109362658D01*
X143906675Y-109363294D01*
X143772742Y-109363844D01*
X143741979Y-109363953D01*
X143584440Y-109364507D01*
X143447486Y-109365032D01*
X143329614Y-109365573D01*
X143229322Y-109366175D01*
X143145106Y-109366882D01*
X143075466Y-109367738D01*
X143018897Y-109368787D01*
X142973899Y-109370076D01*
X142938968Y-109371647D01*
X142912601Y-109373546D01*
X142893298Y-109375816D01*
X142879554Y-109378503D01*
X142869868Y-109381650D01*
X142862738Y-109385303D01*
X142856660Y-109389505D01*
X142855740Y-109390191D01*
X142838573Y-109408445D01*
X142818125Y-109440858D01*
X142793235Y-109489551D01*
X142762738Y-109556647D01*
X142755886Y-109572408D01*
X142732184Y-109628470D01*
X142711976Y-109678572D01*
X142696807Y-109718700D01*
X142688221Y-109744843D01*
X142686864Y-109751766D01*
X142433568Y-109751766D01*
X142445020Y-109736376D01*
X142459304Y-109708140D01*
X142464360Y-109682726D01*
X142462002Y-109657164D01*
X142460682Y-109651283D01*
X142450641Y-109635320D01*
X142424616Y-109604226D01*
X142382662Y-109558059D01*
X142324833Y-109496876D01*
X142251183Y-109420733D01*
X142161766Y-109329687D01*
X142056634Y-109223796D01*
X142031390Y-109198500D01*
X141609462Y-108776087D01*
X141556475Y-108776087D01*
X141535422Y-108776583D01*
X141517895Y-108779622D01*
X141500409Y-108787535D01*
X141479477Y-108802651D01*
X141451615Y-108827300D01*
X141413336Y-108863810D01*
X141387102Y-108889283D01*
X141333586Y-108942270D01*
X141294516Y-108983723D01*
X141267751Y-109016693D01*
X141251148Y-109044226D01*
X141242565Y-109069373D01*
X141239858Y-109095182D01*
X141239826Y-109098864D01*
X141241467Y-109120601D01*
X141247832Y-109141590D01*
X141261084Y-109164902D01*
X141283385Y-109193608D01*
X141316899Y-109230777D01*
X141363789Y-109279482D01*
X141375361Y-109291284D01*
X141474661Y-109392350D01*
X141409700Y-109406464D01*
X141348356Y-109415537D01*
X141272926Y-109420267D01*
X141190351Y-109420805D01*
X141107571Y-109417307D01*
X141031528Y-109409923D01*
X140969163Y-109398809D01*
X140960421Y-109396559D01*
X140841885Y-109353168D01*
X140732333Y-109291173D01*
X140634106Y-109212778D01*
X140549547Y-109120182D01*
X140480997Y-109015587D01*
X140430798Y-108901194D01*
X140429577Y-108897566D01*
X140399640Y-108779692D01*
X140383663Y-108651804D01*
X140381945Y-108521242D01*
X140394780Y-108395344D01*
X140406873Y-108335923D01*
X140447966Y-108211827D01*
X140507566Y-108098226D01*
X140584045Y-107996884D01*
X140675777Y-107909561D01*
X140781134Y-107838019D01*
X140898488Y-107784019D01*
X140925087Y-107774885D01*
X141000796Y-107756446D01*
X141090457Y-107744276D01*
X141186743Y-107738728D01*
X141282325Y-107740156D01*
X141369876Y-107748913D01*
X141390410Y-107752432D01*
X141518552Y-107787205D01*
X141635494Y-107840403D01*
X141739949Y-107911049D01*
X141830632Y-107998167D01*
X141906256Y-108100783D01*
X141946197Y-108174218D01*
X141977020Y-108246305D01*
X142000302Y-108319548D01*
X142016513Y-108397592D01*
X142026124Y-108484081D01*
X142029607Y-108582659D01*
X142027433Y-108696969D01*
X142023671Y-108773550D01*
X142018391Y-108864882D01*
X142162789Y-109008224D01*
X142213758Y-109058672D01*
X142251934Y-109095633D01*
X142280174Y-109121203D01*
X142301333Y-109137481D01*
X142318269Y-109146564D01*
X142333837Y-109150551D01*
X142350895Y-109151540D01*
X142357963Y-109151566D01*
X142394829Y-109147867D01*
X142425732Y-109135348D01*
X142451946Y-109111874D01*
X142474744Y-109075310D01*
X142495397Y-109023523D01*
X142515180Y-108954377D01*
X142535365Y-108865738D01*
X142539074Y-108847870D01*
X142548704Y-108782741D01*
X142554909Y-108702157D01*
X142557697Y-108612485D01*
X142557070Y-108520090D01*
X142553036Y-108431336D01*
X142545598Y-108352588D01*
X142538624Y-108308131D01*
X142494942Y-108135528D01*
X142433150Y-107975551D01*
X142353147Y-107828033D01*
X142254828Y-107692809D01*
X142138093Y-107569714D01*
X142018651Y-107470245D01*
X141887687Y-107383980D01*
X141749747Y-107316289D01*
X141602949Y-107266585D01*
X141445411Y-107234283D01*
X141275251Y-107218795D01*
X141206696Y-107217195D01*
X141048821Y-107223019D01*
X140903208Y-107243237D01*
X140764535Y-107278879D01*
X140634438Y-107327937D01*
X140488360Y-107403114D01*
X140354077Y-107496132D01*
X140232850Y-107605417D01*
X140125942Y-107729396D01*
X140034616Y-107866495D01*
X139960134Y-108015140D01*
X139903757Y-108173758D01*
X139880196Y-108268087D01*
X139865508Y-108360538D01*
X139856767Y-108467040D01*
X139853976Y-108580416D01*
X138528955Y-108580416D01*
X138529265Y-108523535D01*
X138531477Y-108413316D01*
X138535260Y-108309238D01*
X138540582Y-108215991D01*
X138547410Y-108138269D01*
X138549012Y-108124522D01*
X138596982Y-107821542D01*
X138665224Y-107526649D01*
X138753317Y-107240526D01*
X138860840Y-106963855D01*
X138987371Y-106697320D01*
X139132488Y-106441604D01*
X139295770Y-106197388D01*
X139476795Y-105965355D01*
X139675142Y-105746189D01*
X139890389Y-105540571D01*
X140122115Y-105349186D01*
X140369898Y-105172714D01*
X140372913Y-105170726D01*
X140624027Y-105018300D01*
X140885555Y-104884742D01*
X141155977Y-104770483D01*
X141433775Y-104675955D01*
X141717431Y-104601593D01*
X142005428Y-104547828D01*
X142296246Y-104515093D01*
X142588368Y-104503820D01*
X142707128Y-104505472D01*
D13*
%TO.C,U2*%
X144850000Y-84405000D02*
X145650000Y-83605000D01*
X145650000Y-83605000D02*
X157150000Y-83605000D01*
X157150000Y-83605000D02*
X157150000Y-101395000D01*
X157150000Y-101395000D02*
X144850000Y-101395000D01*
X144850000Y-101395000D02*
X144850000Y-84405000D01*
%TO.C,J5*%
X133460000Y-69250000D02*
X132960000Y-69500000D01*
X133460000Y-69750000D02*
X133460000Y-69250000D01*
X132960000Y-69500000D02*
X133460000Y-69750000D01*
X128700000Y-67550000D02*
X128700000Y-68660000D01*
X128700000Y-70340000D02*
X128700000Y-71450000D01*
X132410000Y-67550000D02*
X132410000Y-68660000D01*
X132410000Y-70340000D02*
X132410000Y-71450000D01*
%TO.C,J6*%
X133460000Y-115250000D02*
X132960000Y-115500000D01*
X133460000Y-115750000D02*
X133460000Y-115250000D01*
X132960000Y-115500000D02*
X133460000Y-115750000D01*
X128700000Y-113550000D02*
X128700000Y-114660000D01*
X128700000Y-116340000D02*
X128700000Y-117450000D01*
X132410000Y-113550000D02*
X132410000Y-114660000D01*
X132410000Y-116340000D02*
X132410000Y-117450000D01*
%TO.C,J7*%
X172590000Y-91660000D02*
X172590000Y-90550000D01*
X172590000Y-94450000D02*
X172590000Y-93340000D01*
X176300000Y-91660000D02*
X176300000Y-90550000D01*
X176300000Y-94450000D02*
X176300000Y-93340000D01*
X172040000Y-92500000D02*
X171540000Y-92250000D01*
X171540000Y-92250000D02*
X171540000Y-92750000D01*
X171540000Y-92750000D02*
X172040000Y-92500000D01*
%TO.C,H8*%
D14*
X170738095Y-122652380D02*
X170738095Y-121652380D01*
X170738095Y-122128571D02*
X171309523Y-122128571D01*
X171309523Y-122652380D02*
X171309523Y-121652380D01*
X171928571Y-122080952D02*
X171833333Y-122033333D01*
X171785714Y-121985714D01*
X171738095Y-121890476D01*
X171738095Y-121842857D01*
X171785714Y-121747619D01*
X171833333Y-121700000D01*
X171928571Y-121652380D01*
X172119047Y-121652380D01*
X172214285Y-121700000D01*
X172261904Y-121747619D01*
X172309523Y-121842857D01*
X172309523Y-121890476D01*
X172261904Y-121985714D01*
X172214285Y-122033333D01*
X172119047Y-122080952D01*
X171928571Y-122080952D01*
X171833333Y-122128571D01*
X171785714Y-122176190D01*
X171738095Y-122271428D01*
X171738095Y-122461904D01*
X171785714Y-122557142D01*
X171833333Y-122604761D01*
X171928571Y-122652380D01*
X172119047Y-122652380D01*
X172214285Y-122604761D01*
X172261904Y-122557142D01*
X172309523Y-122461904D01*
X172309523Y-122271428D01*
X172261904Y-122176190D01*
X172214285Y-122128571D01*
X172119047Y-122080952D01*
%TO.C,H7*%
X133238095Y-122652380D02*
X133238095Y-121652380D01*
X133238095Y-122128571D02*
X133809523Y-122128571D01*
X133809523Y-122652380D02*
X133809523Y-121652380D01*
X134190476Y-121652380D02*
X134857142Y-121652380D01*
X134428571Y-122652380D01*
%TO.C,H6*%
X170738095Y-52652380D02*
X170738095Y-51652380D01*
X170738095Y-52128571D02*
X171309523Y-52128571D01*
X171309523Y-52652380D02*
X171309523Y-51652380D01*
X172214285Y-51652380D02*
X172023809Y-51652380D01*
X171928571Y-51700000D01*
X171880952Y-51747619D01*
X171785714Y-51890476D01*
X171738095Y-52080952D01*
X171738095Y-52461904D01*
X171785714Y-52557142D01*
X171833333Y-52604761D01*
X171928571Y-52652380D01*
X172119047Y-52652380D01*
X172214285Y-52604761D01*
X172261904Y-52557142D01*
X172309523Y-52461904D01*
X172309523Y-52223809D01*
X172261904Y-52128571D01*
X172214285Y-52080952D01*
X172119047Y-52033333D01*
X171928571Y-52033333D01*
X171833333Y-52080952D01*
X171785714Y-52128571D01*
X171738095Y-52223809D01*
%TO.C,H5*%
X133238095Y-52652380D02*
X133238095Y-51652380D01*
X133238095Y-52128571D02*
X133809523Y-52128571D01*
X133809523Y-52652380D02*
X133809523Y-51652380D01*
X134761904Y-51652380D02*
X134285714Y-51652380D01*
X134238095Y-52128571D01*
X134285714Y-52080952D01*
X134380952Y-52033333D01*
X134619047Y-52033333D01*
X134714285Y-52080952D01*
X134761904Y-52128571D01*
X134809523Y-52223809D01*
X134809523Y-52461904D01*
X134761904Y-52557142D01*
X134714285Y-52604761D01*
X134619047Y-52652380D01*
X134380952Y-52652380D01*
X134285714Y-52604761D01*
X134238095Y-52557142D01*
%TO.C,U2*%
X150238095Y-102452380D02*
X150238095Y-103261904D01*
X150285714Y-103357142D01*
X150333333Y-103404761D01*
X150428571Y-103452380D01*
X150619047Y-103452380D01*
X150714285Y-103404761D01*
X150761904Y-103357142D01*
X150809523Y-103261904D01*
X150809523Y-102452380D01*
X151238095Y-102547619D02*
X151285714Y-102500000D01*
X151380952Y-102452380D01*
X151619047Y-102452380D01*
X151714285Y-102500000D01*
X151761904Y-102547619D01*
X151809523Y-102642857D01*
X151809523Y-102738095D01*
X151761904Y-102880952D01*
X151190476Y-103452380D01*
X151809523Y-103452380D01*
%TO.C,J5*%
X133652380Y-69833333D02*
X134366666Y-69833333D01*
X134509523Y-69880952D01*
X134604761Y-69976190D01*
X134652380Y-70119047D01*
X134652380Y-70214285D01*
X133652380Y-68880952D02*
X133652380Y-69357142D01*
X134128571Y-69404761D01*
X134080952Y-69357142D01*
X134033333Y-69261904D01*
X134033333Y-69023809D01*
X134080952Y-68928571D01*
X134128571Y-68880952D01*
X134223809Y-68833333D01*
X134461904Y-68833333D01*
X134557142Y-68880952D01*
X134604761Y-68928571D01*
X134652380Y-69023809D01*
X134652380Y-69261904D01*
X134604761Y-69357142D01*
X134557142Y-69404761D01*
%TO.C,J6*%
X133652380Y-115833333D02*
X134366666Y-115833333D01*
X134509523Y-115880952D01*
X134604761Y-115976190D01*
X134652380Y-116119047D01*
X134652380Y-116214285D01*
X133652380Y-114928571D02*
X133652380Y-115119047D01*
X133700000Y-115214285D01*
X133747619Y-115261904D01*
X133890476Y-115357142D01*
X134080952Y-115404761D01*
X134461904Y-115404761D01*
X134557142Y-115357142D01*
X134604761Y-115309523D01*
X134652380Y-115214285D01*
X134652380Y-115023809D01*
X134604761Y-114928571D01*
X134557142Y-114880952D01*
X134461904Y-114833333D01*
X134223809Y-114833333D01*
X134128571Y-114880952D01*
X134080952Y-114928571D01*
X134033333Y-115023809D01*
X134033333Y-115214285D01*
X134080952Y-115309523D01*
X134128571Y-115357142D01*
X134223809Y-115404761D01*
%TO.C,J7*%
X170252380Y-92833333D02*
X170966666Y-92833333D01*
X171109523Y-92880952D01*
X171204761Y-92976190D01*
X171252380Y-93119047D01*
X171252380Y-93214285D01*
X170252380Y-92452380D02*
X170252380Y-91785714D01*
X171252380Y-92214285D01*
%TD*%
M02*
