%TF.GenerationSoftware,KiCad,Pcbnew,(5.1.6)-1*%
%TF.CreationDate,2020-10-09T05:29:33-04:00*%
%TF.ProjectId,RFID_PROJECT_3-WAY-SPLITTER,52464944-5f50-4524-9f4a-4543545f332d,B*%
%TF.SameCoordinates,Original*%
%TF.FileFunction,Copper,L2,Inr*%
%TF.FilePolarity,Positive*%
%FSLAX46Y46*%
G04 Gerber Fmt 4.6, Leading zero omitted, Abs format (unit mm)*
G04 Created by KiCad (PCBNEW (5.1.6)-1) date 2020-10-09 05:29:33*
%MOMM*%
%LPD*%
G01*
G04 APERTURE LIST*
%TA.AperFunction,ViaPad*%
%ADD10C,0.900000*%
%TD*%
%TA.AperFunction,ViaPad*%
%ADD11C,8.600000*%
%TD*%
%TA.AperFunction,ViaPad*%
%ADD12C,1.000000*%
%TD*%
%TA.AperFunction,Conductor*%
%ADD13C,0.254000*%
%TD*%
G04 APERTURE END LIST*
D10*
%TO.N,N/C*%
%TO.C,H4*%
X163280419Y-114219581D03*
X161000000Y-113275000D03*
X158719581Y-114219581D03*
X157775000Y-116500000D03*
X158719581Y-118780419D03*
X161000000Y-119725000D03*
X163280419Y-118780419D03*
X164225000Y-116500000D03*
D11*
X161000000Y-116500000D03*
%TD*%
D10*
%TO.N,N/C*%
%TO.C,H3*%
X130280419Y-114219581D03*
X128000000Y-113275000D03*
X125719581Y-114219581D03*
X124775000Y-116500000D03*
X125719581Y-118780419D03*
X128000000Y-119725000D03*
X130280419Y-118780419D03*
X131225000Y-116500000D03*
D11*
X128000000Y-116500000D03*
%TD*%
D10*
%TO.N,N/C*%
%TO.C,H2*%
X163280419Y-45719581D03*
X161000000Y-44775000D03*
X158719581Y-45719581D03*
X157775000Y-48000000D03*
X158719581Y-50280419D03*
X161000000Y-51225000D03*
X163280419Y-50280419D03*
X164225000Y-48000000D03*
D11*
X161000000Y-48000000D03*
%TD*%
D10*
%TO.N,N/C*%
%TO.C,H1*%
X130280419Y-45719581D03*
X128000000Y-44775000D03*
X125719581Y-45719581D03*
X124775000Y-48000000D03*
X125719581Y-50280419D03*
X128000000Y-51225000D03*
X130280419Y-50280419D03*
X131225000Y-48000000D03*
D11*
X128000000Y-48000000D03*
%TD*%
D12*
%TO.N,GND*%
X133000000Y-53500000D03*
X156000000Y-53500000D03*
X155000000Y-111500000D03*
X133000000Y-111500000D03*
%TD*%
D13*
%TO.N,GND*%
G36*
X128365717Y-42675088D02*
G01*
X128466353Y-42685000D01*
X167033647Y-42685000D01*
X167134283Y-42675088D01*
X167142993Y-42672446D01*
X167936842Y-42731439D01*
X168853106Y-42938769D01*
X169728657Y-43279252D01*
X170544265Y-43745410D01*
X171282014Y-44327005D01*
X171925689Y-45011251D01*
X172461160Y-45783129D01*
X172876659Y-46625677D01*
X173163054Y-47520376D01*
X173315689Y-48457579D01*
X173332427Y-48840946D01*
X173324912Y-48865718D01*
X173315000Y-48966354D01*
X173315001Y-116533647D01*
X173324913Y-116634283D01*
X173327554Y-116642990D01*
X173268561Y-117436841D01*
X173061231Y-118353106D01*
X172720748Y-119228657D01*
X172254590Y-120044265D01*
X171672995Y-120782014D01*
X170988749Y-121425689D01*
X170216871Y-121961160D01*
X169374323Y-122376659D01*
X168479624Y-122663054D01*
X167542414Y-122815689D01*
X167159055Y-122832427D01*
X167134283Y-122824912D01*
X167033647Y-122815000D01*
X128466353Y-122815000D01*
X128365717Y-122824912D01*
X128357007Y-122827554D01*
X127563159Y-122768561D01*
X126646894Y-122561231D01*
X125771343Y-122220748D01*
X124955735Y-121754590D01*
X124217986Y-121172995D01*
X123574311Y-120488749D01*
X123038840Y-119716871D01*
X122623341Y-118874323D01*
X122336946Y-117979624D01*
X122184311Y-117042414D01*
X122167573Y-116659055D01*
X122175088Y-116634283D01*
X122185000Y-116533647D01*
X122185000Y-116013945D01*
X123065000Y-116013945D01*
X123065000Y-116986055D01*
X123254650Y-117939486D01*
X123626660Y-118837599D01*
X124166735Y-119645879D01*
X124854121Y-120333265D01*
X125662401Y-120873340D01*
X126560514Y-121245350D01*
X127513945Y-121435000D01*
X128486055Y-121435000D01*
X129439486Y-121245350D01*
X130337599Y-120873340D01*
X131145879Y-120333265D01*
X131833265Y-119645879D01*
X132373340Y-118837599D01*
X132745350Y-117939486D01*
X132935000Y-116986055D01*
X132935000Y-116013945D01*
X156065000Y-116013945D01*
X156065000Y-116986055D01*
X156254650Y-117939486D01*
X156626660Y-118837599D01*
X157166735Y-119645879D01*
X157854121Y-120333265D01*
X158662401Y-120873340D01*
X159560514Y-121245350D01*
X160513945Y-121435000D01*
X161486055Y-121435000D01*
X162439486Y-121245350D01*
X163337599Y-120873340D01*
X164145879Y-120333265D01*
X164833265Y-119645879D01*
X165373340Y-118837599D01*
X165745350Y-117939486D01*
X165935000Y-116986055D01*
X165935000Y-116013945D01*
X165745350Y-115060514D01*
X165373340Y-114162401D01*
X164833265Y-113354121D01*
X164145879Y-112666735D01*
X163337599Y-112126660D01*
X162439486Y-111754650D01*
X161486055Y-111565000D01*
X160513945Y-111565000D01*
X159560514Y-111754650D01*
X158662401Y-112126660D01*
X157854121Y-112666735D01*
X157166735Y-113354121D01*
X156626660Y-114162401D01*
X156254650Y-115060514D01*
X156065000Y-116013945D01*
X132935000Y-116013945D01*
X132745350Y-115060514D01*
X132373340Y-114162401D01*
X131833265Y-113354121D01*
X131145879Y-112666735D01*
X130337599Y-112126660D01*
X129439486Y-111754650D01*
X128486055Y-111565000D01*
X127513945Y-111565000D01*
X126560514Y-111754650D01*
X125662401Y-112126660D01*
X124854121Y-112666735D01*
X124166735Y-113354121D01*
X123626660Y-114162401D01*
X123254650Y-115060514D01*
X123065000Y-116013945D01*
X122185000Y-116013945D01*
X122185000Y-48966353D01*
X122175088Y-48865717D01*
X122172446Y-48857007D01*
X122231439Y-48063158D01*
X122355713Y-47513945D01*
X123065000Y-47513945D01*
X123065000Y-48486055D01*
X123254650Y-49439486D01*
X123626660Y-50337599D01*
X124166735Y-51145879D01*
X124854121Y-51833265D01*
X125662401Y-52373340D01*
X126560514Y-52745350D01*
X127513945Y-52935000D01*
X128486055Y-52935000D01*
X129439486Y-52745350D01*
X130337599Y-52373340D01*
X131145879Y-51833265D01*
X131833265Y-51145879D01*
X132373340Y-50337599D01*
X132745350Y-49439486D01*
X132935000Y-48486055D01*
X132935000Y-47513945D01*
X156065000Y-47513945D01*
X156065000Y-48486055D01*
X156254650Y-49439486D01*
X156626660Y-50337599D01*
X157166735Y-51145879D01*
X157854121Y-51833265D01*
X158662401Y-52373340D01*
X159560514Y-52745350D01*
X160513945Y-52935000D01*
X161486055Y-52935000D01*
X162439486Y-52745350D01*
X163337599Y-52373340D01*
X164145879Y-51833265D01*
X164833265Y-51145879D01*
X165373340Y-50337599D01*
X165745350Y-49439486D01*
X165935000Y-48486055D01*
X165935000Y-47513945D01*
X165745350Y-46560514D01*
X165373340Y-45662401D01*
X164833265Y-44854121D01*
X164145879Y-44166735D01*
X163337599Y-43626660D01*
X162439486Y-43254650D01*
X161486055Y-43065000D01*
X160513945Y-43065000D01*
X159560514Y-43254650D01*
X158662401Y-43626660D01*
X157854121Y-44166735D01*
X157166735Y-44854121D01*
X156626660Y-45662401D01*
X156254650Y-46560514D01*
X156065000Y-47513945D01*
X132935000Y-47513945D01*
X132745350Y-46560514D01*
X132373340Y-45662401D01*
X131833265Y-44854121D01*
X131145879Y-44166735D01*
X130337599Y-43626660D01*
X129439486Y-43254650D01*
X128486055Y-43065000D01*
X127513945Y-43065000D01*
X126560514Y-43254650D01*
X125662401Y-43626660D01*
X124854121Y-44166735D01*
X124166735Y-44854121D01*
X123626660Y-45662401D01*
X123254650Y-46560514D01*
X123065000Y-47513945D01*
X122355713Y-47513945D01*
X122438769Y-47146894D01*
X122779252Y-46271343D01*
X123245410Y-45455735D01*
X123827005Y-44717986D01*
X124511251Y-44074311D01*
X125283129Y-43538840D01*
X126125677Y-43123341D01*
X127020376Y-42836946D01*
X127957579Y-42684311D01*
X128340945Y-42667573D01*
X128365717Y-42675088D01*
G37*
X128365717Y-42675088D02*
X128466353Y-42685000D01*
X167033647Y-42685000D01*
X167134283Y-42675088D01*
X167142993Y-42672446D01*
X167936842Y-42731439D01*
X168853106Y-42938769D01*
X169728657Y-43279252D01*
X170544265Y-43745410D01*
X171282014Y-44327005D01*
X171925689Y-45011251D01*
X172461160Y-45783129D01*
X172876659Y-46625677D01*
X173163054Y-47520376D01*
X173315689Y-48457579D01*
X173332427Y-48840946D01*
X173324912Y-48865718D01*
X173315000Y-48966354D01*
X173315001Y-116533647D01*
X173324913Y-116634283D01*
X173327554Y-116642990D01*
X173268561Y-117436841D01*
X173061231Y-118353106D01*
X172720748Y-119228657D01*
X172254590Y-120044265D01*
X171672995Y-120782014D01*
X170988749Y-121425689D01*
X170216871Y-121961160D01*
X169374323Y-122376659D01*
X168479624Y-122663054D01*
X167542414Y-122815689D01*
X167159055Y-122832427D01*
X167134283Y-122824912D01*
X167033647Y-122815000D01*
X128466353Y-122815000D01*
X128365717Y-122824912D01*
X128357007Y-122827554D01*
X127563159Y-122768561D01*
X126646894Y-122561231D01*
X125771343Y-122220748D01*
X124955735Y-121754590D01*
X124217986Y-121172995D01*
X123574311Y-120488749D01*
X123038840Y-119716871D01*
X122623341Y-118874323D01*
X122336946Y-117979624D01*
X122184311Y-117042414D01*
X122167573Y-116659055D01*
X122175088Y-116634283D01*
X122185000Y-116533647D01*
X122185000Y-116013945D01*
X123065000Y-116013945D01*
X123065000Y-116986055D01*
X123254650Y-117939486D01*
X123626660Y-118837599D01*
X124166735Y-119645879D01*
X124854121Y-120333265D01*
X125662401Y-120873340D01*
X126560514Y-121245350D01*
X127513945Y-121435000D01*
X128486055Y-121435000D01*
X129439486Y-121245350D01*
X130337599Y-120873340D01*
X131145879Y-120333265D01*
X131833265Y-119645879D01*
X132373340Y-118837599D01*
X132745350Y-117939486D01*
X132935000Y-116986055D01*
X132935000Y-116013945D01*
X156065000Y-116013945D01*
X156065000Y-116986055D01*
X156254650Y-117939486D01*
X156626660Y-118837599D01*
X157166735Y-119645879D01*
X157854121Y-120333265D01*
X158662401Y-120873340D01*
X159560514Y-121245350D01*
X160513945Y-121435000D01*
X161486055Y-121435000D01*
X162439486Y-121245350D01*
X163337599Y-120873340D01*
X164145879Y-120333265D01*
X164833265Y-119645879D01*
X165373340Y-118837599D01*
X165745350Y-117939486D01*
X165935000Y-116986055D01*
X165935000Y-116013945D01*
X165745350Y-115060514D01*
X165373340Y-114162401D01*
X164833265Y-113354121D01*
X164145879Y-112666735D01*
X163337599Y-112126660D01*
X162439486Y-111754650D01*
X161486055Y-111565000D01*
X160513945Y-111565000D01*
X159560514Y-111754650D01*
X158662401Y-112126660D01*
X157854121Y-112666735D01*
X157166735Y-113354121D01*
X156626660Y-114162401D01*
X156254650Y-115060514D01*
X156065000Y-116013945D01*
X132935000Y-116013945D01*
X132745350Y-115060514D01*
X132373340Y-114162401D01*
X131833265Y-113354121D01*
X131145879Y-112666735D01*
X130337599Y-112126660D01*
X129439486Y-111754650D01*
X128486055Y-111565000D01*
X127513945Y-111565000D01*
X126560514Y-111754650D01*
X125662401Y-112126660D01*
X124854121Y-112666735D01*
X124166735Y-113354121D01*
X123626660Y-114162401D01*
X123254650Y-115060514D01*
X123065000Y-116013945D01*
X122185000Y-116013945D01*
X122185000Y-48966353D01*
X122175088Y-48865717D01*
X122172446Y-48857007D01*
X122231439Y-48063158D01*
X122355713Y-47513945D01*
X123065000Y-47513945D01*
X123065000Y-48486055D01*
X123254650Y-49439486D01*
X123626660Y-50337599D01*
X124166735Y-51145879D01*
X124854121Y-51833265D01*
X125662401Y-52373340D01*
X126560514Y-52745350D01*
X127513945Y-52935000D01*
X128486055Y-52935000D01*
X129439486Y-52745350D01*
X130337599Y-52373340D01*
X131145879Y-51833265D01*
X131833265Y-51145879D01*
X132373340Y-50337599D01*
X132745350Y-49439486D01*
X132935000Y-48486055D01*
X132935000Y-47513945D01*
X156065000Y-47513945D01*
X156065000Y-48486055D01*
X156254650Y-49439486D01*
X156626660Y-50337599D01*
X157166735Y-51145879D01*
X157854121Y-51833265D01*
X158662401Y-52373340D01*
X159560514Y-52745350D01*
X160513945Y-52935000D01*
X161486055Y-52935000D01*
X162439486Y-52745350D01*
X163337599Y-52373340D01*
X164145879Y-51833265D01*
X164833265Y-51145879D01*
X165373340Y-50337599D01*
X165745350Y-49439486D01*
X165935000Y-48486055D01*
X165935000Y-47513945D01*
X165745350Y-46560514D01*
X165373340Y-45662401D01*
X164833265Y-44854121D01*
X164145879Y-44166735D01*
X163337599Y-43626660D01*
X162439486Y-43254650D01*
X161486055Y-43065000D01*
X160513945Y-43065000D01*
X159560514Y-43254650D01*
X158662401Y-43626660D01*
X157854121Y-44166735D01*
X157166735Y-44854121D01*
X156626660Y-45662401D01*
X156254650Y-46560514D01*
X156065000Y-47513945D01*
X132935000Y-47513945D01*
X132745350Y-46560514D01*
X132373340Y-45662401D01*
X131833265Y-44854121D01*
X131145879Y-44166735D01*
X130337599Y-43626660D01*
X129439486Y-43254650D01*
X128486055Y-43065000D01*
X127513945Y-43065000D01*
X126560514Y-43254650D01*
X125662401Y-43626660D01*
X124854121Y-44166735D01*
X124166735Y-44854121D01*
X123626660Y-45662401D01*
X123254650Y-46560514D01*
X123065000Y-47513945D01*
X122355713Y-47513945D01*
X122438769Y-47146894D01*
X122779252Y-46271343D01*
X123245410Y-45455735D01*
X123827005Y-44717986D01*
X124511251Y-44074311D01*
X125283129Y-43538840D01*
X126125677Y-43123341D01*
X127020376Y-42836946D01*
X127957579Y-42684311D01*
X128340945Y-42667573D01*
X128365717Y-42675088D01*
%TD*%
M02*
