%TF.GenerationSoftware,KiCad,Pcbnew,(5.1.6)-1*%
%TF.CreationDate,2020-10-09T05:29:33-04:00*%
%TF.ProjectId,RFID_PROJECT_3-WAY-SPLITTER,52464944-5f50-4524-9f4a-4543545f332d,B*%
%TF.SameCoordinates,Original*%
%TF.FileFunction,Copper,L1,Top*%
%TF.FilePolarity,Positive*%
%FSLAX46Y46*%
G04 Gerber Fmt 4.6, Leading zero omitted, Abs format (unit mm)*
G04 Created by KiCad (PCBNEW (5.1.6)-1) date 2020-10-09 05:29:33*
%MOMM*%
%LPD*%
G01*
G04 APERTURE LIST*
%TA.AperFunction,ComponentPad*%
%ADD10C,0.900000*%
%TD*%
%TA.AperFunction,ComponentPad*%
%ADD11C,8.600000*%
%TD*%
%TA.AperFunction,SMDPad,CuDef*%
%ADD12R,1.070000X0.600000*%
%TD*%
%TA.AperFunction,SMDPad,CuDef*%
%ADD13R,4.200000X1.350000*%
%TD*%
%TA.AperFunction,SMDPad,CuDef*%
%ADD14R,3.600000X1.270000*%
%TD*%
%TA.AperFunction,ViaPad*%
%ADD15C,1.000000*%
%TD*%
%TA.AperFunction,Conductor*%
%ADD16C,0.293370*%
%TD*%
%TA.AperFunction,Conductor*%
%ADD17C,0.254000*%
%TD*%
G04 APERTURE END LIST*
D10*
%TO.P,H4,1*%
%TO.N,N/C*%
X163280419Y-114219581D03*
X161000000Y-113275000D03*
X158719581Y-114219581D03*
X157775000Y-116500000D03*
X158719581Y-118780419D03*
X161000000Y-119725000D03*
X163280419Y-118780419D03*
X164225000Y-116500000D03*
D11*
X161000000Y-116500000D03*
%TD*%
D10*
%TO.P,H3,1*%
%TO.N,N/C*%
X130280419Y-114219581D03*
X128000000Y-113275000D03*
X125719581Y-114219581D03*
X124775000Y-116500000D03*
X125719581Y-118780419D03*
X128000000Y-119725000D03*
X130280419Y-118780419D03*
X131225000Y-116500000D03*
D11*
X128000000Y-116500000D03*
%TD*%
D10*
%TO.P,H2,1*%
%TO.N,N/C*%
X163280419Y-45719581D03*
X161000000Y-44775000D03*
X158719581Y-45719581D03*
X157775000Y-48000000D03*
X158719581Y-50280419D03*
X161000000Y-51225000D03*
X163280419Y-50280419D03*
X164225000Y-48000000D03*
D11*
X161000000Y-48000000D03*
%TD*%
D10*
%TO.P,H1,1*%
%TO.N,N/C*%
X130280419Y-45719581D03*
X128000000Y-44775000D03*
X125719581Y-45719581D03*
X124775000Y-48000000D03*
X125719581Y-50280419D03*
X128000000Y-51225000D03*
X130280419Y-50280419D03*
X131225000Y-48000000D03*
D11*
X128000000Y-48000000D03*
%TD*%
D12*
%TO.P,U1,6*%
%TO.N,Net-(J2-Pad1)*%
X148177501Y-81070000D03*
%TO.P,U1,1*%
%TO.N,GND*%
X146127501Y-81080000D03*
%TO.P,U1,5*%
%TO.N,Net-(J3-Pad1)*%
X148177501Y-82060000D03*
%TO.P,U1,2*%
%TO.N,Net-(J1-Pad1)*%
X146127501Y-82070000D03*
%TO.P,U1,4*%
%TO.N,Net-(J4-Pad1)*%
X148177501Y-83050000D03*
%TO.P,U1,3*%
%TO.N,GND*%
X146127501Y-83060000D03*
%TD*%
D13*
%TO.P,J1,2*%
%TO.N,GND*%
X124500000Y-79175000D03*
X124500000Y-84825000D03*
D14*
%TO.P,J1,1*%
%TO.N,Net-(J1-Pad1)*%
X124300000Y-82000000D03*
%TD*%
%TO.P,J2,1*%
%TO.N,Net-(J2-Pad1)*%
X171230001Y-54500000D03*
D13*
%TO.P,J2,2*%
%TO.N,GND*%
X171030001Y-51675000D03*
X171030001Y-57325000D03*
%TD*%
%TO.P,J3,2*%
%TO.N,GND*%
X171030001Y-84825000D03*
X171030001Y-79175000D03*
D14*
%TO.P,J3,1*%
%TO.N,Net-(J3-Pad1)*%
X171230001Y-82000000D03*
%TD*%
%TO.P,J4,1*%
%TO.N,Net-(J4-Pad1)*%
X171230001Y-110500000D03*
D13*
%TO.P,J4,2*%
%TO.N,GND*%
X171030001Y-107675000D03*
X171030001Y-113325000D03*
%TD*%
D15*
%TO.N,GND*%
X133000000Y-53500000D03*
X156000000Y-53500000D03*
X155000000Y-111500000D03*
X133000000Y-111500000D03*
%TD*%
D16*
%TO.N,Net-(J1-Pad1)*%
X124370000Y-82070000D02*
X124300000Y-82000000D01*
X146127501Y-82070000D02*
X124370000Y-82070000D01*
%TO.N,Net-(J2-Pad1)*%
X169136631Y-54500000D02*
X171230001Y-54500000D01*
X148177501Y-75459130D02*
X169136631Y-54500000D01*
X148177501Y-81070000D02*
X148177501Y-75459130D01*
%TO.N,Net-(J3-Pad1)*%
X171170001Y-82060000D02*
X171230001Y-82000000D01*
X148177501Y-82060000D02*
X171170001Y-82060000D01*
%TO.N,Net-(J4-Pad1)*%
X148177501Y-83000000D02*
X148177501Y-88677501D01*
X169000000Y-110500000D02*
X171230001Y-110500000D01*
X148177501Y-88677501D02*
X169000000Y-110500000D01*
%TD*%
D17*
%TO.N,GND*%
G36*
X145116251Y-82933000D02*
G01*
X145298740Y-82933000D01*
X145348321Y-82959502D01*
X145468019Y-82995812D01*
X145592501Y-83008072D01*
X146274501Y-83008072D01*
X146274501Y-83187000D01*
X146254501Y-83187000D01*
X146254501Y-83836250D01*
X146413251Y-83995000D01*
X146662501Y-83998072D01*
X146786983Y-83985812D01*
X146906681Y-83949502D01*
X147016995Y-83890537D01*
X147113686Y-83811185D01*
X147156604Y-83758889D01*
X147191316Y-83801185D01*
X147288007Y-83880537D01*
X147395816Y-83938163D01*
X147395817Y-88629904D01*
X147392250Y-88659088D01*
X147395817Y-88706731D01*
X147395817Y-88715899D01*
X147398679Y-88744952D01*
X147403746Y-88812636D01*
X147406223Y-88821548D01*
X147407128Y-88830738D01*
X147426810Y-88895623D01*
X147444978Y-88960991D01*
X147449142Y-88969240D01*
X147451825Y-88978086D01*
X147483800Y-89037907D01*
X147514359Y-89098452D01*
X147520053Y-89105732D01*
X147524410Y-89113883D01*
X147567434Y-89166307D01*
X147585453Y-89189345D01*
X147591794Y-89195990D01*
X147622093Y-89232910D01*
X147644813Y-89251556D01*
X168414285Y-111018481D01*
X168444591Y-111055409D01*
X168497033Y-111098447D01*
X168548427Y-111142682D01*
X168556473Y-111147228D01*
X168563618Y-111153092D01*
X168623448Y-111185072D01*
X168682485Y-111218430D01*
X168691261Y-111221318D01*
X168699415Y-111225677D01*
X168764332Y-111245369D01*
X168804088Y-111258454D01*
X168804189Y-111259482D01*
X168840499Y-111379180D01*
X168899464Y-111489494D01*
X168978816Y-111586185D01*
X169075507Y-111665537D01*
X169185821Y-111724502D01*
X169305519Y-111760812D01*
X169430001Y-111773072D01*
X173030001Y-111773072D01*
X173154483Y-111760812D01*
X173274181Y-111724502D01*
X173315001Y-111702683D01*
X173315001Y-112042546D01*
X173254483Y-112024188D01*
X173130001Y-112011928D01*
X171315751Y-112015000D01*
X171157001Y-112173750D01*
X171157001Y-113198000D01*
X171177001Y-113198000D01*
X171177001Y-113452000D01*
X171157001Y-113452000D01*
X171157001Y-114476250D01*
X171315751Y-114635000D01*
X173130001Y-114638072D01*
X173254483Y-114625812D01*
X173315001Y-114607454D01*
X173315001Y-116533647D01*
X173324913Y-116634283D01*
X173327554Y-116642990D01*
X173268561Y-117436841D01*
X173061231Y-118353106D01*
X172720748Y-119228657D01*
X172254590Y-120044265D01*
X171672995Y-120782014D01*
X170988749Y-121425689D01*
X170216871Y-121961160D01*
X169374323Y-122376659D01*
X168479624Y-122663054D01*
X167542414Y-122815689D01*
X167159055Y-122832427D01*
X167134283Y-122824912D01*
X167033647Y-122815000D01*
X128466353Y-122815000D01*
X128365717Y-122824912D01*
X128357007Y-122827554D01*
X127563159Y-122768561D01*
X126646894Y-122561231D01*
X125771343Y-122220748D01*
X124955735Y-121754590D01*
X124217986Y-121172995D01*
X123574311Y-120488749D01*
X123038840Y-119716871D01*
X122623341Y-118874323D01*
X122336946Y-117979624D01*
X122184311Y-117042414D01*
X122167573Y-116659055D01*
X122175088Y-116634283D01*
X122185000Y-116533647D01*
X122185000Y-116013945D01*
X123065000Y-116013945D01*
X123065000Y-116986055D01*
X123254650Y-117939486D01*
X123626660Y-118837599D01*
X124166735Y-119645879D01*
X124854121Y-120333265D01*
X125662401Y-120873340D01*
X126560514Y-121245350D01*
X127513945Y-121435000D01*
X128486055Y-121435000D01*
X129439486Y-121245350D01*
X130337599Y-120873340D01*
X131145879Y-120333265D01*
X131833265Y-119645879D01*
X132373340Y-118837599D01*
X132745350Y-117939486D01*
X132935000Y-116986055D01*
X132935000Y-116013945D01*
X156065000Y-116013945D01*
X156065000Y-116986055D01*
X156254650Y-117939486D01*
X156626660Y-118837599D01*
X157166735Y-119645879D01*
X157854121Y-120333265D01*
X158662401Y-120873340D01*
X159560514Y-121245350D01*
X160513945Y-121435000D01*
X161486055Y-121435000D01*
X162439486Y-121245350D01*
X163337599Y-120873340D01*
X164145879Y-120333265D01*
X164833265Y-119645879D01*
X165373340Y-118837599D01*
X165745350Y-117939486D01*
X165935000Y-116986055D01*
X165935000Y-116013945D01*
X165745350Y-115060514D01*
X165373340Y-114162401D01*
X165264828Y-114000000D01*
X168291929Y-114000000D01*
X168304189Y-114124482D01*
X168340499Y-114244180D01*
X168399464Y-114354494D01*
X168478816Y-114451185D01*
X168575507Y-114530537D01*
X168685821Y-114589502D01*
X168805519Y-114625812D01*
X168930001Y-114638072D01*
X170744251Y-114635000D01*
X170903001Y-114476250D01*
X170903001Y-113452000D01*
X168453751Y-113452000D01*
X168295001Y-113610750D01*
X168291929Y-114000000D01*
X165264828Y-114000000D01*
X164833265Y-113354121D01*
X164145879Y-112666735D01*
X164120834Y-112650000D01*
X168291929Y-112650000D01*
X168295001Y-113039250D01*
X168453751Y-113198000D01*
X170903001Y-113198000D01*
X170903001Y-112173750D01*
X170744251Y-112015000D01*
X168930001Y-112011928D01*
X168805519Y-112024188D01*
X168685821Y-112060498D01*
X168575507Y-112119463D01*
X168478816Y-112198815D01*
X168399464Y-112295506D01*
X168340499Y-112405820D01*
X168304189Y-112525518D01*
X168291929Y-112650000D01*
X164120834Y-112650000D01*
X163337599Y-112126660D01*
X162439486Y-111754650D01*
X161486055Y-111565000D01*
X160513945Y-111565000D01*
X159560514Y-111754650D01*
X158662401Y-112126660D01*
X157854121Y-112666735D01*
X157166735Y-113354121D01*
X156626660Y-114162401D01*
X156254650Y-115060514D01*
X156065000Y-116013945D01*
X132935000Y-116013945D01*
X132745350Y-115060514D01*
X132373340Y-114162401D01*
X131833265Y-113354121D01*
X131145879Y-112666735D01*
X130337599Y-112126660D01*
X129439486Y-111754650D01*
X128486055Y-111565000D01*
X127513945Y-111565000D01*
X126560514Y-111754650D01*
X125662401Y-112126660D01*
X124854121Y-112666735D01*
X124166735Y-113354121D01*
X123626660Y-114162401D01*
X123254650Y-115060514D01*
X123065000Y-116013945D01*
X122185000Y-116013945D01*
X122185000Y-86098354D01*
X122275518Y-86125812D01*
X122400000Y-86138072D01*
X124214250Y-86135000D01*
X124373000Y-85976250D01*
X124373000Y-84952000D01*
X124627000Y-84952000D01*
X124627000Y-85976250D01*
X124785750Y-86135000D01*
X126600000Y-86138072D01*
X126724482Y-86125812D01*
X126844180Y-86089502D01*
X126954494Y-86030537D01*
X127051185Y-85951185D01*
X127130537Y-85854494D01*
X127189502Y-85744180D01*
X127225812Y-85624482D01*
X127238072Y-85500000D01*
X127235000Y-85110750D01*
X127076250Y-84952000D01*
X124627000Y-84952000D01*
X124373000Y-84952000D01*
X124353000Y-84952000D01*
X124353000Y-84698000D01*
X124373000Y-84698000D01*
X124373000Y-83673750D01*
X124627000Y-83673750D01*
X124627000Y-84698000D01*
X127076250Y-84698000D01*
X127235000Y-84539250D01*
X127238072Y-84150000D01*
X127225812Y-84025518D01*
X127189502Y-83905820D01*
X127130537Y-83795506D01*
X127051185Y-83698815D01*
X126954494Y-83619463D01*
X126844180Y-83560498D01*
X126724482Y-83524188D01*
X126600000Y-83511928D01*
X124785750Y-83515000D01*
X124627000Y-83673750D01*
X124373000Y-83673750D01*
X124214250Y-83515000D01*
X122400000Y-83511928D01*
X122275518Y-83524188D01*
X122185000Y-83551646D01*
X122185000Y-83360000D01*
X144954429Y-83360000D01*
X144966689Y-83484482D01*
X145002999Y-83604180D01*
X145061964Y-83714494D01*
X145141316Y-83811185D01*
X145238007Y-83890537D01*
X145348321Y-83949502D01*
X145468019Y-83985812D01*
X145592501Y-83998072D01*
X145841751Y-83995000D01*
X146000501Y-83836250D01*
X146000501Y-83187000D01*
X145116251Y-83187000D01*
X144957501Y-83345750D01*
X144954429Y-83360000D01*
X122185000Y-83360000D01*
X122185000Y-83186647D01*
X122255820Y-83224502D01*
X122375518Y-83260812D01*
X122500000Y-83273072D01*
X126100000Y-83273072D01*
X126224482Y-83260812D01*
X126344180Y-83224502D01*
X126454494Y-83165537D01*
X126551185Y-83086185D01*
X126630537Y-82989494D01*
X126689502Y-82879180D01*
X126697843Y-82851685D01*
X145034936Y-82851685D01*
X145116251Y-82933000D01*
G37*
X145116251Y-82933000D02*
X145298740Y-82933000D01*
X145348321Y-82959502D01*
X145468019Y-82995812D01*
X145592501Y-83008072D01*
X146274501Y-83008072D01*
X146274501Y-83187000D01*
X146254501Y-83187000D01*
X146254501Y-83836250D01*
X146413251Y-83995000D01*
X146662501Y-83998072D01*
X146786983Y-83985812D01*
X146906681Y-83949502D01*
X147016995Y-83890537D01*
X147113686Y-83811185D01*
X147156604Y-83758889D01*
X147191316Y-83801185D01*
X147288007Y-83880537D01*
X147395816Y-83938163D01*
X147395817Y-88629904D01*
X147392250Y-88659088D01*
X147395817Y-88706731D01*
X147395817Y-88715899D01*
X147398679Y-88744952D01*
X147403746Y-88812636D01*
X147406223Y-88821548D01*
X147407128Y-88830738D01*
X147426810Y-88895623D01*
X147444978Y-88960991D01*
X147449142Y-88969240D01*
X147451825Y-88978086D01*
X147483800Y-89037907D01*
X147514359Y-89098452D01*
X147520053Y-89105732D01*
X147524410Y-89113883D01*
X147567434Y-89166307D01*
X147585453Y-89189345D01*
X147591794Y-89195990D01*
X147622093Y-89232910D01*
X147644813Y-89251556D01*
X168414285Y-111018481D01*
X168444591Y-111055409D01*
X168497033Y-111098447D01*
X168548427Y-111142682D01*
X168556473Y-111147228D01*
X168563618Y-111153092D01*
X168623448Y-111185072D01*
X168682485Y-111218430D01*
X168691261Y-111221318D01*
X168699415Y-111225677D01*
X168764332Y-111245369D01*
X168804088Y-111258454D01*
X168804189Y-111259482D01*
X168840499Y-111379180D01*
X168899464Y-111489494D01*
X168978816Y-111586185D01*
X169075507Y-111665537D01*
X169185821Y-111724502D01*
X169305519Y-111760812D01*
X169430001Y-111773072D01*
X173030001Y-111773072D01*
X173154483Y-111760812D01*
X173274181Y-111724502D01*
X173315001Y-111702683D01*
X173315001Y-112042546D01*
X173254483Y-112024188D01*
X173130001Y-112011928D01*
X171315751Y-112015000D01*
X171157001Y-112173750D01*
X171157001Y-113198000D01*
X171177001Y-113198000D01*
X171177001Y-113452000D01*
X171157001Y-113452000D01*
X171157001Y-114476250D01*
X171315751Y-114635000D01*
X173130001Y-114638072D01*
X173254483Y-114625812D01*
X173315001Y-114607454D01*
X173315001Y-116533647D01*
X173324913Y-116634283D01*
X173327554Y-116642990D01*
X173268561Y-117436841D01*
X173061231Y-118353106D01*
X172720748Y-119228657D01*
X172254590Y-120044265D01*
X171672995Y-120782014D01*
X170988749Y-121425689D01*
X170216871Y-121961160D01*
X169374323Y-122376659D01*
X168479624Y-122663054D01*
X167542414Y-122815689D01*
X167159055Y-122832427D01*
X167134283Y-122824912D01*
X167033647Y-122815000D01*
X128466353Y-122815000D01*
X128365717Y-122824912D01*
X128357007Y-122827554D01*
X127563159Y-122768561D01*
X126646894Y-122561231D01*
X125771343Y-122220748D01*
X124955735Y-121754590D01*
X124217986Y-121172995D01*
X123574311Y-120488749D01*
X123038840Y-119716871D01*
X122623341Y-118874323D01*
X122336946Y-117979624D01*
X122184311Y-117042414D01*
X122167573Y-116659055D01*
X122175088Y-116634283D01*
X122185000Y-116533647D01*
X122185000Y-116013945D01*
X123065000Y-116013945D01*
X123065000Y-116986055D01*
X123254650Y-117939486D01*
X123626660Y-118837599D01*
X124166735Y-119645879D01*
X124854121Y-120333265D01*
X125662401Y-120873340D01*
X126560514Y-121245350D01*
X127513945Y-121435000D01*
X128486055Y-121435000D01*
X129439486Y-121245350D01*
X130337599Y-120873340D01*
X131145879Y-120333265D01*
X131833265Y-119645879D01*
X132373340Y-118837599D01*
X132745350Y-117939486D01*
X132935000Y-116986055D01*
X132935000Y-116013945D01*
X156065000Y-116013945D01*
X156065000Y-116986055D01*
X156254650Y-117939486D01*
X156626660Y-118837599D01*
X157166735Y-119645879D01*
X157854121Y-120333265D01*
X158662401Y-120873340D01*
X159560514Y-121245350D01*
X160513945Y-121435000D01*
X161486055Y-121435000D01*
X162439486Y-121245350D01*
X163337599Y-120873340D01*
X164145879Y-120333265D01*
X164833265Y-119645879D01*
X165373340Y-118837599D01*
X165745350Y-117939486D01*
X165935000Y-116986055D01*
X165935000Y-116013945D01*
X165745350Y-115060514D01*
X165373340Y-114162401D01*
X165264828Y-114000000D01*
X168291929Y-114000000D01*
X168304189Y-114124482D01*
X168340499Y-114244180D01*
X168399464Y-114354494D01*
X168478816Y-114451185D01*
X168575507Y-114530537D01*
X168685821Y-114589502D01*
X168805519Y-114625812D01*
X168930001Y-114638072D01*
X170744251Y-114635000D01*
X170903001Y-114476250D01*
X170903001Y-113452000D01*
X168453751Y-113452000D01*
X168295001Y-113610750D01*
X168291929Y-114000000D01*
X165264828Y-114000000D01*
X164833265Y-113354121D01*
X164145879Y-112666735D01*
X164120834Y-112650000D01*
X168291929Y-112650000D01*
X168295001Y-113039250D01*
X168453751Y-113198000D01*
X170903001Y-113198000D01*
X170903001Y-112173750D01*
X170744251Y-112015000D01*
X168930001Y-112011928D01*
X168805519Y-112024188D01*
X168685821Y-112060498D01*
X168575507Y-112119463D01*
X168478816Y-112198815D01*
X168399464Y-112295506D01*
X168340499Y-112405820D01*
X168304189Y-112525518D01*
X168291929Y-112650000D01*
X164120834Y-112650000D01*
X163337599Y-112126660D01*
X162439486Y-111754650D01*
X161486055Y-111565000D01*
X160513945Y-111565000D01*
X159560514Y-111754650D01*
X158662401Y-112126660D01*
X157854121Y-112666735D01*
X157166735Y-113354121D01*
X156626660Y-114162401D01*
X156254650Y-115060514D01*
X156065000Y-116013945D01*
X132935000Y-116013945D01*
X132745350Y-115060514D01*
X132373340Y-114162401D01*
X131833265Y-113354121D01*
X131145879Y-112666735D01*
X130337599Y-112126660D01*
X129439486Y-111754650D01*
X128486055Y-111565000D01*
X127513945Y-111565000D01*
X126560514Y-111754650D01*
X125662401Y-112126660D01*
X124854121Y-112666735D01*
X124166735Y-113354121D01*
X123626660Y-114162401D01*
X123254650Y-115060514D01*
X123065000Y-116013945D01*
X122185000Y-116013945D01*
X122185000Y-86098354D01*
X122275518Y-86125812D01*
X122400000Y-86138072D01*
X124214250Y-86135000D01*
X124373000Y-85976250D01*
X124373000Y-84952000D01*
X124627000Y-84952000D01*
X124627000Y-85976250D01*
X124785750Y-86135000D01*
X126600000Y-86138072D01*
X126724482Y-86125812D01*
X126844180Y-86089502D01*
X126954494Y-86030537D01*
X127051185Y-85951185D01*
X127130537Y-85854494D01*
X127189502Y-85744180D01*
X127225812Y-85624482D01*
X127238072Y-85500000D01*
X127235000Y-85110750D01*
X127076250Y-84952000D01*
X124627000Y-84952000D01*
X124373000Y-84952000D01*
X124353000Y-84952000D01*
X124353000Y-84698000D01*
X124373000Y-84698000D01*
X124373000Y-83673750D01*
X124627000Y-83673750D01*
X124627000Y-84698000D01*
X127076250Y-84698000D01*
X127235000Y-84539250D01*
X127238072Y-84150000D01*
X127225812Y-84025518D01*
X127189502Y-83905820D01*
X127130537Y-83795506D01*
X127051185Y-83698815D01*
X126954494Y-83619463D01*
X126844180Y-83560498D01*
X126724482Y-83524188D01*
X126600000Y-83511928D01*
X124785750Y-83515000D01*
X124627000Y-83673750D01*
X124373000Y-83673750D01*
X124214250Y-83515000D01*
X122400000Y-83511928D01*
X122275518Y-83524188D01*
X122185000Y-83551646D01*
X122185000Y-83360000D01*
X144954429Y-83360000D01*
X144966689Y-83484482D01*
X145002999Y-83604180D01*
X145061964Y-83714494D01*
X145141316Y-83811185D01*
X145238007Y-83890537D01*
X145348321Y-83949502D01*
X145468019Y-83985812D01*
X145592501Y-83998072D01*
X145841751Y-83995000D01*
X146000501Y-83836250D01*
X146000501Y-83187000D01*
X145116251Y-83187000D01*
X144957501Y-83345750D01*
X144954429Y-83360000D01*
X122185000Y-83360000D01*
X122185000Y-83186647D01*
X122255820Y-83224502D01*
X122375518Y-83260812D01*
X122500000Y-83273072D01*
X126100000Y-83273072D01*
X126224482Y-83260812D01*
X126344180Y-83224502D01*
X126454494Y-83165537D01*
X126551185Y-83086185D01*
X126630537Y-82989494D01*
X126689502Y-82879180D01*
X126697843Y-82851685D01*
X145034936Y-82851685D01*
X145116251Y-82933000D01*
G36*
X168840499Y-82879180D02*
G01*
X168899464Y-82989494D01*
X168978816Y-83086185D01*
X169075507Y-83165537D01*
X169185821Y-83224502D01*
X169305519Y-83260812D01*
X169430001Y-83273072D01*
X173030001Y-83273072D01*
X173154483Y-83260812D01*
X173274181Y-83224502D01*
X173315001Y-83202683D01*
X173315001Y-83542546D01*
X173254483Y-83524188D01*
X173130001Y-83511928D01*
X171315751Y-83515000D01*
X171157001Y-83673750D01*
X171157001Y-84698000D01*
X171177001Y-84698000D01*
X171177001Y-84952000D01*
X171157001Y-84952000D01*
X171157001Y-85976250D01*
X171315751Y-86135000D01*
X173130001Y-86138072D01*
X173254483Y-86125812D01*
X173315001Y-86107454D01*
X173315001Y-106392546D01*
X173254483Y-106374188D01*
X173130001Y-106361928D01*
X171315751Y-106365000D01*
X171157001Y-106523750D01*
X171157001Y-107548000D01*
X171177001Y-107548000D01*
X171177001Y-107802000D01*
X171157001Y-107802000D01*
X171157001Y-108826250D01*
X171315751Y-108985000D01*
X173130001Y-108988072D01*
X173254483Y-108975812D01*
X173315001Y-108957454D01*
X173315001Y-109297317D01*
X173274181Y-109275498D01*
X173154483Y-109239188D01*
X173030001Y-109226928D01*
X169430001Y-109226928D01*
X169305519Y-109239188D01*
X169185821Y-109275498D01*
X169075507Y-109334463D01*
X169015388Y-109383801D01*
X168028961Y-108350000D01*
X168291929Y-108350000D01*
X168304189Y-108474482D01*
X168340499Y-108594180D01*
X168399464Y-108704494D01*
X168478816Y-108801185D01*
X168575507Y-108880537D01*
X168685821Y-108939502D01*
X168805519Y-108975812D01*
X168930001Y-108988072D01*
X170744251Y-108985000D01*
X170903001Y-108826250D01*
X170903001Y-107802000D01*
X168453751Y-107802000D01*
X168295001Y-107960750D01*
X168291929Y-108350000D01*
X168028961Y-108350000D01*
X166740824Y-107000000D01*
X168291929Y-107000000D01*
X168295001Y-107389250D01*
X168453751Y-107548000D01*
X170903001Y-107548000D01*
X170903001Y-106523750D01*
X170744251Y-106365000D01*
X168930001Y-106361928D01*
X168805519Y-106374188D01*
X168685821Y-106410498D01*
X168575507Y-106469463D01*
X168478816Y-106548815D01*
X168399464Y-106645506D01*
X168340499Y-106755820D01*
X168304189Y-106875518D01*
X168291929Y-107000000D01*
X166740824Y-107000000D01*
X148959186Y-88364401D01*
X148959186Y-85500000D01*
X168291929Y-85500000D01*
X168304189Y-85624482D01*
X168340499Y-85744180D01*
X168399464Y-85854494D01*
X168478816Y-85951185D01*
X168575507Y-86030537D01*
X168685821Y-86089502D01*
X168805519Y-86125812D01*
X168930001Y-86138072D01*
X170744251Y-86135000D01*
X170903001Y-85976250D01*
X170903001Y-84952000D01*
X168453751Y-84952000D01*
X168295001Y-85110750D01*
X168291929Y-85500000D01*
X148959186Y-85500000D01*
X148959186Y-84150000D01*
X168291929Y-84150000D01*
X168295001Y-84539250D01*
X168453751Y-84698000D01*
X170903001Y-84698000D01*
X170903001Y-83673750D01*
X170744251Y-83515000D01*
X168930001Y-83511928D01*
X168805519Y-83524188D01*
X168685821Y-83560498D01*
X168575507Y-83619463D01*
X168478816Y-83698815D01*
X168399464Y-83795506D01*
X168340499Y-83905820D01*
X168304189Y-84025518D01*
X168291929Y-84150000D01*
X148959186Y-84150000D01*
X148959186Y-83938163D01*
X149066995Y-83880537D01*
X149163686Y-83801185D01*
X149243038Y-83704494D01*
X149302003Y-83594180D01*
X149338313Y-83474482D01*
X149350573Y-83350000D01*
X149350573Y-82841685D01*
X168829125Y-82841685D01*
X168840499Y-82879180D01*
G37*
X168840499Y-82879180D02*
X168899464Y-82989494D01*
X168978816Y-83086185D01*
X169075507Y-83165537D01*
X169185821Y-83224502D01*
X169305519Y-83260812D01*
X169430001Y-83273072D01*
X173030001Y-83273072D01*
X173154483Y-83260812D01*
X173274181Y-83224502D01*
X173315001Y-83202683D01*
X173315001Y-83542546D01*
X173254483Y-83524188D01*
X173130001Y-83511928D01*
X171315751Y-83515000D01*
X171157001Y-83673750D01*
X171157001Y-84698000D01*
X171177001Y-84698000D01*
X171177001Y-84952000D01*
X171157001Y-84952000D01*
X171157001Y-85976250D01*
X171315751Y-86135000D01*
X173130001Y-86138072D01*
X173254483Y-86125812D01*
X173315001Y-86107454D01*
X173315001Y-106392546D01*
X173254483Y-106374188D01*
X173130001Y-106361928D01*
X171315751Y-106365000D01*
X171157001Y-106523750D01*
X171157001Y-107548000D01*
X171177001Y-107548000D01*
X171177001Y-107802000D01*
X171157001Y-107802000D01*
X171157001Y-108826250D01*
X171315751Y-108985000D01*
X173130001Y-108988072D01*
X173254483Y-108975812D01*
X173315001Y-108957454D01*
X173315001Y-109297317D01*
X173274181Y-109275498D01*
X173154483Y-109239188D01*
X173030001Y-109226928D01*
X169430001Y-109226928D01*
X169305519Y-109239188D01*
X169185821Y-109275498D01*
X169075507Y-109334463D01*
X169015388Y-109383801D01*
X168028961Y-108350000D01*
X168291929Y-108350000D01*
X168304189Y-108474482D01*
X168340499Y-108594180D01*
X168399464Y-108704494D01*
X168478816Y-108801185D01*
X168575507Y-108880537D01*
X168685821Y-108939502D01*
X168805519Y-108975812D01*
X168930001Y-108988072D01*
X170744251Y-108985000D01*
X170903001Y-108826250D01*
X170903001Y-107802000D01*
X168453751Y-107802000D01*
X168295001Y-107960750D01*
X168291929Y-108350000D01*
X168028961Y-108350000D01*
X166740824Y-107000000D01*
X168291929Y-107000000D01*
X168295001Y-107389250D01*
X168453751Y-107548000D01*
X170903001Y-107548000D01*
X170903001Y-106523750D01*
X170744251Y-106365000D01*
X168930001Y-106361928D01*
X168805519Y-106374188D01*
X168685821Y-106410498D01*
X168575507Y-106469463D01*
X168478816Y-106548815D01*
X168399464Y-106645506D01*
X168340499Y-106755820D01*
X168304189Y-106875518D01*
X168291929Y-107000000D01*
X166740824Y-107000000D01*
X148959186Y-88364401D01*
X148959186Y-85500000D01*
X168291929Y-85500000D01*
X168304189Y-85624482D01*
X168340499Y-85744180D01*
X168399464Y-85854494D01*
X168478816Y-85951185D01*
X168575507Y-86030537D01*
X168685821Y-86089502D01*
X168805519Y-86125812D01*
X168930001Y-86138072D01*
X170744251Y-86135000D01*
X170903001Y-85976250D01*
X170903001Y-84952000D01*
X168453751Y-84952000D01*
X168295001Y-85110750D01*
X168291929Y-85500000D01*
X148959186Y-85500000D01*
X148959186Y-84150000D01*
X168291929Y-84150000D01*
X168295001Y-84539250D01*
X168453751Y-84698000D01*
X170903001Y-84698000D01*
X170903001Y-83673750D01*
X170744251Y-83515000D01*
X168930001Y-83511928D01*
X168805519Y-83524188D01*
X168685821Y-83560498D01*
X168575507Y-83619463D01*
X168478816Y-83698815D01*
X168399464Y-83795506D01*
X168340499Y-83905820D01*
X168304189Y-84025518D01*
X168291929Y-84150000D01*
X148959186Y-84150000D01*
X148959186Y-83938163D01*
X149066995Y-83880537D01*
X149163686Y-83801185D01*
X149243038Y-83704494D01*
X149302003Y-83594180D01*
X149338313Y-83474482D01*
X149350573Y-83350000D01*
X149350573Y-82841685D01*
X168829125Y-82841685D01*
X168840499Y-82879180D01*
G36*
X128365717Y-42675088D02*
G01*
X128466353Y-42685000D01*
X167033647Y-42685000D01*
X167134283Y-42675088D01*
X167142993Y-42672446D01*
X167936842Y-42731439D01*
X168853106Y-42938769D01*
X169728657Y-43279252D01*
X170544265Y-43745410D01*
X171282014Y-44327005D01*
X171925689Y-45011251D01*
X172461160Y-45783129D01*
X172876659Y-46625677D01*
X173163054Y-47520376D01*
X173315689Y-48457579D01*
X173332427Y-48840946D01*
X173324912Y-48865718D01*
X173315000Y-48966354D01*
X173315000Y-50392546D01*
X173254483Y-50374188D01*
X173130001Y-50361928D01*
X171315751Y-50365000D01*
X171157001Y-50523750D01*
X171157001Y-51548000D01*
X171177001Y-51548000D01*
X171177001Y-51802000D01*
X171157001Y-51802000D01*
X171157001Y-52826250D01*
X171315751Y-52985000D01*
X173130001Y-52988072D01*
X173254483Y-52975812D01*
X173315000Y-52957454D01*
X173315000Y-53297317D01*
X173274181Y-53275498D01*
X173154483Y-53239188D01*
X173030001Y-53226928D01*
X169430001Y-53226928D01*
X169305519Y-53239188D01*
X169185821Y-53275498D01*
X169075507Y-53334463D01*
X168978816Y-53413815D01*
X168899464Y-53510506D01*
X168840499Y-53620820D01*
X168804189Y-53740518D01*
X168798904Y-53794176D01*
X168700249Y-53846908D01*
X168581222Y-53944591D01*
X168556746Y-53974415D01*
X147651917Y-74879245D01*
X147622093Y-74903721D01*
X147524410Y-75022748D01*
X147451825Y-75158545D01*
X147407127Y-75305893D01*
X147392035Y-75459130D01*
X147395817Y-75497530D01*
X147395816Y-80181837D01*
X147288007Y-80239463D01*
X147191316Y-80318815D01*
X147148398Y-80371111D01*
X147113686Y-80328815D01*
X147016995Y-80249463D01*
X146906681Y-80190498D01*
X146786983Y-80154188D01*
X146662501Y-80141928D01*
X146413251Y-80145000D01*
X146254501Y-80303750D01*
X146254501Y-80953000D01*
X146274501Y-80953000D01*
X146274501Y-81131928D01*
X145592501Y-81131928D01*
X145468019Y-81144188D01*
X145348321Y-81180498D01*
X145298740Y-81207000D01*
X145116251Y-81207000D01*
X145034936Y-81288315D01*
X126730519Y-81288315D01*
X126725812Y-81240518D01*
X126689502Y-81120820D01*
X126630537Y-81010506D01*
X126551185Y-80913815D01*
X126454494Y-80834463D01*
X126352603Y-80780000D01*
X144954429Y-80780000D01*
X144957501Y-80794250D01*
X145116251Y-80953000D01*
X146000501Y-80953000D01*
X146000501Y-80303750D01*
X145841751Y-80145000D01*
X145592501Y-80141928D01*
X145468019Y-80154188D01*
X145348321Y-80190498D01*
X145238007Y-80249463D01*
X145141316Y-80328815D01*
X145061964Y-80425506D01*
X145002999Y-80535820D01*
X144966689Y-80655518D01*
X144954429Y-80780000D01*
X126352603Y-80780000D01*
X126344180Y-80775498D01*
X126224482Y-80739188D01*
X126100000Y-80726928D01*
X122500000Y-80726928D01*
X122375518Y-80739188D01*
X122255820Y-80775498D01*
X122185000Y-80813353D01*
X122185000Y-80448354D01*
X122275518Y-80475812D01*
X122400000Y-80488072D01*
X124214250Y-80485000D01*
X124373000Y-80326250D01*
X124373000Y-79302000D01*
X124627000Y-79302000D01*
X124627000Y-80326250D01*
X124785750Y-80485000D01*
X126600000Y-80488072D01*
X126724482Y-80475812D01*
X126844180Y-80439502D01*
X126954494Y-80380537D01*
X127051185Y-80301185D01*
X127130537Y-80204494D01*
X127189502Y-80094180D01*
X127225812Y-79974482D01*
X127238072Y-79850000D01*
X127235000Y-79460750D01*
X127076250Y-79302000D01*
X124627000Y-79302000D01*
X124373000Y-79302000D01*
X124353000Y-79302000D01*
X124353000Y-79048000D01*
X124373000Y-79048000D01*
X124373000Y-78023750D01*
X124627000Y-78023750D01*
X124627000Y-79048000D01*
X127076250Y-79048000D01*
X127235000Y-78889250D01*
X127238072Y-78500000D01*
X127225812Y-78375518D01*
X127189502Y-78255820D01*
X127130537Y-78145506D01*
X127051185Y-78048815D01*
X126954494Y-77969463D01*
X126844180Y-77910498D01*
X126724482Y-77874188D01*
X126600000Y-77861928D01*
X124785750Y-77865000D01*
X124627000Y-78023750D01*
X124373000Y-78023750D01*
X124214250Y-77865000D01*
X122400000Y-77861928D01*
X122275518Y-77874188D01*
X122185000Y-77901646D01*
X122185000Y-48966353D01*
X122175088Y-48865717D01*
X122172446Y-48857007D01*
X122231439Y-48063158D01*
X122355713Y-47513945D01*
X123065000Y-47513945D01*
X123065000Y-48486055D01*
X123254650Y-49439486D01*
X123626660Y-50337599D01*
X124166735Y-51145879D01*
X124854121Y-51833265D01*
X125662401Y-52373340D01*
X126560514Y-52745350D01*
X127513945Y-52935000D01*
X128486055Y-52935000D01*
X129439486Y-52745350D01*
X130337599Y-52373340D01*
X131145879Y-51833265D01*
X131833265Y-51145879D01*
X132373340Y-50337599D01*
X132745350Y-49439486D01*
X132935000Y-48486055D01*
X132935000Y-47513945D01*
X156065000Y-47513945D01*
X156065000Y-48486055D01*
X156254650Y-49439486D01*
X156626660Y-50337599D01*
X157166735Y-51145879D01*
X157854121Y-51833265D01*
X158662401Y-52373340D01*
X159560514Y-52745350D01*
X160513945Y-52935000D01*
X161486055Y-52935000D01*
X162439486Y-52745350D01*
X163337599Y-52373340D01*
X163372529Y-52350000D01*
X168291929Y-52350000D01*
X168304189Y-52474482D01*
X168340499Y-52594180D01*
X168399464Y-52704494D01*
X168478816Y-52801185D01*
X168575507Y-52880537D01*
X168685821Y-52939502D01*
X168805519Y-52975812D01*
X168930001Y-52988072D01*
X170744251Y-52985000D01*
X170903001Y-52826250D01*
X170903001Y-51802000D01*
X168453751Y-51802000D01*
X168295001Y-51960750D01*
X168291929Y-52350000D01*
X163372529Y-52350000D01*
X164145879Y-51833265D01*
X164833265Y-51145879D01*
X164930738Y-51000000D01*
X168291929Y-51000000D01*
X168295001Y-51389250D01*
X168453751Y-51548000D01*
X170903001Y-51548000D01*
X170903001Y-50523750D01*
X170744251Y-50365000D01*
X168930001Y-50361928D01*
X168805519Y-50374188D01*
X168685821Y-50410498D01*
X168575507Y-50469463D01*
X168478816Y-50548815D01*
X168399464Y-50645506D01*
X168340499Y-50755820D01*
X168304189Y-50875518D01*
X168291929Y-51000000D01*
X164930738Y-51000000D01*
X165373340Y-50337599D01*
X165745350Y-49439486D01*
X165935000Y-48486055D01*
X165935000Y-47513945D01*
X165745350Y-46560514D01*
X165373340Y-45662401D01*
X164833265Y-44854121D01*
X164145879Y-44166735D01*
X163337599Y-43626660D01*
X162439486Y-43254650D01*
X161486055Y-43065000D01*
X160513945Y-43065000D01*
X159560514Y-43254650D01*
X158662401Y-43626660D01*
X157854121Y-44166735D01*
X157166735Y-44854121D01*
X156626660Y-45662401D01*
X156254650Y-46560514D01*
X156065000Y-47513945D01*
X132935000Y-47513945D01*
X132745350Y-46560514D01*
X132373340Y-45662401D01*
X131833265Y-44854121D01*
X131145879Y-44166735D01*
X130337599Y-43626660D01*
X129439486Y-43254650D01*
X128486055Y-43065000D01*
X127513945Y-43065000D01*
X126560514Y-43254650D01*
X125662401Y-43626660D01*
X124854121Y-44166735D01*
X124166735Y-44854121D01*
X123626660Y-45662401D01*
X123254650Y-46560514D01*
X123065000Y-47513945D01*
X122355713Y-47513945D01*
X122438769Y-47146894D01*
X122779252Y-46271343D01*
X123245410Y-45455735D01*
X123827005Y-44717986D01*
X124511251Y-44074311D01*
X125283129Y-43538840D01*
X126125677Y-43123341D01*
X127020376Y-42836946D01*
X127957579Y-42684311D01*
X128340945Y-42667573D01*
X128365717Y-42675088D01*
G37*
X128365717Y-42675088D02*
X128466353Y-42685000D01*
X167033647Y-42685000D01*
X167134283Y-42675088D01*
X167142993Y-42672446D01*
X167936842Y-42731439D01*
X168853106Y-42938769D01*
X169728657Y-43279252D01*
X170544265Y-43745410D01*
X171282014Y-44327005D01*
X171925689Y-45011251D01*
X172461160Y-45783129D01*
X172876659Y-46625677D01*
X173163054Y-47520376D01*
X173315689Y-48457579D01*
X173332427Y-48840946D01*
X173324912Y-48865718D01*
X173315000Y-48966354D01*
X173315000Y-50392546D01*
X173254483Y-50374188D01*
X173130001Y-50361928D01*
X171315751Y-50365000D01*
X171157001Y-50523750D01*
X171157001Y-51548000D01*
X171177001Y-51548000D01*
X171177001Y-51802000D01*
X171157001Y-51802000D01*
X171157001Y-52826250D01*
X171315751Y-52985000D01*
X173130001Y-52988072D01*
X173254483Y-52975812D01*
X173315000Y-52957454D01*
X173315000Y-53297317D01*
X173274181Y-53275498D01*
X173154483Y-53239188D01*
X173030001Y-53226928D01*
X169430001Y-53226928D01*
X169305519Y-53239188D01*
X169185821Y-53275498D01*
X169075507Y-53334463D01*
X168978816Y-53413815D01*
X168899464Y-53510506D01*
X168840499Y-53620820D01*
X168804189Y-53740518D01*
X168798904Y-53794176D01*
X168700249Y-53846908D01*
X168581222Y-53944591D01*
X168556746Y-53974415D01*
X147651917Y-74879245D01*
X147622093Y-74903721D01*
X147524410Y-75022748D01*
X147451825Y-75158545D01*
X147407127Y-75305893D01*
X147392035Y-75459130D01*
X147395817Y-75497530D01*
X147395816Y-80181837D01*
X147288007Y-80239463D01*
X147191316Y-80318815D01*
X147148398Y-80371111D01*
X147113686Y-80328815D01*
X147016995Y-80249463D01*
X146906681Y-80190498D01*
X146786983Y-80154188D01*
X146662501Y-80141928D01*
X146413251Y-80145000D01*
X146254501Y-80303750D01*
X146254501Y-80953000D01*
X146274501Y-80953000D01*
X146274501Y-81131928D01*
X145592501Y-81131928D01*
X145468019Y-81144188D01*
X145348321Y-81180498D01*
X145298740Y-81207000D01*
X145116251Y-81207000D01*
X145034936Y-81288315D01*
X126730519Y-81288315D01*
X126725812Y-81240518D01*
X126689502Y-81120820D01*
X126630537Y-81010506D01*
X126551185Y-80913815D01*
X126454494Y-80834463D01*
X126352603Y-80780000D01*
X144954429Y-80780000D01*
X144957501Y-80794250D01*
X145116251Y-80953000D01*
X146000501Y-80953000D01*
X146000501Y-80303750D01*
X145841751Y-80145000D01*
X145592501Y-80141928D01*
X145468019Y-80154188D01*
X145348321Y-80190498D01*
X145238007Y-80249463D01*
X145141316Y-80328815D01*
X145061964Y-80425506D01*
X145002999Y-80535820D01*
X144966689Y-80655518D01*
X144954429Y-80780000D01*
X126352603Y-80780000D01*
X126344180Y-80775498D01*
X126224482Y-80739188D01*
X126100000Y-80726928D01*
X122500000Y-80726928D01*
X122375518Y-80739188D01*
X122255820Y-80775498D01*
X122185000Y-80813353D01*
X122185000Y-80448354D01*
X122275518Y-80475812D01*
X122400000Y-80488072D01*
X124214250Y-80485000D01*
X124373000Y-80326250D01*
X124373000Y-79302000D01*
X124627000Y-79302000D01*
X124627000Y-80326250D01*
X124785750Y-80485000D01*
X126600000Y-80488072D01*
X126724482Y-80475812D01*
X126844180Y-80439502D01*
X126954494Y-80380537D01*
X127051185Y-80301185D01*
X127130537Y-80204494D01*
X127189502Y-80094180D01*
X127225812Y-79974482D01*
X127238072Y-79850000D01*
X127235000Y-79460750D01*
X127076250Y-79302000D01*
X124627000Y-79302000D01*
X124373000Y-79302000D01*
X124353000Y-79302000D01*
X124353000Y-79048000D01*
X124373000Y-79048000D01*
X124373000Y-78023750D01*
X124627000Y-78023750D01*
X124627000Y-79048000D01*
X127076250Y-79048000D01*
X127235000Y-78889250D01*
X127238072Y-78500000D01*
X127225812Y-78375518D01*
X127189502Y-78255820D01*
X127130537Y-78145506D01*
X127051185Y-78048815D01*
X126954494Y-77969463D01*
X126844180Y-77910498D01*
X126724482Y-77874188D01*
X126600000Y-77861928D01*
X124785750Y-77865000D01*
X124627000Y-78023750D01*
X124373000Y-78023750D01*
X124214250Y-77865000D01*
X122400000Y-77861928D01*
X122275518Y-77874188D01*
X122185000Y-77901646D01*
X122185000Y-48966353D01*
X122175088Y-48865717D01*
X122172446Y-48857007D01*
X122231439Y-48063158D01*
X122355713Y-47513945D01*
X123065000Y-47513945D01*
X123065000Y-48486055D01*
X123254650Y-49439486D01*
X123626660Y-50337599D01*
X124166735Y-51145879D01*
X124854121Y-51833265D01*
X125662401Y-52373340D01*
X126560514Y-52745350D01*
X127513945Y-52935000D01*
X128486055Y-52935000D01*
X129439486Y-52745350D01*
X130337599Y-52373340D01*
X131145879Y-51833265D01*
X131833265Y-51145879D01*
X132373340Y-50337599D01*
X132745350Y-49439486D01*
X132935000Y-48486055D01*
X132935000Y-47513945D01*
X156065000Y-47513945D01*
X156065000Y-48486055D01*
X156254650Y-49439486D01*
X156626660Y-50337599D01*
X157166735Y-51145879D01*
X157854121Y-51833265D01*
X158662401Y-52373340D01*
X159560514Y-52745350D01*
X160513945Y-52935000D01*
X161486055Y-52935000D01*
X162439486Y-52745350D01*
X163337599Y-52373340D01*
X163372529Y-52350000D01*
X168291929Y-52350000D01*
X168304189Y-52474482D01*
X168340499Y-52594180D01*
X168399464Y-52704494D01*
X168478816Y-52801185D01*
X168575507Y-52880537D01*
X168685821Y-52939502D01*
X168805519Y-52975812D01*
X168930001Y-52988072D01*
X170744251Y-52985000D01*
X170903001Y-52826250D01*
X170903001Y-51802000D01*
X168453751Y-51802000D01*
X168295001Y-51960750D01*
X168291929Y-52350000D01*
X163372529Y-52350000D01*
X164145879Y-51833265D01*
X164833265Y-51145879D01*
X164930738Y-51000000D01*
X168291929Y-51000000D01*
X168295001Y-51389250D01*
X168453751Y-51548000D01*
X170903001Y-51548000D01*
X170903001Y-50523750D01*
X170744251Y-50365000D01*
X168930001Y-50361928D01*
X168805519Y-50374188D01*
X168685821Y-50410498D01*
X168575507Y-50469463D01*
X168478816Y-50548815D01*
X168399464Y-50645506D01*
X168340499Y-50755820D01*
X168304189Y-50875518D01*
X168291929Y-51000000D01*
X164930738Y-51000000D01*
X165373340Y-50337599D01*
X165745350Y-49439486D01*
X165935000Y-48486055D01*
X165935000Y-47513945D01*
X165745350Y-46560514D01*
X165373340Y-45662401D01*
X164833265Y-44854121D01*
X164145879Y-44166735D01*
X163337599Y-43626660D01*
X162439486Y-43254650D01*
X161486055Y-43065000D01*
X160513945Y-43065000D01*
X159560514Y-43254650D01*
X158662401Y-43626660D01*
X157854121Y-44166735D01*
X157166735Y-44854121D01*
X156626660Y-45662401D01*
X156254650Y-46560514D01*
X156065000Y-47513945D01*
X132935000Y-47513945D01*
X132745350Y-46560514D01*
X132373340Y-45662401D01*
X131833265Y-44854121D01*
X131145879Y-44166735D01*
X130337599Y-43626660D01*
X129439486Y-43254650D01*
X128486055Y-43065000D01*
X127513945Y-43065000D01*
X126560514Y-43254650D01*
X125662401Y-43626660D01*
X124854121Y-44166735D01*
X124166735Y-44854121D01*
X123626660Y-45662401D01*
X123254650Y-46560514D01*
X123065000Y-47513945D01*
X122355713Y-47513945D01*
X122438769Y-47146894D01*
X122779252Y-46271343D01*
X123245410Y-45455735D01*
X123827005Y-44717986D01*
X124511251Y-44074311D01*
X125283129Y-43538840D01*
X126125677Y-43123341D01*
X127020376Y-42836946D01*
X127957579Y-42684311D01*
X128340945Y-42667573D01*
X128365717Y-42675088D01*
G36*
X169185821Y-55724502D02*
G01*
X169305519Y-55760812D01*
X169430001Y-55773072D01*
X173030001Y-55773072D01*
X173154483Y-55760812D01*
X173274181Y-55724502D01*
X173315000Y-55702683D01*
X173315000Y-56042546D01*
X173254483Y-56024188D01*
X173130001Y-56011928D01*
X171315751Y-56015000D01*
X171157001Y-56173750D01*
X171157001Y-57198000D01*
X171177001Y-57198000D01*
X171177001Y-57452000D01*
X171157001Y-57452000D01*
X171157001Y-58476250D01*
X171315751Y-58635000D01*
X173130001Y-58638072D01*
X173254483Y-58625812D01*
X173315000Y-58607454D01*
X173315000Y-77892546D01*
X173254483Y-77874188D01*
X173130001Y-77861928D01*
X171315751Y-77865000D01*
X171157001Y-78023750D01*
X171157001Y-79048000D01*
X171177001Y-79048000D01*
X171177001Y-79302000D01*
X171157001Y-79302000D01*
X171157001Y-80326250D01*
X171315751Y-80485000D01*
X173130001Y-80488072D01*
X173254483Y-80475812D01*
X173315000Y-80457454D01*
X173315000Y-80797317D01*
X173274181Y-80775498D01*
X173154483Y-80739188D01*
X173030001Y-80726928D01*
X169430001Y-80726928D01*
X169305519Y-80739188D01*
X169185821Y-80775498D01*
X169075507Y-80834463D01*
X168978816Y-80913815D01*
X168899464Y-81010506D01*
X168840499Y-81120820D01*
X168804189Y-81240518D01*
X168800466Y-81278315D01*
X149350573Y-81278315D01*
X149350573Y-80770000D01*
X149338313Y-80645518D01*
X149302003Y-80525820D01*
X149243038Y-80415506D01*
X149163686Y-80318815D01*
X149066995Y-80239463D01*
X148959186Y-80181837D01*
X148959186Y-79850000D01*
X168291929Y-79850000D01*
X168304189Y-79974482D01*
X168340499Y-80094180D01*
X168399464Y-80204494D01*
X168478816Y-80301185D01*
X168575507Y-80380537D01*
X168685821Y-80439502D01*
X168805519Y-80475812D01*
X168930001Y-80488072D01*
X170744251Y-80485000D01*
X170903001Y-80326250D01*
X170903001Y-79302000D01*
X168453751Y-79302000D01*
X168295001Y-79460750D01*
X168291929Y-79850000D01*
X148959186Y-79850000D01*
X148959186Y-78500000D01*
X168291929Y-78500000D01*
X168295001Y-78889250D01*
X168453751Y-79048000D01*
X170903001Y-79048000D01*
X170903001Y-78023750D01*
X170744251Y-77865000D01*
X168930001Y-77861928D01*
X168805519Y-77874188D01*
X168685821Y-77910498D01*
X168575507Y-77969463D01*
X168478816Y-78048815D01*
X168399464Y-78145506D01*
X168340499Y-78255820D01*
X168304189Y-78375518D01*
X168291929Y-78500000D01*
X148959186Y-78500000D01*
X148959186Y-75782914D01*
X166742100Y-58000000D01*
X168291929Y-58000000D01*
X168304189Y-58124482D01*
X168340499Y-58244180D01*
X168399464Y-58354494D01*
X168478816Y-58451185D01*
X168575507Y-58530537D01*
X168685821Y-58589502D01*
X168805519Y-58625812D01*
X168930001Y-58638072D01*
X170744251Y-58635000D01*
X170903001Y-58476250D01*
X170903001Y-57452000D01*
X168453751Y-57452000D01*
X168295001Y-57610750D01*
X168291929Y-58000000D01*
X166742100Y-58000000D01*
X168345343Y-56396758D01*
X168340499Y-56405820D01*
X168304189Y-56525518D01*
X168291929Y-56650000D01*
X168295001Y-57039250D01*
X168453751Y-57198000D01*
X170903001Y-57198000D01*
X170903001Y-56173750D01*
X170744251Y-56015000D01*
X168930001Y-56011928D01*
X168805519Y-56024188D01*
X168685821Y-56060498D01*
X168676759Y-56065342D01*
X169076196Y-55665905D01*
X169185821Y-55724502D01*
G37*
X169185821Y-55724502D02*
X169305519Y-55760812D01*
X169430001Y-55773072D01*
X173030001Y-55773072D01*
X173154483Y-55760812D01*
X173274181Y-55724502D01*
X173315000Y-55702683D01*
X173315000Y-56042546D01*
X173254483Y-56024188D01*
X173130001Y-56011928D01*
X171315751Y-56015000D01*
X171157001Y-56173750D01*
X171157001Y-57198000D01*
X171177001Y-57198000D01*
X171177001Y-57452000D01*
X171157001Y-57452000D01*
X171157001Y-58476250D01*
X171315751Y-58635000D01*
X173130001Y-58638072D01*
X173254483Y-58625812D01*
X173315000Y-58607454D01*
X173315000Y-77892546D01*
X173254483Y-77874188D01*
X173130001Y-77861928D01*
X171315751Y-77865000D01*
X171157001Y-78023750D01*
X171157001Y-79048000D01*
X171177001Y-79048000D01*
X171177001Y-79302000D01*
X171157001Y-79302000D01*
X171157001Y-80326250D01*
X171315751Y-80485000D01*
X173130001Y-80488072D01*
X173254483Y-80475812D01*
X173315000Y-80457454D01*
X173315000Y-80797317D01*
X173274181Y-80775498D01*
X173154483Y-80739188D01*
X173030001Y-80726928D01*
X169430001Y-80726928D01*
X169305519Y-80739188D01*
X169185821Y-80775498D01*
X169075507Y-80834463D01*
X168978816Y-80913815D01*
X168899464Y-81010506D01*
X168840499Y-81120820D01*
X168804189Y-81240518D01*
X168800466Y-81278315D01*
X149350573Y-81278315D01*
X149350573Y-80770000D01*
X149338313Y-80645518D01*
X149302003Y-80525820D01*
X149243038Y-80415506D01*
X149163686Y-80318815D01*
X149066995Y-80239463D01*
X148959186Y-80181837D01*
X148959186Y-79850000D01*
X168291929Y-79850000D01*
X168304189Y-79974482D01*
X168340499Y-80094180D01*
X168399464Y-80204494D01*
X168478816Y-80301185D01*
X168575507Y-80380537D01*
X168685821Y-80439502D01*
X168805519Y-80475812D01*
X168930001Y-80488072D01*
X170744251Y-80485000D01*
X170903001Y-80326250D01*
X170903001Y-79302000D01*
X168453751Y-79302000D01*
X168295001Y-79460750D01*
X168291929Y-79850000D01*
X148959186Y-79850000D01*
X148959186Y-78500000D01*
X168291929Y-78500000D01*
X168295001Y-78889250D01*
X168453751Y-79048000D01*
X170903001Y-79048000D01*
X170903001Y-78023750D01*
X170744251Y-77865000D01*
X168930001Y-77861928D01*
X168805519Y-77874188D01*
X168685821Y-77910498D01*
X168575507Y-77969463D01*
X168478816Y-78048815D01*
X168399464Y-78145506D01*
X168340499Y-78255820D01*
X168304189Y-78375518D01*
X168291929Y-78500000D01*
X148959186Y-78500000D01*
X148959186Y-75782914D01*
X166742100Y-58000000D01*
X168291929Y-58000000D01*
X168304189Y-58124482D01*
X168340499Y-58244180D01*
X168399464Y-58354494D01*
X168478816Y-58451185D01*
X168575507Y-58530537D01*
X168685821Y-58589502D01*
X168805519Y-58625812D01*
X168930001Y-58638072D01*
X170744251Y-58635000D01*
X170903001Y-58476250D01*
X170903001Y-57452000D01*
X168453751Y-57452000D01*
X168295001Y-57610750D01*
X168291929Y-58000000D01*
X166742100Y-58000000D01*
X168345343Y-56396758D01*
X168340499Y-56405820D01*
X168304189Y-56525518D01*
X168291929Y-56650000D01*
X168295001Y-57039250D01*
X168453751Y-57198000D01*
X170903001Y-57198000D01*
X170903001Y-56173750D01*
X170744251Y-56015000D01*
X168930001Y-56011928D01*
X168805519Y-56024188D01*
X168685821Y-56060498D01*
X168676759Y-56065342D01*
X169076196Y-55665905D01*
X169185821Y-55724502D01*
%TD*%
M02*
