%TF.GenerationSoftware,KiCad,Pcbnew,(5.1.6)-1*%
%TF.CreationDate,2020-10-09T05:29:33-04:00*%
%TF.ProjectId,RFID_PROJECT_3-WAY-SPLITTER,52464944-5f50-4524-9f4a-4543545f332d,B*%
%TF.SameCoordinates,Original*%
%TF.FileFunction,Copper,L3,Inr*%
%TF.FilePolarity,Positive*%
%FSLAX46Y46*%
G04 Gerber Fmt 4.6, Leading zero omitted, Abs format (unit mm)*
G04 Created by KiCad (PCBNEW (5.1.6)-1) date 2020-10-09 05:29:33*
%MOMM*%
%LPD*%
G01*
G04 APERTURE LIST*
%TA.AperFunction,ViaPad*%
%ADD10C,0.900000*%
%TD*%
%TA.AperFunction,ViaPad*%
%ADD11C,8.600000*%
%TD*%
%TA.AperFunction,ViaPad*%
%ADD12C,1.000000*%
%TD*%
G04 APERTURE END LIST*
D10*
%TO.N,N/C*%
%TO.C,H4*%
X163280419Y-114219581D03*
X161000000Y-113275000D03*
X158719581Y-114219581D03*
X157775000Y-116500000D03*
X158719581Y-118780419D03*
X161000000Y-119725000D03*
X163280419Y-118780419D03*
X164225000Y-116500000D03*
D11*
X161000000Y-116500000D03*
%TD*%
D10*
%TO.N,N/C*%
%TO.C,H3*%
X130280419Y-114219581D03*
X128000000Y-113275000D03*
X125719581Y-114219581D03*
X124775000Y-116500000D03*
X125719581Y-118780419D03*
X128000000Y-119725000D03*
X130280419Y-118780419D03*
X131225000Y-116500000D03*
D11*
X128000000Y-116500000D03*
%TD*%
D10*
%TO.N,N/C*%
%TO.C,H2*%
X163280419Y-45719581D03*
X161000000Y-44775000D03*
X158719581Y-45719581D03*
X157775000Y-48000000D03*
X158719581Y-50280419D03*
X161000000Y-51225000D03*
X163280419Y-50280419D03*
X164225000Y-48000000D03*
D11*
X161000000Y-48000000D03*
%TD*%
D10*
%TO.N,N/C*%
%TO.C,H1*%
X130280419Y-45719581D03*
X128000000Y-44775000D03*
X125719581Y-45719581D03*
X124775000Y-48000000D03*
X125719581Y-50280419D03*
X128000000Y-51225000D03*
X130280419Y-50280419D03*
X131225000Y-48000000D03*
D11*
X128000000Y-48000000D03*
%TD*%
D12*
%TO.N,GND*%
X133000000Y-53500000D03*
X156000000Y-53500000D03*
X155000000Y-111500000D03*
X133000000Y-111500000D03*
%TD*%
M02*
