%TF.GenerationSoftware,KiCad,Pcbnew,(5.1.6)-1*%
%TF.CreationDate,2020-10-09T05:29:33-04:00*%
%TF.ProjectId,RFID_PROJECT_3-WAY-SPLITTER,52464944-5f50-4524-9f4a-4543545f332d,B*%
%TF.SameCoordinates,Original*%
%TF.FileFunction,Legend,Top*%
%TF.FilePolarity,Positive*%
%FSLAX46Y46*%
G04 Gerber Fmt 4.6, Leading zero omitted, Abs format (unit mm)*
G04 Created by KiCad (PCBNEW (5.1.6)-1) date 2020-10-09 05:29:33*
%MOMM*%
%LPD*%
G01*
G04 APERTURE LIST*
%ADD10C,0.275000*%
%ADD11C,0.300000*%
%ADD12C,0.010000*%
%ADD13C,0.120000*%
%ADD14C,0.150000*%
G04 APERTURE END LIST*
D10*
X143480952Y-115035119D02*
X143114285Y-114511309D01*
X142852380Y-115035119D02*
X142852380Y-113935119D01*
X143271428Y-113935119D01*
X143376190Y-113987500D01*
X143428571Y-114039880D01*
X143480952Y-114144642D01*
X143480952Y-114301785D01*
X143428571Y-114406547D01*
X143376190Y-114458928D01*
X143271428Y-114511309D01*
X142852380Y-114511309D01*
X144371428Y-114982738D02*
X144266666Y-115035119D01*
X144057142Y-115035119D01*
X143952380Y-114982738D01*
X143900000Y-114877976D01*
X143900000Y-114458928D01*
X143952380Y-114354166D01*
X144057142Y-114301785D01*
X144266666Y-114301785D01*
X144371428Y-114354166D01*
X144423809Y-114458928D01*
X144423809Y-114563690D01*
X143900000Y-114668452D01*
X144790476Y-114301785D02*
X145052380Y-115035119D01*
X145314285Y-114301785D01*
X146938095Y-114458928D02*
X147095238Y-114511309D01*
X147147619Y-114563690D01*
X147200000Y-114668452D01*
X147200000Y-114825595D01*
X147147619Y-114930357D01*
X147095238Y-114982738D01*
X146990476Y-115035119D01*
X146571428Y-115035119D01*
X146571428Y-113935119D01*
X146938095Y-113935119D01*
X147042857Y-113987500D01*
X147095238Y-114039880D01*
X147147619Y-114144642D01*
X147147619Y-114249404D01*
X147095238Y-114354166D01*
X147042857Y-114406547D01*
X146938095Y-114458928D01*
X146571428Y-114458928D01*
X139657142Y-115964880D02*
X139709523Y-115912500D01*
X139814285Y-115860119D01*
X140076190Y-115860119D01*
X140180952Y-115912500D01*
X140233333Y-115964880D01*
X140285714Y-116069642D01*
X140285714Y-116174404D01*
X140233333Y-116331547D01*
X139604761Y-116960119D01*
X140285714Y-116960119D01*
X140966666Y-115860119D02*
X141071428Y-115860119D01*
X141176190Y-115912500D01*
X141228571Y-115964880D01*
X141280952Y-116069642D01*
X141333333Y-116279166D01*
X141333333Y-116541071D01*
X141280952Y-116750595D01*
X141228571Y-116855357D01*
X141176190Y-116907738D01*
X141071428Y-116960119D01*
X140966666Y-116960119D01*
X140861904Y-116907738D01*
X140809523Y-116855357D01*
X140757142Y-116750595D01*
X140704761Y-116541071D01*
X140704761Y-116279166D01*
X140757142Y-116069642D01*
X140809523Y-115964880D01*
X140861904Y-115912500D01*
X140966666Y-115860119D01*
X141752380Y-115964880D02*
X141804761Y-115912500D01*
X141909523Y-115860119D01*
X142171428Y-115860119D01*
X142276190Y-115912500D01*
X142328571Y-115964880D01*
X142380952Y-116069642D01*
X142380952Y-116174404D01*
X142328571Y-116331547D01*
X141700000Y-116960119D01*
X142380952Y-116960119D01*
X143061904Y-115860119D02*
X143166666Y-115860119D01*
X143271428Y-115912500D01*
X143323809Y-115964880D01*
X143376190Y-116069642D01*
X143428571Y-116279166D01*
X143428571Y-116541071D01*
X143376190Y-116750595D01*
X143323809Y-116855357D01*
X143271428Y-116907738D01*
X143166666Y-116960119D01*
X143061904Y-116960119D01*
X142957142Y-116907738D01*
X142904761Y-116855357D01*
X142852380Y-116750595D01*
X142800000Y-116541071D01*
X142800000Y-116279166D01*
X142852380Y-116069642D01*
X142904761Y-115964880D01*
X142957142Y-115912500D01*
X143061904Y-115860119D01*
X143900000Y-116541071D02*
X144738095Y-116541071D01*
X145838095Y-116960119D02*
X145209523Y-116960119D01*
X145523809Y-116960119D02*
X145523809Y-115860119D01*
X145419047Y-116017261D01*
X145314285Y-116122023D01*
X145209523Y-116174404D01*
X146519047Y-115860119D02*
X146623809Y-115860119D01*
X146728571Y-115912500D01*
X146780952Y-115964880D01*
X146833333Y-116069642D01*
X146885714Y-116279166D01*
X146885714Y-116541071D01*
X146833333Y-116750595D01*
X146780952Y-116855357D01*
X146728571Y-116907738D01*
X146623809Y-116960119D01*
X146519047Y-116960119D01*
X146414285Y-116907738D01*
X146361904Y-116855357D01*
X146309523Y-116750595D01*
X146257142Y-116541071D01*
X146257142Y-116279166D01*
X146309523Y-116069642D01*
X146361904Y-115964880D01*
X146414285Y-115912500D01*
X146519047Y-115860119D01*
X147357142Y-116541071D02*
X148195238Y-116541071D01*
X148928571Y-115860119D02*
X149033333Y-115860119D01*
X149138095Y-115912500D01*
X149190476Y-115964880D01*
X149242857Y-116069642D01*
X149295238Y-116279166D01*
X149295238Y-116541071D01*
X149242857Y-116750595D01*
X149190476Y-116855357D01*
X149138095Y-116907738D01*
X149033333Y-116960119D01*
X148928571Y-116960119D01*
X148823809Y-116907738D01*
X148771428Y-116855357D01*
X148719047Y-116750595D01*
X148666666Y-116541071D01*
X148666666Y-116279166D01*
X148719047Y-116069642D01*
X148771428Y-115964880D01*
X148823809Y-115912500D01*
X148928571Y-115860119D01*
X149661904Y-115860119D02*
X150395238Y-115860119D01*
X149923809Y-116960119D01*
D11*
X124607142Y-64178571D02*
X124892857Y-65178571D01*
X125178571Y-64464285D01*
X125464285Y-65178571D01*
X125749999Y-64178571D01*
X126178571Y-64178571D02*
X126464285Y-65178571D01*
X126749999Y-64464285D01*
X127035714Y-65178571D01*
X127321428Y-64178571D01*
X127749999Y-64178571D02*
X128035714Y-65178571D01*
X128321428Y-64464285D01*
X128607142Y-65178571D01*
X128892857Y-64178571D01*
X129464285Y-65035714D02*
X129535714Y-65107142D01*
X129464285Y-65178571D01*
X129392857Y-65107142D01*
X129464285Y-65035714D01*
X129464285Y-65178571D01*
X130821428Y-64178571D02*
X130821428Y-65678571D01*
X130821428Y-65107142D02*
X130678571Y-65178571D01*
X130392857Y-65178571D01*
X130249999Y-65107142D01*
X130178571Y-65035714D01*
X130107142Y-64892857D01*
X130107142Y-64464285D01*
X130178571Y-64321428D01*
X130249999Y-64250000D01*
X130392857Y-64178571D01*
X130678571Y-64178571D01*
X130821428Y-64250000D01*
X132178571Y-64178571D02*
X132178571Y-65178571D01*
X131535714Y-64178571D02*
X131535714Y-64964285D01*
X131607142Y-65107142D01*
X131749999Y-65178571D01*
X131964285Y-65178571D01*
X132107142Y-65107142D01*
X132178571Y-65035714D01*
X133535714Y-65178571D02*
X133535714Y-64392857D01*
X133464285Y-64250000D01*
X133321428Y-64178571D01*
X133035714Y-64178571D01*
X132892857Y-64250000D01*
X133535714Y-65107142D02*
X133392857Y-65178571D01*
X133035714Y-65178571D01*
X132892857Y-65107142D01*
X132821428Y-64964285D01*
X132821428Y-64821428D01*
X132892857Y-64678571D01*
X133035714Y-64607142D01*
X133392857Y-64607142D01*
X133535714Y-64535714D01*
X134250000Y-64178571D02*
X134250000Y-65178571D01*
X134250000Y-64321428D02*
X134321428Y-64250000D01*
X134464285Y-64178571D01*
X134678571Y-64178571D01*
X134821428Y-64250000D01*
X134892857Y-64392857D01*
X134892857Y-65178571D01*
X135392857Y-64178571D02*
X135964285Y-64178571D01*
X135607142Y-63678571D02*
X135607142Y-64964285D01*
X135678571Y-65107142D01*
X135821428Y-65178571D01*
X135964285Y-65178571D01*
X137107142Y-64178571D02*
X137107142Y-65178571D01*
X136464285Y-64178571D02*
X136464285Y-64964285D01*
X136535714Y-65107142D01*
X136678571Y-65178571D01*
X136892857Y-65178571D01*
X137035714Y-65107142D01*
X137107142Y-65035714D01*
X137821428Y-65178571D02*
X137821428Y-64178571D01*
X137821428Y-63678571D02*
X137750000Y-63750000D01*
X137821428Y-63821428D01*
X137892857Y-63750000D01*
X137821428Y-63678571D01*
X137821428Y-63821428D01*
X138321428Y-64178571D02*
X138892857Y-64178571D01*
X138535714Y-63678571D02*
X138535714Y-64964285D01*
X138607142Y-65107142D01*
X138750000Y-65178571D01*
X138892857Y-65178571D01*
X139250000Y-64178571D02*
X139607142Y-65178571D01*
X139964285Y-64178571D02*
X139607142Y-65178571D01*
X139464285Y-65535714D01*
X139392857Y-65607142D01*
X139250000Y-65678571D01*
X141178571Y-65178571D02*
X141178571Y-64392857D01*
X141107142Y-64250000D01*
X140964285Y-64178571D01*
X140678571Y-64178571D01*
X140535714Y-64250000D01*
X141178571Y-65107142D02*
X141035714Y-65178571D01*
X140678571Y-65178571D01*
X140535714Y-65107142D01*
X140464285Y-64964285D01*
X140464285Y-64821428D01*
X140535714Y-64678571D01*
X140678571Y-64607142D01*
X141035714Y-64607142D01*
X141178571Y-64535714D01*
X141892857Y-64178571D02*
X141892857Y-65178571D01*
X141892857Y-64321428D02*
X141964285Y-64250000D01*
X142107142Y-64178571D01*
X142321428Y-64178571D01*
X142464285Y-64250000D01*
X142535714Y-64392857D01*
X142535714Y-65178571D01*
X143892857Y-65178571D02*
X143892857Y-64392857D01*
X143821428Y-64250000D01*
X143678571Y-64178571D01*
X143392857Y-64178571D01*
X143250000Y-64250000D01*
X143892857Y-65107142D02*
X143750000Y-65178571D01*
X143392857Y-65178571D01*
X143250000Y-65107142D01*
X143178571Y-64964285D01*
X143178571Y-64821428D01*
X143250000Y-64678571D01*
X143392857Y-64607142D01*
X143750000Y-64607142D01*
X143892857Y-64535714D01*
X144821428Y-65178571D02*
X144678571Y-65107142D01*
X144607142Y-64964285D01*
X144607142Y-63678571D01*
X145250000Y-64178571D02*
X145607142Y-65178571D01*
X145964285Y-64178571D02*
X145607142Y-65178571D01*
X145464285Y-65535714D01*
X145392857Y-65607142D01*
X145250000Y-65678571D01*
X146321428Y-64178571D02*
X146892857Y-64178571D01*
X146535714Y-63678571D02*
X146535714Y-64964285D01*
X146607142Y-65107142D01*
X146750000Y-65178571D01*
X146892857Y-65178571D01*
X147392857Y-65178571D02*
X147392857Y-64178571D01*
X147392857Y-63678571D02*
X147321428Y-63750000D01*
X147392857Y-63821428D01*
X147464285Y-63750000D01*
X147392857Y-63678571D01*
X147392857Y-63821428D01*
X148750000Y-65107142D02*
X148607142Y-65178571D01*
X148321428Y-65178571D01*
X148178571Y-65107142D01*
X148107142Y-65035714D01*
X148035714Y-64892857D01*
X148035714Y-64464285D01*
X148107142Y-64321428D01*
X148178571Y-64250000D01*
X148321428Y-64178571D01*
X148607142Y-64178571D01*
X148750000Y-64250000D01*
X149321428Y-65107142D02*
X149464285Y-65178571D01*
X149750000Y-65178571D01*
X149892857Y-65107142D01*
X149964285Y-64964285D01*
X149964285Y-64892857D01*
X149892857Y-64750000D01*
X149750000Y-64678571D01*
X149535714Y-64678571D01*
X149392857Y-64607142D01*
X149321428Y-64464285D01*
X149321428Y-64392857D01*
X149392857Y-64250000D01*
X149535714Y-64178571D01*
X149750000Y-64178571D01*
X149892857Y-64250000D01*
X150607142Y-65035714D02*
X150678571Y-65107142D01*
X150607142Y-65178571D01*
X150535714Y-65107142D01*
X150607142Y-65035714D01*
X150607142Y-65178571D01*
X151964285Y-65107142D02*
X151821428Y-65178571D01*
X151535714Y-65178571D01*
X151392857Y-65107142D01*
X151321428Y-65035714D01*
X151250000Y-64892857D01*
X151250000Y-64464285D01*
X151321428Y-64321428D01*
X151392857Y-64250000D01*
X151535714Y-64178571D01*
X151821428Y-64178571D01*
X151964285Y-64250000D01*
X152821428Y-65178571D02*
X152678571Y-65107142D01*
X152607142Y-65035714D01*
X152535714Y-64892857D01*
X152535714Y-64464285D01*
X152607142Y-64321428D01*
X152678571Y-64250000D01*
X152821428Y-64178571D01*
X153035714Y-64178571D01*
X153178571Y-64250000D01*
X153250000Y-64321428D01*
X153321428Y-64464285D01*
X153321428Y-64892857D01*
X153250000Y-65035714D01*
X153178571Y-65107142D01*
X153035714Y-65178571D01*
X152821428Y-65178571D01*
X153964285Y-65178571D02*
X153964285Y-64178571D01*
X153964285Y-64321428D02*
X154035714Y-64250000D01*
X154178571Y-64178571D01*
X154392857Y-64178571D01*
X154535714Y-64250000D01*
X154607142Y-64392857D01*
X154607142Y-65178571D01*
X154607142Y-64392857D02*
X154678571Y-64250000D01*
X154821428Y-64178571D01*
X155035714Y-64178571D01*
X155178571Y-64250000D01*
X155250000Y-64392857D01*
X155250000Y-65178571D01*
X150142857Y-106403571D02*
X150142857Y-104903571D01*
X150714285Y-104903571D01*
X150857142Y-104975000D01*
X150928571Y-105046428D01*
X151000000Y-105189285D01*
X151000000Y-105403571D01*
X150928571Y-105546428D01*
X150857142Y-105617857D01*
X150714285Y-105689285D01*
X150142857Y-105689285D01*
X151642857Y-106403571D02*
X151642857Y-104903571D01*
X151642857Y-105617857D02*
X152500000Y-105617857D01*
X152500000Y-106403571D02*
X152500000Y-104903571D01*
X153142857Y-105975000D02*
X153857142Y-105975000D01*
X153000000Y-106403571D02*
X153500000Y-104903571D01*
X154000000Y-106403571D01*
X154428571Y-106332142D02*
X154642857Y-106403571D01*
X155000000Y-106403571D01*
X155142857Y-106332142D01*
X155214285Y-106260714D01*
X155285714Y-106117857D01*
X155285714Y-105975000D01*
X155214285Y-105832142D01*
X155142857Y-105760714D01*
X155000000Y-105689285D01*
X154714285Y-105617857D01*
X154571428Y-105546428D01*
X154500000Y-105475000D01*
X154428571Y-105332142D01*
X154428571Y-105189285D01*
X154500000Y-105046428D01*
X154571428Y-104975000D01*
X154714285Y-104903571D01*
X155071428Y-104903571D01*
X155285714Y-104975000D01*
X155928571Y-105617857D02*
X156428571Y-105617857D01*
X156642857Y-106403571D02*
X155928571Y-106403571D01*
X155928571Y-104903571D01*
X156642857Y-104903571D01*
X158357142Y-106332142D02*
X158571428Y-106403571D01*
X158928571Y-106403571D01*
X159071428Y-106332142D01*
X159142857Y-106260714D01*
X159214285Y-106117857D01*
X159214285Y-105975000D01*
X159142857Y-105832142D01*
X159071428Y-105760714D01*
X158928571Y-105689285D01*
X158642857Y-105617857D01*
X158500000Y-105546428D01*
X158428571Y-105475000D01*
X158357142Y-105332142D01*
X158357142Y-105189285D01*
X158428571Y-105046428D01*
X158500000Y-104975000D01*
X158642857Y-104903571D01*
X159000000Y-104903571D01*
X159214285Y-104975000D01*
X159857142Y-106403571D02*
X159857142Y-104903571D01*
X159857142Y-105617857D02*
X160714285Y-105617857D01*
X160714285Y-106403571D02*
X160714285Y-104903571D01*
X161428571Y-106403571D02*
X161428571Y-104903571D01*
X162642857Y-105617857D02*
X162142857Y-105617857D01*
X162142857Y-106403571D02*
X162142857Y-104903571D01*
X162857142Y-104903571D01*
X163214285Y-104903571D02*
X164071428Y-104903571D01*
X163642857Y-106403571D02*
X163642857Y-104903571D01*
X151107142Y-108525000D02*
X151821428Y-108525000D01*
X150964285Y-108953571D02*
X151464285Y-107453571D01*
X151964285Y-108953571D01*
X152464285Y-108953571D02*
X152464285Y-107453571D01*
X153321428Y-108953571D01*
X153321428Y-107453571D01*
X153821428Y-107453571D02*
X154678571Y-107453571D01*
X154250000Y-108953571D02*
X154250000Y-107453571D01*
X155178571Y-108167857D02*
X155678571Y-108167857D01*
X155892857Y-108953571D02*
X155178571Y-108953571D01*
X155178571Y-107453571D01*
X155892857Y-107453571D01*
X156535714Y-108953571D02*
X156535714Y-107453571D01*
X157392857Y-108953571D01*
X157392857Y-107453571D01*
X158107142Y-108953571D02*
X158107142Y-107453571D01*
X158964285Y-108953571D01*
X158964285Y-107453571D01*
X159607142Y-108525000D02*
X160321428Y-108525000D01*
X159464285Y-108953571D02*
X159964285Y-107453571D01*
X160464285Y-108953571D01*
X161964285Y-107453571D02*
X162892857Y-107453571D01*
X162392857Y-108025000D01*
X162607142Y-108025000D01*
X162750000Y-108096428D01*
X162821428Y-108167857D01*
X162892857Y-108310714D01*
X162892857Y-108667857D01*
X162821428Y-108810714D01*
X162750000Y-108882142D01*
X162607142Y-108953571D01*
X162178571Y-108953571D01*
X162035714Y-108882142D01*
X161964285Y-108810714D01*
X151142857Y-84903571D02*
X151142857Y-83403571D01*
X151714285Y-83403571D01*
X151857142Y-83475000D01*
X151928571Y-83546428D01*
X152000000Y-83689285D01*
X152000000Y-83903571D01*
X151928571Y-84046428D01*
X151857142Y-84117857D01*
X151714285Y-84189285D01*
X151142857Y-84189285D01*
X152642857Y-84903571D02*
X152642857Y-83403571D01*
X152642857Y-84117857D02*
X153500000Y-84117857D01*
X153500000Y-84903571D02*
X153500000Y-83403571D01*
X154142857Y-84475000D02*
X154857142Y-84475000D01*
X154000000Y-84903571D02*
X154500000Y-83403571D01*
X155000000Y-84903571D01*
X155428571Y-84832142D02*
X155642857Y-84903571D01*
X156000000Y-84903571D01*
X156142857Y-84832142D01*
X156214285Y-84760714D01*
X156285714Y-84617857D01*
X156285714Y-84475000D01*
X156214285Y-84332142D01*
X156142857Y-84260714D01*
X156000000Y-84189285D01*
X155714285Y-84117857D01*
X155571428Y-84046428D01*
X155500000Y-83975000D01*
X155428571Y-83832142D01*
X155428571Y-83689285D01*
X155500000Y-83546428D01*
X155571428Y-83475000D01*
X155714285Y-83403571D01*
X156071428Y-83403571D01*
X156285714Y-83475000D01*
X156928571Y-84117857D02*
X157428571Y-84117857D01*
X157642857Y-84903571D02*
X156928571Y-84903571D01*
X156928571Y-83403571D01*
X157642857Y-83403571D01*
X159357142Y-84832142D02*
X159571428Y-84903571D01*
X159928571Y-84903571D01*
X160071428Y-84832142D01*
X160142857Y-84760714D01*
X160214285Y-84617857D01*
X160214285Y-84475000D01*
X160142857Y-84332142D01*
X160071428Y-84260714D01*
X159928571Y-84189285D01*
X159642857Y-84117857D01*
X159500000Y-84046428D01*
X159428571Y-83975000D01*
X159357142Y-83832142D01*
X159357142Y-83689285D01*
X159428571Y-83546428D01*
X159500000Y-83475000D01*
X159642857Y-83403571D01*
X160000000Y-83403571D01*
X160214285Y-83475000D01*
X160857142Y-84903571D02*
X160857142Y-83403571D01*
X160857142Y-84117857D02*
X161714285Y-84117857D01*
X161714285Y-84903571D02*
X161714285Y-83403571D01*
X162428571Y-84903571D02*
X162428571Y-83403571D01*
X163642857Y-84117857D02*
X163142857Y-84117857D01*
X163142857Y-84903571D02*
X163142857Y-83403571D01*
X163857142Y-83403571D01*
X164214285Y-83403571D02*
X165071428Y-83403571D01*
X164642857Y-84903571D02*
X164642857Y-83403571D01*
X152107142Y-87025000D02*
X152821428Y-87025000D01*
X151964285Y-87453571D02*
X152464285Y-85953571D01*
X152964285Y-87453571D01*
X153464285Y-87453571D02*
X153464285Y-85953571D01*
X154321428Y-87453571D01*
X154321428Y-85953571D01*
X154821428Y-85953571D02*
X155678571Y-85953571D01*
X155250000Y-87453571D02*
X155250000Y-85953571D01*
X156178571Y-86667857D02*
X156678571Y-86667857D01*
X156892857Y-87453571D02*
X156178571Y-87453571D01*
X156178571Y-85953571D01*
X156892857Y-85953571D01*
X157535714Y-87453571D02*
X157535714Y-85953571D01*
X158392857Y-87453571D01*
X158392857Y-85953571D01*
X159107142Y-87453571D02*
X159107142Y-85953571D01*
X159964285Y-87453571D01*
X159964285Y-85953571D01*
X160607142Y-87025000D02*
X161321428Y-87025000D01*
X160464285Y-87453571D02*
X160964285Y-85953571D01*
X161464285Y-87453571D01*
X163035714Y-86096428D02*
X163107142Y-86025000D01*
X163250000Y-85953571D01*
X163607142Y-85953571D01*
X163750000Y-86025000D01*
X163821428Y-86096428D01*
X163892857Y-86239285D01*
X163892857Y-86382142D01*
X163821428Y-86596428D01*
X162964285Y-87453571D01*
X163892857Y-87453571D01*
X151142857Y-55903571D02*
X151142857Y-54403571D01*
X151714285Y-54403571D01*
X151857142Y-54475000D01*
X151928571Y-54546428D01*
X152000000Y-54689285D01*
X152000000Y-54903571D01*
X151928571Y-55046428D01*
X151857142Y-55117857D01*
X151714285Y-55189285D01*
X151142857Y-55189285D01*
X152642857Y-55903571D02*
X152642857Y-54403571D01*
X152642857Y-55117857D02*
X153500000Y-55117857D01*
X153500000Y-55903571D02*
X153500000Y-54403571D01*
X154142857Y-55475000D02*
X154857142Y-55475000D01*
X154000000Y-55903571D02*
X154500000Y-54403571D01*
X155000000Y-55903571D01*
X155428571Y-55832142D02*
X155642857Y-55903571D01*
X156000000Y-55903571D01*
X156142857Y-55832142D01*
X156214285Y-55760714D01*
X156285714Y-55617857D01*
X156285714Y-55475000D01*
X156214285Y-55332142D01*
X156142857Y-55260714D01*
X156000000Y-55189285D01*
X155714285Y-55117857D01*
X155571428Y-55046428D01*
X155500000Y-54975000D01*
X155428571Y-54832142D01*
X155428571Y-54689285D01*
X155500000Y-54546428D01*
X155571428Y-54475000D01*
X155714285Y-54403571D01*
X156071428Y-54403571D01*
X156285714Y-54475000D01*
X156928571Y-55117857D02*
X157428571Y-55117857D01*
X157642857Y-55903571D02*
X156928571Y-55903571D01*
X156928571Y-54403571D01*
X157642857Y-54403571D01*
X159357142Y-55832142D02*
X159571428Y-55903571D01*
X159928571Y-55903571D01*
X160071428Y-55832142D01*
X160142857Y-55760714D01*
X160214285Y-55617857D01*
X160214285Y-55475000D01*
X160142857Y-55332142D01*
X160071428Y-55260714D01*
X159928571Y-55189285D01*
X159642857Y-55117857D01*
X159500000Y-55046428D01*
X159428571Y-54975000D01*
X159357142Y-54832142D01*
X159357142Y-54689285D01*
X159428571Y-54546428D01*
X159500000Y-54475000D01*
X159642857Y-54403571D01*
X160000000Y-54403571D01*
X160214285Y-54475000D01*
X160857142Y-55903571D02*
X160857142Y-54403571D01*
X160857142Y-55117857D02*
X161714285Y-55117857D01*
X161714285Y-55903571D02*
X161714285Y-54403571D01*
X162428571Y-55903571D02*
X162428571Y-54403571D01*
X163642857Y-55117857D02*
X163142857Y-55117857D01*
X163142857Y-55903571D02*
X163142857Y-54403571D01*
X163857142Y-54403571D01*
X164214285Y-54403571D02*
X165071428Y-54403571D01*
X164642857Y-55903571D02*
X164642857Y-54403571D01*
X152107142Y-58025000D02*
X152821428Y-58025000D01*
X151964285Y-58453571D02*
X152464285Y-56953571D01*
X152964285Y-58453571D01*
X153464285Y-58453571D02*
X153464285Y-56953571D01*
X154321428Y-58453571D01*
X154321428Y-56953571D01*
X154821428Y-56953571D02*
X155678571Y-56953571D01*
X155250000Y-58453571D02*
X155250000Y-56953571D01*
X156178571Y-57667857D02*
X156678571Y-57667857D01*
X156892857Y-58453571D02*
X156178571Y-58453571D01*
X156178571Y-56953571D01*
X156892857Y-56953571D01*
X157535714Y-58453571D02*
X157535714Y-56953571D01*
X158392857Y-58453571D01*
X158392857Y-56953571D01*
X159107142Y-58453571D02*
X159107142Y-56953571D01*
X159964285Y-58453571D01*
X159964285Y-56953571D01*
X160607142Y-58025000D02*
X161321428Y-58025000D01*
X160464285Y-58453571D02*
X160964285Y-56953571D01*
X161464285Y-58453571D01*
X163892857Y-58453571D02*
X163035714Y-58453571D01*
X163464285Y-58453571D02*
X163464285Y-56953571D01*
X163321428Y-57167857D01*
X163178571Y-57310714D01*
X163035714Y-57382142D01*
X125678571Y-88403571D02*
X126535714Y-88403571D01*
X126107142Y-89903571D02*
X126107142Y-88403571D01*
X127321428Y-88403571D02*
X127607142Y-88403571D01*
X127750000Y-88475000D01*
X127892857Y-88617857D01*
X127964285Y-88903571D01*
X127964285Y-89403571D01*
X127892857Y-89689285D01*
X127750000Y-89832142D01*
X127607142Y-89903571D01*
X127321428Y-89903571D01*
X127178571Y-89832142D01*
X127035714Y-89689285D01*
X126964285Y-89403571D01*
X126964285Y-88903571D01*
X127035714Y-88617857D01*
X127178571Y-88475000D01*
X127321428Y-88403571D01*
X130607142Y-89903571D02*
X130107142Y-89189285D01*
X129750000Y-89903571D02*
X129750000Y-88403571D01*
X130321428Y-88403571D01*
X130464285Y-88475000D01*
X130535714Y-88546428D01*
X130607142Y-88689285D01*
X130607142Y-88903571D01*
X130535714Y-89046428D01*
X130464285Y-89117857D01*
X130321428Y-89189285D01*
X129750000Y-89189285D01*
X131750000Y-89117857D02*
X131250000Y-89117857D01*
X131250000Y-89903571D02*
X131250000Y-88403571D01*
X131964285Y-88403571D01*
X132535714Y-89903571D02*
X132535714Y-88403571D01*
X133250000Y-89903571D02*
X133250000Y-88403571D01*
X133607142Y-88403571D01*
X133821428Y-88475000D01*
X133964285Y-88617857D01*
X134035714Y-88760714D01*
X134107142Y-89046428D01*
X134107142Y-89260714D01*
X134035714Y-89546428D01*
X133964285Y-89689285D01*
X133821428Y-89832142D01*
X133607142Y-89903571D01*
X133250000Y-89903571D01*
X135892857Y-89903571D02*
X135892857Y-88403571D01*
X136392857Y-89475000D01*
X136892857Y-88403571D01*
X136892857Y-89903571D01*
X137892857Y-88403571D02*
X138178571Y-88403571D01*
X138321428Y-88475000D01*
X138464285Y-88617857D01*
X138535714Y-88903571D01*
X138535714Y-89403571D01*
X138464285Y-89689285D01*
X138321428Y-89832142D01*
X138178571Y-89903571D01*
X137892857Y-89903571D01*
X137750000Y-89832142D01*
X137607142Y-89689285D01*
X137535714Y-89403571D01*
X137535714Y-88903571D01*
X137607142Y-88617857D01*
X137750000Y-88475000D01*
X137892857Y-88403571D01*
X139178571Y-89903571D02*
X139178571Y-88403571D01*
X139535714Y-88403571D01*
X139750000Y-88475000D01*
X139892857Y-88617857D01*
X139964285Y-88760714D01*
X140035714Y-89046428D01*
X140035714Y-89260714D01*
X139964285Y-89546428D01*
X139892857Y-89689285D01*
X139750000Y-89832142D01*
X139535714Y-89903571D01*
X139178571Y-89903571D01*
X140678571Y-88403571D02*
X140678571Y-89617857D01*
X140750000Y-89760714D01*
X140821428Y-89832142D01*
X140964285Y-89903571D01*
X141250000Y-89903571D01*
X141392857Y-89832142D01*
X141464285Y-89760714D01*
X141535714Y-89617857D01*
X141535714Y-88403571D01*
X142964285Y-89903571D02*
X142250000Y-89903571D01*
X142250000Y-88403571D01*
X143464285Y-89117857D02*
X143964285Y-89117857D01*
X144178571Y-89903571D02*
X143464285Y-89903571D01*
X143464285Y-88403571D01*
X144178571Y-88403571D01*
X125678571Y-92453571D02*
X125178571Y-91739285D01*
X124821428Y-92453571D02*
X124821428Y-90953571D01*
X125392857Y-90953571D01*
X125535714Y-91025000D01*
X125607142Y-91096428D01*
X125678571Y-91239285D01*
X125678571Y-91453571D01*
X125607142Y-91596428D01*
X125535714Y-91667857D01*
X125392857Y-91739285D01*
X124821428Y-91739285D01*
X126821428Y-91667857D02*
X126321428Y-91667857D01*
X126321428Y-92453571D02*
X126321428Y-90953571D01*
X127035714Y-90953571D01*
X128678571Y-92025000D02*
X129392857Y-92025000D01*
X128535714Y-92453571D02*
X129035714Y-90953571D01*
X129535714Y-92453571D01*
X130035714Y-92453571D02*
X130035714Y-90953571D01*
X130892857Y-92453571D01*
X130892857Y-90953571D01*
X131392857Y-90953571D02*
X132250000Y-90953571D01*
X131821428Y-92453571D02*
X131821428Y-90953571D01*
X132750000Y-91667857D02*
X133250000Y-91667857D01*
X133464285Y-92453571D02*
X132750000Y-92453571D01*
X132750000Y-90953571D01*
X133464285Y-90953571D01*
X134107142Y-92453571D02*
X134107142Y-90953571D01*
X134964285Y-92453571D01*
X134964285Y-90953571D01*
X135678571Y-92453571D02*
X135678571Y-90953571D01*
X136535714Y-92453571D01*
X136535714Y-90953571D01*
X137178571Y-92025000D02*
X137892857Y-92025000D01*
X137035714Y-92453571D02*
X137535714Y-90953571D01*
X138035714Y-92453571D01*
X140535714Y-92310714D02*
X140464285Y-92382142D01*
X140250000Y-92453571D01*
X140107142Y-92453571D01*
X139892857Y-92382142D01*
X139750000Y-92239285D01*
X139678571Y-92096428D01*
X139607142Y-91810714D01*
X139607142Y-91596428D01*
X139678571Y-91310714D01*
X139750000Y-91167857D01*
X139892857Y-91025000D01*
X140107142Y-90953571D01*
X140250000Y-90953571D01*
X140464285Y-91025000D01*
X140535714Y-91096428D01*
X141464285Y-90953571D02*
X141750000Y-90953571D01*
X141892857Y-91025000D01*
X142035714Y-91167857D01*
X142107142Y-91453571D01*
X142107142Y-91953571D01*
X142035714Y-92239285D01*
X141892857Y-92382142D01*
X141750000Y-92453571D01*
X141464285Y-92453571D01*
X141321428Y-92382142D01*
X141178571Y-92239285D01*
X141107142Y-91953571D01*
X141107142Y-91453571D01*
X141178571Y-91167857D01*
X141321428Y-91025000D01*
X141464285Y-90953571D01*
X142750000Y-92453571D02*
X142750000Y-90953571D01*
X143607142Y-92453571D01*
X143607142Y-90953571D01*
X144321428Y-92453571D02*
X144321428Y-90953571D01*
X145178571Y-92453571D01*
X145178571Y-90953571D01*
X125500000Y-62178571D02*
X125000000Y-61464285D01*
X124642857Y-62178571D02*
X124642857Y-60678571D01*
X125214285Y-60678571D01*
X125357142Y-60750000D01*
X125428571Y-60821428D01*
X125500000Y-60964285D01*
X125500000Y-61178571D01*
X125428571Y-61321428D01*
X125357142Y-61392857D01*
X125214285Y-61464285D01*
X124642857Y-61464285D01*
X126642857Y-61392857D02*
X126142857Y-61392857D01*
X126142857Y-62178571D02*
X126142857Y-60678571D01*
X126857142Y-60678571D01*
X127428571Y-62178571D02*
X127428571Y-60678571D01*
X128142857Y-62178571D02*
X128142857Y-60678571D01*
X128500000Y-60678571D01*
X128714285Y-60750000D01*
X128857142Y-60892857D01*
X128928571Y-61035714D01*
X129000000Y-61321428D01*
X129000000Y-61535714D01*
X128928571Y-61821428D01*
X128857142Y-61964285D01*
X128714285Y-62107142D01*
X128500000Y-62178571D01*
X128142857Y-62178571D01*
X131642857Y-62178571D02*
X131142857Y-61464285D01*
X130785714Y-62178571D02*
X130785714Y-60678571D01*
X131357142Y-60678571D01*
X131500000Y-60750000D01*
X131571428Y-60821428D01*
X131642857Y-60964285D01*
X131642857Y-61178571D01*
X131571428Y-61321428D01*
X131500000Y-61392857D01*
X131357142Y-61464285D01*
X130785714Y-61464285D01*
X132785714Y-61392857D02*
X132285714Y-61392857D01*
X132285714Y-62178571D02*
X132285714Y-60678571D01*
X133000000Y-60678571D01*
X134571428Y-60678571D02*
X135500000Y-60678571D01*
X135000000Y-61250000D01*
X135214285Y-61250000D01*
X135357142Y-61321428D01*
X135428571Y-61392857D01*
X135500000Y-61535714D01*
X135500000Y-61892857D01*
X135428571Y-62035714D01*
X135357142Y-62107142D01*
X135214285Y-62178571D01*
X134785714Y-62178571D01*
X134642857Y-62107142D01*
X134571428Y-62035714D01*
X136142857Y-61607142D02*
X137285714Y-61607142D01*
X137857142Y-60678571D02*
X138214285Y-62178571D01*
X138500000Y-61107142D01*
X138785714Y-62178571D01*
X139142857Y-60678571D01*
X140357142Y-62178571D02*
X140357142Y-61392857D01*
X140285714Y-61250000D01*
X140142857Y-61178571D01*
X139857142Y-61178571D01*
X139714285Y-61250000D01*
X140357142Y-62107142D02*
X140214285Y-62178571D01*
X139857142Y-62178571D01*
X139714285Y-62107142D01*
X139642857Y-61964285D01*
X139642857Y-61821428D01*
X139714285Y-61678571D01*
X139857142Y-61607142D01*
X140214285Y-61607142D01*
X140357142Y-61535714D01*
X140928571Y-61178571D02*
X141285714Y-62178571D01*
X141642857Y-61178571D02*
X141285714Y-62178571D01*
X141142857Y-62535714D01*
X141071428Y-62607142D01*
X140928571Y-62678571D01*
X143285714Y-62107142D02*
X143500000Y-62178571D01*
X143857142Y-62178571D01*
X144000000Y-62107142D01*
X144071428Y-62035714D01*
X144142857Y-61892857D01*
X144142857Y-61750000D01*
X144071428Y-61607142D01*
X144000000Y-61535714D01*
X143857142Y-61464285D01*
X143571428Y-61392857D01*
X143428571Y-61321428D01*
X143357142Y-61250000D01*
X143285714Y-61107142D01*
X143285714Y-60964285D01*
X143357142Y-60821428D01*
X143428571Y-60750000D01*
X143571428Y-60678571D01*
X143928571Y-60678571D01*
X144142857Y-60750000D01*
X144785714Y-61178571D02*
X144785714Y-62678571D01*
X144785714Y-61250000D02*
X144928571Y-61178571D01*
X145214285Y-61178571D01*
X145357142Y-61250000D01*
X145428571Y-61321428D01*
X145500000Y-61464285D01*
X145500000Y-61892857D01*
X145428571Y-62035714D01*
X145357142Y-62107142D01*
X145214285Y-62178571D01*
X144928571Y-62178571D01*
X144785714Y-62107142D01*
X146357142Y-62178571D02*
X146214285Y-62107142D01*
X146142857Y-61964285D01*
X146142857Y-60678571D01*
X146928571Y-62178571D02*
X146928571Y-61178571D01*
X146928571Y-60678571D02*
X146857142Y-60750000D01*
X146928571Y-60821428D01*
X147000000Y-60750000D01*
X146928571Y-60678571D01*
X146928571Y-60821428D01*
X147428571Y-61178571D02*
X148000000Y-61178571D01*
X147642857Y-60678571D02*
X147642857Y-61964285D01*
X147714285Y-62107142D01*
X147857142Y-62178571D01*
X148000000Y-62178571D01*
X148285714Y-61178571D02*
X148857142Y-61178571D01*
X148500000Y-60678571D02*
X148500000Y-61964285D01*
X148571428Y-62107142D01*
X148714285Y-62178571D01*
X148857142Y-62178571D01*
X149928571Y-62107142D02*
X149785714Y-62178571D01*
X149500000Y-62178571D01*
X149357142Y-62107142D01*
X149285714Y-61964285D01*
X149285714Y-61392857D01*
X149357142Y-61250000D01*
X149500000Y-61178571D01*
X149785714Y-61178571D01*
X149928571Y-61250000D01*
X150000000Y-61392857D01*
X150000000Y-61535714D01*
X149285714Y-61678571D01*
X150642857Y-62178571D02*
X150642857Y-61178571D01*
X150642857Y-61464285D02*
X150714285Y-61321428D01*
X150785714Y-61250000D01*
X150928571Y-61178571D01*
X151071428Y-61178571D01*
X153571428Y-62035714D02*
X153500000Y-62107142D01*
X153285714Y-62178571D01*
X153142857Y-62178571D01*
X152928571Y-62107142D01*
X152785714Y-61964285D01*
X152714285Y-61821428D01*
X152642857Y-61535714D01*
X152642857Y-61321428D01*
X152714285Y-61035714D01*
X152785714Y-60892857D01*
X152928571Y-60750000D01*
X153142857Y-60678571D01*
X153285714Y-60678571D01*
X153500000Y-60750000D01*
X153571428Y-60821428D01*
X154214285Y-62178571D02*
X154214285Y-61178571D01*
X154214285Y-60678571D02*
X154142857Y-60750000D01*
X154214285Y-60821428D01*
X154285714Y-60750000D01*
X154214285Y-60678571D01*
X154214285Y-60821428D01*
X154928571Y-62178571D02*
X154928571Y-61178571D01*
X154928571Y-61464285D02*
X155000000Y-61321428D01*
X155071428Y-61250000D01*
X155214285Y-61178571D01*
X155357142Y-61178571D01*
X156500000Y-62107142D02*
X156357142Y-62178571D01*
X156071428Y-62178571D01*
X155928571Y-62107142D01*
X155857142Y-62035714D01*
X155785714Y-61892857D01*
X155785714Y-61464285D01*
X155857142Y-61321428D01*
X155928571Y-61250000D01*
X156071428Y-61178571D01*
X156357142Y-61178571D01*
X156500000Y-61250000D01*
X157785714Y-61178571D02*
X157785714Y-62178571D01*
X157142857Y-61178571D02*
X157142857Y-61964285D01*
X157214285Y-62107142D01*
X157357142Y-62178571D01*
X157571428Y-62178571D01*
X157714285Y-62107142D01*
X157785714Y-62035714D01*
X158500000Y-62178571D02*
X158500000Y-61178571D01*
X158500000Y-60678571D02*
X158428571Y-60750000D01*
X158500000Y-60821428D01*
X158571428Y-60750000D01*
X158500000Y-60678571D01*
X158500000Y-60821428D01*
X159000000Y-61178571D02*
X159571428Y-61178571D01*
X159214285Y-60678571D02*
X159214285Y-61964285D01*
X159285714Y-62107142D01*
X159428571Y-62178571D01*
X159571428Y-62178571D01*
D12*
%TO.C,G\u002A\u002A\u002A*%
G36*
X127707128Y-96505472D02*
G01*
X128009901Y-96524949D01*
X128307414Y-96565382D01*
X128598801Y-96626541D01*
X128883200Y-96708193D01*
X129159747Y-96810105D01*
X129427577Y-96932047D01*
X129566620Y-97005226D01*
X129822329Y-97158744D01*
X130064671Y-97329190D01*
X130292952Y-97515595D01*
X130506478Y-97716992D01*
X130704553Y-97932415D01*
X130886483Y-98160896D01*
X131051573Y-98401469D01*
X131199129Y-98653165D01*
X131328457Y-98915018D01*
X131438860Y-99186061D01*
X131529645Y-99465326D01*
X131600117Y-99751847D01*
X131622263Y-99867144D01*
X131637952Y-99958238D01*
X131650484Y-100037980D01*
X131660201Y-100110783D01*
X131667444Y-100181060D01*
X131672555Y-100253223D01*
X131675878Y-100331684D01*
X131677753Y-100420857D01*
X131678523Y-100525153D01*
X131678598Y-100593870D01*
X131678334Y-100700976D01*
X131677418Y-100790424D01*
X131675522Y-100866640D01*
X131672315Y-100934052D01*
X131667469Y-100997085D01*
X131660655Y-101060167D01*
X131651542Y-101127723D01*
X131639802Y-101204181D01*
X131627661Y-101278566D01*
X131570184Y-101558818D01*
X131491628Y-101835610D01*
X131392926Y-102107274D01*
X131275007Y-102372142D01*
X131138802Y-102628549D01*
X130985244Y-102874827D01*
X130815261Y-103109308D01*
X130629785Y-103330326D01*
X130429747Y-103536214D01*
X130302027Y-103652744D01*
X130064399Y-103845464D01*
X129816867Y-104018458D01*
X129559638Y-104171634D01*
X129292923Y-104304902D01*
X129016931Y-104418168D01*
X128731872Y-104511343D01*
X128437954Y-104584334D01*
X128135388Y-104637050D01*
X128012304Y-104652404D01*
X127950228Y-104657725D01*
X127871290Y-104662114D01*
X127780699Y-104665490D01*
X127683662Y-104667774D01*
X127585389Y-104668884D01*
X127491088Y-104668740D01*
X127405968Y-104667261D01*
X127335236Y-104664366D01*
X127317091Y-104663172D01*
X127020450Y-104630419D01*
X126729401Y-104576736D01*
X126444885Y-104502751D01*
X126167841Y-104409095D01*
X125899212Y-104296396D01*
X125639936Y-104165282D01*
X125390954Y-104016384D01*
X125153207Y-103850329D01*
X124927635Y-103667747D01*
X124715178Y-103469266D01*
X124516777Y-103255516D01*
X124333371Y-103027125D01*
X124165902Y-102784723D01*
X124015310Y-102528939D01*
X123956086Y-102415210D01*
X123833985Y-102147492D01*
X123731557Y-101870870D01*
X123648622Y-101584729D01*
X123585001Y-101288457D01*
X123542915Y-101002479D01*
X123536781Y-100931952D01*
X123532382Y-100844101D01*
X123529685Y-100743620D01*
X123528657Y-100635200D01*
X123528955Y-100580416D01*
X124853976Y-100580416D01*
X124857139Y-100693491D01*
X124866257Y-100799087D01*
X124879935Y-100883581D01*
X124923531Y-101047311D01*
X124982406Y-101196527D01*
X125058096Y-101334006D01*
X125152136Y-101462524D01*
X125266064Y-101584859D01*
X125270002Y-101588653D01*
X125391674Y-101693294D01*
X125519327Y-101778619D01*
X125654919Y-101845419D01*
X125800403Y-101894486D01*
X125957737Y-101926612D01*
X126128875Y-101942587D01*
X126145956Y-101943295D01*
X126297725Y-101943308D01*
X126436916Y-101930678D01*
X126569795Y-101904289D01*
X126702629Y-101863019D01*
X126790901Y-101828116D01*
X126883672Y-101788678D01*
X126961879Y-101874931D01*
X127009485Y-101925815D01*
X127047188Y-101961434D01*
X127078535Y-101984043D01*
X127107072Y-101995897D01*
X127136346Y-101999251D01*
X127155650Y-101998131D01*
X127175178Y-101995189D01*
X127192982Y-101989144D01*
X127212243Y-101977599D01*
X127236146Y-101958155D01*
X127267871Y-101928413D01*
X127310602Y-101885975D01*
X127328688Y-101867739D01*
X127381525Y-101813204D01*
X127419698Y-101770407D01*
X127433568Y-101751766D01*
X127686864Y-101751766D01*
X127694228Y-101786685D01*
X127713495Y-101824357D01*
X127738909Y-101854796D01*
X127751474Y-101863836D01*
X127758685Y-101866327D01*
X127771421Y-101868551D01*
X127790848Y-101870523D01*
X127818132Y-101872258D01*
X127854442Y-101873771D01*
X127900945Y-101875076D01*
X127958807Y-101876190D01*
X128029196Y-101877126D01*
X128113279Y-101877900D01*
X128212223Y-101878527D01*
X128327196Y-101879022D01*
X128459364Y-101879399D01*
X128609895Y-101879674D01*
X128779956Y-101879862D01*
X128970715Y-101879978D01*
X129009527Y-101879993D01*
X129202409Y-101880038D01*
X129374420Y-101880015D01*
X129526775Y-101879907D01*
X129660687Y-101879700D01*
X129777372Y-101879376D01*
X129878046Y-101878919D01*
X129963922Y-101878313D01*
X130036217Y-101877542D01*
X130096145Y-101876589D01*
X130144921Y-101875439D01*
X130183760Y-101874075D01*
X130213878Y-101872481D01*
X130236488Y-101870641D01*
X130252807Y-101868538D01*
X130264049Y-101866156D01*
X130271429Y-101863479D01*
X130272114Y-101863136D01*
X130300877Y-101838449D01*
X130324212Y-101801505D01*
X130336347Y-101762131D01*
X130336956Y-101752697D01*
X130332709Y-101739895D01*
X130320398Y-101708315D01*
X130300667Y-101659476D01*
X130274162Y-101594896D01*
X130241526Y-101516094D01*
X130203406Y-101424590D01*
X130160446Y-101321903D01*
X130113291Y-101209551D01*
X130062585Y-101089053D01*
X130008974Y-100961929D01*
X129953102Y-100829697D01*
X129895614Y-100693877D01*
X129837155Y-100555986D01*
X129778370Y-100417546D01*
X129719904Y-100280073D01*
X129662402Y-100145088D01*
X129606508Y-100014108D01*
X129552867Y-99888654D01*
X129502125Y-99770245D01*
X129454925Y-99660398D01*
X129411914Y-99560633D01*
X129373735Y-99472470D01*
X129341034Y-99397427D01*
X129314455Y-99337022D01*
X129294643Y-99292776D01*
X129282243Y-99266207D01*
X129278242Y-99258846D01*
X129259272Y-99240828D01*
X129235680Y-99227479D01*
X129204106Y-99218158D01*
X129161188Y-99212223D01*
X129103564Y-99209030D01*
X129027873Y-99207937D01*
X129011739Y-99207913D01*
X128932192Y-99208700D01*
X128871366Y-99211484D01*
X128825937Y-99216902D01*
X128792582Y-99225590D01*
X128767977Y-99238185D01*
X128748799Y-99255322D01*
X128745745Y-99258846D01*
X128738867Y-99271962D01*
X128724046Y-99303908D01*
X128701937Y-99353170D01*
X128673200Y-99418236D01*
X128638491Y-99497591D01*
X128598469Y-99589724D01*
X128553791Y-99693121D01*
X128505115Y-99806268D01*
X128453100Y-99927653D01*
X128398402Y-100055762D01*
X128355346Y-100156918D01*
X128288420Y-100314365D01*
X128229651Y-100452782D01*
X128178581Y-100573476D01*
X128134756Y-100677753D01*
X128097716Y-100766922D01*
X128067007Y-100842290D01*
X128042171Y-100905164D01*
X128022752Y-100956852D01*
X128008292Y-100998660D01*
X127998336Y-101031897D01*
X127992426Y-101057870D01*
X127990105Y-101077886D01*
X127990918Y-101093253D01*
X127994406Y-101105278D01*
X128000115Y-101115268D01*
X128007586Y-101124531D01*
X128014593Y-101132373D01*
X128035468Y-101151694D01*
X128060988Y-101165775D01*
X128094753Y-101175366D01*
X128140361Y-101181213D01*
X128201414Y-101184066D01*
X128266304Y-101184696D01*
X128344259Y-101183686D01*
X128403434Y-101180169D01*
X128447067Y-101173413D01*
X128478392Y-101162684D01*
X128500648Y-101147252D01*
X128515922Y-101128224D01*
X128523221Y-101113301D01*
X128538161Y-101079930D01*
X128559911Y-101030058D01*
X128587639Y-100965635D01*
X128620510Y-100888609D01*
X128657694Y-100800928D01*
X128698357Y-100704539D01*
X128741666Y-100601393D01*
X128769068Y-100535892D01*
X128813192Y-100430566D01*
X128854885Y-100331606D01*
X128893359Y-100240846D01*
X128927825Y-100160119D01*
X128957495Y-100091258D01*
X128981580Y-100036096D01*
X128999292Y-99996467D01*
X129009843Y-99974204D01*
X129012494Y-99969913D01*
X129018322Y-99979708D01*
X129031495Y-100007445D01*
X129050924Y-100050651D01*
X129075522Y-100106856D01*
X129104198Y-100173588D01*
X129135864Y-100248374D01*
X129149919Y-100281892D01*
X129222319Y-100455053D01*
X129286650Y-100608940D01*
X129343370Y-100744652D01*
X129392937Y-100863291D01*
X129435809Y-100965956D01*
X129472443Y-101053748D01*
X129503298Y-101127767D01*
X129528832Y-101189113D01*
X129549502Y-101238886D01*
X129565766Y-101278188D01*
X129578083Y-101308117D01*
X129586910Y-101329775D01*
X129592705Y-101344261D01*
X129595926Y-101352677D01*
X129597031Y-101356121D01*
X129597043Y-101356255D01*
X129586280Y-101357042D01*
X129555110Y-101357863D01*
X129505213Y-101358702D01*
X129438271Y-101359546D01*
X129355962Y-101360379D01*
X129259968Y-101361185D01*
X129151969Y-101361950D01*
X129033645Y-101362658D01*
X128906675Y-101363294D01*
X128772742Y-101363844D01*
X128741979Y-101363953D01*
X128584440Y-101364507D01*
X128447486Y-101365032D01*
X128329614Y-101365573D01*
X128229322Y-101366175D01*
X128145106Y-101366882D01*
X128075466Y-101367738D01*
X128018897Y-101368787D01*
X127973899Y-101370076D01*
X127938968Y-101371647D01*
X127912601Y-101373546D01*
X127893298Y-101375816D01*
X127879554Y-101378503D01*
X127869868Y-101381650D01*
X127862738Y-101385303D01*
X127856660Y-101389505D01*
X127855740Y-101390191D01*
X127838573Y-101408445D01*
X127818125Y-101440858D01*
X127793235Y-101489551D01*
X127762738Y-101556647D01*
X127755886Y-101572408D01*
X127732184Y-101628470D01*
X127711976Y-101678572D01*
X127696807Y-101718700D01*
X127688221Y-101744843D01*
X127686864Y-101751766D01*
X127433568Y-101751766D01*
X127445020Y-101736376D01*
X127459304Y-101708140D01*
X127464360Y-101682726D01*
X127462002Y-101657164D01*
X127460682Y-101651283D01*
X127450641Y-101635320D01*
X127424616Y-101604226D01*
X127382662Y-101558059D01*
X127324833Y-101496876D01*
X127251183Y-101420733D01*
X127161766Y-101329687D01*
X127056634Y-101223796D01*
X127031390Y-101198500D01*
X126609462Y-100776087D01*
X126556475Y-100776087D01*
X126535422Y-100776583D01*
X126517895Y-100779622D01*
X126500409Y-100787535D01*
X126479477Y-100802651D01*
X126451615Y-100827300D01*
X126413336Y-100863810D01*
X126387102Y-100889283D01*
X126333586Y-100942270D01*
X126294516Y-100983723D01*
X126267751Y-101016693D01*
X126251148Y-101044226D01*
X126242565Y-101069373D01*
X126239858Y-101095182D01*
X126239826Y-101098864D01*
X126241467Y-101120601D01*
X126247832Y-101141590D01*
X126261084Y-101164902D01*
X126283385Y-101193608D01*
X126316899Y-101230777D01*
X126363789Y-101279482D01*
X126375361Y-101291284D01*
X126474661Y-101392350D01*
X126409700Y-101406464D01*
X126348356Y-101415537D01*
X126272926Y-101420267D01*
X126190351Y-101420805D01*
X126107571Y-101417307D01*
X126031528Y-101409923D01*
X125969163Y-101398809D01*
X125960421Y-101396559D01*
X125841885Y-101353168D01*
X125732333Y-101291173D01*
X125634106Y-101212778D01*
X125549547Y-101120182D01*
X125480997Y-101015587D01*
X125430798Y-100901194D01*
X125429577Y-100897566D01*
X125399640Y-100779692D01*
X125383663Y-100651804D01*
X125381945Y-100521242D01*
X125394780Y-100395344D01*
X125406873Y-100335923D01*
X125447966Y-100211827D01*
X125507566Y-100098226D01*
X125584045Y-99996884D01*
X125675777Y-99909561D01*
X125781134Y-99838019D01*
X125898488Y-99784019D01*
X125925087Y-99774885D01*
X126000796Y-99756446D01*
X126090457Y-99744276D01*
X126186743Y-99738728D01*
X126282325Y-99740156D01*
X126369876Y-99748913D01*
X126390410Y-99752432D01*
X126518552Y-99787205D01*
X126635494Y-99840403D01*
X126739949Y-99911049D01*
X126830632Y-99998167D01*
X126906256Y-100100783D01*
X126946197Y-100174218D01*
X126977020Y-100246305D01*
X127000302Y-100319548D01*
X127016513Y-100397592D01*
X127026124Y-100484081D01*
X127029607Y-100582659D01*
X127027433Y-100696969D01*
X127023671Y-100773550D01*
X127018391Y-100864882D01*
X127162789Y-101008224D01*
X127213758Y-101058672D01*
X127251934Y-101095633D01*
X127280174Y-101121203D01*
X127301333Y-101137481D01*
X127318269Y-101146564D01*
X127333837Y-101150551D01*
X127350895Y-101151540D01*
X127357963Y-101151566D01*
X127394829Y-101147867D01*
X127425732Y-101135348D01*
X127451946Y-101111874D01*
X127474744Y-101075310D01*
X127495397Y-101023523D01*
X127515180Y-100954377D01*
X127535365Y-100865738D01*
X127539074Y-100847870D01*
X127548704Y-100782741D01*
X127554909Y-100702157D01*
X127557697Y-100612485D01*
X127557070Y-100520090D01*
X127553036Y-100431336D01*
X127545598Y-100352588D01*
X127538624Y-100308131D01*
X127494942Y-100135528D01*
X127433150Y-99975551D01*
X127353147Y-99828033D01*
X127254828Y-99692809D01*
X127138093Y-99569714D01*
X127018651Y-99470245D01*
X126887687Y-99383980D01*
X126749747Y-99316289D01*
X126602949Y-99266585D01*
X126445411Y-99234283D01*
X126275251Y-99218795D01*
X126206696Y-99217195D01*
X126048821Y-99223019D01*
X125903208Y-99243237D01*
X125764535Y-99278879D01*
X125634438Y-99327937D01*
X125488360Y-99403114D01*
X125354077Y-99496132D01*
X125232850Y-99605417D01*
X125125942Y-99729396D01*
X125034616Y-99866495D01*
X124960134Y-100015140D01*
X124903757Y-100173758D01*
X124880196Y-100268087D01*
X124865508Y-100360538D01*
X124856767Y-100467040D01*
X124853976Y-100580416D01*
X123528955Y-100580416D01*
X123529265Y-100523535D01*
X123531477Y-100413316D01*
X123535260Y-100309238D01*
X123540582Y-100215991D01*
X123547410Y-100138269D01*
X123549012Y-100124522D01*
X123596982Y-99821542D01*
X123665224Y-99526649D01*
X123753317Y-99240526D01*
X123860840Y-98963855D01*
X123987371Y-98697320D01*
X124132488Y-98441604D01*
X124295770Y-98197388D01*
X124476795Y-97965355D01*
X124675142Y-97746189D01*
X124890389Y-97540571D01*
X125122115Y-97349186D01*
X125369898Y-97172714D01*
X125372913Y-97170726D01*
X125624027Y-97018300D01*
X125885555Y-96884742D01*
X126155977Y-96770483D01*
X126433775Y-96675955D01*
X126717431Y-96601593D01*
X127005428Y-96547828D01*
X127296246Y-96515093D01*
X127588368Y-96503820D01*
X127707128Y-96505472D01*
G37*
X127707128Y-96505472D02*
X128009901Y-96524949D01*
X128307414Y-96565382D01*
X128598801Y-96626541D01*
X128883200Y-96708193D01*
X129159747Y-96810105D01*
X129427577Y-96932047D01*
X129566620Y-97005226D01*
X129822329Y-97158744D01*
X130064671Y-97329190D01*
X130292952Y-97515595D01*
X130506478Y-97716992D01*
X130704553Y-97932415D01*
X130886483Y-98160896D01*
X131051573Y-98401469D01*
X131199129Y-98653165D01*
X131328457Y-98915018D01*
X131438860Y-99186061D01*
X131529645Y-99465326D01*
X131600117Y-99751847D01*
X131622263Y-99867144D01*
X131637952Y-99958238D01*
X131650484Y-100037980D01*
X131660201Y-100110783D01*
X131667444Y-100181060D01*
X131672555Y-100253223D01*
X131675878Y-100331684D01*
X131677753Y-100420857D01*
X131678523Y-100525153D01*
X131678598Y-100593870D01*
X131678334Y-100700976D01*
X131677418Y-100790424D01*
X131675522Y-100866640D01*
X131672315Y-100934052D01*
X131667469Y-100997085D01*
X131660655Y-101060167D01*
X131651542Y-101127723D01*
X131639802Y-101204181D01*
X131627661Y-101278566D01*
X131570184Y-101558818D01*
X131491628Y-101835610D01*
X131392926Y-102107274D01*
X131275007Y-102372142D01*
X131138802Y-102628549D01*
X130985244Y-102874827D01*
X130815261Y-103109308D01*
X130629785Y-103330326D01*
X130429747Y-103536214D01*
X130302027Y-103652744D01*
X130064399Y-103845464D01*
X129816867Y-104018458D01*
X129559638Y-104171634D01*
X129292923Y-104304902D01*
X129016931Y-104418168D01*
X128731872Y-104511343D01*
X128437954Y-104584334D01*
X128135388Y-104637050D01*
X128012304Y-104652404D01*
X127950228Y-104657725D01*
X127871290Y-104662114D01*
X127780699Y-104665490D01*
X127683662Y-104667774D01*
X127585389Y-104668884D01*
X127491088Y-104668740D01*
X127405968Y-104667261D01*
X127335236Y-104664366D01*
X127317091Y-104663172D01*
X127020450Y-104630419D01*
X126729401Y-104576736D01*
X126444885Y-104502751D01*
X126167841Y-104409095D01*
X125899212Y-104296396D01*
X125639936Y-104165282D01*
X125390954Y-104016384D01*
X125153207Y-103850329D01*
X124927635Y-103667747D01*
X124715178Y-103469266D01*
X124516777Y-103255516D01*
X124333371Y-103027125D01*
X124165902Y-102784723D01*
X124015310Y-102528939D01*
X123956086Y-102415210D01*
X123833985Y-102147492D01*
X123731557Y-101870870D01*
X123648622Y-101584729D01*
X123585001Y-101288457D01*
X123542915Y-101002479D01*
X123536781Y-100931952D01*
X123532382Y-100844101D01*
X123529685Y-100743620D01*
X123528657Y-100635200D01*
X123528955Y-100580416D01*
X124853976Y-100580416D01*
X124857139Y-100693491D01*
X124866257Y-100799087D01*
X124879935Y-100883581D01*
X124923531Y-101047311D01*
X124982406Y-101196527D01*
X125058096Y-101334006D01*
X125152136Y-101462524D01*
X125266064Y-101584859D01*
X125270002Y-101588653D01*
X125391674Y-101693294D01*
X125519327Y-101778619D01*
X125654919Y-101845419D01*
X125800403Y-101894486D01*
X125957737Y-101926612D01*
X126128875Y-101942587D01*
X126145956Y-101943295D01*
X126297725Y-101943308D01*
X126436916Y-101930678D01*
X126569795Y-101904289D01*
X126702629Y-101863019D01*
X126790901Y-101828116D01*
X126883672Y-101788678D01*
X126961879Y-101874931D01*
X127009485Y-101925815D01*
X127047188Y-101961434D01*
X127078535Y-101984043D01*
X127107072Y-101995897D01*
X127136346Y-101999251D01*
X127155650Y-101998131D01*
X127175178Y-101995189D01*
X127192982Y-101989144D01*
X127212243Y-101977599D01*
X127236146Y-101958155D01*
X127267871Y-101928413D01*
X127310602Y-101885975D01*
X127328688Y-101867739D01*
X127381525Y-101813204D01*
X127419698Y-101770407D01*
X127433568Y-101751766D01*
X127686864Y-101751766D01*
X127694228Y-101786685D01*
X127713495Y-101824357D01*
X127738909Y-101854796D01*
X127751474Y-101863836D01*
X127758685Y-101866327D01*
X127771421Y-101868551D01*
X127790848Y-101870523D01*
X127818132Y-101872258D01*
X127854442Y-101873771D01*
X127900945Y-101875076D01*
X127958807Y-101876190D01*
X128029196Y-101877126D01*
X128113279Y-101877900D01*
X128212223Y-101878527D01*
X128327196Y-101879022D01*
X128459364Y-101879399D01*
X128609895Y-101879674D01*
X128779956Y-101879862D01*
X128970715Y-101879978D01*
X129009527Y-101879993D01*
X129202409Y-101880038D01*
X129374420Y-101880015D01*
X129526775Y-101879907D01*
X129660687Y-101879700D01*
X129777372Y-101879376D01*
X129878046Y-101878919D01*
X129963922Y-101878313D01*
X130036217Y-101877542D01*
X130096145Y-101876589D01*
X130144921Y-101875439D01*
X130183760Y-101874075D01*
X130213878Y-101872481D01*
X130236488Y-101870641D01*
X130252807Y-101868538D01*
X130264049Y-101866156D01*
X130271429Y-101863479D01*
X130272114Y-101863136D01*
X130300877Y-101838449D01*
X130324212Y-101801505D01*
X130336347Y-101762131D01*
X130336956Y-101752697D01*
X130332709Y-101739895D01*
X130320398Y-101708315D01*
X130300667Y-101659476D01*
X130274162Y-101594896D01*
X130241526Y-101516094D01*
X130203406Y-101424590D01*
X130160446Y-101321903D01*
X130113291Y-101209551D01*
X130062585Y-101089053D01*
X130008974Y-100961929D01*
X129953102Y-100829697D01*
X129895614Y-100693877D01*
X129837155Y-100555986D01*
X129778370Y-100417546D01*
X129719904Y-100280073D01*
X129662402Y-100145088D01*
X129606508Y-100014108D01*
X129552867Y-99888654D01*
X129502125Y-99770245D01*
X129454925Y-99660398D01*
X129411914Y-99560633D01*
X129373735Y-99472470D01*
X129341034Y-99397427D01*
X129314455Y-99337022D01*
X129294643Y-99292776D01*
X129282243Y-99266207D01*
X129278242Y-99258846D01*
X129259272Y-99240828D01*
X129235680Y-99227479D01*
X129204106Y-99218158D01*
X129161188Y-99212223D01*
X129103564Y-99209030D01*
X129027873Y-99207937D01*
X129011739Y-99207913D01*
X128932192Y-99208700D01*
X128871366Y-99211484D01*
X128825937Y-99216902D01*
X128792582Y-99225590D01*
X128767977Y-99238185D01*
X128748799Y-99255322D01*
X128745745Y-99258846D01*
X128738867Y-99271962D01*
X128724046Y-99303908D01*
X128701937Y-99353170D01*
X128673200Y-99418236D01*
X128638491Y-99497591D01*
X128598469Y-99589724D01*
X128553791Y-99693121D01*
X128505115Y-99806268D01*
X128453100Y-99927653D01*
X128398402Y-100055762D01*
X128355346Y-100156918D01*
X128288420Y-100314365D01*
X128229651Y-100452782D01*
X128178581Y-100573476D01*
X128134756Y-100677753D01*
X128097716Y-100766922D01*
X128067007Y-100842290D01*
X128042171Y-100905164D01*
X128022752Y-100956852D01*
X128008292Y-100998660D01*
X127998336Y-101031897D01*
X127992426Y-101057870D01*
X127990105Y-101077886D01*
X127990918Y-101093253D01*
X127994406Y-101105278D01*
X128000115Y-101115268D01*
X128007586Y-101124531D01*
X128014593Y-101132373D01*
X128035468Y-101151694D01*
X128060988Y-101165775D01*
X128094753Y-101175366D01*
X128140361Y-101181213D01*
X128201414Y-101184066D01*
X128266304Y-101184696D01*
X128344259Y-101183686D01*
X128403434Y-101180169D01*
X128447067Y-101173413D01*
X128478392Y-101162684D01*
X128500648Y-101147252D01*
X128515922Y-101128224D01*
X128523221Y-101113301D01*
X128538161Y-101079930D01*
X128559911Y-101030058D01*
X128587639Y-100965635D01*
X128620510Y-100888609D01*
X128657694Y-100800928D01*
X128698357Y-100704539D01*
X128741666Y-100601393D01*
X128769068Y-100535892D01*
X128813192Y-100430566D01*
X128854885Y-100331606D01*
X128893359Y-100240846D01*
X128927825Y-100160119D01*
X128957495Y-100091258D01*
X128981580Y-100036096D01*
X128999292Y-99996467D01*
X129009843Y-99974204D01*
X129012494Y-99969913D01*
X129018322Y-99979708D01*
X129031495Y-100007445D01*
X129050924Y-100050651D01*
X129075522Y-100106856D01*
X129104198Y-100173588D01*
X129135864Y-100248374D01*
X129149919Y-100281892D01*
X129222319Y-100455053D01*
X129286650Y-100608940D01*
X129343370Y-100744652D01*
X129392937Y-100863291D01*
X129435809Y-100965956D01*
X129472443Y-101053748D01*
X129503298Y-101127767D01*
X129528832Y-101189113D01*
X129549502Y-101238886D01*
X129565766Y-101278188D01*
X129578083Y-101308117D01*
X129586910Y-101329775D01*
X129592705Y-101344261D01*
X129595926Y-101352677D01*
X129597031Y-101356121D01*
X129597043Y-101356255D01*
X129586280Y-101357042D01*
X129555110Y-101357863D01*
X129505213Y-101358702D01*
X129438271Y-101359546D01*
X129355962Y-101360379D01*
X129259968Y-101361185D01*
X129151969Y-101361950D01*
X129033645Y-101362658D01*
X128906675Y-101363294D01*
X128772742Y-101363844D01*
X128741979Y-101363953D01*
X128584440Y-101364507D01*
X128447486Y-101365032D01*
X128329614Y-101365573D01*
X128229322Y-101366175D01*
X128145106Y-101366882D01*
X128075466Y-101367738D01*
X128018897Y-101368787D01*
X127973899Y-101370076D01*
X127938968Y-101371647D01*
X127912601Y-101373546D01*
X127893298Y-101375816D01*
X127879554Y-101378503D01*
X127869868Y-101381650D01*
X127862738Y-101385303D01*
X127856660Y-101389505D01*
X127855740Y-101390191D01*
X127838573Y-101408445D01*
X127818125Y-101440858D01*
X127793235Y-101489551D01*
X127762738Y-101556647D01*
X127755886Y-101572408D01*
X127732184Y-101628470D01*
X127711976Y-101678572D01*
X127696807Y-101718700D01*
X127688221Y-101744843D01*
X127686864Y-101751766D01*
X127433568Y-101751766D01*
X127445020Y-101736376D01*
X127459304Y-101708140D01*
X127464360Y-101682726D01*
X127462002Y-101657164D01*
X127460682Y-101651283D01*
X127450641Y-101635320D01*
X127424616Y-101604226D01*
X127382662Y-101558059D01*
X127324833Y-101496876D01*
X127251183Y-101420733D01*
X127161766Y-101329687D01*
X127056634Y-101223796D01*
X127031390Y-101198500D01*
X126609462Y-100776087D01*
X126556475Y-100776087D01*
X126535422Y-100776583D01*
X126517895Y-100779622D01*
X126500409Y-100787535D01*
X126479477Y-100802651D01*
X126451615Y-100827300D01*
X126413336Y-100863810D01*
X126387102Y-100889283D01*
X126333586Y-100942270D01*
X126294516Y-100983723D01*
X126267751Y-101016693D01*
X126251148Y-101044226D01*
X126242565Y-101069373D01*
X126239858Y-101095182D01*
X126239826Y-101098864D01*
X126241467Y-101120601D01*
X126247832Y-101141590D01*
X126261084Y-101164902D01*
X126283385Y-101193608D01*
X126316899Y-101230777D01*
X126363789Y-101279482D01*
X126375361Y-101291284D01*
X126474661Y-101392350D01*
X126409700Y-101406464D01*
X126348356Y-101415537D01*
X126272926Y-101420267D01*
X126190351Y-101420805D01*
X126107571Y-101417307D01*
X126031528Y-101409923D01*
X125969163Y-101398809D01*
X125960421Y-101396559D01*
X125841885Y-101353168D01*
X125732333Y-101291173D01*
X125634106Y-101212778D01*
X125549547Y-101120182D01*
X125480997Y-101015587D01*
X125430798Y-100901194D01*
X125429577Y-100897566D01*
X125399640Y-100779692D01*
X125383663Y-100651804D01*
X125381945Y-100521242D01*
X125394780Y-100395344D01*
X125406873Y-100335923D01*
X125447966Y-100211827D01*
X125507566Y-100098226D01*
X125584045Y-99996884D01*
X125675777Y-99909561D01*
X125781134Y-99838019D01*
X125898488Y-99784019D01*
X125925087Y-99774885D01*
X126000796Y-99756446D01*
X126090457Y-99744276D01*
X126186743Y-99738728D01*
X126282325Y-99740156D01*
X126369876Y-99748913D01*
X126390410Y-99752432D01*
X126518552Y-99787205D01*
X126635494Y-99840403D01*
X126739949Y-99911049D01*
X126830632Y-99998167D01*
X126906256Y-100100783D01*
X126946197Y-100174218D01*
X126977020Y-100246305D01*
X127000302Y-100319548D01*
X127016513Y-100397592D01*
X127026124Y-100484081D01*
X127029607Y-100582659D01*
X127027433Y-100696969D01*
X127023671Y-100773550D01*
X127018391Y-100864882D01*
X127162789Y-101008224D01*
X127213758Y-101058672D01*
X127251934Y-101095633D01*
X127280174Y-101121203D01*
X127301333Y-101137481D01*
X127318269Y-101146564D01*
X127333837Y-101150551D01*
X127350895Y-101151540D01*
X127357963Y-101151566D01*
X127394829Y-101147867D01*
X127425732Y-101135348D01*
X127451946Y-101111874D01*
X127474744Y-101075310D01*
X127495397Y-101023523D01*
X127515180Y-100954377D01*
X127535365Y-100865738D01*
X127539074Y-100847870D01*
X127548704Y-100782741D01*
X127554909Y-100702157D01*
X127557697Y-100612485D01*
X127557070Y-100520090D01*
X127553036Y-100431336D01*
X127545598Y-100352588D01*
X127538624Y-100308131D01*
X127494942Y-100135528D01*
X127433150Y-99975551D01*
X127353147Y-99828033D01*
X127254828Y-99692809D01*
X127138093Y-99569714D01*
X127018651Y-99470245D01*
X126887687Y-99383980D01*
X126749747Y-99316289D01*
X126602949Y-99266585D01*
X126445411Y-99234283D01*
X126275251Y-99218795D01*
X126206696Y-99217195D01*
X126048821Y-99223019D01*
X125903208Y-99243237D01*
X125764535Y-99278879D01*
X125634438Y-99327937D01*
X125488360Y-99403114D01*
X125354077Y-99496132D01*
X125232850Y-99605417D01*
X125125942Y-99729396D01*
X125034616Y-99866495D01*
X124960134Y-100015140D01*
X124903757Y-100173758D01*
X124880196Y-100268087D01*
X124865508Y-100360538D01*
X124856767Y-100467040D01*
X124853976Y-100580416D01*
X123528955Y-100580416D01*
X123529265Y-100523535D01*
X123531477Y-100413316D01*
X123535260Y-100309238D01*
X123540582Y-100215991D01*
X123547410Y-100138269D01*
X123549012Y-100124522D01*
X123596982Y-99821542D01*
X123665224Y-99526649D01*
X123753317Y-99240526D01*
X123860840Y-98963855D01*
X123987371Y-98697320D01*
X124132488Y-98441604D01*
X124295770Y-98197388D01*
X124476795Y-97965355D01*
X124675142Y-97746189D01*
X124890389Y-97540571D01*
X125122115Y-97349186D01*
X125369898Y-97172714D01*
X125372913Y-97170726D01*
X125624027Y-97018300D01*
X125885555Y-96884742D01*
X126155977Y-96770483D01*
X126433775Y-96675955D01*
X126717431Y-96601593D01*
X127005428Y-96547828D01*
X127296246Y-96515093D01*
X127588368Y-96503820D01*
X127707128Y-96505472D01*
G36*
X133658912Y-99600089D02*
G01*
X133780106Y-99636183D01*
X133875037Y-99684158D01*
X133964209Y-99750568D01*
X134044572Y-99831927D01*
X134113075Y-99924751D01*
X134166668Y-100025555D01*
X134197833Y-100113479D01*
X134209668Y-100175610D01*
X134216375Y-100251573D01*
X134217953Y-100333716D01*
X134214403Y-100414388D01*
X134205723Y-100485938D01*
X134197841Y-100522087D01*
X134179554Y-100578324D01*
X134159581Y-100614613D01*
X134135876Y-100631282D01*
X134106389Y-100628658D01*
X134069076Y-100607067D01*
X134021890Y-100566838D01*
X134006962Y-100552602D01*
X133924540Y-100472681D01*
X133931867Y-100384188D01*
X133932015Y-100275445D01*
X133914306Y-100176051D01*
X133879551Y-100087607D01*
X133828564Y-100011709D01*
X133762155Y-99949956D01*
X133689871Y-99907792D01*
X133623253Y-99885973D01*
X133544760Y-99873399D01*
X133462812Y-99870605D01*
X133385833Y-99878126D01*
X133350776Y-99886230D01*
X133262796Y-99922950D01*
X133186829Y-99977779D01*
X133124373Y-100049404D01*
X133084233Y-100119880D01*
X133073629Y-100145417D01*
X133066477Y-100171051D01*
X133062124Y-100201948D01*
X133059916Y-100243275D01*
X133059197Y-100300199D01*
X133059174Y-100317783D01*
X133059435Y-100377430D01*
X133060800Y-100420457D01*
X133064141Y-100452330D01*
X133070327Y-100478515D01*
X133080232Y-100504479D01*
X133093502Y-100533131D01*
X133144216Y-100615753D01*
X133209169Y-100681516D01*
X133288127Y-100730241D01*
X133380852Y-100761749D01*
X133402690Y-100766282D01*
X133441698Y-100770803D01*
X133488703Y-100772333D01*
X133537014Y-100771129D01*
X133579939Y-100767446D01*
X133610787Y-100761542D01*
X133619397Y-100757960D01*
X133616963Y-100747832D01*
X133601832Y-100726242D01*
X133576993Y-100697279D01*
X133567840Y-100687496D01*
X133531036Y-100645049D01*
X133510510Y-100612278D01*
X133506435Y-100596502D01*
X133514625Y-100575253D01*
X133536180Y-100545460D01*
X133566578Y-100511537D01*
X133601298Y-100477896D01*
X133635818Y-100448951D01*
X133665615Y-100429114D01*
X133684525Y-100422696D01*
X133697669Y-100427735D01*
X133719892Y-100443541D01*
X133752339Y-100471146D01*
X133796160Y-100511583D01*
X133852502Y-100565883D01*
X133922512Y-100635079D01*
X133939599Y-100652141D01*
X134010359Y-100722883D01*
X134066673Y-100779949D01*
X134109489Y-100825502D01*
X134139756Y-100861702D01*
X134158424Y-100890711D01*
X134166442Y-100914690D01*
X134164758Y-100935800D01*
X134154322Y-100956203D01*
X134136083Y-100978059D01*
X134110991Y-101003532D01*
X134099101Y-101015363D01*
X134056739Y-101055223D01*
X134023425Y-101078138D01*
X133994473Y-101084458D01*
X133965195Y-101074534D01*
X133930904Y-101048714D01*
X133909930Y-101029497D01*
X133850922Y-100973689D01*
X133786352Y-101000689D01*
X133701836Y-101029891D01*
X133612939Y-101047539D01*
X133512761Y-101054857D01*
X133478826Y-101055220D01*
X133350782Y-101045002D01*
X133231549Y-101015069D01*
X133122214Y-100965925D01*
X133023864Y-100898074D01*
X132937585Y-100812019D01*
X132927281Y-100799482D01*
X132859698Y-100702835D01*
X132811146Y-100603299D01*
X132780265Y-100496866D01*
X132765696Y-100379528D01*
X132764097Y-100318341D01*
X132771584Y-100193551D01*
X132794643Y-100082338D01*
X132834574Y-99981422D01*
X132892678Y-99887522D01*
X132970257Y-99797359D01*
X132971017Y-99796585D01*
X133018740Y-99750142D01*
X133059873Y-99715830D01*
X133101476Y-99688415D01*
X133150607Y-99662661D01*
X133153479Y-99661279D01*
X133275694Y-99614573D01*
X133402417Y-99588736D01*
X133531029Y-99583873D01*
X133658912Y-99600089D01*
G37*
X133658912Y-99600089D02*
X133780106Y-99636183D01*
X133875037Y-99684158D01*
X133964209Y-99750568D01*
X134044572Y-99831927D01*
X134113075Y-99924751D01*
X134166668Y-100025555D01*
X134197833Y-100113479D01*
X134209668Y-100175610D01*
X134216375Y-100251573D01*
X134217953Y-100333716D01*
X134214403Y-100414388D01*
X134205723Y-100485938D01*
X134197841Y-100522087D01*
X134179554Y-100578324D01*
X134159581Y-100614613D01*
X134135876Y-100631282D01*
X134106389Y-100628658D01*
X134069076Y-100607067D01*
X134021890Y-100566838D01*
X134006962Y-100552602D01*
X133924540Y-100472681D01*
X133931867Y-100384188D01*
X133932015Y-100275445D01*
X133914306Y-100176051D01*
X133879551Y-100087607D01*
X133828564Y-100011709D01*
X133762155Y-99949956D01*
X133689871Y-99907792D01*
X133623253Y-99885973D01*
X133544760Y-99873399D01*
X133462812Y-99870605D01*
X133385833Y-99878126D01*
X133350776Y-99886230D01*
X133262796Y-99922950D01*
X133186829Y-99977779D01*
X133124373Y-100049404D01*
X133084233Y-100119880D01*
X133073629Y-100145417D01*
X133066477Y-100171051D01*
X133062124Y-100201948D01*
X133059916Y-100243275D01*
X133059197Y-100300199D01*
X133059174Y-100317783D01*
X133059435Y-100377430D01*
X133060800Y-100420457D01*
X133064141Y-100452330D01*
X133070327Y-100478515D01*
X133080232Y-100504479D01*
X133093502Y-100533131D01*
X133144216Y-100615753D01*
X133209169Y-100681516D01*
X133288127Y-100730241D01*
X133380852Y-100761749D01*
X133402690Y-100766282D01*
X133441698Y-100770803D01*
X133488703Y-100772333D01*
X133537014Y-100771129D01*
X133579939Y-100767446D01*
X133610787Y-100761542D01*
X133619397Y-100757960D01*
X133616963Y-100747832D01*
X133601832Y-100726242D01*
X133576993Y-100697279D01*
X133567840Y-100687496D01*
X133531036Y-100645049D01*
X133510510Y-100612278D01*
X133506435Y-100596502D01*
X133514625Y-100575253D01*
X133536180Y-100545460D01*
X133566578Y-100511537D01*
X133601298Y-100477896D01*
X133635818Y-100448951D01*
X133665615Y-100429114D01*
X133684525Y-100422696D01*
X133697669Y-100427735D01*
X133719892Y-100443541D01*
X133752339Y-100471146D01*
X133796160Y-100511583D01*
X133852502Y-100565883D01*
X133922512Y-100635079D01*
X133939599Y-100652141D01*
X134010359Y-100722883D01*
X134066673Y-100779949D01*
X134109489Y-100825502D01*
X134139756Y-100861702D01*
X134158424Y-100890711D01*
X134166442Y-100914690D01*
X134164758Y-100935800D01*
X134154322Y-100956203D01*
X134136083Y-100978059D01*
X134110991Y-101003532D01*
X134099101Y-101015363D01*
X134056739Y-101055223D01*
X134023425Y-101078138D01*
X133994473Y-101084458D01*
X133965195Y-101074534D01*
X133930904Y-101048714D01*
X133909930Y-101029497D01*
X133850922Y-100973689D01*
X133786352Y-101000689D01*
X133701836Y-101029891D01*
X133612939Y-101047539D01*
X133512761Y-101054857D01*
X133478826Y-101055220D01*
X133350782Y-101045002D01*
X133231549Y-101015069D01*
X133122214Y-100965925D01*
X133023864Y-100898074D01*
X132937585Y-100812019D01*
X132927281Y-100799482D01*
X132859698Y-100702835D01*
X132811146Y-100603299D01*
X132780265Y-100496866D01*
X132765696Y-100379528D01*
X132764097Y-100318341D01*
X132771584Y-100193551D01*
X132794643Y-100082338D01*
X132834574Y-99981422D01*
X132892678Y-99887522D01*
X132970257Y-99797359D01*
X132971017Y-99796585D01*
X133018740Y-99750142D01*
X133059873Y-99715830D01*
X133101476Y-99688415D01*
X133150607Y-99662661D01*
X133153479Y-99661279D01*
X133275694Y-99614573D01*
X133402417Y-99588736D01*
X133531029Y-99583873D01*
X133658912Y-99600089D01*
G36*
X154720179Y-99586494D02*
G01*
X154841615Y-99601653D01*
X154950341Y-99634129D01*
X155048516Y-99684907D01*
X155138300Y-99754973D01*
X155179114Y-99795814D01*
X155215519Y-99839443D01*
X155251055Y-99889813D01*
X155282896Y-99942005D01*
X155308217Y-99991103D01*
X155324193Y-100032189D01*
X155328348Y-100055523D01*
X155318265Y-100086302D01*
X155288738Y-100108388D01*
X155240850Y-100121245D01*
X155189534Y-100124522D01*
X155133494Y-100122890D01*
X155093924Y-100116247D01*
X155065339Y-100101972D01*
X155042250Y-100077444D01*
X155021544Y-100044273D01*
X154970197Y-99973164D01*
X154906593Y-99920243D01*
X154830556Y-99885430D01*
X154741908Y-99868649D01*
X154640473Y-99869822D01*
X154627399Y-99871169D01*
X154533642Y-99890236D01*
X154454776Y-99925207D01*
X154389534Y-99976932D01*
X154336647Y-100046260D01*
X154319630Y-100077191D01*
X154288698Y-100158342D01*
X154272252Y-100246623D01*
X154269722Y-100337774D01*
X154280541Y-100427535D01*
X154304138Y-100511645D01*
X154339945Y-100585844D01*
X154387393Y-100645870D01*
X154396721Y-100654487D01*
X154456431Y-100698449D01*
X154521296Y-100728157D01*
X154596628Y-100745495D01*
X154671261Y-100751855D01*
X154727456Y-100753108D01*
X154768916Y-100751314D01*
X154802879Y-100745656D01*
X154836586Y-100735318D01*
X154844875Y-100732263D01*
X154908613Y-100698587D01*
X154967795Y-100649761D01*
X155015139Y-100592272D01*
X155029348Y-100567880D01*
X155048012Y-100537757D01*
X155067501Y-100515780D01*
X155073658Y-100511413D01*
X155094295Y-100506102D01*
X155130222Y-100502108D01*
X155174649Y-100500110D01*
X155187653Y-100500000D01*
X155234406Y-100500647D01*
X155264782Y-100503419D01*
X155284476Y-100509564D01*
X155299180Y-100520328D01*
X155304336Y-100525560D01*
X155321436Y-100549663D01*
X155328348Y-100570809D01*
X155322364Y-100594936D01*
X155306302Y-100631932D01*
X155282999Y-100676745D01*
X155255289Y-100724326D01*
X155226008Y-100769623D01*
X155197992Y-100807587D01*
X155190220Y-100816834D01*
X155141286Y-100864435D01*
X155079456Y-100912584D01*
X155012993Y-100955496D01*
X154950160Y-100987386D01*
X154941826Y-100990757D01*
X154834398Y-101022029D01*
X154718427Y-101037094D01*
X154600933Y-101035421D01*
X154516652Y-101022992D01*
X154405672Y-100988856D01*
X154305326Y-100936721D01*
X154216649Y-100868484D01*
X154140679Y-100786039D01*
X154078451Y-100691281D01*
X154031002Y-100586105D01*
X153999367Y-100472406D01*
X153984582Y-100352079D01*
X153987685Y-100227019D01*
X154009711Y-100099120D01*
X154010260Y-100096913D01*
X154045299Y-99991345D01*
X154095958Y-99896608D01*
X154164968Y-99807967D01*
X154195334Y-99776132D01*
X154281425Y-99701345D01*
X154371970Y-99645899D01*
X154469757Y-99608787D01*
X154577576Y-99589001D01*
X154698213Y-99585534D01*
X154720179Y-99586494D01*
G37*
X154720179Y-99586494D02*
X154841615Y-99601653D01*
X154950341Y-99634129D01*
X155048516Y-99684907D01*
X155138300Y-99754973D01*
X155179114Y-99795814D01*
X155215519Y-99839443D01*
X155251055Y-99889813D01*
X155282896Y-99942005D01*
X155308217Y-99991103D01*
X155324193Y-100032189D01*
X155328348Y-100055523D01*
X155318265Y-100086302D01*
X155288738Y-100108388D01*
X155240850Y-100121245D01*
X155189534Y-100124522D01*
X155133494Y-100122890D01*
X155093924Y-100116247D01*
X155065339Y-100101972D01*
X155042250Y-100077444D01*
X155021544Y-100044273D01*
X154970197Y-99973164D01*
X154906593Y-99920243D01*
X154830556Y-99885430D01*
X154741908Y-99868649D01*
X154640473Y-99869822D01*
X154627399Y-99871169D01*
X154533642Y-99890236D01*
X154454776Y-99925207D01*
X154389534Y-99976932D01*
X154336647Y-100046260D01*
X154319630Y-100077191D01*
X154288698Y-100158342D01*
X154272252Y-100246623D01*
X154269722Y-100337774D01*
X154280541Y-100427535D01*
X154304138Y-100511645D01*
X154339945Y-100585844D01*
X154387393Y-100645870D01*
X154396721Y-100654487D01*
X154456431Y-100698449D01*
X154521296Y-100728157D01*
X154596628Y-100745495D01*
X154671261Y-100751855D01*
X154727456Y-100753108D01*
X154768916Y-100751314D01*
X154802879Y-100745656D01*
X154836586Y-100735318D01*
X154844875Y-100732263D01*
X154908613Y-100698587D01*
X154967795Y-100649761D01*
X155015139Y-100592272D01*
X155029348Y-100567880D01*
X155048012Y-100537757D01*
X155067501Y-100515780D01*
X155073658Y-100511413D01*
X155094295Y-100506102D01*
X155130222Y-100502108D01*
X155174649Y-100500110D01*
X155187653Y-100500000D01*
X155234406Y-100500647D01*
X155264782Y-100503419D01*
X155284476Y-100509564D01*
X155299180Y-100520328D01*
X155304336Y-100525560D01*
X155321436Y-100549663D01*
X155328348Y-100570809D01*
X155322364Y-100594936D01*
X155306302Y-100631932D01*
X155282999Y-100676745D01*
X155255289Y-100724326D01*
X155226008Y-100769623D01*
X155197992Y-100807587D01*
X155190220Y-100816834D01*
X155141286Y-100864435D01*
X155079456Y-100912584D01*
X155012993Y-100955496D01*
X154950160Y-100987386D01*
X154941826Y-100990757D01*
X154834398Y-101022029D01*
X154718427Y-101037094D01*
X154600933Y-101035421D01*
X154516652Y-101022992D01*
X154405672Y-100988856D01*
X154305326Y-100936721D01*
X154216649Y-100868484D01*
X154140679Y-100786039D01*
X154078451Y-100691281D01*
X154031002Y-100586105D01*
X153999367Y-100472406D01*
X153984582Y-100352079D01*
X153987685Y-100227019D01*
X154009711Y-100099120D01*
X154010260Y-100096913D01*
X154045299Y-99991345D01*
X154095958Y-99896608D01*
X154164968Y-99807967D01*
X154195334Y-99776132D01*
X154281425Y-99701345D01*
X154371970Y-99645899D01*
X154469757Y-99608787D01*
X154577576Y-99589001D01*
X154698213Y-99585534D01*
X154720179Y-99586494D01*
G36*
X156106900Y-99589667D02*
G01*
X156156426Y-99591143D01*
X156194591Y-99594305D01*
X156226758Y-99599804D01*
X156258287Y-99608294D01*
X156293175Y-99619947D01*
X156341192Y-99638735D01*
X156387518Y-99660174D01*
X156423022Y-99679993D01*
X156426329Y-99682202D01*
X156499503Y-99744436D01*
X156557026Y-99818384D01*
X156596727Y-99900612D01*
X156615828Y-99982152D01*
X156619037Y-100018921D01*
X156616674Y-100041647D01*
X156607098Y-100058021D01*
X156597590Y-100067640D01*
X156581373Y-100079794D01*
X156561063Y-100086999D01*
X156530772Y-100090461D01*
X156484612Y-100091390D01*
X156481798Y-100091392D01*
X156420404Y-100088154D01*
X156377172Y-100077333D01*
X156348987Y-100057270D01*
X156332733Y-100026306D01*
X156328758Y-100009880D01*
X156311908Y-99963309D01*
X156279079Y-99926000D01*
X156227459Y-99894882D01*
X156220514Y-99891705D01*
X156190093Y-99879600D01*
X156159978Y-99871831D01*
X156123889Y-99867477D01*
X156075545Y-99865618D01*
X156040652Y-99865323D01*
X155952828Y-99868561D01*
X155884378Y-99879291D01*
X155833645Y-99898258D01*
X155798973Y-99926208D01*
X155778704Y-99963885D01*
X155773651Y-99985359D01*
X155771915Y-100010802D01*
X155776939Y-100032889D01*
X155790690Y-100052685D01*
X155815140Y-100071254D01*
X155852257Y-100089659D01*
X155904010Y-100108965D01*
X155972371Y-100130234D01*
X156059307Y-100154531D01*
X156113656Y-100169018D01*
X156206429Y-100193937D01*
X156280822Y-100215135D01*
X156339999Y-100233746D01*
X156387127Y-100250907D01*
X156425371Y-100267752D01*
X156457897Y-100285416D01*
X156482453Y-100301260D01*
X156555553Y-100363060D01*
X156608442Y-100433570D01*
X156640853Y-100512017D01*
X156652523Y-100597630D01*
X156643188Y-100689635D01*
X156631223Y-100735661D01*
X156595767Y-100813754D01*
X156541286Y-100882117D01*
X156469074Y-100939680D01*
X156380423Y-100985376D01*
X156294652Y-101013691D01*
X156247181Y-101022617D01*
X156184764Y-101029625D01*
X156114471Y-101034391D01*
X156043375Y-101036593D01*
X155978548Y-101035907D01*
X155927061Y-101032010D01*
X155919174Y-101030847D01*
X155800752Y-101002953D01*
X155699164Y-100961079D01*
X155614580Y-100905382D01*
X155547170Y-100836019D01*
X155497105Y-100753147D01*
X155464555Y-100656924D01*
X155454632Y-100601853D01*
X155451547Y-100566466D01*
X155455305Y-100544141D01*
X155467624Y-100526458D01*
X155470657Y-100523343D01*
X155485018Y-100511826D01*
X155503492Y-100504809D01*
X155531528Y-100501236D01*
X155574572Y-100500049D01*
X155590934Y-100500000D01*
X155649687Y-100501687D01*
X155690290Y-100508131D01*
X155716517Y-100521406D01*
X155732140Y-100543586D01*
X155740933Y-100576747D01*
X155741929Y-100583011D01*
X155761166Y-100640053D01*
X155800030Y-100687492D01*
X155857982Y-100724731D01*
X155878427Y-100733596D01*
X155909236Y-100744506D01*
X155939792Y-100751713D01*
X155975831Y-100755919D01*
X156023089Y-100757826D01*
X156079304Y-100758156D01*
X156140541Y-100757495D01*
X156185198Y-100755342D01*
X156218770Y-100750982D01*
X156246752Y-100743700D01*
X156274637Y-100732781D01*
X156274798Y-100732710D01*
X156310118Y-100714000D01*
X156338611Y-100693196D01*
X156349342Y-100681473D01*
X156362676Y-100647708D01*
X156366047Y-100608469D01*
X156359629Y-100572711D01*
X156346809Y-100551924D01*
X156313467Y-100529343D01*
X156261348Y-100505257D01*
X156189604Y-100479349D01*
X156097388Y-100451306D01*
X156018565Y-100429805D01*
X155928228Y-100405510D01*
X155855803Y-100384549D01*
X155797620Y-100365581D01*
X155750004Y-100347263D01*
X155709282Y-100328252D01*
X155671783Y-100307207D01*
X155655781Y-100297228D01*
X155586478Y-100242892D01*
X155535519Y-100179334D01*
X155513095Y-100136680D01*
X155499484Y-100087678D01*
X155494067Y-100026101D01*
X155496492Y-99959739D01*
X155506407Y-99896385D01*
X155523461Y-99843828D01*
X155526595Y-99837392D01*
X155581033Y-99755243D01*
X155651281Y-99688046D01*
X155735815Y-99637066D01*
X155796086Y-99613729D01*
X155831363Y-99603623D01*
X155865364Y-99596655D01*
X155903437Y-99592291D01*
X155950933Y-99589994D01*
X156013200Y-99589228D01*
X156040652Y-99589225D01*
X156106900Y-99589667D01*
G37*
X156106900Y-99589667D02*
X156156426Y-99591143D01*
X156194591Y-99594305D01*
X156226758Y-99599804D01*
X156258287Y-99608294D01*
X156293175Y-99619947D01*
X156341192Y-99638735D01*
X156387518Y-99660174D01*
X156423022Y-99679993D01*
X156426329Y-99682202D01*
X156499503Y-99744436D01*
X156557026Y-99818384D01*
X156596727Y-99900612D01*
X156615828Y-99982152D01*
X156619037Y-100018921D01*
X156616674Y-100041647D01*
X156607098Y-100058021D01*
X156597590Y-100067640D01*
X156581373Y-100079794D01*
X156561063Y-100086999D01*
X156530772Y-100090461D01*
X156484612Y-100091390D01*
X156481798Y-100091392D01*
X156420404Y-100088154D01*
X156377172Y-100077333D01*
X156348987Y-100057270D01*
X156332733Y-100026306D01*
X156328758Y-100009880D01*
X156311908Y-99963309D01*
X156279079Y-99926000D01*
X156227459Y-99894882D01*
X156220514Y-99891705D01*
X156190093Y-99879600D01*
X156159978Y-99871831D01*
X156123889Y-99867477D01*
X156075545Y-99865618D01*
X156040652Y-99865323D01*
X155952828Y-99868561D01*
X155884378Y-99879291D01*
X155833645Y-99898258D01*
X155798973Y-99926208D01*
X155778704Y-99963885D01*
X155773651Y-99985359D01*
X155771915Y-100010802D01*
X155776939Y-100032889D01*
X155790690Y-100052685D01*
X155815140Y-100071254D01*
X155852257Y-100089659D01*
X155904010Y-100108965D01*
X155972371Y-100130234D01*
X156059307Y-100154531D01*
X156113656Y-100169018D01*
X156206429Y-100193937D01*
X156280822Y-100215135D01*
X156339999Y-100233746D01*
X156387127Y-100250907D01*
X156425371Y-100267752D01*
X156457897Y-100285416D01*
X156482453Y-100301260D01*
X156555553Y-100363060D01*
X156608442Y-100433570D01*
X156640853Y-100512017D01*
X156652523Y-100597630D01*
X156643188Y-100689635D01*
X156631223Y-100735661D01*
X156595767Y-100813754D01*
X156541286Y-100882117D01*
X156469074Y-100939680D01*
X156380423Y-100985376D01*
X156294652Y-101013691D01*
X156247181Y-101022617D01*
X156184764Y-101029625D01*
X156114471Y-101034391D01*
X156043375Y-101036593D01*
X155978548Y-101035907D01*
X155927061Y-101032010D01*
X155919174Y-101030847D01*
X155800752Y-101002953D01*
X155699164Y-100961079D01*
X155614580Y-100905382D01*
X155547170Y-100836019D01*
X155497105Y-100753147D01*
X155464555Y-100656924D01*
X155454632Y-100601853D01*
X155451547Y-100566466D01*
X155455305Y-100544141D01*
X155467624Y-100526458D01*
X155470657Y-100523343D01*
X155485018Y-100511826D01*
X155503492Y-100504809D01*
X155531528Y-100501236D01*
X155574572Y-100500049D01*
X155590934Y-100500000D01*
X155649687Y-100501687D01*
X155690290Y-100508131D01*
X155716517Y-100521406D01*
X155732140Y-100543586D01*
X155740933Y-100576747D01*
X155741929Y-100583011D01*
X155761166Y-100640053D01*
X155800030Y-100687492D01*
X155857982Y-100724731D01*
X155878427Y-100733596D01*
X155909236Y-100744506D01*
X155939792Y-100751713D01*
X155975831Y-100755919D01*
X156023089Y-100757826D01*
X156079304Y-100758156D01*
X156140541Y-100757495D01*
X156185198Y-100755342D01*
X156218770Y-100750982D01*
X156246752Y-100743700D01*
X156274637Y-100732781D01*
X156274798Y-100732710D01*
X156310118Y-100714000D01*
X156338611Y-100693196D01*
X156349342Y-100681473D01*
X156362676Y-100647708D01*
X156366047Y-100608469D01*
X156359629Y-100572711D01*
X156346809Y-100551924D01*
X156313467Y-100529343D01*
X156261348Y-100505257D01*
X156189604Y-100479349D01*
X156097388Y-100451306D01*
X156018565Y-100429805D01*
X155928228Y-100405510D01*
X155855803Y-100384549D01*
X155797620Y-100365581D01*
X155750004Y-100347263D01*
X155709282Y-100328252D01*
X155671783Y-100307207D01*
X155655781Y-100297228D01*
X155586478Y-100242892D01*
X155535519Y-100179334D01*
X155513095Y-100136680D01*
X155499484Y-100087678D01*
X155494067Y-100026101D01*
X155496492Y-99959739D01*
X155506407Y-99896385D01*
X155523461Y-99843828D01*
X155526595Y-99837392D01*
X155581033Y-99755243D01*
X155651281Y-99688046D01*
X155735815Y-99637066D01*
X155796086Y-99613729D01*
X155831363Y-99603623D01*
X155865364Y-99596655D01*
X155903437Y-99592291D01*
X155950933Y-99589994D01*
X156013200Y-99589228D01*
X156040652Y-99589225D01*
X156106900Y-99589667D01*
G36*
X134548854Y-99583277D02*
G01*
X134563006Y-99583392D01*
X134612937Y-99584149D01*
X134645734Y-99586981D01*
X134666315Y-99592733D01*
X134679600Y-99602245D01*
X134680853Y-99603587D01*
X134685690Y-99610820D01*
X134689602Y-99622200D01*
X134692683Y-99639923D01*
X134695032Y-99666186D01*
X134696742Y-99703183D01*
X134697911Y-99753112D01*
X134698634Y-99818169D01*
X134699008Y-99900549D01*
X134699128Y-100002449D01*
X134699130Y-100021732D01*
X134699342Y-100139370D01*
X134700112Y-100237286D01*
X134701642Y-100317842D01*
X134704134Y-100383400D01*
X134707789Y-100436322D01*
X134712809Y-100478970D01*
X134719396Y-100513706D01*
X134727751Y-100542891D01*
X134738076Y-100568889D01*
X134747507Y-100588242D01*
X134789878Y-100647359D01*
X134846119Y-100692630D01*
X134912560Y-100723626D01*
X134985526Y-100739920D01*
X135061346Y-100741082D01*
X135136346Y-100726685D01*
X135206855Y-100696301D01*
X135269198Y-100649500D01*
X135269590Y-100649120D01*
X135291548Y-100627238D01*
X135309709Y-100606607D01*
X135324434Y-100584956D01*
X135336082Y-100560014D01*
X135345014Y-100529511D01*
X135351590Y-100491174D01*
X135356170Y-100442733D01*
X135359114Y-100381917D01*
X135360783Y-100306455D01*
X135361536Y-100214075D01*
X135361734Y-100102507D01*
X135361739Y-100068019D01*
X135361907Y-99954599D01*
X135362517Y-99861217D01*
X135363726Y-99785825D01*
X135365692Y-99726377D01*
X135368571Y-99680824D01*
X135372521Y-99647120D01*
X135377700Y-99623217D01*
X135384264Y-99607067D01*
X135392372Y-99596625D01*
X135398321Y-99592068D01*
X135414664Y-99588347D01*
X135447298Y-99585441D01*
X135490434Y-99583784D01*
X135511875Y-99583561D01*
X135561968Y-99584213D01*
X135594908Y-99586922D01*
X135615594Y-99592516D01*
X135628925Y-99601821D01*
X135630593Y-99603587D01*
X135635287Y-99610601D01*
X135639109Y-99621655D01*
X135642145Y-99638872D01*
X135644481Y-99664372D01*
X135646204Y-99700278D01*
X135647399Y-99748712D01*
X135648153Y-99811796D01*
X135648554Y-99891652D01*
X135648686Y-99990401D01*
X135648678Y-100048087D01*
X135648448Y-100169314D01*
X135647706Y-100270911D01*
X135646195Y-100355334D01*
X135643657Y-100425037D01*
X135639835Y-100482478D01*
X135634472Y-100530110D01*
X135627310Y-100570390D01*
X135618093Y-100605773D01*
X135606562Y-100638715D01*
X135592462Y-100671671D01*
X135580747Y-100696429D01*
X135534114Y-100771923D01*
X135467059Y-100848716D01*
X135390780Y-100915410D01*
X135310787Y-100964240D01*
X135223296Y-100996658D01*
X135124524Y-101014116D01*
X135025354Y-101018257D01*
X134947187Y-101014716D01*
X134879662Y-101005766D01*
X134848217Y-100998430D01*
X134746627Y-100958058D01*
X134654978Y-100899274D01*
X134575415Y-100824331D01*
X134510083Y-100735481D01*
X134461127Y-100634978D01*
X134440549Y-100570189D01*
X134435995Y-100549285D01*
X134432274Y-100523806D01*
X134429310Y-100491489D01*
X134427025Y-100450071D01*
X134425340Y-100397288D01*
X134424178Y-100330877D01*
X134423461Y-100248575D01*
X134423112Y-100148119D01*
X134423043Y-100061140D01*
X134422886Y-99945620D01*
X134422789Y-99850261D01*
X134423315Y-99773145D01*
X134425026Y-99712352D01*
X134428484Y-99665962D01*
X134434251Y-99632055D01*
X134442891Y-99608712D01*
X134454966Y-99594014D01*
X134471037Y-99586041D01*
X134491667Y-99582874D01*
X134517419Y-99582592D01*
X134548854Y-99583277D01*
G37*
X134548854Y-99583277D02*
X134563006Y-99583392D01*
X134612937Y-99584149D01*
X134645734Y-99586981D01*
X134666315Y-99592733D01*
X134679600Y-99602245D01*
X134680853Y-99603587D01*
X134685690Y-99610820D01*
X134689602Y-99622200D01*
X134692683Y-99639923D01*
X134695032Y-99666186D01*
X134696742Y-99703183D01*
X134697911Y-99753112D01*
X134698634Y-99818169D01*
X134699008Y-99900549D01*
X134699128Y-100002449D01*
X134699130Y-100021732D01*
X134699342Y-100139370D01*
X134700112Y-100237286D01*
X134701642Y-100317842D01*
X134704134Y-100383400D01*
X134707789Y-100436322D01*
X134712809Y-100478970D01*
X134719396Y-100513706D01*
X134727751Y-100542891D01*
X134738076Y-100568889D01*
X134747507Y-100588242D01*
X134789878Y-100647359D01*
X134846119Y-100692630D01*
X134912560Y-100723626D01*
X134985526Y-100739920D01*
X135061346Y-100741082D01*
X135136346Y-100726685D01*
X135206855Y-100696301D01*
X135269198Y-100649500D01*
X135269590Y-100649120D01*
X135291548Y-100627238D01*
X135309709Y-100606607D01*
X135324434Y-100584956D01*
X135336082Y-100560014D01*
X135345014Y-100529511D01*
X135351590Y-100491174D01*
X135356170Y-100442733D01*
X135359114Y-100381917D01*
X135360783Y-100306455D01*
X135361536Y-100214075D01*
X135361734Y-100102507D01*
X135361739Y-100068019D01*
X135361907Y-99954599D01*
X135362517Y-99861217D01*
X135363726Y-99785825D01*
X135365692Y-99726377D01*
X135368571Y-99680824D01*
X135372521Y-99647120D01*
X135377700Y-99623217D01*
X135384264Y-99607067D01*
X135392372Y-99596625D01*
X135398321Y-99592068D01*
X135414664Y-99588347D01*
X135447298Y-99585441D01*
X135490434Y-99583784D01*
X135511875Y-99583561D01*
X135561968Y-99584213D01*
X135594908Y-99586922D01*
X135615594Y-99592516D01*
X135628925Y-99601821D01*
X135630593Y-99603587D01*
X135635287Y-99610601D01*
X135639109Y-99621655D01*
X135642145Y-99638872D01*
X135644481Y-99664372D01*
X135646204Y-99700278D01*
X135647399Y-99748712D01*
X135648153Y-99811796D01*
X135648554Y-99891652D01*
X135648686Y-99990401D01*
X135648678Y-100048087D01*
X135648448Y-100169314D01*
X135647706Y-100270911D01*
X135646195Y-100355334D01*
X135643657Y-100425037D01*
X135639835Y-100482478D01*
X135634472Y-100530110D01*
X135627310Y-100570390D01*
X135618093Y-100605773D01*
X135606562Y-100638715D01*
X135592462Y-100671671D01*
X135580747Y-100696429D01*
X135534114Y-100771923D01*
X135467059Y-100848716D01*
X135390780Y-100915410D01*
X135310787Y-100964240D01*
X135223296Y-100996658D01*
X135124524Y-101014116D01*
X135025354Y-101018257D01*
X134947187Y-101014716D01*
X134879662Y-101005766D01*
X134848217Y-100998430D01*
X134746627Y-100958058D01*
X134654978Y-100899274D01*
X134575415Y-100824331D01*
X134510083Y-100735481D01*
X134461127Y-100634978D01*
X134440549Y-100570189D01*
X134435995Y-100549285D01*
X134432274Y-100523806D01*
X134429310Y-100491489D01*
X134427025Y-100450071D01*
X134425340Y-100397288D01*
X134424178Y-100330877D01*
X134423461Y-100248575D01*
X134423112Y-100148119D01*
X134423043Y-100061140D01*
X134422886Y-99945620D01*
X134422789Y-99850261D01*
X134423315Y-99773145D01*
X134425026Y-99712352D01*
X134428484Y-99665962D01*
X134434251Y-99632055D01*
X134442891Y-99608712D01*
X134454966Y-99594014D01*
X134471037Y-99586041D01*
X134491667Y-99582874D01*
X134517419Y-99582592D01*
X134548854Y-99583277D01*
G36*
X141274825Y-99582372D02*
G01*
X141317997Y-99587169D01*
X141350224Y-99595886D01*
X141362158Y-99603587D01*
X141366797Y-99610520D01*
X141370585Y-99621460D01*
X141373606Y-99638499D01*
X141375942Y-99663731D01*
X141377678Y-99699248D01*
X141378895Y-99747143D01*
X141379677Y-99809508D01*
X141380108Y-99888437D01*
X141380270Y-99986022D01*
X141380271Y-100059131D01*
X141380069Y-100175857D01*
X141379508Y-100272711D01*
X141378515Y-100351909D01*
X141377016Y-100415664D01*
X141374938Y-100466190D01*
X141372207Y-100505702D01*
X141368750Y-100536414D01*
X141364493Y-100560539D01*
X141363456Y-100565123D01*
X141328762Y-100666959D01*
X141275883Y-100760972D01*
X141207494Y-100844388D01*
X141126269Y-100914430D01*
X141034884Y-100968325D01*
X140942623Y-101001651D01*
X140884439Y-101011794D01*
X140813473Y-101017075D01*
X140737917Y-101017498D01*
X140665963Y-101013068D01*
X140605803Y-101003789D01*
X140596348Y-101001468D01*
X140508974Y-100971610D01*
X140432579Y-100929841D01*
X140360188Y-100872069D01*
X140335910Y-100848716D01*
X140270735Y-100774984D01*
X140225291Y-100704088D01*
X140222644Y-100698783D01*
X140206634Y-100664580D01*
X140193352Y-100631862D01*
X140182545Y-100598193D01*
X140173959Y-100561137D01*
X140167342Y-100518261D01*
X140162439Y-100467129D01*
X140158999Y-100405305D01*
X140156767Y-100330355D01*
X140155491Y-100239843D01*
X140154918Y-100131335D01*
X140154800Y-100046169D01*
X140154593Y-99932652D01*
X140154474Y-99839267D01*
X140155034Y-99764060D01*
X140156862Y-99705082D01*
X140160547Y-99660382D01*
X140166678Y-99628008D01*
X140175845Y-99606009D01*
X140188637Y-99592435D01*
X140205642Y-99585335D01*
X140227451Y-99582757D01*
X140254652Y-99582751D01*
X140287834Y-99583366D01*
X140294571Y-99583392D01*
X140328264Y-99582922D01*
X140356149Y-99582780D01*
X140378799Y-99584861D01*
X140396781Y-99591065D01*
X140410667Y-99603290D01*
X140421028Y-99623432D01*
X140428432Y-99653391D01*
X140433451Y-99695063D01*
X140436655Y-99750347D01*
X140438613Y-99821141D01*
X140439897Y-99909343D01*
X140441076Y-100016851D01*
X140441739Y-100073207D01*
X140447261Y-100516566D01*
X140477267Y-100577305D01*
X140520873Y-100641635D01*
X140579732Y-100691381D01*
X140651342Y-100725092D01*
X140733201Y-100741320D01*
X140762756Y-100742596D01*
X140852542Y-100734132D01*
X140929876Y-100707859D01*
X140994135Y-100664136D01*
X141044693Y-100603327D01*
X141063861Y-100568282D01*
X141098826Y-100494479D01*
X141102295Y-100058348D01*
X141103270Y-99947041D01*
X141104319Y-99855763D01*
X141105536Y-99782458D01*
X141107016Y-99725069D01*
X141108855Y-99681538D01*
X141111147Y-99649809D01*
X141113987Y-99627824D01*
X141117470Y-99613526D01*
X141121692Y-99604858D01*
X141123333Y-99602805D01*
X141144961Y-99591710D01*
X141181775Y-99584621D01*
X141227240Y-99581515D01*
X141274825Y-99582372D01*
G37*
X141274825Y-99582372D02*
X141317997Y-99587169D01*
X141350224Y-99595886D01*
X141362158Y-99603587D01*
X141366797Y-99610520D01*
X141370585Y-99621460D01*
X141373606Y-99638499D01*
X141375942Y-99663731D01*
X141377678Y-99699248D01*
X141378895Y-99747143D01*
X141379677Y-99809508D01*
X141380108Y-99888437D01*
X141380270Y-99986022D01*
X141380271Y-100059131D01*
X141380069Y-100175857D01*
X141379508Y-100272711D01*
X141378515Y-100351909D01*
X141377016Y-100415664D01*
X141374938Y-100466190D01*
X141372207Y-100505702D01*
X141368750Y-100536414D01*
X141364493Y-100560539D01*
X141363456Y-100565123D01*
X141328762Y-100666959D01*
X141275883Y-100760972D01*
X141207494Y-100844388D01*
X141126269Y-100914430D01*
X141034884Y-100968325D01*
X140942623Y-101001651D01*
X140884439Y-101011794D01*
X140813473Y-101017075D01*
X140737917Y-101017498D01*
X140665963Y-101013068D01*
X140605803Y-101003789D01*
X140596348Y-101001468D01*
X140508974Y-100971610D01*
X140432579Y-100929841D01*
X140360188Y-100872069D01*
X140335910Y-100848716D01*
X140270735Y-100774984D01*
X140225291Y-100704088D01*
X140222644Y-100698783D01*
X140206634Y-100664580D01*
X140193352Y-100631862D01*
X140182545Y-100598193D01*
X140173959Y-100561137D01*
X140167342Y-100518261D01*
X140162439Y-100467129D01*
X140158999Y-100405305D01*
X140156767Y-100330355D01*
X140155491Y-100239843D01*
X140154918Y-100131335D01*
X140154800Y-100046169D01*
X140154593Y-99932652D01*
X140154474Y-99839267D01*
X140155034Y-99764060D01*
X140156862Y-99705082D01*
X140160547Y-99660382D01*
X140166678Y-99628008D01*
X140175845Y-99606009D01*
X140188637Y-99592435D01*
X140205642Y-99585335D01*
X140227451Y-99582757D01*
X140254652Y-99582751D01*
X140287834Y-99583366D01*
X140294571Y-99583392D01*
X140328264Y-99582922D01*
X140356149Y-99582780D01*
X140378799Y-99584861D01*
X140396781Y-99591065D01*
X140410667Y-99603290D01*
X140421028Y-99623432D01*
X140428432Y-99653391D01*
X140433451Y-99695063D01*
X140436655Y-99750347D01*
X140438613Y-99821141D01*
X140439897Y-99909343D01*
X140441076Y-100016851D01*
X140441739Y-100073207D01*
X140447261Y-100516566D01*
X140477267Y-100577305D01*
X140520873Y-100641635D01*
X140579732Y-100691381D01*
X140651342Y-100725092D01*
X140733201Y-100741320D01*
X140762756Y-100742596D01*
X140852542Y-100734132D01*
X140929876Y-100707859D01*
X140994135Y-100664136D01*
X141044693Y-100603327D01*
X141063861Y-100568282D01*
X141098826Y-100494479D01*
X141102295Y-100058348D01*
X141103270Y-99947041D01*
X141104319Y-99855763D01*
X141105536Y-99782458D01*
X141107016Y-99725069D01*
X141108855Y-99681538D01*
X141111147Y-99649809D01*
X141113987Y-99627824D01*
X141117470Y-99613526D01*
X141121692Y-99604858D01*
X141123333Y-99602805D01*
X141144961Y-99591710D01*
X141181775Y-99584621D01*
X141227240Y-99581515D01*
X141274825Y-99582372D01*
G36*
X145896063Y-99583893D02*
G01*
X145932553Y-99585852D01*
X145955968Y-99589954D01*
X145970808Y-99596882D01*
X145978896Y-99604211D01*
X145987322Y-99618881D01*
X146003227Y-99651787D01*
X146025718Y-99700818D01*
X146053900Y-99763862D01*
X146086880Y-99838807D01*
X146123763Y-99923543D01*
X146163654Y-100015958D01*
X146205661Y-100113940D01*
X146248888Y-100215377D01*
X146292442Y-100318159D01*
X146335428Y-100420173D01*
X146376952Y-100519308D01*
X146416119Y-100613453D01*
X146452037Y-100700495D01*
X146483809Y-100778325D01*
X146510543Y-100844829D01*
X146531345Y-100897897D01*
X146545319Y-100935417D01*
X146551571Y-100955277D01*
X146551823Y-100957107D01*
X146552088Y-100969492D01*
X146551296Y-100980106D01*
X146547870Y-100989085D01*
X146540230Y-100996568D01*
X146526801Y-101002689D01*
X146506002Y-101007585D01*
X146476257Y-101011393D01*
X146435987Y-101014250D01*
X146383614Y-101016291D01*
X146317561Y-101017653D01*
X146236248Y-101018474D01*
X146138099Y-101018888D01*
X146021535Y-101019033D01*
X145884978Y-101019046D01*
X145835720Y-101019044D01*
X145695332Y-101018995D01*
X145575410Y-101018821D01*
X145474335Y-101018481D01*
X145390485Y-101017936D01*
X145322240Y-101017145D01*
X145267979Y-101016068D01*
X145226083Y-101014664D01*
X145194930Y-101012893D01*
X145172900Y-101010716D01*
X145158374Y-101008091D01*
X145149729Y-101004978D01*
X145145772Y-101001890D01*
X145134093Y-100977683D01*
X145134237Y-100945062D01*
X145146726Y-100901077D01*
X145172082Y-100842775D01*
X145174963Y-100836827D01*
X145218043Y-100748479D01*
X145684630Y-100745598D01*
X145783735Y-100744803D01*
X145875657Y-100743711D01*
X145958121Y-100742377D01*
X146028854Y-100740852D01*
X146085579Y-100739191D01*
X146126024Y-100737446D01*
X146147912Y-100735670D01*
X146151217Y-100734696D01*
X146147099Y-100721976D01*
X146135529Y-100692070D01*
X146117683Y-100647760D01*
X146094739Y-100591830D01*
X146067871Y-100527063D01*
X146038258Y-100456241D01*
X146007075Y-100382147D01*
X145975498Y-100307564D01*
X145944705Y-100235275D01*
X145915872Y-100168062D01*
X145890175Y-100108709D01*
X145868791Y-100059999D01*
X145852896Y-100024713D01*
X145843667Y-100005636D01*
X145841905Y-100003044D01*
X145836169Y-100012842D01*
X145823154Y-100040555D01*
X145803963Y-100083662D01*
X145779697Y-100139643D01*
X145751456Y-100205977D01*
X145720343Y-100280143D01*
X145710433Y-100303979D01*
X145678084Y-100381224D01*
X145647688Y-100452447D01*
X145620461Y-100514906D01*
X145597617Y-100565854D01*
X145580374Y-100602550D01*
X145569947Y-100622249D01*
X145568510Y-100624240D01*
X145556428Y-100633560D01*
X145537075Y-100639403D01*
X145505853Y-100642489D01*
X145458169Y-100643537D01*
X145445180Y-100643566D01*
X145380549Y-100641421D01*
X145335193Y-100634351D01*
X145306661Y-100621401D01*
X145292500Y-100601615D01*
X145289826Y-100583046D01*
X145294096Y-100567418D01*
X145306198Y-100534069D01*
X145325072Y-100485499D01*
X145349658Y-100424204D01*
X145378896Y-100352684D01*
X145411725Y-100273434D01*
X145447085Y-100188955D01*
X145483915Y-100101742D01*
X145521156Y-100014295D01*
X145557747Y-99929111D01*
X145592628Y-99848687D01*
X145624738Y-99775522D01*
X145653018Y-99712114D01*
X145676406Y-99660960D01*
X145693843Y-99624558D01*
X145704268Y-99605407D01*
X145705525Y-99603745D01*
X145716937Y-99594476D01*
X145734007Y-99588474D01*
X145761196Y-99585076D01*
X145802962Y-99583617D01*
X145842000Y-99583392D01*
X145896063Y-99583893D01*
G37*
X145896063Y-99583893D02*
X145932553Y-99585852D01*
X145955968Y-99589954D01*
X145970808Y-99596882D01*
X145978896Y-99604211D01*
X145987322Y-99618881D01*
X146003227Y-99651787D01*
X146025718Y-99700818D01*
X146053900Y-99763862D01*
X146086880Y-99838807D01*
X146123763Y-99923543D01*
X146163654Y-100015958D01*
X146205661Y-100113940D01*
X146248888Y-100215377D01*
X146292442Y-100318159D01*
X146335428Y-100420173D01*
X146376952Y-100519308D01*
X146416119Y-100613453D01*
X146452037Y-100700495D01*
X146483809Y-100778325D01*
X146510543Y-100844829D01*
X146531345Y-100897897D01*
X146545319Y-100935417D01*
X146551571Y-100955277D01*
X146551823Y-100957107D01*
X146552088Y-100969492D01*
X146551296Y-100980106D01*
X146547870Y-100989085D01*
X146540230Y-100996568D01*
X146526801Y-101002689D01*
X146506002Y-101007585D01*
X146476257Y-101011393D01*
X146435987Y-101014250D01*
X146383614Y-101016291D01*
X146317561Y-101017653D01*
X146236248Y-101018474D01*
X146138099Y-101018888D01*
X146021535Y-101019033D01*
X145884978Y-101019046D01*
X145835720Y-101019044D01*
X145695332Y-101018995D01*
X145575410Y-101018821D01*
X145474335Y-101018481D01*
X145390485Y-101017936D01*
X145322240Y-101017145D01*
X145267979Y-101016068D01*
X145226083Y-101014664D01*
X145194930Y-101012893D01*
X145172900Y-101010716D01*
X145158374Y-101008091D01*
X145149729Y-101004978D01*
X145145772Y-101001890D01*
X145134093Y-100977683D01*
X145134237Y-100945062D01*
X145146726Y-100901077D01*
X145172082Y-100842775D01*
X145174963Y-100836827D01*
X145218043Y-100748479D01*
X145684630Y-100745598D01*
X145783735Y-100744803D01*
X145875657Y-100743711D01*
X145958121Y-100742377D01*
X146028854Y-100740852D01*
X146085579Y-100739191D01*
X146126024Y-100737446D01*
X146147912Y-100735670D01*
X146151217Y-100734696D01*
X146147099Y-100721976D01*
X146135529Y-100692070D01*
X146117683Y-100647760D01*
X146094739Y-100591830D01*
X146067871Y-100527063D01*
X146038258Y-100456241D01*
X146007075Y-100382147D01*
X145975498Y-100307564D01*
X145944705Y-100235275D01*
X145915872Y-100168062D01*
X145890175Y-100108709D01*
X145868791Y-100059999D01*
X145852896Y-100024713D01*
X145843667Y-100005636D01*
X145841905Y-100003044D01*
X145836169Y-100012842D01*
X145823154Y-100040555D01*
X145803963Y-100083662D01*
X145779697Y-100139643D01*
X145751456Y-100205977D01*
X145720343Y-100280143D01*
X145710433Y-100303979D01*
X145678084Y-100381224D01*
X145647688Y-100452447D01*
X145620461Y-100514906D01*
X145597617Y-100565854D01*
X145580374Y-100602550D01*
X145569947Y-100622249D01*
X145568510Y-100624240D01*
X145556428Y-100633560D01*
X145537075Y-100639403D01*
X145505853Y-100642489D01*
X145458169Y-100643537D01*
X145445180Y-100643566D01*
X145380549Y-100641421D01*
X145335193Y-100634351D01*
X145306661Y-100621401D01*
X145292500Y-100601615D01*
X145289826Y-100583046D01*
X145294096Y-100567418D01*
X145306198Y-100534069D01*
X145325072Y-100485499D01*
X145349658Y-100424204D01*
X145378896Y-100352684D01*
X145411725Y-100273434D01*
X145447085Y-100188955D01*
X145483915Y-100101742D01*
X145521156Y-100014295D01*
X145557747Y-99929111D01*
X145592628Y-99848687D01*
X145624738Y-99775522D01*
X145653018Y-99712114D01*
X145676406Y-99660960D01*
X145693843Y-99624558D01*
X145704268Y-99605407D01*
X145705525Y-99603745D01*
X145716937Y-99594476D01*
X145734007Y-99588474D01*
X145761196Y-99585076D01*
X145802962Y-99583617D01*
X145842000Y-99583392D01*
X145896063Y-99583893D01*
G36*
X136565123Y-99583954D02*
G01*
X136601848Y-99586057D01*
X136625163Y-99590323D01*
X136639398Y-99597375D01*
X136644970Y-99602718D01*
X136652061Y-99616026D01*
X136666934Y-99647941D01*
X136688823Y-99696705D01*
X136716963Y-99760558D01*
X136750589Y-99837740D01*
X136788936Y-99926494D01*
X136831238Y-100025059D01*
X136876730Y-100131677D01*
X136924647Y-100244588D01*
X136940808Y-100282804D01*
X137219993Y-100943564D01*
X137198036Y-100973021D01*
X137186586Y-100986638D01*
X137173429Y-100995444D01*
X137153593Y-101000687D01*
X137122109Y-101003617D01*
X137074005Y-101005482D01*
X137068130Y-101005657D01*
X137013878Y-101006404D01*
X136977383Y-101004546D01*
X136954423Y-100999635D01*
X136941873Y-100992264D01*
X136931638Y-100976832D01*
X136914993Y-100944701D01*
X136893752Y-100899672D01*
X136869727Y-100845546D01*
X136852194Y-100804209D01*
X136780826Y-100632724D01*
X136231884Y-100638044D01*
X136160852Y-100809218D01*
X136136080Y-100867168D01*
X136112807Y-100918426D01*
X136092835Y-100959259D01*
X136077966Y-100985933D01*
X136071538Y-100994196D01*
X136049407Y-101001674D01*
X136008017Y-101006378D01*
X135950454Y-101008000D01*
X135900151Y-101007352D01*
X135866787Y-101004803D01*
X135845238Y-100999447D01*
X135830378Y-100990377D01*
X135825565Y-100985913D01*
X135809049Y-100962271D01*
X135803478Y-100942734D01*
X135807719Y-100928057D01*
X135819851Y-100895323D01*
X135838985Y-100846619D01*
X135864235Y-100784035D01*
X135894712Y-100709659D01*
X135929529Y-100625580D01*
X135967799Y-100533886D01*
X136008634Y-100436667D01*
X136041353Y-100359196D01*
X136355550Y-100359196D01*
X136365975Y-100362162D01*
X136394545Y-100364659D01*
X136437322Y-100366475D01*
X136490366Y-100367403D01*
X136511442Y-100367479D01*
X136575477Y-100367034D01*
X136619954Y-100365547D01*
X136647392Y-100362785D01*
X136660304Y-100358519D01*
X136661794Y-100353674D01*
X136644711Y-100311130D01*
X136623841Y-100260386D01*
X136600844Y-100205339D01*
X136577383Y-100149881D01*
X136555117Y-100097907D01*
X136535709Y-100053313D01*
X136520820Y-100019992D01*
X136512112Y-100001839D01*
X136510835Y-99999793D01*
X136504913Y-100007170D01*
X136492408Y-100031170D01*
X136474987Y-100067930D01*
X136454320Y-100113588D01*
X136432076Y-100164279D01*
X136409925Y-100216140D01*
X136389535Y-100265308D01*
X136372576Y-100307920D01*
X136360717Y-100340112D01*
X136355627Y-100358021D01*
X136355550Y-100359196D01*
X136041353Y-100359196D01*
X136051146Y-100336011D01*
X136094447Y-100234006D01*
X136137651Y-100132742D01*
X136179869Y-100034308D01*
X136220214Y-99940791D01*
X136257798Y-99854281D01*
X136291734Y-99776867D01*
X136321134Y-99710637D01*
X136345110Y-99657679D01*
X136362776Y-99620083D01*
X136373242Y-99599938D01*
X136375261Y-99597196D01*
X136397419Y-99589758D01*
X136440692Y-99585133D01*
X136504278Y-99583403D01*
X136510660Y-99583392D01*
X136565123Y-99583954D01*
G37*
X136565123Y-99583954D02*
X136601848Y-99586057D01*
X136625163Y-99590323D01*
X136639398Y-99597375D01*
X136644970Y-99602718D01*
X136652061Y-99616026D01*
X136666934Y-99647941D01*
X136688823Y-99696705D01*
X136716963Y-99760558D01*
X136750589Y-99837740D01*
X136788936Y-99926494D01*
X136831238Y-100025059D01*
X136876730Y-100131677D01*
X136924647Y-100244588D01*
X136940808Y-100282804D01*
X137219993Y-100943564D01*
X137198036Y-100973021D01*
X137186586Y-100986638D01*
X137173429Y-100995444D01*
X137153593Y-101000687D01*
X137122109Y-101003617D01*
X137074005Y-101005482D01*
X137068130Y-101005657D01*
X137013878Y-101006404D01*
X136977383Y-101004546D01*
X136954423Y-100999635D01*
X136941873Y-100992264D01*
X136931638Y-100976832D01*
X136914993Y-100944701D01*
X136893752Y-100899672D01*
X136869727Y-100845546D01*
X136852194Y-100804209D01*
X136780826Y-100632724D01*
X136231884Y-100638044D01*
X136160852Y-100809218D01*
X136136080Y-100867168D01*
X136112807Y-100918426D01*
X136092835Y-100959259D01*
X136077966Y-100985933D01*
X136071538Y-100994196D01*
X136049407Y-101001674D01*
X136008017Y-101006378D01*
X135950454Y-101008000D01*
X135900151Y-101007352D01*
X135866787Y-101004803D01*
X135845238Y-100999447D01*
X135830378Y-100990377D01*
X135825565Y-100985913D01*
X135809049Y-100962271D01*
X135803478Y-100942734D01*
X135807719Y-100928057D01*
X135819851Y-100895323D01*
X135838985Y-100846619D01*
X135864235Y-100784035D01*
X135894712Y-100709659D01*
X135929529Y-100625580D01*
X135967799Y-100533886D01*
X136008634Y-100436667D01*
X136041353Y-100359196D01*
X136355550Y-100359196D01*
X136365975Y-100362162D01*
X136394545Y-100364659D01*
X136437322Y-100366475D01*
X136490366Y-100367403D01*
X136511442Y-100367479D01*
X136575477Y-100367034D01*
X136619954Y-100365547D01*
X136647392Y-100362785D01*
X136660304Y-100358519D01*
X136661794Y-100353674D01*
X136644711Y-100311130D01*
X136623841Y-100260386D01*
X136600844Y-100205339D01*
X136577383Y-100149881D01*
X136555117Y-100097907D01*
X136535709Y-100053313D01*
X136520820Y-100019992D01*
X136512112Y-100001839D01*
X136510835Y-99999793D01*
X136504913Y-100007170D01*
X136492408Y-100031170D01*
X136474987Y-100067930D01*
X136454320Y-100113588D01*
X136432076Y-100164279D01*
X136409925Y-100216140D01*
X136389535Y-100265308D01*
X136372576Y-100307920D01*
X136360717Y-100340112D01*
X136355627Y-100358021D01*
X136355550Y-100359196D01*
X136041353Y-100359196D01*
X136051146Y-100336011D01*
X136094447Y-100234006D01*
X136137651Y-100132742D01*
X136179869Y-100034308D01*
X136220214Y-99940791D01*
X136257798Y-99854281D01*
X136291734Y-99776867D01*
X136321134Y-99710637D01*
X136345110Y-99657679D01*
X136362776Y-99620083D01*
X136373242Y-99599938D01*
X136375261Y-99597196D01*
X136397419Y-99589758D01*
X136440692Y-99585133D01*
X136504278Y-99583403D01*
X136510660Y-99583392D01*
X136565123Y-99583954D01*
G36*
X138556217Y-99581820D02*
G01*
X138573688Y-99584780D01*
X138587973Y-99592095D01*
X138599388Y-99605335D01*
X138608248Y-99626067D01*
X138614870Y-99655860D01*
X138619569Y-99696281D01*
X138622663Y-99748900D01*
X138624467Y-99815285D01*
X138625296Y-99897004D01*
X138625468Y-99995625D01*
X138625299Y-100112716D01*
X138625103Y-100249847D01*
X138625087Y-100295696D01*
X138625063Y-100433698D01*
X138624957Y-100551312D01*
X138624717Y-100650237D01*
X138624291Y-100732171D01*
X138623627Y-100798814D01*
X138622674Y-100851864D01*
X138621379Y-100893020D01*
X138619691Y-100923981D01*
X138617557Y-100946446D01*
X138614927Y-100962113D01*
X138611747Y-100972681D01*
X138607967Y-100979850D01*
X138604049Y-100984754D01*
X138592204Y-100995392D01*
X138576698Y-101002209D01*
X138552753Y-101006030D01*
X138515592Y-101007683D01*
X138469748Y-101008000D01*
X138418514Y-101007740D01*
X138384438Y-101006230D01*
X138362592Y-101002376D01*
X138348047Y-100995084D01*
X138335876Y-100983259D01*
X138330655Y-100977119D01*
X138319125Y-100962196D01*
X138295987Y-100931271D01*
X138262615Y-100886213D01*
X138220383Y-100828889D01*
X138170664Y-100761168D01*
X138114833Y-100684918D01*
X138054261Y-100602008D01*
X137990324Y-100514305D01*
X137984565Y-100506396D01*
X137664304Y-100066555D01*
X137658782Y-100521610D01*
X137657528Y-100638279D01*
X137656482Y-100734774D01*
X137655080Y-100812996D01*
X137652762Y-100874844D01*
X137648965Y-100922220D01*
X137643126Y-100957022D01*
X137634682Y-100981152D01*
X137623072Y-100996510D01*
X137607733Y-101004994D01*
X137588102Y-101008506D01*
X137563618Y-101008946D01*
X137533717Y-101008214D01*
X137514818Y-101008000D01*
X137465835Y-101007172D01*
X137433860Y-101004091D01*
X137413855Y-100997863D01*
X137400972Y-100987805D01*
X137397185Y-100982094D01*
X137393955Y-100972872D01*
X137391238Y-100958481D01*
X137388992Y-100937260D01*
X137387172Y-100907550D01*
X137385734Y-100867691D01*
X137384636Y-100816025D01*
X137383832Y-100750890D01*
X137383281Y-100670628D01*
X137382936Y-100573580D01*
X137382756Y-100458084D01*
X137382697Y-100322483D01*
X137382696Y-100293777D01*
X137382723Y-100154785D01*
X137382838Y-100036207D01*
X137383088Y-99936372D01*
X137383524Y-99853605D01*
X137384194Y-99786235D01*
X137385146Y-99732589D01*
X137386429Y-99690995D01*
X137388092Y-99659780D01*
X137390185Y-99637272D01*
X137392755Y-99621798D01*
X137395852Y-99611684D01*
X137399524Y-99605260D01*
X137402891Y-99601669D01*
X137417437Y-99592854D01*
X137440499Y-99587274D01*
X137476461Y-99584324D01*
X137529710Y-99583397D01*
X137535156Y-99583392D01*
X137647225Y-99583392D01*
X137688895Y-99636879D01*
X137703968Y-99656751D01*
X137730558Y-99692385D01*
X137767142Y-99741717D01*
X137812196Y-99802681D01*
X137864195Y-99873215D01*
X137921616Y-99951253D01*
X137982935Y-100034732D01*
X138034261Y-100104710D01*
X138337956Y-100519053D01*
X138340843Y-100071279D01*
X138341646Y-99958786D01*
X138342530Y-99866328D01*
X138343585Y-99791854D01*
X138344906Y-99733313D01*
X138346583Y-99688653D01*
X138348709Y-99655822D01*
X138351376Y-99632769D01*
X138354677Y-99617443D01*
X138358704Y-99607791D01*
X138361881Y-99603449D01*
X138374502Y-99593609D01*
X138393892Y-99587530D01*
X138424895Y-99584400D01*
X138472356Y-99583407D01*
X138481522Y-99583392D01*
X138510449Y-99582694D01*
X138535242Y-99581648D01*
X138556217Y-99581820D01*
G37*
X138556217Y-99581820D02*
X138573688Y-99584780D01*
X138587973Y-99592095D01*
X138599388Y-99605335D01*
X138608248Y-99626067D01*
X138614870Y-99655860D01*
X138619569Y-99696281D01*
X138622663Y-99748900D01*
X138624467Y-99815285D01*
X138625296Y-99897004D01*
X138625468Y-99995625D01*
X138625299Y-100112716D01*
X138625103Y-100249847D01*
X138625087Y-100295696D01*
X138625063Y-100433698D01*
X138624957Y-100551312D01*
X138624717Y-100650237D01*
X138624291Y-100732171D01*
X138623627Y-100798814D01*
X138622674Y-100851864D01*
X138621379Y-100893020D01*
X138619691Y-100923981D01*
X138617557Y-100946446D01*
X138614927Y-100962113D01*
X138611747Y-100972681D01*
X138607967Y-100979850D01*
X138604049Y-100984754D01*
X138592204Y-100995392D01*
X138576698Y-101002209D01*
X138552753Y-101006030D01*
X138515592Y-101007683D01*
X138469748Y-101008000D01*
X138418514Y-101007740D01*
X138384438Y-101006230D01*
X138362592Y-101002376D01*
X138348047Y-100995084D01*
X138335876Y-100983259D01*
X138330655Y-100977119D01*
X138319125Y-100962196D01*
X138295987Y-100931271D01*
X138262615Y-100886213D01*
X138220383Y-100828889D01*
X138170664Y-100761168D01*
X138114833Y-100684918D01*
X138054261Y-100602008D01*
X137990324Y-100514305D01*
X137984565Y-100506396D01*
X137664304Y-100066555D01*
X137658782Y-100521610D01*
X137657528Y-100638279D01*
X137656482Y-100734774D01*
X137655080Y-100812996D01*
X137652762Y-100874844D01*
X137648965Y-100922220D01*
X137643126Y-100957022D01*
X137634682Y-100981152D01*
X137623072Y-100996510D01*
X137607733Y-101004994D01*
X137588102Y-101008506D01*
X137563618Y-101008946D01*
X137533717Y-101008214D01*
X137514818Y-101008000D01*
X137465835Y-101007172D01*
X137433860Y-101004091D01*
X137413855Y-100997863D01*
X137400972Y-100987805D01*
X137397185Y-100982094D01*
X137393955Y-100972872D01*
X137391238Y-100958481D01*
X137388992Y-100937260D01*
X137387172Y-100907550D01*
X137385734Y-100867691D01*
X137384636Y-100816025D01*
X137383832Y-100750890D01*
X137383281Y-100670628D01*
X137382936Y-100573580D01*
X137382756Y-100458084D01*
X137382697Y-100322483D01*
X137382696Y-100293777D01*
X137382723Y-100154785D01*
X137382838Y-100036207D01*
X137383088Y-99936372D01*
X137383524Y-99853605D01*
X137384194Y-99786235D01*
X137385146Y-99732589D01*
X137386429Y-99690995D01*
X137388092Y-99659780D01*
X137390185Y-99637272D01*
X137392755Y-99621798D01*
X137395852Y-99611684D01*
X137399524Y-99605260D01*
X137402891Y-99601669D01*
X137417437Y-99592854D01*
X137440499Y-99587274D01*
X137476461Y-99584324D01*
X137529710Y-99583397D01*
X137535156Y-99583392D01*
X137647225Y-99583392D01*
X137688895Y-99636879D01*
X137703968Y-99656751D01*
X137730558Y-99692385D01*
X137767142Y-99741717D01*
X137812196Y-99802681D01*
X137864195Y-99873215D01*
X137921616Y-99951253D01*
X137982935Y-100034732D01*
X138034261Y-100104710D01*
X138337956Y-100519053D01*
X138340843Y-100071279D01*
X138341646Y-99958786D01*
X138342530Y-99866328D01*
X138343585Y-99791854D01*
X138344906Y-99733313D01*
X138346583Y-99688653D01*
X138348709Y-99655822D01*
X138351376Y-99632769D01*
X138354677Y-99617443D01*
X138358704Y-99607791D01*
X138361881Y-99603449D01*
X138374502Y-99593609D01*
X138393892Y-99587530D01*
X138424895Y-99584400D01*
X138472356Y-99583407D01*
X138481522Y-99583392D01*
X138510449Y-99582694D01*
X138535242Y-99581648D01*
X138556217Y-99581820D01*
G36*
X139727727Y-99583394D02*
G01*
X139801481Y-99584452D01*
X139860056Y-99586698D01*
X139905179Y-99590530D01*
X139938574Y-99596342D01*
X139961970Y-99604532D01*
X139977091Y-99615495D01*
X139985664Y-99629628D01*
X139989415Y-99647326D01*
X139990069Y-99668986D01*
X139989355Y-99695003D01*
X139988956Y-99718978D01*
X139988847Y-99764709D01*
X139986712Y-99799265D01*
X139979841Y-99824210D01*
X139965522Y-99841108D01*
X139941047Y-99851522D01*
X139903703Y-99857015D01*
X139850781Y-99859151D01*
X139779569Y-99859494D01*
X139745374Y-99859479D01*
X139536174Y-99859479D01*
X139536174Y-100415463D01*
X139536137Y-100540834D01*
X139535985Y-100645969D01*
X139535651Y-100732720D01*
X139535070Y-100802938D01*
X139534178Y-100858474D01*
X139532909Y-100901180D01*
X139531199Y-100932906D01*
X139528981Y-100955504D01*
X139526192Y-100970825D01*
X139522765Y-100980720D01*
X139518637Y-100987041D01*
X139515978Y-100989724D01*
X139492485Y-101000411D01*
X139454476Y-101007064D01*
X139408488Y-101009734D01*
X139361052Y-101008475D01*
X139318704Y-101003340D01*
X139287977Y-100994381D01*
X139278364Y-100987805D01*
X139274214Y-100981581D01*
X139270738Y-100971641D01*
X139267877Y-100956143D01*
X139265572Y-100933249D01*
X139263764Y-100901117D01*
X139262395Y-100857909D01*
X139261407Y-100801784D01*
X139260740Y-100730902D01*
X139260337Y-100643424D01*
X139260139Y-100537508D01*
X139260087Y-100413544D01*
X139260087Y-99859479D01*
X139050887Y-99859479D01*
X138971605Y-99859416D01*
X138911696Y-99858184D01*
X138868449Y-99854221D01*
X138839153Y-99845962D01*
X138821099Y-99831844D01*
X138811576Y-99810304D01*
X138807872Y-99779778D01*
X138807278Y-99738702D01*
X138807304Y-99718978D01*
X138806730Y-99689226D01*
X138806157Y-99664145D01*
X138807313Y-99643340D01*
X138811922Y-99626415D01*
X138821712Y-99612972D01*
X138838409Y-99602618D01*
X138863738Y-99594954D01*
X138899425Y-99589585D01*
X138947198Y-99586115D01*
X139008782Y-99584147D01*
X139085902Y-99583287D01*
X139180286Y-99583136D01*
X139293659Y-99583300D01*
X139398130Y-99583392D01*
X139527778Y-99583260D01*
X139637068Y-99583129D01*
X139727727Y-99583394D01*
G37*
X139727727Y-99583394D02*
X139801481Y-99584452D01*
X139860056Y-99586698D01*
X139905179Y-99590530D01*
X139938574Y-99596342D01*
X139961970Y-99604532D01*
X139977091Y-99615495D01*
X139985664Y-99629628D01*
X139989415Y-99647326D01*
X139990069Y-99668986D01*
X139989355Y-99695003D01*
X139988956Y-99718978D01*
X139988847Y-99764709D01*
X139986712Y-99799265D01*
X139979841Y-99824210D01*
X139965522Y-99841108D01*
X139941047Y-99851522D01*
X139903703Y-99857015D01*
X139850781Y-99859151D01*
X139779569Y-99859494D01*
X139745374Y-99859479D01*
X139536174Y-99859479D01*
X139536174Y-100415463D01*
X139536137Y-100540834D01*
X139535985Y-100645969D01*
X139535651Y-100732720D01*
X139535070Y-100802938D01*
X139534178Y-100858474D01*
X139532909Y-100901180D01*
X139531199Y-100932906D01*
X139528981Y-100955504D01*
X139526192Y-100970825D01*
X139522765Y-100980720D01*
X139518637Y-100987041D01*
X139515978Y-100989724D01*
X139492485Y-101000411D01*
X139454476Y-101007064D01*
X139408488Y-101009734D01*
X139361052Y-101008475D01*
X139318704Y-101003340D01*
X139287977Y-100994381D01*
X139278364Y-100987805D01*
X139274214Y-100981581D01*
X139270738Y-100971641D01*
X139267877Y-100956143D01*
X139265572Y-100933249D01*
X139263764Y-100901117D01*
X139262395Y-100857909D01*
X139261407Y-100801784D01*
X139260740Y-100730902D01*
X139260337Y-100643424D01*
X139260139Y-100537508D01*
X139260087Y-100413544D01*
X139260087Y-99859479D01*
X139050887Y-99859479D01*
X138971605Y-99859416D01*
X138911696Y-99858184D01*
X138868449Y-99854221D01*
X138839153Y-99845962D01*
X138821099Y-99831844D01*
X138811576Y-99810304D01*
X138807872Y-99779778D01*
X138807278Y-99738702D01*
X138807304Y-99718978D01*
X138806730Y-99689226D01*
X138806157Y-99664145D01*
X138807313Y-99643340D01*
X138811922Y-99626415D01*
X138821712Y-99612972D01*
X138838409Y-99602618D01*
X138863738Y-99594954D01*
X138899425Y-99589585D01*
X138947198Y-99586115D01*
X139008782Y-99584147D01*
X139085902Y-99583287D01*
X139180286Y-99583136D01*
X139293659Y-99583300D01*
X139398130Y-99583392D01*
X139527778Y-99583260D01*
X139637068Y-99583129D01*
X139727727Y-99583394D01*
G36*
X141785030Y-99582315D02*
G01*
X141812638Y-99583305D01*
X141822174Y-99583392D01*
X141851112Y-99582686D01*
X141875914Y-99581614D01*
X141896894Y-99581743D01*
X141914370Y-99584644D01*
X141928657Y-99591884D01*
X141940072Y-99605031D01*
X141948932Y-99625654D01*
X141955552Y-99655321D01*
X141960248Y-99695601D01*
X141963338Y-99748062D01*
X141965138Y-99814273D01*
X141965963Y-99895802D01*
X141966130Y-99994218D01*
X141965956Y-100111088D01*
X141965757Y-100247982D01*
X141965739Y-100295266D01*
X141965739Y-100962966D01*
X141941570Y-100985483D01*
X141926100Y-100996788D01*
X141905824Y-101003612D01*
X141875203Y-101006998D01*
X141828697Y-101007992D01*
X141822174Y-101008000D01*
X141773517Y-101007212D01*
X141741373Y-101004149D01*
X141720203Y-100997768D01*
X141704466Y-100987024D01*
X141702778Y-100985483D01*
X141678609Y-100962966D01*
X141678609Y-100295266D01*
X141678466Y-100151772D01*
X141678250Y-100028794D01*
X141678276Y-99924762D01*
X141678861Y-99838108D01*
X141680321Y-99767264D01*
X141682972Y-99710661D01*
X141687132Y-99666732D01*
X141693115Y-99633906D01*
X141701238Y-99610617D01*
X141711818Y-99595295D01*
X141725171Y-99586373D01*
X141741613Y-99582281D01*
X141761461Y-99581451D01*
X141785030Y-99582315D01*
G37*
X141785030Y-99582315D02*
X141812638Y-99583305D01*
X141822174Y-99583392D01*
X141851112Y-99582686D01*
X141875914Y-99581614D01*
X141896894Y-99581743D01*
X141914370Y-99584644D01*
X141928657Y-99591884D01*
X141940072Y-99605031D01*
X141948932Y-99625654D01*
X141955552Y-99655321D01*
X141960248Y-99695601D01*
X141963338Y-99748062D01*
X141965138Y-99814273D01*
X141965963Y-99895802D01*
X141966130Y-99994218D01*
X141965956Y-100111088D01*
X141965757Y-100247982D01*
X141965739Y-100295266D01*
X141965739Y-100962966D01*
X141941570Y-100985483D01*
X141926100Y-100996788D01*
X141905824Y-101003612D01*
X141875203Y-101006998D01*
X141828697Y-101007992D01*
X141822174Y-101008000D01*
X141773517Y-101007212D01*
X141741373Y-101004149D01*
X141720203Y-100997768D01*
X141704466Y-100987024D01*
X141702778Y-100985483D01*
X141678609Y-100962966D01*
X141678609Y-100295266D01*
X141678466Y-100151772D01*
X141678250Y-100028794D01*
X141678276Y-99924762D01*
X141678861Y-99838108D01*
X141680321Y-99767264D01*
X141682972Y-99710661D01*
X141687132Y-99666732D01*
X141693115Y-99633906D01*
X141701238Y-99610617D01*
X141711818Y-99595295D01*
X141725171Y-99586373D01*
X141741613Y-99582281D01*
X141761461Y-99581451D01*
X141785030Y-99582315D01*
G36*
X142624184Y-99583284D02*
G01*
X142737071Y-99583392D01*
X142861770Y-99583429D01*
X142966244Y-99583584D01*
X143052353Y-99583923D01*
X143121959Y-99584512D01*
X143176922Y-99585418D01*
X143219103Y-99586706D01*
X143250364Y-99588442D01*
X143272566Y-99590693D01*
X143287570Y-99593524D01*
X143297237Y-99597003D01*
X143303427Y-99601194D01*
X143305810Y-99603587D01*
X143315211Y-99619530D01*
X143320908Y-99645044D01*
X143323606Y-99684741D01*
X143324087Y-99723354D01*
X143323988Y-99767863D01*
X143321875Y-99801441D01*
X143315023Y-99825625D01*
X143300709Y-99841955D01*
X143276208Y-99851968D01*
X143238795Y-99857203D01*
X143185746Y-99859199D01*
X143114337Y-99859493D01*
X143083022Y-99859479D01*
X142882348Y-99859479D01*
X142882348Y-100404642D01*
X142882472Y-100535698D01*
X142882573Y-100646382D01*
X142882241Y-100738402D01*
X142881067Y-100813470D01*
X142878642Y-100873296D01*
X142874556Y-100919589D01*
X142868400Y-100954061D01*
X142859765Y-100978421D01*
X142848242Y-100994380D01*
X142833421Y-101003648D01*
X142814894Y-101007936D01*
X142792250Y-101008953D01*
X142765082Y-101008411D01*
X142737981Y-101008000D01*
X142688679Y-101007287D01*
X142656163Y-101004503D01*
X142635160Y-100998684D01*
X142620396Y-100988864D01*
X142617304Y-100985913D01*
X142612319Y-100980316D01*
X142608146Y-100973104D01*
X142604714Y-100962401D01*
X142601949Y-100946329D01*
X142599780Y-100923013D01*
X142598135Y-100890577D01*
X142596941Y-100847142D01*
X142596127Y-100790834D01*
X142595619Y-100719776D01*
X142595346Y-100632090D01*
X142595237Y-100525901D01*
X142595217Y-100411653D01*
X142595217Y-99859479D01*
X142390913Y-99859479D01*
X142310762Y-99859348D01*
X142250010Y-99857961D01*
X142205970Y-99853824D01*
X142175956Y-99845446D01*
X142157282Y-99831334D01*
X142147260Y-99809995D01*
X142143205Y-99779936D01*
X142142428Y-99739666D01*
X142142435Y-99721435D01*
X142141845Y-99691229D01*
X142141224Y-99665750D01*
X142142290Y-99644599D01*
X142146764Y-99627377D01*
X142156366Y-99613684D01*
X142172815Y-99603122D01*
X142197833Y-99595290D01*
X142233139Y-99589789D01*
X142280452Y-99586221D01*
X142341493Y-99584186D01*
X142417982Y-99583284D01*
X142511639Y-99583116D01*
X142624184Y-99583284D01*
G37*
X142624184Y-99583284D02*
X142737071Y-99583392D01*
X142861770Y-99583429D01*
X142966244Y-99583584D01*
X143052353Y-99583923D01*
X143121959Y-99584512D01*
X143176922Y-99585418D01*
X143219103Y-99586706D01*
X143250364Y-99588442D01*
X143272566Y-99590693D01*
X143287570Y-99593524D01*
X143297237Y-99597003D01*
X143303427Y-99601194D01*
X143305810Y-99603587D01*
X143315211Y-99619530D01*
X143320908Y-99645044D01*
X143323606Y-99684741D01*
X143324087Y-99723354D01*
X143323988Y-99767863D01*
X143321875Y-99801441D01*
X143315023Y-99825625D01*
X143300709Y-99841955D01*
X143276208Y-99851968D01*
X143238795Y-99857203D01*
X143185746Y-99859199D01*
X143114337Y-99859493D01*
X143083022Y-99859479D01*
X142882348Y-99859479D01*
X142882348Y-100404642D01*
X142882472Y-100535698D01*
X142882573Y-100646382D01*
X142882241Y-100738402D01*
X142881067Y-100813470D01*
X142878642Y-100873296D01*
X142874556Y-100919589D01*
X142868400Y-100954061D01*
X142859765Y-100978421D01*
X142848242Y-100994380D01*
X142833421Y-101003648D01*
X142814894Y-101007936D01*
X142792250Y-101008953D01*
X142765082Y-101008411D01*
X142737981Y-101008000D01*
X142688679Y-101007287D01*
X142656163Y-101004503D01*
X142635160Y-100998684D01*
X142620396Y-100988864D01*
X142617304Y-100985913D01*
X142612319Y-100980316D01*
X142608146Y-100973104D01*
X142604714Y-100962401D01*
X142601949Y-100946329D01*
X142599780Y-100923013D01*
X142598135Y-100890577D01*
X142596941Y-100847142D01*
X142596127Y-100790834D01*
X142595619Y-100719776D01*
X142595346Y-100632090D01*
X142595237Y-100525901D01*
X142595217Y-100411653D01*
X142595217Y-99859479D01*
X142390913Y-99859479D01*
X142310762Y-99859348D01*
X142250010Y-99857961D01*
X142205970Y-99853824D01*
X142175956Y-99845446D01*
X142157282Y-99831334D01*
X142147260Y-99809995D01*
X142143205Y-99779936D01*
X142142428Y-99739666D01*
X142142435Y-99721435D01*
X142141845Y-99691229D01*
X142141224Y-99665750D01*
X142142290Y-99644599D01*
X142146764Y-99627377D01*
X142156366Y-99613684D01*
X142172815Y-99603122D01*
X142197833Y-99595290D01*
X142233139Y-99589789D01*
X142280452Y-99586221D01*
X142341493Y-99584186D01*
X142417982Y-99583284D01*
X142511639Y-99583116D01*
X142624184Y-99583284D01*
G36*
X144607989Y-99583676D02*
G01*
X144641987Y-99585218D01*
X144663577Y-99589054D01*
X144677596Y-99596221D01*
X144688885Y-99607753D01*
X144692677Y-99612490D01*
X144708491Y-99636505D01*
X144715541Y-99654942D01*
X144715565Y-99655615D01*
X144709456Y-99667391D01*
X144691991Y-99695337D01*
X144664466Y-99737518D01*
X144628176Y-99791999D01*
X144584414Y-99856845D01*
X144534476Y-99930121D01*
X144479657Y-100009890D01*
X144445024Y-100059973D01*
X144174483Y-100450305D01*
X144174459Y-100707066D01*
X144174477Y-100796366D01*
X144173780Y-100866019D01*
X144171211Y-100918461D01*
X144165616Y-100956127D01*
X144155839Y-100981452D01*
X144140724Y-100996872D01*
X144119115Y-101004822D01*
X144089858Y-101007738D01*
X144051795Y-101008056D01*
X144031671Y-101008000D01*
X143984186Y-101007591D01*
X143953445Y-101005509D01*
X143934105Y-101000477D01*
X143920826Y-100991214D01*
X143910193Y-100978902D01*
X143902820Y-100968399D01*
X143897224Y-100956106D01*
X143893160Y-100939029D01*
X143890386Y-100914175D01*
X143888657Y-100878551D01*
X143887730Y-100829164D01*
X143887361Y-100763021D01*
X143887304Y-100697792D01*
X143887304Y-100445779D01*
X143623685Y-100067042D01*
X143566919Y-99985188D01*
X143514008Y-99908313D01*
X143466316Y-99838445D01*
X143425209Y-99777608D01*
X143392050Y-99727828D01*
X143368204Y-99691130D01*
X143355036Y-99669539D01*
X143352926Y-99665192D01*
X143355151Y-99635697D01*
X143368869Y-99612736D01*
X143380244Y-99599598D01*
X143392698Y-99591113D01*
X143411011Y-99586264D01*
X143439964Y-99584037D01*
X143484339Y-99583417D01*
X143507106Y-99583392D01*
X143561184Y-99583993D01*
X143597709Y-99586240D01*
X143621195Y-99590793D01*
X143636154Y-99598316D01*
X143641587Y-99603131D01*
X143652704Y-99617085D01*
X143674548Y-99646736D01*
X143705333Y-99689578D01*
X143743274Y-99743105D01*
X143786587Y-99804814D01*
X143833488Y-99872197D01*
X143842177Y-99884740D01*
X143888784Y-99951693D01*
X143931493Y-100012324D01*
X143968662Y-100064358D01*
X143998648Y-100105520D01*
X144019809Y-100133536D01*
X144030502Y-100146132D01*
X144031308Y-100146609D01*
X144039337Y-100137872D01*
X144058221Y-100113159D01*
X144086339Y-100074722D01*
X144122070Y-100024812D01*
X144163791Y-99965678D01*
X144209882Y-99899571D01*
X144224257Y-99878805D01*
X144271907Y-99810222D01*
X144316180Y-99747194D01*
X144355345Y-99692128D01*
X144387673Y-99647430D01*
X144411437Y-99615510D01*
X144424905Y-99598773D01*
X144426520Y-99597196D01*
X144448369Y-99589695D01*
X144491066Y-99585057D01*
X144553543Y-99583395D01*
X144556744Y-99583392D01*
X144607989Y-99583676D01*
G37*
X144607989Y-99583676D02*
X144641987Y-99585218D01*
X144663577Y-99589054D01*
X144677596Y-99596221D01*
X144688885Y-99607753D01*
X144692677Y-99612490D01*
X144708491Y-99636505D01*
X144715541Y-99654942D01*
X144715565Y-99655615D01*
X144709456Y-99667391D01*
X144691991Y-99695337D01*
X144664466Y-99737518D01*
X144628176Y-99791999D01*
X144584414Y-99856845D01*
X144534476Y-99930121D01*
X144479657Y-100009890D01*
X144445024Y-100059973D01*
X144174483Y-100450305D01*
X144174459Y-100707066D01*
X144174477Y-100796366D01*
X144173780Y-100866019D01*
X144171211Y-100918461D01*
X144165616Y-100956127D01*
X144155839Y-100981452D01*
X144140724Y-100996872D01*
X144119115Y-101004822D01*
X144089858Y-101007738D01*
X144051795Y-101008056D01*
X144031671Y-101008000D01*
X143984186Y-101007591D01*
X143953445Y-101005509D01*
X143934105Y-101000477D01*
X143920826Y-100991214D01*
X143910193Y-100978902D01*
X143902820Y-100968399D01*
X143897224Y-100956106D01*
X143893160Y-100939029D01*
X143890386Y-100914175D01*
X143888657Y-100878551D01*
X143887730Y-100829164D01*
X143887361Y-100763021D01*
X143887304Y-100697792D01*
X143887304Y-100445779D01*
X143623685Y-100067042D01*
X143566919Y-99985188D01*
X143514008Y-99908313D01*
X143466316Y-99838445D01*
X143425209Y-99777608D01*
X143392050Y-99727828D01*
X143368204Y-99691130D01*
X143355036Y-99669539D01*
X143352926Y-99665192D01*
X143355151Y-99635697D01*
X143368869Y-99612736D01*
X143380244Y-99599598D01*
X143392698Y-99591113D01*
X143411011Y-99586264D01*
X143439964Y-99584037D01*
X143484339Y-99583417D01*
X143507106Y-99583392D01*
X143561184Y-99583993D01*
X143597709Y-99586240D01*
X143621195Y-99590793D01*
X143636154Y-99598316D01*
X143641587Y-99603131D01*
X143652704Y-99617085D01*
X143674548Y-99646736D01*
X143705333Y-99689578D01*
X143743274Y-99743105D01*
X143786587Y-99804814D01*
X143833488Y-99872197D01*
X143842177Y-99884740D01*
X143888784Y-99951693D01*
X143931493Y-100012324D01*
X143968662Y-100064358D01*
X143998648Y-100105520D01*
X144019809Y-100133536D01*
X144030502Y-100146132D01*
X144031308Y-100146609D01*
X144039337Y-100137872D01*
X144058221Y-100113159D01*
X144086339Y-100074722D01*
X144122070Y-100024812D01*
X144163791Y-99965678D01*
X144209882Y-99899571D01*
X144224257Y-99878805D01*
X144271907Y-99810222D01*
X144316180Y-99747194D01*
X144355345Y-99692128D01*
X144387673Y-99647430D01*
X144411437Y-99615510D01*
X144424905Y-99598773D01*
X144426520Y-99597196D01*
X144448369Y-99589695D01*
X144491066Y-99585057D01*
X144553543Y-99583395D01*
X144556744Y-99583392D01*
X144607989Y-99583676D01*
G36*
X147898999Y-99581820D02*
G01*
X147916471Y-99584780D01*
X147930756Y-99592095D01*
X147942170Y-99605335D01*
X147951030Y-99626067D01*
X147957652Y-99655860D01*
X147962352Y-99696281D01*
X147965446Y-99748900D01*
X147967249Y-99815285D01*
X147968079Y-99897004D01*
X147968251Y-99995625D01*
X147968081Y-100112716D01*
X147967886Y-100249847D01*
X147967869Y-100295696D01*
X147967846Y-100433698D01*
X147967740Y-100551312D01*
X147967500Y-100650237D01*
X147967074Y-100732171D01*
X147966410Y-100798814D01*
X147965457Y-100851864D01*
X147964162Y-100893020D01*
X147962474Y-100923981D01*
X147960340Y-100946446D01*
X147957710Y-100962113D01*
X147954530Y-100972681D01*
X147950750Y-100979850D01*
X147946832Y-100984754D01*
X147934987Y-100995392D01*
X147919481Y-101002209D01*
X147895536Y-101006030D01*
X147858374Y-101007683D01*
X147812531Y-101008000D01*
X147761282Y-101007737D01*
X147727190Y-101006219D01*
X147705323Y-101002358D01*
X147690752Y-100995065D01*
X147678546Y-100983250D01*
X147673438Y-100977272D01*
X147661912Y-100962379D01*
X147638784Y-100931479D01*
X147605426Y-100886439D01*
X147563212Y-100829126D01*
X147513513Y-100761409D01*
X147457703Y-100685153D01*
X147397153Y-100602227D01*
X147333237Y-100514498D01*
X147327348Y-100506405D01*
X147007087Y-100066266D01*
X147001565Y-100521466D01*
X147000311Y-100638154D01*
X146999265Y-100734667D01*
X146997864Y-100812907D01*
X146995547Y-100874773D01*
X146991752Y-100922165D01*
X146985916Y-100956982D01*
X146977477Y-100981125D01*
X146965873Y-100996493D01*
X146950542Y-101004986D01*
X146930921Y-101008505D01*
X146906449Y-101008948D01*
X146876563Y-101008216D01*
X146857601Y-101008000D01*
X146809722Y-101007331D01*
X146778540Y-101004609D01*
X146758685Y-100998764D01*
X146744788Y-100988726D01*
X146740994Y-100984754D01*
X146736634Y-100979184D01*
X146732922Y-100971727D01*
X146729805Y-100960687D01*
X146727231Y-100944362D01*
X146725148Y-100921056D01*
X146723505Y-100889069D01*
X146722250Y-100846702D01*
X146721330Y-100792256D01*
X146720695Y-100724032D01*
X146720292Y-100640333D01*
X146720069Y-100539458D01*
X146719975Y-100419709D01*
X146719956Y-100295696D01*
X146719980Y-100157694D01*
X146720086Y-100040080D01*
X146720326Y-99941155D01*
X146720752Y-99859221D01*
X146721416Y-99792578D01*
X146722369Y-99739528D01*
X146723664Y-99698372D01*
X146725352Y-99667411D01*
X146727486Y-99644946D01*
X146730116Y-99629279D01*
X146733296Y-99618711D01*
X146737076Y-99611542D01*
X146740994Y-99606638D01*
X146752839Y-99596000D01*
X146768345Y-99589183D01*
X146792290Y-99585362D01*
X146829451Y-99583710D01*
X146875295Y-99583392D01*
X146926493Y-99583642D01*
X146960528Y-99585132D01*
X146982321Y-99588968D01*
X146996795Y-99596259D01*
X147008873Y-99608110D01*
X147014388Y-99614682D01*
X147025965Y-99629680D01*
X147049207Y-99660626D01*
X147082730Y-99705650D01*
X147125149Y-99762881D01*
X147175080Y-99830447D01*
X147231138Y-99906477D01*
X147291939Y-99989101D01*
X147356098Y-100076447D01*
X147360478Y-100082416D01*
X147680739Y-100518860D01*
X147683625Y-100071183D01*
X147684429Y-99958703D01*
X147685313Y-99866257D01*
X147686368Y-99791796D01*
X147687689Y-99733266D01*
X147689366Y-99688616D01*
X147691493Y-99655795D01*
X147694161Y-99632750D01*
X147697463Y-99617430D01*
X147701491Y-99607783D01*
X147704663Y-99603449D01*
X147717284Y-99593609D01*
X147736674Y-99587530D01*
X147767678Y-99584400D01*
X147815138Y-99583407D01*
X147824304Y-99583392D01*
X147853232Y-99582694D01*
X147878025Y-99581648D01*
X147898999Y-99581820D01*
G37*
X147898999Y-99581820D02*
X147916471Y-99584780D01*
X147930756Y-99592095D01*
X147942170Y-99605335D01*
X147951030Y-99626067D01*
X147957652Y-99655860D01*
X147962352Y-99696281D01*
X147965446Y-99748900D01*
X147967249Y-99815285D01*
X147968079Y-99897004D01*
X147968251Y-99995625D01*
X147968081Y-100112716D01*
X147967886Y-100249847D01*
X147967869Y-100295696D01*
X147967846Y-100433698D01*
X147967740Y-100551312D01*
X147967500Y-100650237D01*
X147967074Y-100732171D01*
X147966410Y-100798814D01*
X147965457Y-100851864D01*
X147964162Y-100893020D01*
X147962474Y-100923981D01*
X147960340Y-100946446D01*
X147957710Y-100962113D01*
X147954530Y-100972681D01*
X147950750Y-100979850D01*
X147946832Y-100984754D01*
X147934987Y-100995392D01*
X147919481Y-101002209D01*
X147895536Y-101006030D01*
X147858374Y-101007683D01*
X147812531Y-101008000D01*
X147761282Y-101007737D01*
X147727190Y-101006219D01*
X147705323Y-101002358D01*
X147690752Y-100995065D01*
X147678546Y-100983250D01*
X147673438Y-100977272D01*
X147661912Y-100962379D01*
X147638784Y-100931479D01*
X147605426Y-100886439D01*
X147563212Y-100829126D01*
X147513513Y-100761409D01*
X147457703Y-100685153D01*
X147397153Y-100602227D01*
X147333237Y-100514498D01*
X147327348Y-100506405D01*
X147007087Y-100066266D01*
X147001565Y-100521466D01*
X147000311Y-100638154D01*
X146999265Y-100734667D01*
X146997864Y-100812907D01*
X146995547Y-100874773D01*
X146991752Y-100922165D01*
X146985916Y-100956982D01*
X146977477Y-100981125D01*
X146965873Y-100996493D01*
X146950542Y-101004986D01*
X146930921Y-101008505D01*
X146906449Y-101008948D01*
X146876563Y-101008216D01*
X146857601Y-101008000D01*
X146809722Y-101007331D01*
X146778540Y-101004609D01*
X146758685Y-100998764D01*
X146744788Y-100988726D01*
X146740994Y-100984754D01*
X146736634Y-100979184D01*
X146732922Y-100971727D01*
X146729805Y-100960687D01*
X146727231Y-100944362D01*
X146725148Y-100921056D01*
X146723505Y-100889069D01*
X146722250Y-100846702D01*
X146721330Y-100792256D01*
X146720695Y-100724032D01*
X146720292Y-100640333D01*
X146720069Y-100539458D01*
X146719975Y-100419709D01*
X146719956Y-100295696D01*
X146719980Y-100157694D01*
X146720086Y-100040080D01*
X146720326Y-99941155D01*
X146720752Y-99859221D01*
X146721416Y-99792578D01*
X146722369Y-99739528D01*
X146723664Y-99698372D01*
X146725352Y-99667411D01*
X146727486Y-99644946D01*
X146730116Y-99629279D01*
X146733296Y-99618711D01*
X146737076Y-99611542D01*
X146740994Y-99606638D01*
X146752839Y-99596000D01*
X146768345Y-99589183D01*
X146792290Y-99585362D01*
X146829451Y-99583710D01*
X146875295Y-99583392D01*
X146926493Y-99583642D01*
X146960528Y-99585132D01*
X146982321Y-99588968D01*
X146996795Y-99596259D01*
X147008873Y-99608110D01*
X147014388Y-99614682D01*
X147025965Y-99629680D01*
X147049207Y-99660626D01*
X147082730Y-99705650D01*
X147125149Y-99762881D01*
X147175080Y-99830447D01*
X147231138Y-99906477D01*
X147291939Y-99989101D01*
X147356098Y-100076447D01*
X147360478Y-100082416D01*
X147680739Y-100518860D01*
X147683625Y-100071183D01*
X147684429Y-99958703D01*
X147685313Y-99866257D01*
X147686368Y-99791796D01*
X147687689Y-99733266D01*
X147689366Y-99688616D01*
X147691493Y-99655795D01*
X147694161Y-99632750D01*
X147697463Y-99617430D01*
X147701491Y-99607783D01*
X147704663Y-99603449D01*
X147717284Y-99593609D01*
X147736674Y-99587530D01*
X147767678Y-99584400D01*
X147815138Y-99583407D01*
X147824304Y-99583392D01*
X147853232Y-99582694D01*
X147878025Y-99581648D01*
X147898999Y-99581820D01*
G36*
X148902420Y-99584930D02*
G01*
X148946203Y-99589421D01*
X148969905Y-99596680D01*
X148970645Y-99597196D01*
X148978016Y-99609485D01*
X148992958Y-99640076D01*
X149014576Y-99686870D01*
X149041975Y-99747768D01*
X149074259Y-99820673D01*
X149110535Y-99903486D01*
X149149907Y-99994109D01*
X149191480Y-100090443D01*
X149234359Y-100190390D01*
X149277649Y-100291852D01*
X149320454Y-100392729D01*
X149361881Y-100490924D01*
X149401034Y-100584339D01*
X149437018Y-100670874D01*
X149468938Y-100748432D01*
X149495898Y-100814914D01*
X149517005Y-100868222D01*
X149531363Y-100906257D01*
X149538077Y-100926921D01*
X149538335Y-100928185D01*
X149537849Y-100963511D01*
X149524774Y-100986163D01*
X149512639Y-100996483D01*
X149495631Y-101002980D01*
X149468879Y-101006492D01*
X149427511Y-101007859D01*
X149398000Y-101008000D01*
X149346640Y-101007394D01*
X149312544Y-101005041D01*
X149290910Y-101000140D01*
X149276935Y-100991889D01*
X149271959Y-100986973D01*
X149261254Y-100969858D01*
X149244114Y-100936324D01*
X149222463Y-100890399D01*
X149198224Y-100836110D01*
X149183577Y-100801995D01*
X149114224Y-100638044D01*
X148565101Y-100638044D01*
X148496223Y-100802180D01*
X148471537Y-100859547D01*
X148448303Y-100910884D01*
X148428432Y-100952165D01*
X148413831Y-100979366D01*
X148408482Y-100987158D01*
X148396357Y-100997066D01*
X148378529Y-101003299D01*
X148350215Y-101006648D01*
X148306630Y-101007905D01*
X148282609Y-101008000D01*
X148230911Y-101007352D01*
X148196563Y-101004901D01*
X148174851Y-100999887D01*
X148161060Y-100991551D01*
X148157320Y-100987805D01*
X148142676Y-100960773D01*
X148139043Y-100940713D01*
X148143291Y-100925246D01*
X148155442Y-100891780D01*
X148174604Y-100842408D01*
X148199888Y-100779227D01*
X148230404Y-100704332D01*
X148265260Y-100619817D01*
X148303567Y-100527780D01*
X148344434Y-100430314D01*
X148370950Y-100367479D01*
X148679877Y-100367479D01*
X149000731Y-100367479D01*
X148983246Y-100326066D01*
X148971774Y-100298721D01*
X148954440Y-100257196D01*
X148933840Y-100207717D01*
X148917628Y-100168696D01*
X148896657Y-100118250D01*
X148877349Y-100071935D01*
X148862142Y-100035597D01*
X148854673Y-100017877D01*
X148839851Y-99983015D01*
X148777330Y-100133834D01*
X148753586Y-100191062D01*
X148731398Y-100244452D01*
X148712837Y-100289025D01*
X148699975Y-100319805D01*
X148697343Y-100326066D01*
X148679877Y-100367479D01*
X148370950Y-100367479D01*
X148386971Y-100329516D01*
X148430286Y-100227480D01*
X148473491Y-100126303D01*
X148515695Y-100028078D01*
X148556006Y-99934903D01*
X148593535Y-99848872D01*
X148627392Y-99772080D01*
X148656685Y-99706623D01*
X148680525Y-99654596D01*
X148698021Y-99618095D01*
X148708283Y-99599215D01*
X148709948Y-99597196D01*
X148732404Y-99589779D01*
X148775040Y-99585118D01*
X148836102Y-99583397D01*
X148840304Y-99583392D01*
X148902420Y-99584930D01*
G37*
X148902420Y-99584930D02*
X148946203Y-99589421D01*
X148969905Y-99596680D01*
X148970645Y-99597196D01*
X148978016Y-99609485D01*
X148992958Y-99640076D01*
X149014576Y-99686870D01*
X149041975Y-99747768D01*
X149074259Y-99820673D01*
X149110535Y-99903486D01*
X149149907Y-99994109D01*
X149191480Y-100090443D01*
X149234359Y-100190390D01*
X149277649Y-100291852D01*
X149320454Y-100392729D01*
X149361881Y-100490924D01*
X149401034Y-100584339D01*
X149437018Y-100670874D01*
X149468938Y-100748432D01*
X149495898Y-100814914D01*
X149517005Y-100868222D01*
X149531363Y-100906257D01*
X149538077Y-100926921D01*
X149538335Y-100928185D01*
X149537849Y-100963511D01*
X149524774Y-100986163D01*
X149512639Y-100996483D01*
X149495631Y-101002980D01*
X149468879Y-101006492D01*
X149427511Y-101007859D01*
X149398000Y-101008000D01*
X149346640Y-101007394D01*
X149312544Y-101005041D01*
X149290910Y-101000140D01*
X149276935Y-100991889D01*
X149271959Y-100986973D01*
X149261254Y-100969858D01*
X149244114Y-100936324D01*
X149222463Y-100890399D01*
X149198224Y-100836110D01*
X149183577Y-100801995D01*
X149114224Y-100638044D01*
X148565101Y-100638044D01*
X148496223Y-100802180D01*
X148471537Y-100859547D01*
X148448303Y-100910884D01*
X148428432Y-100952165D01*
X148413831Y-100979366D01*
X148408482Y-100987158D01*
X148396357Y-100997066D01*
X148378529Y-101003299D01*
X148350215Y-101006648D01*
X148306630Y-101007905D01*
X148282609Y-101008000D01*
X148230911Y-101007352D01*
X148196563Y-101004901D01*
X148174851Y-100999887D01*
X148161060Y-100991551D01*
X148157320Y-100987805D01*
X148142676Y-100960773D01*
X148139043Y-100940713D01*
X148143291Y-100925246D01*
X148155442Y-100891780D01*
X148174604Y-100842408D01*
X148199888Y-100779227D01*
X148230404Y-100704332D01*
X148265260Y-100619817D01*
X148303567Y-100527780D01*
X148344434Y-100430314D01*
X148370950Y-100367479D01*
X148679877Y-100367479D01*
X149000731Y-100367479D01*
X148983246Y-100326066D01*
X148971774Y-100298721D01*
X148954440Y-100257196D01*
X148933840Y-100207717D01*
X148917628Y-100168696D01*
X148896657Y-100118250D01*
X148877349Y-100071935D01*
X148862142Y-100035597D01*
X148854673Y-100017877D01*
X148839851Y-99983015D01*
X148777330Y-100133834D01*
X148753586Y-100191062D01*
X148731398Y-100244452D01*
X148712837Y-100289025D01*
X148699975Y-100319805D01*
X148697343Y-100326066D01*
X148679877Y-100367479D01*
X148370950Y-100367479D01*
X148386971Y-100329516D01*
X148430286Y-100227480D01*
X148473491Y-100126303D01*
X148515695Y-100028078D01*
X148556006Y-99934903D01*
X148593535Y-99848872D01*
X148627392Y-99772080D01*
X148656685Y-99706623D01*
X148680525Y-99654596D01*
X148698021Y-99618095D01*
X148708283Y-99599215D01*
X148709948Y-99597196D01*
X148732404Y-99589779D01*
X148775040Y-99585118D01*
X148836102Y-99583397D01*
X148840304Y-99583392D01*
X148902420Y-99584930D01*
G36*
X149815450Y-99582413D02*
G01*
X149843493Y-99583341D01*
X149850782Y-99583392D01*
X149882163Y-99582777D01*
X149908640Y-99582077D01*
X149930628Y-99583009D01*
X149948539Y-99587288D01*
X149962787Y-99596632D01*
X149973785Y-99612757D01*
X149981946Y-99637378D01*
X149987683Y-99672214D01*
X149991409Y-99718979D01*
X149993539Y-99779391D01*
X149994485Y-99855166D01*
X149994659Y-99948021D01*
X149994476Y-100059671D01*
X149994348Y-100179740D01*
X149994348Y-100731913D01*
X150323940Y-100731913D01*
X150423658Y-100731778D01*
X150503495Y-100731932D01*
X150565648Y-100733217D01*
X150612319Y-100736472D01*
X150645704Y-100742538D01*
X150668003Y-100752255D01*
X150681414Y-100766465D01*
X150688138Y-100786007D01*
X150690371Y-100811723D01*
X150690313Y-100844452D01*
X150690087Y-100871876D01*
X150689330Y-100921807D01*
X150686497Y-100954604D01*
X150680746Y-100975186D01*
X150671233Y-100988470D01*
X150669891Y-100989724D01*
X150663045Y-100994301D01*
X150652220Y-100998053D01*
X150635357Y-101001060D01*
X150610397Y-101003403D01*
X150575279Y-101005161D01*
X150527944Y-101006415D01*
X150466333Y-101007245D01*
X150388385Y-101007732D01*
X150292041Y-101007956D01*
X150201345Y-101008000D01*
X149752994Y-101008000D01*
X149730106Y-100978902D01*
X149725353Y-100972431D01*
X149721308Y-100964900D01*
X149717914Y-100954590D01*
X149715114Y-100939777D01*
X149712851Y-100918741D01*
X149711068Y-100889760D01*
X149709707Y-100851111D01*
X149708711Y-100801073D01*
X149708024Y-100737924D01*
X149707588Y-100659944D01*
X149707347Y-100565408D01*
X149707242Y-100452597D01*
X149707218Y-100319789D01*
X149707217Y-100288685D01*
X149707074Y-100145910D01*
X149706860Y-100023643D01*
X149706894Y-99920307D01*
X149707499Y-99834328D01*
X149708993Y-99764128D01*
X149711700Y-99708132D01*
X149715938Y-99664765D01*
X149722029Y-99632450D01*
X149730294Y-99609612D01*
X149741053Y-99594674D01*
X149754628Y-99586062D01*
X149771338Y-99582198D01*
X149791505Y-99581507D01*
X149815450Y-99582413D01*
G37*
X149815450Y-99582413D02*
X149843493Y-99583341D01*
X149850782Y-99583392D01*
X149882163Y-99582777D01*
X149908640Y-99582077D01*
X149930628Y-99583009D01*
X149948539Y-99587288D01*
X149962787Y-99596632D01*
X149973785Y-99612757D01*
X149981946Y-99637378D01*
X149987683Y-99672214D01*
X149991409Y-99718979D01*
X149993539Y-99779391D01*
X149994485Y-99855166D01*
X149994659Y-99948021D01*
X149994476Y-100059671D01*
X149994348Y-100179740D01*
X149994348Y-100731913D01*
X150323940Y-100731913D01*
X150423658Y-100731778D01*
X150503495Y-100731932D01*
X150565648Y-100733217D01*
X150612319Y-100736472D01*
X150645704Y-100742538D01*
X150668003Y-100752255D01*
X150681414Y-100766465D01*
X150688138Y-100786007D01*
X150690371Y-100811723D01*
X150690313Y-100844452D01*
X150690087Y-100871876D01*
X150689330Y-100921807D01*
X150686497Y-100954604D01*
X150680746Y-100975186D01*
X150671233Y-100988470D01*
X150669891Y-100989724D01*
X150663045Y-100994301D01*
X150652220Y-100998053D01*
X150635357Y-101001060D01*
X150610397Y-101003403D01*
X150575279Y-101005161D01*
X150527944Y-101006415D01*
X150466333Y-101007245D01*
X150388385Y-101007732D01*
X150292041Y-101007956D01*
X150201345Y-101008000D01*
X149752994Y-101008000D01*
X149730106Y-100978902D01*
X149725353Y-100972431D01*
X149721308Y-100964900D01*
X149717914Y-100954590D01*
X149715114Y-100939777D01*
X149712851Y-100918741D01*
X149711068Y-100889760D01*
X149709707Y-100851111D01*
X149708711Y-100801073D01*
X149708024Y-100737924D01*
X149707588Y-100659944D01*
X149707347Y-100565408D01*
X149707242Y-100452597D01*
X149707218Y-100319789D01*
X149707217Y-100288685D01*
X149707074Y-100145910D01*
X149706860Y-100023643D01*
X149706894Y-99920307D01*
X149707499Y-99834328D01*
X149708993Y-99764128D01*
X149711700Y-99708132D01*
X149715938Y-99664765D01*
X149722029Y-99632450D01*
X149730294Y-99609612D01*
X149741053Y-99594674D01*
X149754628Y-99586062D01*
X149771338Y-99582198D01*
X149791505Y-99581507D01*
X149815450Y-99582413D01*
G36*
X151997319Y-99585083D02*
G01*
X152038684Y-99591150D01*
X152064422Y-99603077D01*
X152077669Y-99622352D01*
X152081560Y-99650463D01*
X152081565Y-99651855D01*
X152074958Y-99669518D01*
X152055158Y-99704825D01*
X152022195Y-99757729D01*
X151976100Y-99828184D01*
X151916901Y-99916143D01*
X151844630Y-100021560D01*
X151816522Y-100062183D01*
X151551478Y-100444438D01*
X151551478Y-100697121D01*
X151551376Y-100778548D01*
X151550908Y-100840877D01*
X151549831Y-100887095D01*
X151547903Y-100920192D01*
X151544881Y-100943155D01*
X151540521Y-100958973D01*
X151534582Y-100970634D01*
X151528590Y-100978902D01*
X151516253Y-100992822D01*
X151502444Y-101001412D01*
X151481821Y-101005952D01*
X151449044Y-101007720D01*
X151407111Y-101008000D01*
X151357809Y-101007287D01*
X151325293Y-101004503D01*
X151304290Y-100998684D01*
X151289527Y-100988864D01*
X151286435Y-100985913D01*
X151279380Y-100977689D01*
X151274004Y-100967041D01*
X151270077Y-100951089D01*
X151267368Y-100926955D01*
X151265648Y-100891761D01*
X151264685Y-100842628D01*
X151264251Y-100776678D01*
X151264126Y-100707066D01*
X151263904Y-100450305D01*
X150994004Y-100063783D01*
X150934367Y-99977821D01*
X150879770Y-99898035D01*
X150831424Y-99826269D01*
X150790541Y-99764365D01*
X150758331Y-99714168D01*
X150736005Y-99677520D01*
X150724777Y-99656264D01*
X150723661Y-99652413D01*
X150730895Y-99626159D01*
X150745304Y-99605479D01*
X150758119Y-99595319D01*
X150775265Y-99588809D01*
X150801519Y-99585172D01*
X150841660Y-99583635D01*
X150881423Y-99583392D01*
X150933564Y-99583794D01*
X150968451Y-99585585D01*
X150990913Y-99589644D01*
X151005776Y-99596850D01*
X151017868Y-99608079D01*
X151018014Y-99608240D01*
X151030031Y-99623587D01*
X151052728Y-99654550D01*
X151084270Y-99698549D01*
X151122821Y-99753001D01*
X151166544Y-99815326D01*
X151213604Y-99882943D01*
X151220302Y-99892609D01*
X151266515Y-99959327D01*
X151308485Y-100019898D01*
X151344612Y-100072013D01*
X151373296Y-100113364D01*
X151392936Y-100141642D01*
X151401930Y-100154540D01*
X151402313Y-100155074D01*
X151408919Y-100147100D01*
X151426549Y-100123114D01*
X151453671Y-100085273D01*
X151488752Y-100035737D01*
X151530261Y-99976663D01*
X151576664Y-99910210D01*
X151599458Y-99877430D01*
X151648344Y-99807619D01*
X151693867Y-99743711D01*
X151734351Y-99687976D01*
X151768117Y-99642684D01*
X151793488Y-99610106D01*
X151808785Y-99592510D01*
X151811846Y-99590117D01*
X151830032Y-99587215D01*
X151864491Y-99584942D01*
X151909410Y-99583610D01*
X151937191Y-99583392D01*
X151997319Y-99585083D01*
G37*
X151997319Y-99585083D02*
X152038684Y-99591150D01*
X152064422Y-99603077D01*
X152077669Y-99622352D01*
X152081560Y-99650463D01*
X152081565Y-99651855D01*
X152074958Y-99669518D01*
X152055158Y-99704825D01*
X152022195Y-99757729D01*
X151976100Y-99828184D01*
X151916901Y-99916143D01*
X151844630Y-100021560D01*
X151816522Y-100062183D01*
X151551478Y-100444438D01*
X151551478Y-100697121D01*
X151551376Y-100778548D01*
X151550908Y-100840877D01*
X151549831Y-100887095D01*
X151547903Y-100920192D01*
X151544881Y-100943155D01*
X151540521Y-100958973D01*
X151534582Y-100970634D01*
X151528590Y-100978902D01*
X151516253Y-100992822D01*
X151502444Y-101001412D01*
X151481821Y-101005952D01*
X151449044Y-101007720D01*
X151407111Y-101008000D01*
X151357809Y-101007287D01*
X151325293Y-101004503D01*
X151304290Y-100998684D01*
X151289527Y-100988864D01*
X151286435Y-100985913D01*
X151279380Y-100977689D01*
X151274004Y-100967041D01*
X151270077Y-100951089D01*
X151267368Y-100926955D01*
X151265648Y-100891761D01*
X151264685Y-100842628D01*
X151264251Y-100776678D01*
X151264126Y-100707066D01*
X151263904Y-100450305D01*
X150994004Y-100063783D01*
X150934367Y-99977821D01*
X150879770Y-99898035D01*
X150831424Y-99826269D01*
X150790541Y-99764365D01*
X150758331Y-99714168D01*
X150736005Y-99677520D01*
X150724777Y-99656264D01*
X150723661Y-99652413D01*
X150730895Y-99626159D01*
X150745304Y-99605479D01*
X150758119Y-99595319D01*
X150775265Y-99588809D01*
X150801519Y-99585172D01*
X150841660Y-99583635D01*
X150881423Y-99583392D01*
X150933564Y-99583794D01*
X150968451Y-99585585D01*
X150990913Y-99589644D01*
X151005776Y-99596850D01*
X151017868Y-99608079D01*
X151018014Y-99608240D01*
X151030031Y-99623587D01*
X151052728Y-99654550D01*
X151084270Y-99698549D01*
X151122821Y-99753001D01*
X151166544Y-99815326D01*
X151213604Y-99882943D01*
X151220302Y-99892609D01*
X151266515Y-99959327D01*
X151308485Y-100019898D01*
X151344612Y-100072013D01*
X151373296Y-100113364D01*
X151392936Y-100141642D01*
X151401930Y-100154540D01*
X151402313Y-100155074D01*
X151408919Y-100147100D01*
X151426549Y-100123114D01*
X151453671Y-100085273D01*
X151488752Y-100035737D01*
X151530261Y-99976663D01*
X151576664Y-99910210D01*
X151599458Y-99877430D01*
X151648344Y-99807619D01*
X151693867Y-99743711D01*
X151734351Y-99687976D01*
X151768117Y-99642684D01*
X151793488Y-99610106D01*
X151808785Y-99592510D01*
X151811846Y-99590117D01*
X151830032Y-99587215D01*
X151864491Y-99584942D01*
X151909410Y-99583610D01*
X151937191Y-99583392D01*
X151997319Y-99585083D01*
G36*
X152826175Y-99583429D02*
G01*
X152930212Y-99583586D01*
X153015898Y-99583928D01*
X153085099Y-99584523D01*
X153139684Y-99585438D01*
X153181521Y-99586739D01*
X153212476Y-99588492D01*
X153234418Y-99590766D01*
X153249215Y-99593625D01*
X153258733Y-99597138D01*
X153264841Y-99601371D01*
X153267027Y-99603587D01*
X153276428Y-99619530D01*
X153282126Y-99645044D01*
X153284824Y-99684741D01*
X153285304Y-99723354D01*
X153285205Y-99767863D01*
X153283092Y-99801441D01*
X153276241Y-99825625D01*
X153261927Y-99841955D01*
X153237425Y-99851968D01*
X153200012Y-99857203D01*
X153146963Y-99859199D01*
X153075554Y-99859493D01*
X153044239Y-99859479D01*
X152843565Y-99859479D01*
X152843565Y-100411653D01*
X152843707Y-100542010D01*
X152843864Y-100652001D01*
X152843630Y-100743339D01*
X152842599Y-100817740D01*
X152840367Y-100876921D01*
X152836528Y-100922596D01*
X152830677Y-100956480D01*
X152822409Y-100980290D01*
X152811318Y-100995741D01*
X152796999Y-101004548D01*
X152779047Y-101008426D01*
X152757056Y-101009092D01*
X152730622Y-101008260D01*
X152702761Y-101007649D01*
X152645974Y-101005832D01*
X152607825Y-101000557D01*
X152585069Y-100991360D01*
X152584043Y-100990614D01*
X152579076Y-100986256D01*
X152574901Y-100980092D01*
X152571437Y-100970272D01*
X152568602Y-100954949D01*
X152566316Y-100932271D01*
X152564498Y-100900392D01*
X152563067Y-100857460D01*
X152561941Y-100801628D01*
X152561041Y-100731046D01*
X152560283Y-100643864D01*
X152559589Y-100538235D01*
X152558900Y-100416704D01*
X152555844Y-99859479D01*
X152353547Y-99859479D01*
X152275126Y-99859439D01*
X152216051Y-99858250D01*
X152173587Y-99854310D01*
X152144998Y-99846015D01*
X152127547Y-99831762D01*
X152118499Y-99809947D01*
X152115117Y-99778968D01*
X152114667Y-99737221D01*
X152114696Y-99719516D01*
X152115452Y-99669585D01*
X152118285Y-99636788D01*
X152124036Y-99616207D01*
X152133549Y-99602922D01*
X152134891Y-99601669D01*
X152141151Y-99597494D01*
X152151143Y-99594001D01*
X152166720Y-99591130D01*
X152189735Y-99588822D01*
X152222039Y-99587016D01*
X152265488Y-99585653D01*
X152321932Y-99584673D01*
X152393225Y-99584017D01*
X152481220Y-99583625D01*
X152587770Y-99583436D01*
X152701919Y-99583392D01*
X152826175Y-99583429D01*
G37*
X152826175Y-99583429D02*
X152930212Y-99583586D01*
X153015898Y-99583928D01*
X153085099Y-99584523D01*
X153139684Y-99585438D01*
X153181521Y-99586739D01*
X153212476Y-99588492D01*
X153234418Y-99590766D01*
X153249215Y-99593625D01*
X153258733Y-99597138D01*
X153264841Y-99601371D01*
X153267027Y-99603587D01*
X153276428Y-99619530D01*
X153282126Y-99645044D01*
X153284824Y-99684741D01*
X153285304Y-99723354D01*
X153285205Y-99767863D01*
X153283092Y-99801441D01*
X153276241Y-99825625D01*
X153261927Y-99841955D01*
X153237425Y-99851968D01*
X153200012Y-99857203D01*
X153146963Y-99859199D01*
X153075554Y-99859493D01*
X153044239Y-99859479D01*
X152843565Y-99859479D01*
X152843565Y-100411653D01*
X152843707Y-100542010D01*
X152843864Y-100652001D01*
X152843630Y-100743339D01*
X152842599Y-100817740D01*
X152840367Y-100876921D01*
X152836528Y-100922596D01*
X152830677Y-100956480D01*
X152822409Y-100980290D01*
X152811318Y-100995741D01*
X152796999Y-101004548D01*
X152779047Y-101008426D01*
X152757056Y-101009092D01*
X152730622Y-101008260D01*
X152702761Y-101007649D01*
X152645974Y-101005832D01*
X152607825Y-101000557D01*
X152585069Y-100991360D01*
X152584043Y-100990614D01*
X152579076Y-100986256D01*
X152574901Y-100980092D01*
X152571437Y-100970272D01*
X152568602Y-100954949D01*
X152566316Y-100932271D01*
X152564498Y-100900392D01*
X152563067Y-100857460D01*
X152561941Y-100801628D01*
X152561041Y-100731046D01*
X152560283Y-100643864D01*
X152559589Y-100538235D01*
X152558900Y-100416704D01*
X152555844Y-99859479D01*
X152353547Y-99859479D01*
X152275126Y-99859439D01*
X152216051Y-99858250D01*
X152173587Y-99854310D01*
X152144998Y-99846015D01*
X152127547Y-99831762D01*
X152118499Y-99809947D01*
X152115117Y-99778968D01*
X152114667Y-99737221D01*
X152114696Y-99719516D01*
X152115452Y-99669585D01*
X152118285Y-99636788D01*
X152124036Y-99616207D01*
X152133549Y-99602922D01*
X152134891Y-99601669D01*
X152141151Y-99597494D01*
X152151143Y-99594001D01*
X152166720Y-99591130D01*
X152189735Y-99588822D01*
X152222039Y-99587016D01*
X152265488Y-99585653D01*
X152321932Y-99584673D01*
X152393225Y-99584017D01*
X152481220Y-99583625D01*
X152587770Y-99583436D01*
X152701919Y-99583392D01*
X152826175Y-99583429D01*
G36*
X153686696Y-99581886D02*
G01*
X153703932Y-99584897D01*
X153718024Y-99592280D01*
X153729285Y-99605603D01*
X153738026Y-99626434D01*
X153744558Y-99656343D01*
X153749195Y-99696897D01*
X153752248Y-99749665D01*
X153754028Y-99816217D01*
X153754848Y-99898120D01*
X153755020Y-99996944D01*
X153754856Y-100114256D01*
X153754667Y-100251626D01*
X153754652Y-100295696D01*
X153754786Y-100439201D01*
X153754983Y-100562190D01*
X153754934Y-100666234D01*
X153754333Y-100752901D01*
X153752871Y-100823759D01*
X153750241Y-100880379D01*
X153746134Y-100924328D01*
X153740243Y-100957176D01*
X153732260Y-100980492D01*
X153721877Y-100995844D01*
X153708786Y-101004802D01*
X153692680Y-101008935D01*
X153673250Y-101009810D01*
X153650189Y-101008999D01*
X153623190Y-101008068D01*
X153614897Y-101008000D01*
X153565811Y-101007272D01*
X153533476Y-101004432D01*
X153512586Y-100998504D01*
X153497833Y-100988509D01*
X153495130Y-100985913D01*
X153490577Y-100980834D01*
X153486697Y-100974286D01*
X153483436Y-100964580D01*
X153480739Y-100950026D01*
X153478555Y-100928936D01*
X153476828Y-100899620D01*
X153475506Y-100860389D01*
X153474533Y-100809554D01*
X153473857Y-100745427D01*
X153473424Y-100666317D01*
X153473180Y-100570536D01*
X153473071Y-100456394D01*
X153473044Y-100322203D01*
X153473043Y-100291886D01*
X153473071Y-100153103D01*
X153473186Y-100034731D01*
X153473438Y-99935097D01*
X153473875Y-99852525D01*
X153474548Y-99785339D01*
X153475504Y-99731865D01*
X153476792Y-99690428D01*
X153478463Y-99659353D01*
X153480564Y-99636964D01*
X153483145Y-99621587D01*
X153486255Y-99611547D01*
X153489942Y-99605169D01*
X153493239Y-99601669D01*
X153509181Y-99592268D01*
X153534696Y-99586570D01*
X153574393Y-99583872D01*
X153613006Y-99583392D01*
X153641545Y-99582702D01*
X153666004Y-99581677D01*
X153686696Y-99581886D01*
G37*
X153686696Y-99581886D02*
X153703932Y-99584897D01*
X153718024Y-99592280D01*
X153729285Y-99605603D01*
X153738026Y-99626434D01*
X153744558Y-99656343D01*
X153749195Y-99696897D01*
X153752248Y-99749665D01*
X153754028Y-99816217D01*
X153754848Y-99898120D01*
X153755020Y-99996944D01*
X153754856Y-100114256D01*
X153754667Y-100251626D01*
X153754652Y-100295696D01*
X153754786Y-100439201D01*
X153754983Y-100562190D01*
X153754934Y-100666234D01*
X153754333Y-100752901D01*
X153752871Y-100823759D01*
X153750241Y-100880379D01*
X153746134Y-100924328D01*
X153740243Y-100957176D01*
X153732260Y-100980492D01*
X153721877Y-100995844D01*
X153708786Y-101004802D01*
X153692680Y-101008935D01*
X153673250Y-101009810D01*
X153650189Y-101008999D01*
X153623190Y-101008068D01*
X153614897Y-101008000D01*
X153565811Y-101007272D01*
X153533476Y-101004432D01*
X153512586Y-100998504D01*
X153497833Y-100988509D01*
X153495130Y-100985913D01*
X153490577Y-100980834D01*
X153486697Y-100974286D01*
X153483436Y-100964580D01*
X153480739Y-100950026D01*
X153478555Y-100928936D01*
X153476828Y-100899620D01*
X153475506Y-100860389D01*
X153474533Y-100809554D01*
X153473857Y-100745427D01*
X153473424Y-100666317D01*
X153473180Y-100570536D01*
X153473071Y-100456394D01*
X153473044Y-100322203D01*
X153473043Y-100291886D01*
X153473071Y-100153103D01*
X153473186Y-100034731D01*
X153473438Y-99935097D01*
X153473875Y-99852525D01*
X153474548Y-99785339D01*
X153475504Y-99731865D01*
X153476792Y-99690428D01*
X153478463Y-99659353D01*
X153480564Y-99636964D01*
X153483145Y-99621587D01*
X153486255Y-99611547D01*
X153489942Y-99605169D01*
X153493239Y-99601669D01*
X153509181Y-99592268D01*
X153534696Y-99586570D01*
X153574393Y-99583872D01*
X153613006Y-99583392D01*
X153641545Y-99582702D01*
X153666004Y-99581677D01*
X153686696Y-99581886D01*
D13*
%TO.C,U1*%
X144572501Y-83790000D02*
X144572501Y-81010000D01*
X149762501Y-83790000D02*
X144572501Y-83790000D01*
X149762501Y-80210000D02*
X149762501Y-83790000D01*
X145372501Y-80210000D02*
X149762501Y-80210000D01*
X144572501Y-81010000D02*
X145372501Y-80210000D01*
%TO.C,J1*%
X126210000Y-82840000D02*
X126210000Y-83950000D01*
X126210000Y-80050000D02*
X126210000Y-81160000D01*
X122500000Y-82840000D02*
X122500000Y-83950000D01*
X122500000Y-80050000D02*
X122500000Y-81160000D01*
X126760000Y-82000000D02*
X127260000Y-82250000D01*
X127260000Y-82250000D02*
X127260000Y-81750000D01*
X127260000Y-81750000D02*
X126760000Y-82000000D01*
%TO.C,J2*%
X168270001Y-54750000D02*
X168770001Y-54500000D01*
X168270001Y-54250000D02*
X168270001Y-54750000D01*
X168770001Y-54500000D02*
X168270001Y-54250000D01*
X173030001Y-56450000D02*
X173030001Y-55340000D01*
X173030001Y-53660000D02*
X173030001Y-52550000D01*
X169320001Y-56450000D02*
X169320001Y-55340000D01*
X169320001Y-53660000D02*
X169320001Y-52550000D01*
%TO.C,J3*%
X169320001Y-81160000D02*
X169320001Y-80050000D01*
X169320001Y-83950000D02*
X169320001Y-82840000D01*
X173030001Y-81160000D02*
X173030001Y-80050000D01*
X173030001Y-83950000D02*
X173030001Y-82840000D01*
X168770001Y-82000000D02*
X168270001Y-81750000D01*
X168270001Y-81750000D02*
X168270001Y-82250000D01*
X168270001Y-82250000D02*
X168770001Y-82000000D01*
%TO.C,J4*%
X168270001Y-110750000D02*
X168770001Y-110500000D01*
X168270001Y-110250000D02*
X168270001Y-110750000D01*
X168770001Y-110500000D02*
X168270001Y-110250000D01*
X173030001Y-112450000D02*
X173030001Y-111340000D01*
X173030001Y-109660000D02*
X173030001Y-108550000D01*
X169320001Y-112450000D02*
X169320001Y-111340000D01*
X169320001Y-109660000D02*
X169320001Y-108550000D01*
%TO.C,H4*%
D14*
X160238095Y-111652380D02*
X160238095Y-110652380D01*
X160238095Y-111128571D02*
X160809523Y-111128571D01*
X160809523Y-111652380D02*
X160809523Y-110652380D01*
X161714285Y-110985714D02*
X161714285Y-111652380D01*
X161476190Y-110604761D02*
X161238095Y-111319047D01*
X161857142Y-111319047D01*
%TO.C,H3*%
X127238095Y-111652380D02*
X127238095Y-110652380D01*
X127238095Y-111128571D02*
X127809523Y-111128571D01*
X127809523Y-111652380D02*
X127809523Y-110652380D01*
X128190476Y-110652380D02*
X128809523Y-110652380D01*
X128476190Y-111033333D01*
X128619047Y-111033333D01*
X128714285Y-111080952D01*
X128761904Y-111128571D01*
X128809523Y-111223809D01*
X128809523Y-111461904D01*
X128761904Y-111557142D01*
X128714285Y-111604761D01*
X128619047Y-111652380D01*
X128333333Y-111652380D01*
X128238095Y-111604761D01*
X128190476Y-111557142D01*
%TO.C,H2*%
X160238095Y-43152380D02*
X160238095Y-42152380D01*
X160238095Y-42628571D02*
X160809523Y-42628571D01*
X160809523Y-43152380D02*
X160809523Y-42152380D01*
X161238095Y-42247619D02*
X161285714Y-42200000D01*
X161380952Y-42152380D01*
X161619047Y-42152380D01*
X161714285Y-42200000D01*
X161761904Y-42247619D01*
X161809523Y-42342857D01*
X161809523Y-42438095D01*
X161761904Y-42580952D01*
X161190476Y-43152380D01*
X161809523Y-43152380D01*
%TO.C,H1*%
X127238095Y-43152380D02*
X127238095Y-42152380D01*
X127238095Y-42628571D02*
X127809523Y-42628571D01*
X127809523Y-43152380D02*
X127809523Y-42152380D01*
X128809523Y-43152380D02*
X128238095Y-43152380D01*
X128523809Y-43152380D02*
X128523809Y-42152380D01*
X128428571Y-42295238D01*
X128333333Y-42390476D01*
X128238095Y-42438095D01*
%TO.C,U1*%
X146738095Y-78452380D02*
X146738095Y-79261904D01*
X146785714Y-79357142D01*
X146833333Y-79404761D01*
X146928571Y-79452380D01*
X147119047Y-79452380D01*
X147214285Y-79404761D01*
X147261904Y-79357142D01*
X147309523Y-79261904D01*
X147309523Y-78452380D01*
X148309523Y-79452380D02*
X147738095Y-79452380D01*
X148023809Y-79452380D02*
X148023809Y-78452380D01*
X147928571Y-78595238D01*
X147833333Y-78690476D01*
X147738095Y-78738095D01*
%TO.C,J1*%
X127452380Y-82333333D02*
X128166666Y-82333333D01*
X128309523Y-82380952D01*
X128404761Y-82476190D01*
X128452380Y-82619047D01*
X128452380Y-82714285D01*
X128452380Y-81333333D02*
X128452380Y-81904761D01*
X128452380Y-81619047D02*
X127452380Y-81619047D01*
X127595238Y-81714285D01*
X127690476Y-81809523D01*
X127738095Y-81904761D01*
%TO.C,J2*%
X166982381Y-54833333D02*
X167696667Y-54833333D01*
X167839524Y-54880952D01*
X167934762Y-54976190D01*
X167982381Y-55119047D01*
X167982381Y-55214285D01*
X167077620Y-54404761D02*
X167030001Y-54357142D01*
X166982381Y-54261904D01*
X166982381Y-54023809D01*
X167030001Y-53928571D01*
X167077620Y-53880952D01*
X167172858Y-53833333D01*
X167268096Y-53833333D01*
X167410953Y-53880952D01*
X167982381Y-54452380D01*
X167982381Y-53833333D01*
%TO.C,J3*%
X166982381Y-82333333D02*
X167696667Y-82333333D01*
X167839524Y-82380952D01*
X167934762Y-82476190D01*
X167982381Y-82619047D01*
X167982381Y-82714285D01*
X166982381Y-81952380D02*
X166982381Y-81333333D01*
X167363334Y-81666666D01*
X167363334Y-81523809D01*
X167410953Y-81428571D01*
X167458572Y-81380952D01*
X167553810Y-81333333D01*
X167791905Y-81333333D01*
X167887143Y-81380952D01*
X167934762Y-81428571D01*
X167982381Y-81523809D01*
X167982381Y-81809523D01*
X167934762Y-81904761D01*
X167887143Y-81952380D01*
%TO.C,J4*%
X166982381Y-110833333D02*
X167696667Y-110833333D01*
X167839524Y-110880952D01*
X167934762Y-110976190D01*
X167982381Y-111119047D01*
X167982381Y-111214285D01*
X167315715Y-109928571D02*
X167982381Y-109928571D01*
X166934762Y-110166666D02*
X167649048Y-110404761D01*
X167649048Y-109785714D01*
%TD*%
M02*
