M48
; DRILL file {KiCad (5.1.6)-1} date 10/09/20 05:29:39
; FORMAT={3:3/ absolute / metric / suppress leading zeros}
; #@! TF.CreationDate,2020-10-09T05:29:39-04:00
; #@! TF.GenerationSoftware,Kicad,Pcbnew,(5.1.6)-1
FMAT,2
METRIC,TZ
T1C0.600
T2C0.800
T3C4.300
%
G90
G05
T1
X124775Y-48000
X125720Y-45720
X125720Y-50280
X128000Y-44775
X128000Y-51225
X130280Y-45720
X130280Y-50280
X131225Y-48000
X157775Y-48000
X158720Y-45720
X158720Y-50280
X161000Y-44775
X161000Y-51225
X163280Y-45720
X163280Y-50280
X164225Y-48000
X124775Y-116500
X125720Y-114220
X125720Y-118780
X128000Y-113275
X128000Y-119725
X130280Y-114220
X130280Y-118780
X131225Y-116500
X157775Y-116500
X158720Y-114220
X158720Y-118780
X161000Y-113275
X161000Y-119725
X163280Y-114220
X163280Y-118780
X164225Y-116500
T2
X133000Y-53500
X133000Y-111500
X155000Y-111500
X156000Y-53500
T3
X128000Y-48000
X161000Y-48000
X128000Y-116500
X161000Y-116500
T0
M30
